<svg width="84" height="72" viewBox="0 0 84 72" fill="none" xmlns="http://www.w3.org/2000/svg">
<path fill-rule="evenodd" clip-rule="evenodd" d="M47 12C47 17.0723 43.8529 21.4096 39.4049 23.1658C35.2137 24.9344 32.4556 26.2358 30.4048 27.8277C43.1219 29.9836 51.5329 28.8556 68.7561 24.4436C69.7879 24.1546 70.8759 24 72 24C78.6274 24 84 29.3726 84 36C84 42.6274 78.6274 48 72 48C70.8763 48 69.7886 47.8455 68.7571 47.5567C51.5332 43.1445 43.1221 42.0163 30.4047 44.1723C32.4554 45.764 35.213 47.0653 39.4033 48.8336C43.8522 50.5894 47 54.9271 47 60C47 66.6274 41.6274 72 35 72C29.746 72 25.2806 68.6234 23.6555 63.9219C19.6324 53.1283 18.2105 51.6453 7.59584 47.166C3.14739 45.41 0 41.0726 0 36C0 30.9268 3.14812 26.589 7.59737 24.8334C18.2104 20.3547 19.6325 18.8712 23.6553 8.07864C25.2803 3.37684 29.7458 0 35 0C41.6274 0 47 5.37258 47 12Z" fill="#DEFFFF"/>
</svg>
