<svg width="123" height="111" viewBox="0 0 123 111" fill="none" xmlns="http://www.w3.org/2000/svg">
<g clip-path="url(#clip0_212_34)">
<path d="M70.7002 55.9371C71.9122 64.4952 73.3446 72.0335 74.0057 79.6447C74.8123 86.5359 74.923 93.4897 74.3362 100.403C73.418 108.451 68.9006 111.109 60.7472 110.417C58.7669 110.277 56.7766 110.412 54.834 110.818C53.0169 111.277 51.0939 111.074 49.4153 110.245C47.7368 109.416 46.4144 108.017 45.6889 106.302C43.3761 101.782 42.1208 96.8029 42.0162 91.7353C42.7507 81.065 44.9544 70.4676 46.4969 59.8701C46.8642 57.4302 47.0846 54.9903 47.3049 52.8416C42.0478 54.674 36.6738 56.1582 31.2183 57.2845C26.0326 58.1827 20.6954 57.5661 15.8568 55.5099C11.0182 53.4537 6.88701 50.0466 3.96654 45.7038C-3.37893 35.7618 0.0734194 19.5197 10.9447 10.4518C15.7 6.68743 21.7141 4.84347 27.7823 5.28917C33.8505 5.73487 39.5248 8.43735 43.6688 12.8554C45.1012 14.2392 46.4234 15.7323 47.8558 17.2618C52.8875 3.42325 57.7722 -1.20172 65.889 0.109303C73.2344 1.27466 75.8788 5.93604 75.842 17.4803C77.2744 16.4971 78.5966 15.6595 79.8821 14.749C89.0639 8.33958 98.8334 5.79038 109.264 11.5807C118.813 16.9341 124.726 30.6999 122.963 41.8072C119.694 62.1645 100.927 71.5965 81.902 62.3465C78.2293 60.817 75.1443 58.632 70.7002 55.9371ZM75.6217 26.5483L76.3929 27.4223C79.1108 25.8199 81.7184 23.999 84.5464 22.6152C87.4823 21.0525 90.8171 20.3816 94.135 20.686C97.4529 20.9903 100.607 22.2566 103.204 24.3268C105.191 25.602 106.784 27.3981 107.805 29.5158C108.826 31.6335 109.235 33.9901 108.988 36.3245C108.741 38.6589 107.846 40.8798 106.404 42.7411C104.962 44.6023 103.028 46.0311 100.817 46.8691C96.7438 48.4796 92.273 48.8226 87.9988 47.8525C83.5105 46.4364 78.6505 46.7351 74.373 48.69C79.6021 54.8398 87.0216 58.753 95.0872 59.6152C109.484 60.0522 119.401 46.1408 115.287 31.2825C112.055 19.7018 104.085 13.5109 94.169 15.2589C86.9207 16.9409 80.415 20.9009 75.6217 26.5483ZM45.9827 28.1507C44.3087 22.744 40.7899 18.0833 36.0296 14.9676C26.4805 8.88594 16.8212 11.0709 10.651 20.6851C3.92984 31.1004 5.58255 41.2973 14.9848 47.4518C19.4506 50.1557 24.6593 51.4028 29.8775 51.0173C35.0956 50.6319 40.0604 48.6334 44.0729 45.3032C42.8242 42.7176 41.1346 42.3899 38.1597 42.8269C33.3039 43.7171 28.3246 43.7171 23.4688 42.8269C21.6976 42.2855 20.0557 41.3934 18.6424 40.2046C17.229 39.0158 16.0736 37.555 15.2461 35.9106C14.4187 34.2662 13.9363 32.4724 13.8283 30.6378C13.7202 28.8032 13.9887 26.966 14.6175 25.2372C15.7682 22.1318 18.0667 19.5764 21.0469 18.0887C24.0271 16.601 27.4663 16.2924 30.6674 17.2255C36.9581 18.8666 42.4136 22.7583 45.9827 28.1507ZM61.2245 52.6959C62.0282 50.693 62.643 48.6204 63.0609 46.5049C64.0158 38.8209 64.1627 38.7117 71.6551 40.8603C73.321 41.0573 75.0081 40.9835 76.6501 40.6418C76.5206 38.7361 76.1124 36.8592 75.4381 35.07C75.0116 34.4006 74.4477 33.8278 73.7833 33.3886C73.1189 32.9494 72.3688 32.6537 71.5817 32.5207C70.5949 32.6182 69.5989 32.48 68.6771 32.1174C67.7554 31.7548 66.9347 31.1784 66.2837 30.4367C65.6328 29.6949 65.1705 28.8093 64.9357 27.854C64.7009 26.8986 64.7003 25.9015 64.934 24.9459C64.934 23.9263 63.9056 22.0326 63.0976 21.8869C62.4194 21.823 61.7355 21.9146 61.0986 22.1545C60.4618 22.3945 59.8892 22.7764 59.4249 23.2708C58.1433 25.5119 57.3431 27.9917 57.0744 30.5542C56.7439 34.196 55.4951 36.3081 51.4184 36.0532C49.9374 36.0992 48.4629 36.2698 47.011 36.5631L46.6437 38.0925C48.1681 39.0718 49.7784 39.9128 51.455 40.6054C54.283 41.4429 57.0009 42.8269 55.7889 45.9224C53.8424 50.8751 56.303 51.9312 61.2245 52.6959ZM57.7721 83.6871C57.7721 95.8505 58.6169 99.2008 61.6286 102.296C64.0159 104.736 66.2195 104.591 67.1377 101.349C68.3582 97.6395 68.881 93.7389 68.6802 89.8416C67.7987 80.7737 66.2562 71.633 64.7504 62.7471C64.5668 61.5818 63.1344 60.5985 62.2896 59.5059C61.4082 60.6349 59.9391 61.691 59.7922 62.8927C58.874 70.7953 58.3965 78.7343 57.7721 83.6507V83.6871ZM81.6083 31.8288C82.7468 34.7421 83.0774 38.8937 85.0607 39.9134C88.628 41.4575 92.5377 42.0598 96.4094 41.6615C97.1934 41.667 97.9704 41.5148 98.6935 41.2143C99.4166 40.9137 100.071 40.471 100.617 39.9129C101.162 39.3547 101.588 38.6926 101.869 37.9666C102.15 37.2407 102.279 36.4659 102.249 35.689C101.85 32.933 100.405 30.432 98.209 28.6969C93.2875 25.128 88.7334 26.2205 81.6083 31.8288ZM26.1499 23.0522C24.8781 23.045 23.6433 23.4774 22.6581 24.2749C21.6728 25.0724 20.9985 26.1853 20.751 27.4223C20.1722 29.0932 20.2256 30.9157 20.9013 32.5504C21.577 34.1851 22.8288 35.5206 24.4237 36.3081C29.3452 38.8938 34.1932 37.4006 38.8576 35.689C39.3861 35.1988 39.7836 34.5861 40.0144 33.906C40.2451 33.2259 40.302 32.4997 40.1798 31.7924C38.8943 27.4952 32.2467 23.1978 26.1499 23.0522ZM53.2547 103.971C48.774 89.4045 53.2548 74.6556 52.814 60.0158C50.6831 70.6541 49.1504 81.4017 48.2231 92.2087C47.8703 94.4397 48.1546 96.7241 49.0439 98.8031C49.9332 100.882 51.3919 102.672 53.2547 103.971Z" fill="#FF7596"/>
<path d="M75.6217 26.5482C80.3987 20.8603 86.9063 16.8609 94.169 15.1496C104.085 13.4016 112.055 19.5925 115.287 31.1732C119.401 46.0315 109.484 59.9429 95.0872 59.5059C87.0216 58.6437 79.6021 54.7304 74.373 48.5807C78.6505 46.6258 83.5105 46.3271 87.9988 47.7431C92.273 48.7133 96.7438 48.3702 100.817 46.7598C103.028 45.9217 104.962 44.493 106.404 42.6317C107.846 40.7705 108.741 38.5495 108.988 36.2151C109.235 33.8807 108.826 31.5241 107.805 29.4064C106.784 27.2887 105.191 25.4927 103.204 24.2175C100.607 22.1472 97.4529 20.881 94.135 20.5766C90.8171 20.2722 87.4823 20.9432 84.5464 22.5058C81.7184 23.8897 79.1108 25.7106 76.3929 27.313L75.6217 26.5482Z" fill="#FFDCE9" stroke="#FFDCE9" stroke-width="3"/>
<path d="M45.9827 28.1506C42.4137 22.7583 36.9582 18.8665 30.6675 17.2254C27.4663 16.2923 24.0272 16.6009 21.0469 18.0886C18.0667 19.5763 15.7682 22.1317 14.6175 25.2371C13.9887 26.9659 13.7203 28.8031 13.8283 30.6377C13.9364 32.4723 14.4187 34.2661 15.2462 35.9105C16.0737 37.5549 17.2291 39.0157 18.6424 40.2045C20.0558 41.3933 21.6977 42.2854 23.4688 42.8268C28.3246 43.717 33.3039 43.717 38.1598 42.8268C41.1347 42.3898 42.8242 42.8267 44.0729 45.3031C40.0604 48.6333 35.0956 50.6318 29.8775 51.0172C24.6594 51.4027 19.4507 50.1557 14.9848 47.4517C5.58259 41.2972 3.96662 31.1003 10.651 20.685C16.8212 11.0708 26.4805 8.88585 36.0296 14.9675C40.79 18.0832 44.3088 22.7439 45.9827 28.1506Z" fill="#FFDCE9" stroke="#FFDCE9" stroke-width="3"/>
<path d="M61.2245 52.6958C56.303 51.9311 53.879 50.7657 55.7154 45.8129C56.9274 42.7174 54.2096 41.3336 51.3816 40.496C49.7049 39.8035 48.0947 38.9624 46.5703 37.9832L46.9376 36.4537C48.3895 36.1605 49.8638 35.9899 51.3448 35.9439C55.4216 36.1988 56.6703 34.1595 57.0009 30.4449C57.2695 27.8824 58.0699 25.4026 59.3515 23.1614C59.8157 22.6671 60.3884 22.2851 61.0252 22.0452C61.662 21.8052 62.346 21.7137 63.0242 21.7776C63.8322 21.7776 64.934 23.8169 64.8606 24.8366C64.6269 25.7922 64.6274 26.7893 64.8623 27.7446C65.0971 28.6999 65.5593 29.5856 66.2103 30.3273C66.8613 31.0691 67.682 31.6453 68.6037 32.0079C69.5255 32.3705 70.5215 32.5089 71.5082 32.4114C72.2954 32.5443 73.0455 32.8401 73.7099 33.2792C74.3743 33.7184 74.938 34.2913 75.3646 34.9606C76.0388 36.7498 76.4472 38.6268 76.5766 40.5325C74.9347 40.8742 73.2475 40.9479 71.5816 40.751C64.2362 38.6023 63.9424 38.7116 62.9875 46.3956C62.6 48.5458 62.0097 50.6551 61.2245 52.6958Z" fill="#FFDCE9" stroke="#FFDCE9" stroke-width="3"/>
<path d="M57.7721 83.6506C58.2496 78.6979 58.874 70.7589 59.7922 62.8564C59.7922 61.6546 61.4081 60.5984 62.2896 59.4695C63.1343 60.562 64.5667 61.5453 64.7504 62.7107C66.2562 71.7058 67.7987 80.7373 68.6801 89.8052C68.8809 93.7024 68.3581 97.6031 67.1376 101.313C66.2195 104.554 64.0158 104.7 61.6285 102.26C58.6169 99.2008 57.7721 95.8504 57.7721 83.6506Z" fill="#FFDCE9" stroke="#FFDCE9" stroke-width="3"/>
<path d="M53.2547 103.971C51.3918 102.672 49.9331 100.882 49.0438 98.803C48.1545 96.724 47.8702 94.4396 48.223 92.2086C49.1504 81.4016 50.683 70.654 52.814 60.0157C53.1812 74.6555 48.7739 89.2588 53.2547 103.971Z" fill="#FFDCE9" stroke="#FFDCE9" stroke-width="3"/>
</g>
<defs>
<clipPath id="clip0_212_34">
<rect width="123" height="111" fill="white"/>
</clipPath>
</defs>
</svg>
