<?xml version="1.0" encoding="utf-8"?>
<!-- Generator: Adobe Illustrator 26.0.3, SVG Export Plug-In . SVG Version: 6.00 Build 0)  -->
<svg version="1.1" id="Layer_1" xmlns="http://www.w3.org/2000/svg" xmlns:xlink="http://www.w3.org/1999/xlink" x="0px" y="0px"
	 viewBox="0 0 522 790" style="enable-background:new 0 0 522 790;" xml:space="preserve">
<style type="text/css">
	.st0{fill:#FF7596;}
	.st1{fill:#FFFFFF;}
	.st2{fill:#DEFFFF;}
	.st3{fill:#FFDCE9;}
</style>
<path class="st0" d="M521.4,719.4c-1.4-7.9-4.1-15.5-8.1-22.5c-8.8-17.6-23.7-29.5-37.2-42.8c-0.2-0.2-0.4-0.3-0.6-0.4
	c-2-0.8-2.2-1.9-1.4-4c2.1-5.7,4-11.6,5.9-17.5c5.1-16.1,8.6-33,12.9-49.4c8.9-32.7,13.6-66.4,14-100.2c0.1-19.4-0.9-38.7-2-58
	c-1.1-22.6-4.3-45-9.3-67c-6.6-28.1-18.3-54.2-31.2-79.8c-1.3-2.2-2-4.8-2-7.3c-0.1-2.6,0.5-5.1,1.6-7.4c0.7-1.4,1.5-2.8,2.4-4.1
	c17.4-27.3,25.3-59.7,22.5-92c-1.8-20.4-8.1-40.2-18.4-57.9c-1.6-2.7-2.5-5.7-2.6-8.8c-0.2-18.2-3.3-36.2-9.4-53.3
	c-5-13.6-11.2-26.5-21.7-36.9c-3.2-3.4-7.1-6.1-11.4-7.8c-4.3-1.7-9-2.5-13.7-2.1c-5.5,0.4-11,1.6-16.3,3.4
	c-15.9,5.1-30.1,13.7-44.1,22.5c-1.6,1.3-3.7,1.8-5.7,1.6c-47.9-7.3-96.7,2.9-137.7,28.7c-2,1.5-4.4,2.5-6.9,2.9
	c-2.5,0.4-5,0.2-7.4-0.5c-15.7-3.8-31.6-5.6-47.7-1.9C134,59.4,125.5,65.6,121,77c-2.8,7.2-4.5,14.8-5.3,22.5c-1.3,14-1,28.1,0.8,42
	c1.4,16.4,5.5,32.5,12.1,47.6c0.6,1.2,0.8,2.5,0.8,3.8c0.1,23.6,6.4,46.7,18.1,67.1c1.4,2.2,2.1,4.7,2.1,7.3c0,2.6-0.7,5.1-2.1,7.3
	c-4.1,7.1-7.9,14.3-12.1,21.2c-13.7,22.1-22.8,46.6-26.8,72.3c-0.4,2.5-0.3,5.1-3.9,5.1c-0.5,0-1,0.7-1.4,1.2
	C94,386,83.7,397.1,75.2,409.6c-21.6,31.5-37,65.9-49.3,101.8c-11,32-18.9,65-23.5,98.6c-2.7,18-3.1,36.3-1.1,54.5
	c3.9,31.7,12.7,62.7,26.1,91.7c8.6,19,20.1,35.8,37,48.4c28.3,21,57.8,39.7,91.9,49.8c42.8,12.8,87.2,19,131.9,18.7
	c16.6,0.1,33.1-0.8,49.6-2.5c27.3-2.8,54.1-9,79.9-18.4c26-10,50.6-22.2,71-41.9c12.6-11.7,22-26.5,27.2-42.9
	C521,751.9,522.8,735.6,521.4,719.4z M297.4,186c-2,10.6-8.8,18.3-12,20.8l-18.3,8.2c-6.9-1.3-21.6-4-24.6-5
	c-3.8-1.3-10.7-7.6-15.1-15.8s-5.9-13.5-6.9-17.7l4.4-17l24.6-17h20.2l22.7,15.8C294.9,163.1,299.4,175.4,297.4,186z M416.1,142.8
	c-0.6,16.1-4.4,25.6-7.1,33.3l-3,4.2l-15.5,11.9h-17.8c-1.6-1.8-5.9-4.8-9.5-11.9c-3.6-7.1-4.8-17.2-4.8-22.6l4.8-16.1l9.5-20.2
	l26.8-5.9l14.3,8.3C414.1,126.7,416.7,126.7,416.1,142.8z"/>
<path class="st1" d="M514.6,713.6c-0.3-2.1-1-4.2-2.1-6.1c-2.6-3.7-4.7-7.6-6.2-11.8c-1.8-4.5-4.7-8.5-8.4-11.7
	c-5.1-4.4-9.8-9.4-14-14.7c-4.4-5.7-10-10.2-16.5-13.3c-20.6-10-44.1-11.9-66-5.3c-31,8.8-60.1,23.4-85.7,42.9
	c-19.3,14.4-38.7,29-60.7,39.3c-39.1,18.5-79.9,29.7-123.7,25.2c-13.7-1.2-26.9-5.3-38.8-12.1c-1.5-0.9-3.7-1.6-2.5-4.1
	c1.3-2.5,3.2-1.2,5-0.3c7.6,4.2,15.9,7.3,24.4,9.1c19.7,3.8,40,4,59.8,0.6c22.4-3.7,44.3-10.3,65-19.6c0.8-0.4,1.8-0.6,1.9-1.8
	c1.3-7.6,2-15.3,2-23.1c-1.2-14.9-3.5-29.7-7-44.3c-6.1-28.3-19.2-54.5-38.2-76.3c-12.4-13.6-26.7-25.3-42.5-34.8
	c-4.8-3-9.6-6.1-14.5-9.1c-1.3-0.8-2.3-2-1.5-3.5c0.8-1.6,2.4-1.5,3.8-0.8c1.6,0.8,3.2,1.6,4.8,2.6c5.8,3.6,11.5,7.2,17.1,10.9
	c16.3,10.2,30.8,23.1,42.9,38.1c18.2,23.7,30.3,51.4,35.3,80.9c2.9,15.9,6.6,31.8,4.5,48.1c-0.4,3-0.6,5.9-0.9,9.4
	c2-1,3.7-1.7,5.3-2.5c14-7.4,27.4-16,40-25.5c15.2-11.2,30-22.8,46.8-31.7c1.5-0.6,2.8-1.7,3.6-3.1c0.8-1.4,1.1-3.1,0.9-4.7
	c-0.3-13.9,0.1-27.8-0.3-41.7c0.2-9.6-0.1-19.1-1-28.6c-1.4-9.9-5.5-13.9-15.1-15.3c-2.6-0.4-5.2-1-7.8-1.8c-1.5-0.3-2.8-1.2-2.3-3
	c0.5-1.8,2.1-1.8,3.5-1.6c0.7,0.1,1.4,0.3,2.1,0.5c3.9,0.9,7.8,1.5,11.8,1.6c12.2-0.3,24.3-2.6,35.8-6.8c2.3-0.8,5.2-3,6.6,0.3
	c1.5,3.3-2.2,4-4.3,5.1c-16.3,8.7-25,21.8-24.5,40.7c0.4,13.9,0.5,27.8,0.8,41.7c0,3.7,0,7.4,0,11.5l4.2-1.9
	c12.6-6.1,25.7-11.3,39-15.4c21.9-6.8,45.4-6,66.8,2.1c5.1,1.9,5,2,6.7-3.4c6.2-20.1,11.1-40.5,16.3-60.9
	c7.5-28,12.1-56.6,13.6-85.5c1.3-31.3,0.2-62.7-3-93.8c-2.8-31-10.5-61.3-22.7-90c-4.8-10.9-8.4-22.4-16.2-31.8
	c-3.5-4.3-6.5-4.1-10-0.3c-3.5,3.8-7.2,7.5-10.9,11.1c-0.2,0.3-0.5,0.5-0.8,0.7c-0.3,0.2-0.7,0.3-1.1,0.3c-0.4,0-0.7,0-1.1-0.2
	c-0.3-0.1-0.7-0.3-0.9-0.6c-1.1-1.1-0.6-2.5,0.3-3.6c1.6-1.9,3.3-3.8,5.1-5.7c10-10.2,18.7-21.7,25.6-34.2
	c25-46.8,25.6-93.5-0.6-140c-3.7-6.4-7.9-12.5-12.7-18.2c-1.5-1.8-3.2-3.5-0.7-5.7s3.5,0.6,4.8,2c1.9,2.1,3.6,4.4,5.6,6.9
	c0.1-0.5,0.3-1,0.3-1.5c0-1.3,0-2.9,0-4.4c-1.3-17.8-5.8-35.2-13.1-51.4c-4.1-9.8-10.2-18.5-17.9-25.7c-2.7-2.6-6-4.6-9.6-5.7
	c-3.6-1.1-7.4-1.4-11.1-0.9c-19.9,3.2-36.9,12.9-53.8,23.3c0.9,0.7,1.9,1.1,3,1.2c5.7,1.5,11.4,3.1,17.1,4.8c1.8,0.5,3.4,1.8,2.7,4
	c-0.7,2.1-2.6,1.7-4.3,1.2c-1.8-0.5-3.5-1.1-5.2-1.6c-28-8.3-57.6-10-86.4-5.1c-36.9,5.7-71.3,22.4-98.7,47.8
	c-0.5,0.5-1.1,0.9-1.7,1.3c-0.5,0.3-1,0.4-1.5,0.4c-0.5,0-1.1-0.3-1.5-0.6c-1.1-1-0.6-2.1-0.2-3c1.1-1.9,2.5-3.5,4.3-4.9
	c3.6-3.1,7.3-6.2,11.1-9.4c-2-1-4.2-1.6-6.5-1.9c-14.2-2.7-28.4-4.2-42.7-0.6c-4.6,1-8.9,3.2-12.4,6.4s-6.1,7.2-7.6,11.8
	c-3.3,9.8-5,20.1-5,30.5c-0.2,15,1,30,3.7,44.7c1.1,7.3,3,14.5,5.6,21.4c0.8-5,1.4-9,2.1-13c0.5-2.7,1.1-5.4,1.8-8.1
	c0.5-1.8,1.5-3.2,3.6-2.8c2,0.5,1.9,2.5,1.6,3.8c-0.2,1.3-0.5,2.6-0.8,3.9c-3.7,16.8-4.2,34.2-1.4,51.1c6,34.8,23.2,63.2,49.7,86.1
	c1.8,1.4,3.6,2.9,5.3,4.4c0.6,0.5,0.9,1.3,1,2.1c0,0.8-0.2,1.6-0.8,2.2c-1,1.4-2.4,0.8-3.5,0c-0.7-0.5-1.4-1-2-1.5
	c-7.8-6.3-15-13.3-21.6-20.9c-0.9-1.1-2-2-3.3-2.6c-1.3-0.6-2.7-0.9-4.1-1c-1.4,0-2.8,0.3-4.1,0.9c-1.3,0.6-2.4,1.5-3.4,2.5
	c-3.9,4.7-7.3,9.9-10.1,15.4c-17.9,29.2-26.3,61.4-28.5,95.2c-2.1,24.3,0.6,48.8,7.8,72c0.2,0.6,0.4,1.1,0.5,1.7
	c0.2,0.6,0.1,1.3-0.2,1.8c-0.3,0.6-0.8,1-1.4,1.2c-0.5,0.2-1.1,0.3-1.7,0.1c-0.6-0.2-1-0.5-1.3-1c-1-1.3-1.6-2.7-2-4.2
	c-5.1-17.5-7.7-35.7-7.8-54c-0.1-11,0.6-22,2-32.9c-0.4,0.2-0.9,0.4-1.2,0.7c-22.2,24.2-40.4,51.7-54.1,81.5
	c-19.4,41.7-33.2,85.7-41.2,131c-3.9,21.8-7.2,43.5-4.6,65.8c3.7,31.5,12,62.2,24.6,91.3c9.2,21.2,21.5,39.6,40.8,53.3
	c22.8,15.9,46,31.4,72.3,41c39.9,14.2,81.8,21.9,124.1,23.1c24.8,1.3,49.6,0.4,74.2-2.6c27.9-3.8,55.2-9.6,81.2-20.5
	c18.9-7.9,37.1-16.8,53.1-30c17.3-14.4,30.6-31.2,35.9-53.5C515.9,745.3,518.5,729.6,514.6,713.6z M367,143.5l8-17l22.5-5l12,7
	c0.3,2.5,2.5,2.5,2,16s-3.7,21.5-6,28L403,176l-13,10h-15c-1.3-1.5-5-4-8-10s-4-14.5-4-19L367,143.5z M232,163.5l19.5-13.5h16
	l18,12.5c2,3.8,5.6,13.6,4,22c-1.6,8.4-7,14.5-9.5,16.5l-14.5,6.5c-5.5-1-17.1-3.2-19.5-4c-3-1-8.5-6-12-12.5s-4.7-10.7-5.5-14
	L232,163.5z"/>
<path class="st0" d="M409.4,323.8c-1.2,14.2-4,28.2-8.5,41.8c-3,9.9-10.4,13.9-20.6,11.8c-8.3-1.6-16.1-5.4-22.5-11
	c-1.2-1.1-2.5-1.9-4-2.3c-1.5-0.5-3.1-0.6-4.6-0.4c-4.5,0.7-9.2,0.6-13.7-0.3c-3.3-0.5-6.6,0.3-9.4,2.1c-5.8,3.5-11.3,7.5-16.3,12.1
	c-4.6,3.9-10,6.8-15.8,8.5c-4.9,1.2-9.9,0.8-13-3.3c-8.1-10.9-17.3-21.2-20.8-34.9c-1.4-5.1-1.6-10.5-0.5-15.7
	c1-5.2,3.3-10.1,6.6-14.2c4.9-6.5,12.1-8.3,19.7-7.9c12.9,0.8,25.2,5.3,35.6,13c1.1,0.9,2.5,1.5,3.9,1.7c1.4,0.2,2.9-0.1,4.2-0.7
	c3.9-1.9,8.3-2.2,12.4-1c1.9,0.6,3.9,0.7,5.8,0.2c1.9-0.5,3.7-1.4,5.1-2.8c8.3-6.1,16.4-12.7,26.1-16.9c5.1-2.3,10.6-3.5,16.1-3.5
	c2.9-0.1,5.8,0.8,8.2,2.6s4,4.3,4.7,7.2C409.1,314.4,409.6,319.1,409.4,323.8z"/>
<path class="st0" d="M350.9,217.4c-5.1,0-10-1.4-14.3-4.1c-0.9-0.6-1.9-1-2.9-1.1c-1-0.2-2.1-0.1-3.1,0.2s-1.9,0.8-2.7,1.5
	c-0.8,0.7-1.4,1.5-1.9,2.5c-3.6,6.2-7.5,12.1-14.4,15.1c-2.2,1-4.7,1.4-7.1,1.1c-0.9,0-1.7-0.3-2.4-0.9c-0.6-0.6-1.1-1.4-1.1-2.3
	c-0.1-0.9,0.1-1.7,0.6-2.5c0.5-0.7,1.3-1.2,2.1-1.4c1.4-0.4,2.8-0.5,4.3-0.4c1.7,0.2,3.4-0.1,4.9-0.8c1.5-0.7,2.8-1.9,3.7-3.3
	c3-4.2,5.5-8.5,8.4-12.7c0.9-1.4,0-2.2-0.5-3.3c-2.9-4.6-6.8-8.5-11.5-11.3c-1.7-1.2-3.3-2.5-4.8-3.8c-1.3-1.1-2.4-2.7-1.1-4.4
	c1.3-1.7,3-0.9,4.5,0c2.3,1.1,4.5,2.3,6.9,3.2c2.4,1.1,5.2,1.4,7.8,0.9c2.6-0.5,5.1-1.8,6.9-3.7c1.8-1.6,3.5-3.4,5.2-5
	c0.5-0.7,1.3-1.2,2.1-1.4c0.8-0.2,1.7-0.1,2.5,0.3c1.9,1.2,1.6,3,0.9,4.9c-1.3,3-2.7,5.7-4.1,8.4c-1.8,3.5-3.7,7.1-5.5,10.6
	c-0.8,1.6-0.6,2.6,1.1,3.4c2.5,1.1,4.9,2.6,7.4,3.8c1.5,0.8,3.1,1.3,4.8,1.4c1.7,0,3.4-0.3,4.9-1.1c0.9-0.4,1.8-0.7,2.8-0.8
	c0.4-0.1,0.8-0.2,1.3-0.2c0.4,0,0.8,0.1,1.2,0.3c0.4,0.2,0.7,0.5,1,0.8c0.3,0.3,0.5,0.7,0.6,1.1c0.2,0.4,0.2,0.9,0.2,1.3
	c0,0.5-0.1,0.9-0.3,1.3c-0.2,0.4-0.5,0.8-0.8,1.1c-0.3,0.3-0.7,0.5-1.2,0.7C355.3,217.4,353.1,217.6,350.9,217.4z"/>
<path class="st0" d="M259.3,143.7c6.3,0.3,12.4,2.2,17.7,5.7c0.3,0.2,0.8,0.4,0.9,0.6c1.1,5.2,6.5,6.7,9.1,10.5
	c0.4,0.4,0.7,0.9,0.9,1.4c0.2,0.5,0.2,1.1,0.2,1.6c-0.1,0.4-0.3,0.8-0.5,1.1c-0.3,0.3-0.7,0.5-1.1,0.7c-1.4,0.4-2.2-0.4-3-1.3
	c-3.1-3.4-6.9-6.1-11.1-7.9s-8.8-2.7-13.4-2.5c-4.2-0.1-8.4,0.9-12.2,2.8c-3.8,1.9-7.1,4.7-9.6,8.1c-2.6,3.3-4.9,6.9-6.8,10.7
	c-0.8,1.5-1.9,3-4,2.3c-2.1-0.7-1.9-2.5-1.2-4.2c0-0.3,0.4-0.8,0.3-1c-3.4-4.4,0.6-7,2.6-9.7c6.5-8.8,14.4-16,25.7-18.2
	C255.5,144,257.4,143.9,259.3,143.7z"/>
<path class="st0" d="M390.7,116.6c8-1,13.5,4,19.4,8c0.4,0.2,0.7,0.5,1,0.8c0.3,0.3,0.4,0.8,0.5,1.2c0.1,0.4,0.1,0.9-0.1,1.3
	c-0.1,0.4-0.3,0.8-0.6,1.1c-1.3,1.5-2.7,0.9-4.2,0c-3.9-3.1-8.9-4.6-13.8-4.4c-5,0.2-9.7,2.3-13.4,5.7c-7.6,6.6-12.8,15.6-14.8,25.6
	c-0.3,1.5-0.3,3.3-2.4,3.5c-2.1,0.2-2-1.8-3-2.9c-3.7-4.1-1.2-8,0-11.7c3.6-11.2,9.9-20.4,20.9-25.6
	C383.4,117.5,387,116.6,390.7,116.6z"/>
<path class="st0" d="M417.1,23c2.9,0.2,5.7,1.1,8.2,2.6c2.5,1.5,4.5,3.7,6,6.2c4.2,7.1,6.9,14.9,7.9,23.1c0.3,1.1,0.2,2.3-0.2,3.4
	s-1,2.1-1.9,2.8c-0.9,0.8-2,1.2-3.1,1.4c-1.1,0.2-2.3,0-3.4-0.4c-9.1-3.2-17.5-8.4-24.5-15.1c-3.9-3.8-6-8.5-3.4-14.1
	c1.3-2.8,3.4-5.1,5.9-6.9C411.1,24.3,414.1,23.3,417.1,23z"/>
<path class="st0" d="M150.9,90.2c2.1-0.1,4.1,0.3,6,0.9c1.5,0.3,3,0.9,4.2,1.9c1.2,0.9,2.2,2.2,2.9,3.5c0.7,1.4,1,2.9,1,4.5
	c0,1.6-0.4,3.1-1.1,4.5c-0.5,1.4-1.1,2.7-1.9,3.9c-4.5,6.7-9.1,13.4-13.8,19.9c-4,5.4-8.4,4.7-11-1.5c-2.7-6.3-4.2-13.1-4.3-20
	C133,96,138.9,90.1,150.9,90.2z"/>
<path class="st0" d="M383.2,190.9c-3.2,1.2-5.8-2.2-9.2-2.7c-0.3-0.1-0.5-0.2-0.7-0.4c-0.2-0.2-0.4-0.4-0.5-0.7
	c-0.1-0.3-0.2-0.5-0.2-0.8c0-0.3,0.1-0.6,0.2-0.8c0.2-0.6,0.6-1.1,1.1-1.4c0.5-0.3,1.1-0.4,1.8-0.4c4.9,0.9,10,0.4,14.7-1.5
	c4.7-1.9,8.7-5.1,11.6-9.2c1.5-1.6,3-4.9,5.7-2.5c2.7,2.5-0.3,4.3-1.8,6.1c-1,1.2-2.2,2.1-1.8,4c0.3,1.1-0.7,2-1.6,2.7
	C397.2,188.1,390.3,190.8,383.2,190.9z"/>
<path class="st0" d="M260.5,213.1c-2.5-0.2-5.4,0.7-5.1-3.4c0-1.1-1.2-0.9-2-1.1c-1.9-0.4-3.8-0.7-5.7-1.1c-1.8-0.5-3.4-1.3-2.8-3.5
	c0.6-2.2,2.2-1.9,3.9-1.5c3.6,0.8,7.3,1.4,11,1.7c5.9,0.5,11.9-0.8,17-3.8c1.5-0.9,3-1.7,4.4,0.2c1.4,1.9-0.2,2.9-1.5,3.9
	c-0.5,0.4-1.2,0.8-1.2,1.2c0.3,4.4-3.2,4.5-6,5.4C268.7,212.3,264.6,212.9,260.5,213.1z"/>
<path class="st0" d="M263.9,128.1c-3.1-0.1-6-1.4-8.2-3.5c-2.2-2.2-3.5-5.1-3.7-8.2c-0.1-0.9,0.1-1.9,0.4-2.8
	c0.3-0.9,0.8-1.7,1.5-2.4c0.7-0.7,1.5-1.2,2.3-1.5s1.8-0.5,2.8-0.4c3.2,0.1,6.2,1.4,8.5,3.6s3.8,5.1,4.1,8.2c0,1-0.2,1.9-0.6,2.8
	c-0.4,0.9-1,1.7-1.7,2.3c-0.7,0.7-1.6,1.2-2.5,1.5C265.9,128.1,264.9,128.2,263.9,128.1z"/>
<path class="st0" d="M363,90.2c1.1-0.1,2.2,0.1,3.2,0.6c1,0.5,1.9,1.2,2.5,2.1c0.6,0.9,1.1,1.9,1.2,3c0.1,1.1,0,2.2-0.4,3.2
	c-0.7,2.2-2,4.2-3.6,5.7c-1.7,1.6-3.7,2.7-5.9,3.3c-0.9,0.4-1.8,0.5-2.8,0.4c-0.9-0.1-1.9-0.4-2.6-1c-0.8-0.5-1.4-1.3-1.9-2.1
	c-0.4-0.8-0.7-1.8-0.6-2.7c-0.2-3.1,0.9-6.2,2.9-8.5C356.9,91.8,359.8,90.4,363,90.2z"/>
<path class="st2" d="M286.3,315.3c11.7,1,22.9,5.2,32.5,12.1c1,0.5,1.7,1.4,2.2,2.4c0.4,1,0.6,2.1,0.3,3.2c-2,7.2-0.2,13.9,2.1,20.6
	c0.6,1.2,0.8,2.5,0.5,3.8c-0.3,1.3-1,2.5-2,3.3c-8.3,6.4-15.7,14.1-25.3,18.7c-6.8,3.2-10.4,2.3-14.5-3.9c-4.5-7-9.7-13.6-13.6-20.9
	c-2.4-4.2-3.7-8.9-3.9-13.7c-0.2-4.8,0.7-9.6,2.7-13.9C270.7,318.7,276.2,315.1,286.3,315.3z"/>
<path class="st2" d="M403.9,322.2c-0.3,14.1-4.3,27.4-7.9,40.8c-2.2,8.2-6.8,10.6-15.1,8.8c-8-1.7-15.3-5.6-21.2-11.2
	c-0.8-0.6-1.4-1.3-1.8-2.2c-0.4-0.9-0.6-1.8-0.6-2.8c0.6-7.5-1.6-14.6-3.6-21.7c-1.5-5.4-1.1-7.1,3.6-10.4c6.7-5.3,14-10,21.5-14
	c4.4-2.3,9.2-3.6,14.2-4.1c6-0.3,8.8,1.7,10.3,7.4C403.9,315.9,404.1,319.1,403.9,322.2z"/>
<path class="st2" d="M342.8,358.8c-3.1,0-6.2-0.7-9.1-1.9c-1.6-0.6-3.1-1.6-4.2-3c-1.1-1.4-1.8-3-2-4.7c-0.9-3.6-1.4-7.3-1.5-11.1
	c0-1.5,0.3-2.9,1-4.3c0.6-1.3,1.5-2.5,2.6-3.5c1.1-1,2.4-1.7,3.9-2.1c1.4-0.4,2.9-0.5,4.4-0.3c7.9,0.8,9.5,2.1,11.5,9.9
	c1,3.6,1.7,7.3,2.3,11C352.8,356.5,350.9,358.8,342.8,358.8z"/>
<path class="st3" d="M333.3,193.1l-4.2,8.2l-4.7-6.1C327.4,194.4,330.3,194,333.3,193.1z"/>
<path class="st3" d="M416.9,28.4c1.7,0.1,3.4,0.5,4.9,1.3c1.5,0.8,2.8,1.9,3.9,3.3c5,6.2,6.7,13.8,8.4,21.3c0.5,2.2-1,3.3-3,2.3
	c-7.7-3.3-14.7-7.7-21-13.2c-1.3-0.9-2.2-2.2-2.6-3.7c-0.4-1.5-0.3-3.1,0.4-4.5c0.8-1.8,2-3.4,3.6-4.6
	C413.1,29.4,415,28.7,416.9,28.4z"/>
<path class="st3" d="M138.3,108.3c0-4.6,0-8.7,4.3-10.9c2.2-1.3,4.7-2,7.2-2c2.5,0,5.1,0.6,7.3,1.7c1,0.4,1.7,1.2,2.1,2.1
	c0.4,1,0.4,2,0,3c-0.7,2.2-1.7,4.2-3,6.1c-3.8,5.4-8,10.6-11.3,16.3c-0.5,0.8-1,2-2,1.9c-1,0-1.2-1.4-1.5-2.3
	C139.6,119.2,138.5,113.8,138.3,108.3z"/>
<path class="st1" d="M264.4,122.8c-1.7,0-3.4-0.6-4.7-1.8c-1.3-1.2-2.1-2.8-2.3-4.5c0-1.8,1-2.3,2.6-1.9c1.3,0.3,2.5,0.8,3.6,1.6
	c1.1,0.8,1.9,1.9,2.4,3.1C267,121.7,266,122.7,264.4,122.8z"/>
<path class="st1" d="M364.3,97.3c-0.5,1.4-1.3,2.7-2.3,3.7c-1,1.1-2.3,1.8-3.7,2.3c-1.3,0.2-1.7-0.5-1.7-1.7c0.3-1.4,1-2.7,2-3.8
	c1-1.1,2.2-1.8,3.6-2.3C363.6,95.4,364.4,95.9,364.3,97.3z"/>
<ellipse class="st1" cx="398.7" cy="140" rx="10.1" ry="9.4"/>
<ellipse class="st1" cx="272.6" cy="169" rx="10.1" ry="9.4"/>
</svg>
