<svg width="522" height="790" viewBox="0 0 522 790" fill="none" xmlns="http://www.w3.org/2000/svg">
<path d="M288.158 873.012C243.512 873.39 199.06 867.097 156.268 854.342C122.177 844.235 92.6201 825.534 64.3622 804.534C47.4075 791.946 35.9834 775.091 27.3399 756.118C13.9687 727.088 5.17036 696.158 1.25799 664.43C-0.734636 646.303 -0.358724 627.993 2.37622 609.962C7.01934 576.427 14.8937 543.421 25.8892 511.406C38.1897 475.517 53.5426 441.051 75.1516 409.581C83.7347 397.083 93.9801 385.978 103.561 374.328C103.953 373.874 104.467 373.178 104.921 373.178C108.517 373.178 108.396 370.485 108.789 368.034C112.831 342.4 121.945 317.833 135.596 295.773C139.797 288.874 143.605 281.702 147.685 274.591C149.069 272.406 149.804 269.871 149.804 267.283C149.804 264.696 149.069 262.161 147.685 259.976C135.906 239.566 129.655 216.431 129.552 192.859C129.545 191.532 129.257 190.222 128.706 189.016C122.139 173.917 118.056 157.853 116.617 141.447C114.794 127.531 114.51 113.456 115.77 99.4767C116.491 91.7674 118.26 84.1928 121.029 76.9633C125.472 65.6158 133.994 59.4125 145.66 56.7497C161.769 53.0882 177.666 54.8432 193.351 58.6863C195.762 59.4174 198.308 59.5821 200.793 59.1675C203.277 58.7529 205.633 57.7701 207.676 56.2957C248.623 30.4336 297.515 20.2367 345.369 27.579C347.406 27.8307 349.46 27.265 351.081 26.0055C365.105 17.1696 379.279 8.60601 395.176 3.46181C400.431 1.65086 405.895 0.51215 411.435 0.0727129C416.096 -0.245975 420.769 0.485629 425.11 2.21376C429.451 3.94189 433.35 6.62253 436.52 10.0585C447.007 20.4074 453.233 33.2982 458.25 46.9152C464.297 64.0361 467.463 82.0435 467.619 100.203C467.712 103.323 468.607 106.366 470.218 109.039C480.572 126.739 486.869 146.522 488.653 166.956C491.521 199.271 483.626 231.627 466.198 258.977C465.326 260.276 464.539 261.631 463.841 263.032C462.721 265.347 462.178 267.9 462.257 270.471C462.336 273.042 463.035 275.556 464.294 277.799C477.199 303.429 488.925 329.574 495.484 357.625C500.508 379.655 503.613 402.082 504.762 424.65C505.85 443.956 506.787 463.262 506.726 482.628C506.269 516.492 501.558 550.164 492.703 582.849C488.412 599.311 484.906 616.135 479.828 632.264C477.985 638.134 476.111 644.005 473.965 649.754C473.21 651.812 473.421 652.932 475.386 653.749C475.61 653.84 475.816 653.974 475.99 654.142C489.56 667.366 504.429 679.318 513.224 696.899C517.229 703.859 519.981 711.469 521.354 719.383C522.842 735.561 520.959 751.872 515.823 767.284C510.641 783.722 501.265 798.522 488.623 810.223C468.193 829.952 443.592 842.087 417.631 852.103C391.863 861.544 365.02 867.734 337.723 870.531C321.257 872.235 304.712 873.063 288.158 873.012Z" fill="#FF7596"/>
<path d="M106.976 379.684C105.565 390.579 104.909 401.56 105.011 412.546C105.072 430.817 107.697 448.99 112.809 466.53C113.173 468.065 113.852 469.508 114.803 470.766C115.111 471.26 115.587 471.624 116.143 471.791C116.7 471.958 117.298 471.917 117.826 471.674C118.416 471.454 118.903 471.023 119.194 470.464C119.484 469.905 119.557 469.258 119.397 468.648C119.293 468.059 119.131 467.481 118.914 466.923C111.651 443.655 108.992 419.192 111.086 394.905C113.323 361.074 121.724 328.908 139.586 299.676C142.376 294.18 145.772 289.014 149.71 284.274C150.634 283.192 151.784 282.327 153.078 281.739C154.373 281.151 155.781 280.856 157.202 280.873C158.624 280.89 160.024 281.22 161.304 281.839C162.584 282.458 163.713 283.352 164.61 284.456C171.201 292.034 178.442 299.02 186.249 305.335C186.88 305.892 187.546 306.407 188.244 306.878C189.422 307.665 190.752 308.27 191.78 306.878C192.319 306.288 192.603 305.507 192.569 304.707C192.535 303.908 192.186 303.154 191.598 302.612C189.906 301.068 188.062 299.586 186.309 298.194C159.744 275.287 142.548 246.933 136.594 212.134C133.78 195.157 134.242 177.798 137.954 160.995C138.226 159.694 138.498 158.393 138.74 157.091C138.981 155.79 139.132 153.702 137.108 153.248C135.083 152.795 134.085 154.217 133.541 156.032C132.876 158.725 132.272 161.449 131.788 164.172C131.063 168.167 130.489 172.191 129.703 177.214C127.073 170.296 125.198 163.113 124.112 155.79C121.451 141.035 120.216 126.058 120.425 111.066C120.422 100.705 122.107 90.4127 125.411 80.5942C126.855 76.0722 129.465 72.012 132.978 68.8239C136.491 65.6359 140.783 63.433 145.419 62.4382C159.774 58.8373 173.949 60.2898 188.153 63.0132C190.403 63.2701 192.591 63.9151 194.621 64.9196C190.782 68.1574 187.095 71.2136 183.499 74.3606C181.784 75.7133 180.339 77.3761 179.237 79.2627C178.754 80.2311 178.24 81.2902 179.389 82.2887C179.804 82.6406 180.319 82.8533 180.861 82.8968C181.403 82.9402 181.945 82.8122 182.411 82.5309C183.041 82.1763 183.62 81.7387 184.133 81.2297C211.537 55.8111 245.897 39.1631 282.809 33.4189C311.618 28.4559 341.18 30.1848 369.215 38.4724C370.938 38.9868 372.66 39.5617 374.413 40.0459C376.166 40.53 378.04 40.9839 378.735 38.8355C379.43 36.687 377.828 35.4161 376.015 34.8714C370.333 33.2071 364.621 31.6639 358.909 30.1206C357.804 30.0499 356.748 29.6376 355.887 28.9405C372.751 18.5008 389.827 8.81759 409.683 5.64029C413.412 5.08403 417.219 5.38926 420.813 6.53263C424.406 7.676 427.691 9.62717 430.415 12.2369C438.165 19.4104 444.278 28.1734 448.337 37.9277C455.67 54.177 460.099 71.5881 461.423 89.3697C461.423 90.8221 461.423 92.3957 461.423 93.7271C461.346 94.2284 461.235 94.7237 461.091 95.2098C459.066 92.668 457.374 90.3984 455.5 88.2803C454.261 86.858 453.173 84.1044 450.725 86.2831C448.277 88.4618 449.999 90.1866 451.45 91.972C456.201 97.6356 460.439 103.712 464.113 110.128C490.316 156.698 489.711 203.419 464.748 250.171C457.83 262.679 449.227 274.175 439.18 284.335C437.427 286.18 435.734 288.057 434.102 289.993C433.196 291.052 432.652 292.505 433.77 293.594C434.031 293.857 434.344 294.06 434.69 294.192C435.035 294.324 435.405 294.38 435.774 294.357C436.143 294.334 436.503 294.232 436.83 294.059C437.156 293.886 437.442 293.645 437.669 293.352C441.356 289.691 445.043 286.029 448.579 282.216C452.115 278.404 455.046 278.283 458.582 282.549C466.35 291.96 470.006 303.459 474.782 314.383C486.995 342.999 494.653 373.355 497.479 404.346C500.751 435.5 501.761 466.851 500.501 498.152C498.987 527.068 494.418 555.743 486.87 583.696C481.582 604.031 476.716 624.487 470.52 644.579C468.828 649.996 468.888 649.875 463.781 647.969C442.372 639.798 418.847 639.042 396.959 645.82C383.57 649.938 370.516 655.077 357.912 661.192L353.711 663.068C353.711 658.923 353.711 655.261 353.711 651.57C353.499 637.68 353.318 623.791 352.955 609.871C352.442 591.05 361.146 577.886 377.466 569.202C379.551 568.082 383.178 567.386 381.727 564.088C380.276 560.79 377.375 562.968 375.108 563.755C363.655 568.015 351.571 570.327 339.355 570.594C335.372 570.47 331.411 569.932 327.538 568.99C326.843 568.789 326.137 568.627 325.423 568.506C323.942 568.324 322.401 568.294 321.887 570.14C321.373 571.986 322.733 572.833 324.214 573.166C326.767 573.901 329.36 574.487 331.981 574.921C341.562 576.283 345.732 580.368 347.092 590.232C348.024 599.744 348.367 609.304 348.12 618.858C348.513 632.748 348.12 646.637 348.452 660.526C348.679 662.144 348.359 663.791 347.543 665.206C346.727 666.621 345.462 667.722 343.949 668.334C327.236 677.23 312.397 688.91 297.195 700.076C284.543 709.612 271.164 718.141 257.181 725.585C255.579 726.402 253.947 727.129 251.922 728.127C252.255 724.617 252.466 721.652 252.859 718.686C254.975 702.315 251.257 686.459 248.386 670.543C243.382 641.097 231.252 613.327 213.056 589.658C201.008 574.629 186.508 561.749 170.171 551.56C164.529 547.869 158.827 544.227 153.065 540.636C151.526 539.684 149.931 538.826 148.29 538.064C146.869 537.368 145.268 537.308 144.482 538.881C143.696 540.455 144.663 541.605 145.993 542.422C150.828 545.448 155.664 548.474 160.469 551.5C176.243 560.976 190.557 572.699 202.962 586.299C221.935 608.102 235.069 634.371 241.133 662.645C244.612 677.196 246.946 691.998 248.114 706.915C248.121 714.643 247.463 722.358 246.15 729.973C245.999 731.244 245.092 731.456 244.246 731.819C223.518 741.16 201.666 747.761 179.237 751.458C159.439 754.889 139.183 754.684 119.458 750.852C110.919 749.071 102.696 746.01 95.0683 741.774C93.3456 740.836 91.3811 739.566 90.1118 742.047C88.8425 744.528 91.0487 745.254 92.59 746.132C104.521 752.903 117.764 757.031 131.426 758.236C175.248 762.745 216.048 751.518 255.126 733.029C277.097 722.65 296.47 708.125 315.782 693.691C341.411 674.143 370.473 659.579 401.462 650.752C423.344 644.146 446.907 646.026 467.468 656.018C473.917 659.128 479.556 663.696 483.939 669.362C488.102 674.71 492.778 679.636 497.902 684.069C501.566 687.241 504.434 691.232 506.273 695.719C507.838 699.912 509.93 703.887 512.499 707.55C513.579 709.414 514.287 711.469 514.584 713.602C518.544 729.61 515.854 745.254 512.076 760.868C506.727 783.14 493.429 799.965 476.142 814.338C460.214 827.592 441.93 836.458 423.071 844.386C397.05 855.31 369.699 861.059 341.834 864.902C317.235 867.931 292.418 868.801 267.668 867.505C225.342 866.387 183.455 858.606 143.545 844.447C117.251 834.824 94.1314 819.331 71.2833 803.414C51.9712 789.676 39.7312 771.278 30.5134 750.126C17.9215 721.044 9.63392 690.279 5.91241 658.802C3.25284 636.409 6.60752 614.713 10.476 592.956C18.4248 547.665 32.274 503.614 51.669 461.93C65.3246 432.094 83.5688 404.586 105.737 380.41C106.125 380.128 106.54 379.884 106.976 379.684Z" fill="white"/>
<path d="M409.441 323.763C408.267 337.983 405.406 352.011 400.918 365.552C397.896 375.478 390.522 379.442 380.337 377.354C371.988 375.741 364.211 371.952 357.791 366.369C356.638 365.3 355.26 364.503 353.759 364.037C352.258 363.571 350.672 363.448 349.117 363.676C344.579 364.327 339.965 364.235 335.457 363.404C332.188 362.942 328.863 363.672 326.088 365.462C320.266 368.953 314.8 373.007 309.768 377.566C305.164 381.512 299.762 384.413 293.931 386.069C289.035 387.249 284.048 386.916 280.966 382.74C272.836 371.846 263.679 361.558 260.143 347.85C258.744 342.746 258.563 337.384 259.612 332.196C260.662 327.009 262.914 322.14 266.187 317.984C271.083 311.478 278.276 309.723 285.862 310.086C298.721 310.911 311.071 315.429 321.433 323.098C322.551 324.015 323.907 324.593 325.342 324.765C326.777 324.936 328.231 324.694 329.533 324.066C333.39 322.175 337.821 321.829 341.924 323.098C343.814 323.683 345.825 323.75 347.749 323.292C349.674 322.835 351.44 321.869 352.865 320.495C361.206 314.443 369.306 307.756 378.977 303.641C384.05 301.343 389.548 300.137 395.116 300.1C398.052 300.003 400.933 300.922 403.272 302.702C405.611 304.482 407.267 307.015 407.96 309.874C409.068 314.417 409.566 319.088 409.441 323.763Z" fill="#FF7596"/>
<ellipse cx="261.684" cy="176.238" rx="21.025" ry="26.8281" fill="#E9FFE3" stroke="#FF7596" stroke-width="3"/>
<ellipse cx="385.659" cy="155.21" rx="21.75" ry="27.5532" fill="#E9FFE3" stroke="#FF7596" stroke-width="3"/>
<ellipse cx="383.484" cy="150.134" rx="15.225" ry="19.5772" fill="#FF7596"/>
<ellipse cx="383.484" cy="150.134" rx="15.225" ry="19.5772" fill="#FF7596"/>
<ellipse cx="261.684" cy="171.887" rx="15.225" ry="19.5772" fill="#FF7596"/>
<ellipse cx="261.684" cy="171.887" rx="15.225" ry="19.5772" fill="#FF7596"/>
<path d="M350.87 217.43C345.812 217.404 340.857 215.991 336.545 213.345C335.667 212.769 334.677 212.389 333.64 212.23C332.603 212.071 331.544 212.137 330.535 212.424C329.526 212.711 328.59 213.212 327.792 213.893C326.993 214.574 326.35 215.419 325.906 216.371C322.28 222.574 318.441 228.475 311.49 231.501C309.269 232.482 306.835 232.877 304.418 232.651C303.546 232.64 302.707 232.31 302.062 231.722C301.416 231.134 301.008 230.33 300.915 229.461C300.822 228.592 301.05 227.72 301.556 227.008C302.063 226.297 302.812 225.796 303.663 225.6C305.056 225.202 306.51 225.059 307.954 225.176C309.646 225.366 311.356 225.074 312.89 224.336C314.424 223.597 315.72 222.442 316.628 221.001C319.65 216.825 322.129 212.498 325 208.291C325.906 206.93 325 206.052 324.546 205.023C321.623 200.421 317.696 196.542 313.062 193.676C311.382 192.496 309.777 191.212 308.256 189.833C306.987 188.683 305.839 187.109 307.108 185.385C308.377 183.66 310.13 184.477 311.641 185.385C313.908 186.534 316.175 187.654 318.502 188.592C320.95 189.69 323.676 190.012 326.312 189.514C328.948 189.017 331.369 187.724 333.25 185.808C335.064 184.204 336.756 182.449 338.479 180.785C339.001 180.099 339.746 179.618 340.585 179.424C341.424 179.231 342.304 179.338 343.073 179.726C345.007 180.906 344.705 182.752 343.979 184.598C342.71 187.624 341.259 190.256 339.839 193.04C338.026 196.581 336.182 200.121 334.308 203.631C333.492 205.205 333.704 206.203 335.457 206.99C337.995 208.14 340.353 209.623 342.891 210.742C344.367 211.582 346.026 212.046 347.723 212.094C349.42 212.141 351.103 211.771 352.623 211.015C353.501 210.598 354.44 210.323 355.403 210.198C355.806 210.06 356.232 210.003 356.657 210.03C357.082 210.057 357.497 210.169 357.879 210.357C358.261 210.545 358.602 210.807 358.882 211.128C359.163 211.449 359.377 211.821 359.514 212.225C359.671 212.656 359.741 213.114 359.72 213.572C359.698 214.031 359.586 214.48 359.389 214.894C359.192 215.308 358.914 215.679 358.573 215.985C358.231 216.29 357.831 216.524 357.398 216.673C355.302 217.392 353.075 217.65 350.87 217.43Z" fill="#FF7596"/>
<path d="M259.327 143.717C265.643 143.984 271.771 145.949 277.067 149.405C277.4 149.587 277.883 149.769 277.944 150.041C279.092 155.246 284.411 156.728 287.01 160.511C287.395 160.907 287.687 161.384 287.865 161.908C288.043 162.431 288.102 162.988 288.038 163.537C287.971 163.957 287.784 164.35 287.5 164.666C287.216 164.983 286.846 165.211 286.436 165.322C285.046 165.746 284.2 164.959 283.414 164.021C280.324 160.611 276.533 157.912 272.302 156.11C268.071 154.308 263.5 153.445 258.903 153.581C254.657 153.519 250.458 154.475 246.656 156.37C242.855 158.265 239.562 161.044 237.053 164.475C234.471 167.82 232.185 171.384 230.222 175.126C229.376 176.67 228.318 178.152 226.263 177.426C224.208 176.7 224.359 174.945 225.024 173.22C225.024 172.887 225.447 172.373 225.326 172.221C221.881 167.864 225.931 165.201 227.895 162.538C234.423 153.733 242.281 146.561 253.554 144.382C255.488 143.989 257.423 143.928 259.327 143.717Z" fill="#FF7596"/>
<path d="M390.673 116.604C398.682 115.575 404.212 120.598 410.106 124.592C410.488 124.794 410.819 125.081 411.074 125.43C411.329 125.78 411.501 126.183 411.577 126.609C411.652 127.035 411.63 127.473 411.511 127.889C411.393 128.305 411.181 128.688 410.892 129.01C409.592 130.493 408.202 129.948 406.721 129.01C402.779 125.939 397.869 124.382 392.88 124.621C387.891 124.86 383.152 126.878 379.521 130.311C371.885 136.946 366.683 145.946 364.742 155.881C364.41 157.424 364.41 159.179 362.355 159.391C360.299 159.603 360.39 157.545 359.332 156.517C355.645 152.431 358.154 148.558 359.332 144.776C362.929 133.549 369.185 124.411 380.186 119.145C383.446 117.518 387.03 116.649 390.673 116.604Z" fill="#FF7596"/>
<path d="M417.117 23.0095C420.028 23.172 422.851 24.0599 425.332 25.5923C427.813 27.1248 429.871 29.2535 431.322 31.785C435.55 38.8504 438.248 46.7269 439.24 54.9036C439.493 56.0421 439.429 57.2281 439.056 58.333C438.683 59.4379 438.015 60.4194 437.124 61.1709C436.233 61.9224 435.154 62.4153 434.003 62.5961C432.853 62.7768 431.674 62.6385 430.597 62.1962C421.457 58.9485 413.112 53.791 406.116 47.0662C402.248 43.314 400.072 38.5631 402.671 32.9348C404.017 30.1718 406.056 27.8053 408.588 26.0658C411.119 24.3264 414.058 23.2733 417.117 23.0095Z" fill="#FF7596"/>
<path d="M150.889 90.1867C152.944 90.1195 154.995 90.4376 156.933 91.1247C158.46 91.4041 159.899 92.0382 161.136 92.9762C162.372 93.9141 163.372 95.1296 164.054 96.5248C164.736 97.9201 165.082 99.4561 165.063 101.009C165.044 102.563 164.661 104.09 163.945 105.468C163.453 106.83 162.804 108.13 162.011 109.341C157.477 116.029 152.944 122.746 148.26 129.252C144.27 134.669 139.828 133.973 137.289 127.739C134.591 121.399 133.134 114.598 132.997 107.707C132.967 95.9663 138.891 90.0959 150.889 90.1867Z" fill="#FF7596"/>
<path d="M383.171 190.858C379.967 192.038 377.368 188.679 373.953 188.134C373.689 188.05 373.446 187.909 373.241 187.722C373.035 187.535 372.873 187.306 372.764 187.051C372.655 186.795 372.602 186.519 372.609 186.242C372.616 185.964 372.683 185.691 372.804 185.441C373.003 184.859 373.398 184.365 373.923 184.044C374.447 183.723 375.067 183.597 375.675 183.686C380.613 184.609 385.712 184.099 390.37 182.218C395.029 180.336 399.053 177.16 401.969 173.065C403.48 171.461 404.991 168.133 407.651 170.584C410.31 173.035 407.348 174.85 405.837 176.636C404.84 177.816 403.601 178.724 404.084 180.66C404.356 181.78 403.359 182.657 402.513 183.353C397.202 188.144 390.319 190.814 383.171 190.858Z" fill="#FF7596"/>
<path d="M260.475 213.103C257.997 212.891 255.065 213.829 255.337 209.714C255.337 208.594 254.159 208.806 253.373 208.654C251.499 208.291 249.565 207.989 247.721 207.505C245.878 207.02 244.367 206.203 244.971 204.025C245.575 201.846 247.177 202.149 248.839 202.481C252.475 203.299 256.16 203.875 259.871 204.206C265.793 204.69 271.724 203.372 276.886 200.424C278.427 199.546 279.908 198.699 281.328 200.575C282.749 202.451 281.147 203.45 279.878 204.448C279.394 204.811 278.639 205.296 278.639 205.689C278.971 210.046 275.405 210.228 272.594 211.075C268.655 212.254 264.583 212.935 260.475 213.103Z" fill="#FF7596"/>
<path d="M263.92 128.102C260.835 127.987 257.904 126.722 255.702 124.556C253.499 122.389 252.184 119.478 252.013 116.392C251.942 115.452 252.073 114.507 252.398 113.622C252.722 112.737 253.232 111.931 253.894 111.26C254.555 110.589 255.353 110.068 256.233 109.732C257.113 109.396 258.054 109.252 258.994 109.311C262.149 109.452 265.148 110.72 267.449 112.885C269.75 115.05 271.2 117.969 271.536 121.112C271.531 122.084 271.326 123.043 270.933 123.931C270.54 124.819 269.968 125.616 269.253 126.273C268.538 126.929 267.695 127.43 266.778 127.745C265.86 128.06 264.887 128.182 263.92 128.102Z" fill="#FF7596"/>
<path d="M362.959 90.1867C364.053 90.105 365.149 90.3045 366.144 90.7661C367.139 91.2277 368 91.9361 368.644 92.8242C369.289 93.7124 369.697 94.7507 369.828 95.8407C369.96 96.9308 369.811 98.0364 369.396 99.0528C368.685 101.238 367.443 103.211 365.781 104.796C364.12 106.38 362.09 107.526 359.876 108.131C358.997 108.492 358.041 108.628 357.096 108.528C356.151 108.428 355.245 108.095 354.46 107.558C353.675 107.021 353.036 106.297 352.599 105.452C352.162 104.607 351.942 103.666 351.958 102.714C351.767 99.5947 352.817 96.5263 354.878 94.1791C356.94 91.832 359.845 90.3966 362.959 90.1867Z" fill="#FF7596"/>
<path d="M286.315 315.26C298.029 316.28 309.247 320.463 318.774 327.364C319.735 327.905 320.496 328.742 320.942 329.751C321.389 330.76 321.498 331.886 321.252 332.962C319.227 340.134 321.01 346.912 323.337 353.539C323.954 354.715 324.14 356.069 323.864 357.368C323.588 358.667 322.867 359.828 321.826 360.65C313.515 367.035 306.171 374.782 296.5 379.321C289.7 382.498 286.104 381.651 282.024 375.387C277.49 368.427 272.322 361.83 268.393 354.447C266.042 350.264 264.71 345.585 264.505 340.79C264.3 335.994 265.229 331.218 267.215 326.85C270.72 318.74 276.191 315.139 286.315 315.26Z" fill="#DEFFFF"/>
<path d="M403.91 322.22C403.608 336.291 399.619 349.666 395.962 363.041C393.725 371.211 389.132 373.602 380.851 371.816C372.9 370.116 365.577 366.24 359.695 360.62C358.914 360.042 358.283 359.283 357.857 358.408C357.431 357.534 357.222 356.57 357.247 355.597C357.851 348.092 355.615 341.012 353.651 333.931C352.139 328.484 352.563 326.82 357.217 323.521C363.958 318.203 371.171 313.513 378.765 309.511C383.182 307.251 387.997 305.874 392.94 305.456C398.984 305.123 401.764 307.151 403.245 312.84C403.872 315.924 404.096 319.078 403.91 322.22Z" fill="#DEFFFF"/>
<path d="M342.831 358.835C339.711 358.791 336.63 358.133 333.764 356.898C332.125 356.312 330.68 355.284 329.586 353.928C328.493 352.572 327.795 350.94 327.569 349.212C326.719 345.576 326.213 341.868 326.057 338.137C326.069 336.654 326.396 335.191 327.019 333.845C327.641 332.499 328.543 331.301 329.665 330.333C330.786 329.365 332.102 328.647 333.523 328.229C334.944 327.811 336.438 327.702 337.905 327.909C345.823 328.726 347.425 329.997 349.419 337.804C350.382 341.411 351.148 345.068 351.716 348.758C352.834 356.535 350.87 358.835 342.831 358.835Z" fill="#DEFFFF"/>
<path d="M333.281 193.101L329.05 201.301L324.335 195.249C327.357 194.402 330.289 194.009 333.281 193.101Z" fill="#FFDCE9"/>
<path d="M416.936 28.426C418.638 28.4831 420.305 28.9203 421.816 29.7057C423.328 30.491 424.644 31.6046 425.67 32.965C430.657 39.1683 432.349 46.7938 434.072 54.2983C434.586 56.5072 433.075 57.5664 431.05 56.598C423.394 53.3479 416.311 48.8827 410.076 43.3745C408.812 42.493 407.898 41.1943 407.495 39.706C407.091 38.2177 407.224 36.6347 407.869 35.2345C408.646 33.3992 409.893 31.8024 411.486 30.6065C413.079 29.4106 414.959 28.6583 416.936 28.426Z" fill="#FFDCE9"/>
<path d="M138.316 108.343C138.316 103.713 138.316 99.658 142.608 97.449C144.816 96.178 147.31 95.4865 149.857 95.4389C152.403 95.3913 154.921 95.9891 157.175 97.1767C158.137 97.578 158.9 98.3453 159.297 99.3101C159.694 100.275 159.691 101.358 159.291 102.321C158.614 104.487 157.593 106.531 156.268 108.373C152.43 113.759 148.29 118.934 144.996 124.683C144.512 125.5 143.968 126.65 143.001 126.62C142.034 126.589 141.792 125.197 141.52 124.35C139.59 119.224 138.507 113.817 138.316 108.343Z" fill="#FFDCE9"/>
<path d="M264.404 122.837C262.662 122.841 260.98 122.2 259.681 121.039C258.381 119.877 257.556 118.276 257.362 116.543C257.362 114.788 258.359 114.243 259.961 114.607C261.274 114.858 262.508 115.42 263.56 116.246C264.612 117.073 265.45 118.14 266.006 119.357C266.973 121.687 266.006 122.716 264.404 122.837Z" fill="white"/>
<path d="M364.349 97.328C363.883 98.7387 363.093 100.021 362.043 101.071C360.994 102.122 359.714 102.913 358.305 103.38C356.975 103.562 356.582 102.835 356.582 101.716C356.886 100.302 357.562 98.9957 358.539 97.9316C359.517 96.8675 360.761 96.0845 362.143 95.6637C363.594 95.4216 364.44 95.8755 364.349 97.328Z" fill="white"/>
<ellipse cx="398.709" cy="139.983" rx="10.15" ry="9.42608" fill="white"/>
<ellipse cx="272.559" cy="168.987" rx="10.15" ry="9.42608" fill="white"/>
</svg>
