<svg width="529" height="767" viewBox="0 0 529 767" fill="none" xmlns="http://www.w3.org/2000/svg">
<g clip-path="url(#clip0_88_13)">
<path d="M290.324 848.97C251.731 848.607 213.351 845.941 175.879 836.217C146.794 829.14 118.715 818.433 92.3013 804.35C75.4586 794.99 59.1611 784.63 46.3474 769.847C30.7976 751.358 19.2365 729.856 12.3893 706.688C2.98824 676.085 -1.10985 644.1 0.272284 612.115C2.08108 571.347 8.94956 530.96 20.7198 491.886C33.8971 445.902 57.0709 405.371 87.3636 368.596C91.4345 363.02 95.9966 357.819 100.995 353.056C104.242 350.132 106.22 346.057 106.509 341.697C112.567 309.829 127.107 281.961 146.192 256.182C147.863 254.289 148.864 251.898 149.039 249.379C149.215 246.86 148.555 244.353 147.161 242.247C136.617 223.963 129.551 203.884 126.32 183.026C125.834 181.593 124.829 180.393 123.503 179.664C110.563 171.704 98.8145 161.954 88.6056 150.704C83.3531 144.962 79.4876 138.091 77.3064 130.62C75.9228 125.384 75.7801 119.898 76.8897 114.597C77.9993 109.296 80.3306 104.327 83.6982 100.086C90.5998 91.3021 99.0997 83.902 108.75 78.2755C127.868 65.8268 149.05 56.8823 171.304 51.8607C171.525 51.7614 171.76 51.6999 172.001 51.6789C178.756 52.8603 182.452 48.1347 186.784 44.3482C211.418 23.1333 241.353 9.00902 273.391 3.48397C319.95 -5.30078 364.087 3.02959 406.678 22.3257C408.974 23.299 411.456 23.7541 413.948 23.6586C447.573 22.6287 477.987 30.9288 502.766 54.8293C507.084 59.206 510.858 64.0881 514.005 69.3696C515.749 72.3012 516.812 75.587 517.116 78.9845C517.42 82.3819 516.957 85.8043 515.762 88.999C513.637 96.1768 509.878 102.765 504.78 108.246C499.681 113.728 493.383 117.954 486.378 120.594C483.742 121.624 483.349 122.805 483.833 125.41C488.044 151.795 487.771 177.937 479.35 203.594C478.213 206.894 477.751 210.387 477.99 213.869C478.229 217.35 479.166 220.748 480.743 223.86C498.434 261.998 513.459 301.166 522.335 342.393C527.614 365.793 529.653 389.807 528.394 413.762C526.747 438.213 520.724 462.171 510.612 484.494C509.845 486.078 509.481 487.826 509.552 489.583C510.885 504.396 512.884 519.149 513.702 533.962C514.883 549.292 515.065 564.682 514.247 580.036C512.732 600.241 509.37 620.325 506.613 640.439C506.197 643.583 505.308 646.647 503.978 649.526C500.525 657.009 501.706 664.158 504.16 671.64C507.838 681.992 510.823 692.577 513.096 703.326C515.837 719.296 514.107 735.714 508.098 750.763C505.068 758.548 502.403 766.424 499.404 774.209C498.708 775.738 497.778 777.148 496.647 778.39C486.166 791.294 472.807 800.654 458.812 809.197C426.713 829.176 390.424 841.452 352.788 845.063C331.946 847.001 311.075 848.395 290.233 850.061L290.324 848.97ZM104.024 356.964C102.449 358.63 101.48 359.509 100.692 360.508C95.9061 366.567 91.0593 372.352 86.3639 378.35C58.0403 414.701 36.4114 454.232 24.3246 498.853C14.7102 532.595 8.61913 567.242 6.14905 602.24C4.89596 621.817 5.55542 641.468 8.11807 660.916C11.9046 688.179 18.5387 714.231 32.0795 738.404C41.1673 754.822 51.4062 770.362 67.2493 781.176C77.3367 788.053 87.303 795.262 97.9963 801.078C119.201 812.65 142.072 820.435 165.094 827.524C199.416 838.065 234.767 841.912 270.392 843.154C299.32 844.225 328.288 842.897 356.998 839.186C390.572 834.933 422.932 823.906 452.117 806.773C466.082 798.625 479.623 789.961 490.589 777.875C491.672 776.763 492.554 775.472 493.194 774.058C495.89 767.333 498.192 760.457 501.07 753.823C509.726 734.923 511.431 713.575 505.886 693.541C501.918 679.213 497.768 664.824 488.71 652.646C466.294 622.597 415.766 604.421 374.689 622.899C354.692 632.17 335.536 643.157 317.436 655.736C291.627 673.094 266.09 690.875 240.16 708.051C225.983 718.073 210.135 725.489 193.357 729.952C175.759 734.185 157.532 735.14 139.588 732.769C125.956 730.982 112.325 728.135 98.9051 725.499C96.0765 724.875 93.373 723.779 90.9078 722.258C89.9687 721.713 89.8778 719.744 89.4235 718.411C90.6749 718.067 91.9786 717.954 93.2706 718.078C96.2999 718.926 99.3292 720.653 102.51 721.107C117.656 723.591 132.802 726.317 147.949 727.892C164.678 729.633 181.587 727.974 197.659 723.015C215.077 717.654 230.375 707.869 245.521 698.145C246.095 697.671 246.562 697.08 246.891 696.411C247.22 695.743 247.404 695.012 247.43 694.268C247.571 689.428 247.44 684.583 247.036 679.758C244.548 656.765 239.058 634.198 230.708 612.631C218.349 578.541 195.261 549.384 164.913 529.539C158.521 525.298 151.281 522.39 144.465 518.785C143.294 518.056 142.189 517.224 141.163 516.301C142.466 515.514 143.92 513.878 145.041 514.09C148.004 514.627 150.872 515.596 153.553 516.968C182.579 531.259 206.596 554.008 222.438 582.217C239.759 612.752 250.036 646.771 252.519 681.788C252.761 685.423 253.094 689.058 253.397 693.117C255.306 691.845 256.76 690.966 258.153 690.088C272.058 680.425 285.932 670.701 299.897 661.098C320.647 646.8 341.519 632.745 364.238 621.718C381.323 613.388 399.196 608.329 418.28 610.419C447.664 613.66 473.473 624.414 493.012 647.648C496.314 651.556 498.131 651.162 499.555 646.255C504.789 626.453 507.836 606.137 508.643 585.67C509.673 570.252 509.219 554.712 508.643 539.232C508.532 522.652 506.992 506.111 504.039 489.795C503.714 487.796 504.01 485.745 504.887 483.919C515.536 461.069 521.706 436.39 523.062 411.217C523.998 386.481 521.531 361.733 515.731 337.668C509.673 310.799 500.07 285.081 490.255 259.423C486.136 248.7 481.531 238.218 476.957 227.616C475.756 225.366 474.357 223.227 472.777 221.225C465.264 231.797 458.448 241.732 451.238 251.517C446.755 257.575 441.787 263.149 436.819 268.783C436.032 269.632 434.123 269.51 432.73 269.813C432.73 268.329 432.366 266.511 433.063 265.391C434.588 263.25 436.268 261.225 438.091 259.332C450.723 244.186 462.689 228.767 470.747 210.653C477.104 195.823 480.5 179.893 480.743 163.76C481.531 141.314 479.804 119.261 470.414 98.4198C469.626 96.6326 468.445 94.4819 470.898 93.3611C473.352 92.2402 474.17 94.603 475.018 96.3903C475.321 97.0567 475.654 97.6928 475.927 98.3593C478.138 104.418 480.38 110.294 482.682 116.535C489.588 114.197 495.798 110.166 500.745 104.811C505.693 99.4562 509.22 92.9475 511.006 85.8789C511.666 83.8526 511.891 81.7098 511.667 79.5905C511.443 77.4712 510.773 75.4232 509.703 73.5802C506.945 68.7701 503.664 64.2797 499.919 60.191C486.665 46.7404 469.852 37.3463 451.451 33.1098C440.574 30.2528 429.374 28.8071 418.129 28.8083C421.158 31.1711 423.763 33.0189 426.186 34.8668C427.762 36.1087 429.367 37.6536 427.883 39.7134C426.399 41.7733 424.46 40.4102 422.854 39.2894C419.825 37.0781 416.796 34.5638 413.312 32.6554C384.898 16.5702 354.029 8.72457 321.647 6.18002C301.434 4.71387 281.119 6.76371 261.607 12.2385C229.315 20.9929 200.294 35.3817 178.151 61.3725C177.743 61.7351 177.259 62.0022 176.735 62.1542C176.211 62.3062 175.66 62.3392 175.121 62.2509C174.515 62.0994 174.122 60.5546 173.94 59.5852C173.758 58.6159 174.243 58.3432 174.576 57.1921C171.547 57.8283 168.517 58.1918 166.033 58.9188C145.229 64.7126 125.532 73.926 107.75 86.1818C99.5643 91.2011 92.5089 97.8645 87.0303 105.751C80.9718 115.353 79.6086 125.441 85.1825 135.649C87.8789 140.367 91.0564 144.793 94.6641 148.856C103.266 158.208 113.089 166.359 123.866 173.09C124.266 173.303 124.695 173.456 125.138 173.545C125.138 169.758 125.138 166.153 125.138 162.549C125.138 160.337 124.745 157.187 127.865 157.066C130.985 156.944 130.5 160.095 130.652 162.306C131.258 169.758 131.167 177.452 132.288 184.722C136.004 205.99 143.735 226.355 155.068 244.731C161.899 256.942 171.444 267.42 182.967 275.357C185.178 276.811 187.632 277.932 189.753 279.537C190.571 280.204 190.722 281.718 191.207 282.839C190.056 283.172 188.783 283.99 187.753 283.778C186.251 283.314 184.831 282.619 183.543 281.718C174.152 276.417 166.73 268.753 159.309 261.18C154.946 256.757 152.432 256.848 149.07 261.544C136.323 278.786 126.121 297.772 118.777 317.917C110.344 342.993 107.088 369.519 109.205 395.89C110.144 410.884 110.81 425.849 114.688 440.449C114.99 441.54 113.839 443.024 113.355 444.297C112.234 443.448 110.325 442.812 110.083 441.691C108.799 437.777 107.787 433.779 107.054 429.726C103.926 408.776 102.699 387.586 103.388 366.415C103.237 363.659 103.752 360.841 104.024 356.964Z" fill="#FF7596" fill-opacity="0.95"/>
<path d="M104.025 356.964C103.661 360.841 103.237 363.658 103.207 366.506C102.488 387.674 103.684 408.864 106.781 429.816C107.515 433.87 108.527 437.868 109.811 441.782C110.174 442.903 111.962 443.539 113.082 444.387C113.567 443.115 114.718 441.63 114.415 440.54C110.538 425.939 109.871 410.975 108.932 395.98C106.815 369.609 110.072 343.083 118.505 318.008C125.849 297.862 136.051 278.877 148.797 261.634C152.16 256.939 154.674 256.848 159.036 261.27C166.549 268.843 173.971 276.417 183.27 281.809C184.559 282.71 185.979 283.404 187.481 283.868C188.511 284.08 189.783 283.263 190.934 282.929C190.45 281.809 190.298 280.294 189.48 279.628C187.36 278.022 184.906 276.901 182.695 275.447C171.172 267.51 161.626 257.033 154.795 244.822C143.462 226.446 135.731 206.08 132.015 184.813C130.894 177.422 130.985 169.848 130.379 162.397C130.379 160.276 131.016 157.005 127.593 157.156C124.169 157.308 124.957 160.428 124.866 162.639C124.866 166.244 124.866 169.849 124.866 173.635C124.422 173.546 123.994 173.393 123.594 173.181C112.816 166.45 102.994 158.299 94.3918 148.947C90.7668 144.729 87.5987 140.14 84.9405 135.255C79.3667 125.046 80.6995 114.959 86.7884 105.356C92.2669 97.4702 99.3223 90.8068 107.508 85.7876C125.29 73.5317 144.987 64.3184 165.792 58.5246C168.427 57.7975 171.184 57.434 174.334 56.7979C174.001 57.949 173.577 58.6457 173.698 59.191C173.819 59.7363 174.273 61.7053 174.879 61.8567C175.418 61.945 175.969 61.9119 176.493 61.7599C177.017 61.608 177.501 61.3409 177.909 60.9782C200.052 34.9875 229.073 20.5987 261.365 11.8442C280.877 6.36947 301.192 4.31962 321.405 5.78578C353.788 8.33033 384.656 16.176 413.07 32.2612C416.433 34.1696 419.432 36.6838 422.612 38.8952C424.218 40.016 426.005 41.5306 427.641 39.3193C429.277 37.108 427.641 35.7145 425.945 34.4725C423.521 32.5944 421.037 30.7466 417.887 28.4141C429.132 28.4129 440.332 29.8585 451.209 32.7155C469.61 36.9521 486.423 46.3462 499.677 59.7968C503.422 63.8854 506.703 68.3758 509.461 73.186C510.531 75.029 511.201 77.077 511.425 79.1963C511.65 81.3156 511.424 83.4584 510.764 85.4846C508.978 92.5532 505.451 99.062 500.503 104.417C495.556 109.772 489.346 113.802 482.44 116.14C480.138 110.082 477.896 104.023 475.685 97.965C475.412 97.2986 475.079 96.6625 474.776 95.996C473.928 94.2694 473.14 91.9066 470.656 92.9668C468.172 94.027 469.384 96.2383 470.172 98.0256C479.562 118.867 481.289 140.919 480.501 163.366C480.258 179.499 476.862 195.428 470.505 210.258C462.447 228.434 450.482 243.883 437.849 258.938C436.027 260.831 434.346 262.856 432.821 264.996C432.124 266.117 432.548 268.026 432.488 269.419C433.881 269.116 435.79 269.237 436.577 268.389C441.545 262.755 446.513 257.12 450.997 251.123C458.206 241.459 465.022 231.523 472.535 220.83C474.115 222.833 475.514 224.972 476.715 227.222C481.289 237.764 485.803 248.427 490.013 259.029C499.828 284.686 509.492 310.526 515.489 337.274C521.322 361.304 523.829 386.02 522.941 410.732C521.586 435.905 515.416 460.584 504.766 483.434C503.889 485.26 503.593 487.311 503.918 489.31C506.871 505.626 508.411 522.167 508.522 538.747C509.007 554.227 509.461 569.767 508.522 585.185C507.715 605.651 504.668 625.968 499.434 645.77C498.011 650.677 496.193 651.071 492.891 647.163C473.352 623.929 447.452 613.175 418.159 609.934C399.075 607.844 381.202 612.963 364.117 621.233C341.398 632.29 320.526 646.345 299.776 660.613C285.811 670.215 271.937 679.939 258.033 689.603C256.639 690.572 255.185 691.45 253.277 692.632C252.974 688.573 252.64 684.938 252.398 681.302C249.915 646.286 239.638 612.266 222.318 581.732C206.475 553.522 182.459 530.774 153.432 516.482C150.751 515.111 147.883 514.141 144.92 513.605C143.799 513.393 142.345 515.028 141.042 515.816C142.068 516.739 143.173 517.57 144.344 518.3C151.16 521.905 158.4 524.813 164.792 529.054C195.14 548.898 218.228 578.056 230.587 612.145C238.938 633.712 244.427 656.28 246.915 679.273C247.319 684.098 247.451 688.943 247.309 693.783C247.283 694.527 247.099 695.258 246.77 695.926C246.441 696.594 245.975 697.186 245.401 697.66C230.254 707.505 215.108 717.168 197.538 722.53C181.518 727.489 164.663 729.168 147.979 727.468C132.833 725.893 117.687 723.166 102.541 720.682C99.5112 720.167 96.482 718.441 93.3013 717.653C92.0093 717.529 90.7055 717.642 89.4541 717.986C89.9085 719.319 89.9994 721.288 90.9384 721.834C93.3595 723.532 96.0543 724.803 98.9054 725.59C112.446 728.225 125.957 731.073 139.588 732.86C157.532 735.231 175.76 734.276 193.358 730.043C210.11 725.542 225.927 718.095 240.069 708.051C265.999 690.875 291.566 673.093 317.345 655.736C335.445 643.157 354.601 632.17 374.599 622.899C415.706 604.542 466.203 622.566 488.59 652.646C497.677 664.763 501.797 679.212 505.766 693.54C511.311 713.574 509.605 734.923 500.949 753.822C497.92 760.456 495.769 767.332 493.073 774.057C492.433 775.471 491.551 776.763 490.468 777.874C479.502 789.991 465.961 798.624 451.996 806.773C422.793 823.913 390.411 834.94 356.817 839.186C328.157 842.889 299.24 844.216 270.362 843.154C234.737 841.912 199.386 838.065 165.064 827.523C142.042 820.435 119.201 812.65 97.9663 801.078C87.273 795.262 77.3068 788.052 67.2193 781.176C51.3763 770.362 41.2586 754.822 32.0496 738.403C18.5088 714.169 11.8747 688.058 8.08812 660.916C5.52548 641.468 4.86602 621.816 6.11911 602.24C8.58919 567.242 14.6803 532.594 24.2947 498.852C36.4117 454.232 58.0104 414.579 86.334 378.35C91.0293 372.291 95.8761 366.445 100.662 360.508C101.48 359.508 102.45 358.63 104.025 356.964ZM416.342 541.383C415.927 541.065 415.532 540.721 415.16 540.353C407.556 532.155 401.874 522.366 398.53 511.696C388.963 484.407 385.801 455.282 389.29 426.575C389.667 422.121 391.077 417.817 393.41 414.004C398.378 406.734 398.651 399.13 398.227 390.8C397.424 379.96 397.424 369.076 398.227 358.236C399.711 342.696 405.436 328.216 411.98 314.1C412.192 313.646 412.646 313.191 412.585 312.798C412.343 311.525 411.949 310.283 411.586 309.011C410.495 309.496 409.011 309.677 408.345 310.526C407.303 312.005 406.439 313.601 405.77 315.281C393.572 340.256 389.07 368.291 392.835 395.829C393.325 400.417 392.258 405.036 389.805 408.945C387.106 413.081 385.262 417.716 384.383 422.577C383.202 435.087 383.05 447.689 382.565 460.23C382.596 462.639 382.748 465.045 383.02 467.439C382.555 466.747 382.13 466.029 381.748 465.289C378.891 456.172 374.19 447.74 367.936 440.518C361.683 433.295 354.01 427.436 345.396 423.304C337.795 419.393 332.054 412.628 329.432 404.492C328.069 400.857 326.766 397.222 325.555 393.557C322.23 382.542 317.474 372.011 311.408 362.234C302.017 347.876 290.93 335.183 275.693 326.762C272.831 325.307 269.768 324.286 266.605 323.733C265.666 323.521 264.394 324.914 263.273 325.551C264.041 326.581 264.96 327.49 265.999 328.247C270.859 330.316 275.558 332.747 280.055 335.517C297.038 348.516 309.886 366.163 317.043 386.317C318.951 391.285 320.617 396.343 322.223 401.463C323.871 407.551 326.791 413.22 330.791 418.097C334.791 422.974 339.779 426.948 345.427 429.756C361.664 437.723 371.539 451.354 377.052 468.257C382.916 486.43 384.093 505.79 380.475 524.54C379.303 533.698 376.206 542.504 371.388 550.379C369.088 553.25 366.588 555.952 363.905 558.467C363.677 556.132 363.292 553.815 362.754 551.531C362.499 551.11 362.145 550.757 361.722 550.504C361.3 550.25 360.822 550.104 360.331 550.077C359.695 550.077 358.786 551.106 358.483 551.864C358.238 552.802 358.176 553.78 358.301 554.742C358.301 561.254 358.301 561.285 351.576 561.709C350.274 561.709 348.941 561.709 347.547 561.709C347.272 559.216 346.776 556.752 346.063 554.348C345.578 553.106 343.942 552.318 342.852 551.319C342.136 552.507 341.624 553.808 341.337 555.166C341.432 557.047 341.716 558.915 342.185 560.739C334.551 558.212 327.948 553.267 323.374 546.653C321.253 543.867 319.405 540.837 317.133 538.172C316.672 537.478 316.046 536.909 315.311 536.516C314.576 536.123 313.756 535.917 312.923 535.917C312.089 535.917 311.269 536.123 310.535 536.516C309.8 536.909 309.174 537.478 308.712 538.172C308.006 539.001 307.348 539.871 306.743 540.777C301.811 548.293 294.248 553.695 285.538 555.923C279.874 557.528 273.906 558.104 268.181 559.467C266.787 559.8 265.697 561.497 264.485 562.496C265.787 563.254 267.12 564.708 268.362 564.647C278.995 563.95 289.567 562.133 298.382 556.044C303.722 551.899 308.782 547.406 313.529 542.594C313.983 543.2 314.922 544.442 315.801 545.624C319.869 552.105 325.257 557.658 331.613 561.921C335.386 564.414 339.642 566.084 344.103 566.823C348.564 567.563 353.131 567.354 357.506 566.211C361.881 565.068 365.967 563.016 369.496 560.189C373.026 557.362 375.92 553.824 377.991 549.804C382.186 541.726 384.866 532.948 385.898 523.904C387.079 514.816 387.503 505.88 388.109 498.337C390.442 504.971 392.926 513.181 396.197 521.087C400.01 531.637 406.654 540.934 415.403 547.956C425.642 555.65 436.153 554.711 444.272 544.927C448.16 540.133 451.399 534.847 453.905 529.205C455.002 526.176 456.776 523.437 459.091 521.195C461.405 518.954 464.201 517.27 467.264 516.27C474.11 513.938 478.684 508.304 482.683 502.427C483.319 501.457 482.683 499.61 482.683 498.186C481.229 498.549 479.653 498.822 478.32 499.307C477.836 499.488 477.533 500.185 477.169 500.7C472.941 506.839 466.776 511.383 459.66 513.605C458.049 514.144 456.569 515.016 455.316 516.164C454.064 517.312 453.067 518.711 452.39 520.269C449.906 525.358 447.452 530.508 444.574 535.415C442.282 538.836 439.784 542.114 437.092 545.23C436.511 542.987 435.793 540.781 434.941 538.626C434.157 537.492 433.219 536.473 432.155 535.597C431.488 536.93 430.155 538.323 430.276 539.626C430.653 542.081 431.262 544.495 432.094 546.835C426.884 548.683 424.854 547.229 422.461 540.383C421.794 538.444 422.249 534.87 418.886 535.779C417.584 536.021 417.19 539.293 416.342 541.383ZM353 293.138C361.391 296.319 368.994 299.863 376.992 302.074C388.412 305.255 394.561 301.468 398.409 290.23C398.711 289.321 398.984 288.382 399.257 287.443C402.245 275.324 403.086 262.775 401.741 250.365C401.438 246.633 400.769 242.94 399.741 239.339C399.271 237.428 398.192 235.721 396.668 234.475C395.144 233.23 393.256 232.513 391.29 232.432C388.038 232.067 384.751 232.19 381.536 232.796C368.739 235.746 356.835 241.719 346.82 250.214C345.918 251.121 344.73 251.688 343.458 251.819C338.942 251.399 334.389 251.9 330.073 253.29C325.756 254.68 321.767 256.931 318.345 259.907C308.578 255.036 298.061 251.841 287.235 250.456C270.422 249.275 261.365 257.544 261.425 274.478C261.554 286.964 266.216 298.978 274.542 308.284C277.191 311.661 280.82 314.135 284.932 315.366C289.043 316.598 293.435 316.526 297.504 315.16C302.219 313.671 306.645 311.386 310.59 308.405C315.179 304.683 319.492 300.633 323.495 296.288C324.07 295.562 324.865 295.042 325.761 294.807C326.657 294.572 327.606 294.635 328.463 294.986C337.005 297.136 345.639 297.773 353 293.138ZM322.374 159.489C317.012 164.184 312.377 168.576 307.409 172.544C303.759 175.51 299.845 178.136 295.717 180.39C294.168 181.48 292.366 182.153 290.482 182.344C288.599 182.534 286.698 182.237 284.963 181.481C281.992 179.774 279.138 177.871 276.42 175.786C275.433 174.866 274.134 174.354 272.785 174.354C271.436 174.354 270.137 174.866 269.15 175.786C266.969 177.937 268.938 180.087 270.483 181.844C272.28 183.822 274.467 185.406 276.908 186.496C279.348 187.586 281.987 188.157 284.66 188.175C293.973 188.032 302.88 184.337 309.56 177.846C313.741 174.18 317.951 170.575 321.95 166.698C323.146 165.325 324.757 164.379 326.538 164.002C328.32 163.625 330.175 163.838 331.825 164.608C336.975 166.668 342.034 168.97 347.244 170.878C356.908 174.392 365.147 171.454 372.024 164.517C373.588 162.46 374.496 159.979 374.629 157.398C374.629 156.278 373.023 154.369 371.781 153.884C370.992 153.832 370.2 153.942 369.455 154.208C368.71 154.474 368.028 154.889 367.449 155.429C366.359 156.368 366.026 158.156 365.147 159.458C359.937 167.152 357.604 168.546 348.668 165.91C348.002 165.698 347.305 165.426 346.638 165.153L329.887 158.247C332.454 151.429 336.681 145.359 342.185 140.586C343.185 139.677 343.064 137.557 343.488 135.951C342.064 135.951 340.216 135.255 339.277 135.951C334.117 139.595 328.212 142.047 321.988 143.131C315.765 144.216 309.378 143.905 303.29 142.222C301.987 141.889 299.443 142.464 299.079 143.312C298.811 143.793 298.646 144.324 298.593 144.872C298.54 145.42 298.601 145.973 298.772 146.496C298.942 147.019 299.219 147.501 299.585 147.913C299.95 148.324 300.397 148.655 300.897 148.886C302.956 149.916 305.107 150.704 307.167 151.703C312.135 154.187 317.133 156.793 322.374 159.489ZM408.375 124.471C409.314 123.774 410.314 123.017 411.404 122.32C412.495 121.623 412.676 121.441 413.343 121.048C414.009 120.654 416.372 119.897 416.372 119.321C416.346 118.65 416.182 117.992 415.891 117.387C415.599 116.782 415.185 116.245 414.676 115.807C411.949 114.03 409.127 112.402 406.224 110.93C395.64 104.728 383.728 101.144 371.478 100.479C366.555 100.565 361.662 101.257 356.908 102.539C355.696 102.812 354.484 105.023 354.151 106.538C353.969 107.386 355.696 108.598 356.544 109.567C356.817 109.87 357.301 110.173 357.271 110.476C357.271 113.505 359.18 113.505 361.421 113.505C363.436 113.314 365.465 113.314 367.48 113.505C379.975 114.963 392.208 118.144 403.831 122.956C405.224 123.441 406.678 123.835 408.375 124.471ZM259.547 116.231C256.518 116.625 253.822 116.837 251.217 117.382C239.736 119.836 230.012 125.925 220.682 132.71C217.894 134.831 215.281 137.171 212.866 139.708C211.533 141.041 210.655 143.525 213.048 144.07C215.746 144.809 218.622 144.539 221.136 143.312C234.135 134.783 249.032 129.581 264.515 128.166C265.951 127.825 267.282 127.138 268.393 126.167C269.28 125.471 270.057 124.644 270.695 123.713C271.361 122.805 272.512 121.623 272.331 120.684C272.132 120.09 271.803 119.548 271.368 119.098C270.933 118.647 270.403 118.299 269.816 118.079C266.333 117.352 262.758 116.716 259.547 116.231ZM366.541 83.3945C368.69 83.1871 370.774 82.5427 372.665 81.5009C374.555 80.4591 376.214 79.0418 377.537 77.336C379.718 74.7006 381.475 71.6714 379.567 68.0666C378.589 66.2987 377.026 64.9266 375.146 64.1859C373.267 63.4451 371.188 63.382 369.267 64.0074C365.451 65.9145 361.972 68.4315 358.968 71.4593C357.874 72.4639 357.166 73.8196 356.967 75.2912C356.768 76.7629 357.09 78.2579 357.877 79.5171C359.452 82.516 362.027 83.6368 366.541 83.3945ZM261.728 104.599C267.787 104.599 271.149 99.934 268.059 94.8146C266.722 92.512 264.918 90.5142 262.764 88.9493C260.61 87.3843 258.152 86.2867 255.549 85.7269C254.398 85.4177 253.184 85.4392 252.046 85.789C250.907 86.1387 249.89 86.8025 249.112 87.7041C248.334 88.6057 247.826 89.7086 247.646 90.886C247.467 92.0634 247.623 93.2676 248.097 94.3602C249.172 97.1787 251.022 99.6355 253.434 101.447C255.847 103.259 258.722 104.352 261.728 104.599Z" fill="white"/>
<path d="M416.342 541.383C417.19 539.292 417.584 536.021 418.795 535.718C422.158 534.809 421.825 538.384 422.37 540.322C424.763 547.168 426.793 548.622 432.003 546.775C431.171 544.434 430.563 542.02 430.185 539.565C430.185 538.263 431.397 536.869 432.064 535.536C433.128 536.412 434.066 537.432 434.851 538.565C435.702 540.721 436.42 542.926 437.001 545.169C439.693 542.053 442.192 538.775 444.484 535.355C447.513 530.447 449.815 525.298 452.299 520.208C452.976 518.65 453.973 517.251 455.225 516.103C456.478 514.955 457.958 514.083 459.569 513.544C466.685 511.322 472.85 506.778 477.078 500.64C477.442 500.125 477.745 499.428 478.23 499.246C479.653 498.761 481.259 498.489 482.592 498.125C482.592 499.549 483.198 501.397 482.592 502.366C478.593 508.243 474.019 513.877 467.173 516.21C464.178 517.236 461.451 518.919 459.192 521.136C456.933 523.354 455.198 526.048 454.117 529.023C451.611 534.665 448.372 539.951 444.484 544.745C436.365 554.651 425.854 555.59 415.615 547.774C406.866 540.752 400.222 531.455 396.409 520.905C393.138 512.999 390.654 504.79 388.321 498.156C387.715 505.698 387.291 514.756 386.11 523.722C385.078 532.766 382.399 541.544 378.203 549.622C376.132 553.642 373.238 557.18 369.708 560.007C366.179 562.834 362.093 564.886 357.718 566.029C353.343 567.172 348.776 567.381 344.315 566.642C339.854 565.903 335.598 564.232 331.825 561.739C325.469 557.477 320.081 551.924 316.013 545.442C315.134 544.17 314.195 542.928 313.741 542.413C308.994 547.225 303.934 551.718 298.594 555.862C289.688 561.921 279.207 563.769 268.574 564.465C267.332 564.465 265.999 563.072 264.697 562.314C265.909 561.285 266.999 559.588 268.393 559.285C274.118 557.922 280.086 557.347 285.75 555.741C294.46 553.513 302.023 548.111 306.955 540.595C307.56 539.689 308.218 538.819 308.924 537.99C309.386 537.296 310.012 536.728 310.747 536.334C311.481 535.941 312.302 535.735 313.135 535.735C313.968 535.735 314.788 535.941 315.523 536.334C316.258 536.728 316.884 537.296 317.345 537.99C319.617 540.656 321.465 543.685 323.586 546.472C328.16 553.086 334.763 558.03 342.397 560.558C341.928 558.733 341.644 556.866 341.549 554.984C341.836 553.626 342.348 552.325 343.064 551.137C344.154 552.136 345.79 552.924 346.275 554.166C346.988 556.571 347.484 559.034 347.759 561.527C349.153 561.527 350.486 561.527 351.788 561.527C358.513 561.103 358.513 561.073 358.513 554.56C358.388 553.598 358.45 552.621 358.695 551.682C358.998 550.925 359.907 549.864 360.543 549.895C361.034 549.922 361.512 550.068 361.934 550.322C362.357 550.575 362.711 550.928 362.966 551.349C363.504 553.633 363.889 555.95 364.117 558.286C366.8 555.771 369.3 553.068 371.6 550.198C376.418 542.322 379.515 533.516 380.687 524.358C384.232 505.601 382.981 486.251 377.052 468.106C371.539 451.203 361.664 437.571 345.427 429.604C339.779 426.796 334.791 422.823 330.791 417.946C326.791 413.069 323.871 407.399 322.223 401.311C320.617 396.222 318.951 391.164 317.043 386.165C309.802 366.107 296.915 348.57 279.934 335.668C275.436 332.898 270.738 330.468 265.878 328.398C264.839 327.642 263.92 326.733 263.152 325.702C264.273 325.066 265.545 323.672 266.484 323.884C269.647 324.437 272.71 325.458 275.572 326.914C290.718 335.335 301.896 348.118 311.287 362.386C317.353 372.162 322.109 382.693 325.434 393.708C326.645 397.373 327.948 401.008 329.311 404.643C330.651 408.679 332.776 412.411 335.562 415.623C338.349 418.836 341.742 421.467 345.548 423.364C354.162 427.496 361.834 433.356 368.088 440.578C374.341 447.801 379.042 456.233 381.899 465.349C382.282 466.09 382.707 466.808 383.171 467.5C382.899 465.106 382.747 462.7 382.717 460.29C383.202 447.749 383.353 435.148 384.534 422.637C385.414 417.777 387.257 413.142 389.957 409.006C392.409 405.097 393.476 400.477 392.986 395.889C389.221 368.352 393.724 340.316 405.921 315.342C406.591 313.662 407.455 312.065 408.496 310.586C409.162 309.738 410.647 309.556 411.737 309.072C412.101 310.344 412.495 311.586 412.737 312.858C412.737 313.252 412.343 313.706 412.131 314.161C405.588 328.277 400.014 342.756 398.378 358.296C397.575 369.136 397.575 380.021 398.378 390.861C398.802 399.191 398.378 406.794 393.562 414.064C391.229 417.877 389.818 422.182 389.442 426.636C385.953 455.342 389.114 484.467 398.681 511.757C402.026 522.426 407.707 532.216 415.312 540.413C415.636 540.756 415.98 541.079 416.342 541.383Z" fill="#FF7596" fill-opacity="0.95"/>
<path d="M353 293.138C345.639 297.773 337.036 297.136 328.463 294.925C327.606 294.574 326.657 294.511 325.761 294.746C324.865 294.981 324.07 295.501 323.495 296.228C319.492 300.573 315.179 304.623 310.59 308.345C306.645 311.326 302.219 313.61 297.504 315.1C293.435 316.465 289.043 316.537 284.932 315.306C280.82 314.074 277.191 311.6 274.542 308.223C266.216 298.918 261.554 286.904 261.425 274.417C261.425 257.484 270.513 249.214 287.235 250.396C298.061 251.78 308.578 254.975 318.345 259.847C321.767 256.871 325.756 254.62 330.073 253.229C334.389 251.839 338.942 251.339 343.458 251.759C344.73 251.628 345.918 251.06 346.82 250.153C356.835 241.658 368.739 235.685 381.536 232.735C384.751 232.129 388.038 232.007 391.29 232.372C393.256 232.452 395.144 233.169 396.668 234.415C398.192 235.66 399.271 237.367 399.741 239.278C400.769 242.879 401.438 246.572 401.741 250.305C403.086 262.714 402.245 275.263 399.257 287.382C398.984 288.321 398.711 289.261 398.409 290.169C394.561 301.408 388.412 305.315 376.992 302.014C368.994 299.863 361.391 296.319 353 293.138ZM321.647 290.684C317.79 283.68 315.965 275.738 316.376 267.753C316.376 265.027 315.589 263.603 313.347 262.937C305.027 260.058 296.527 257.731 287.901 255.969C273.785 253.909 266.908 260.574 266.999 274.781C267.22 285.656 271.313 296.096 278.541 304.225C281.08 306.958 284.316 308.948 287.901 309.98C295.202 312.252 301.472 308.799 306.925 304.376C312.378 299.954 316.618 295.44 321.647 290.684ZM397.015 259.544C396.682 256.151 396.258 250.002 395.349 243.913C394.592 238.945 392.683 237.582 387.685 237.582C386.122 237.526 384.559 237.638 383.02 237.915C371.051 240.652 359.876 246.115 350.364 253.879C349.956 254.107 349.598 254.416 349.313 254.787C349.027 255.158 348.82 255.583 348.704 256.036C348.588 256.49 348.565 256.962 348.637 257.424C348.709 257.886 348.874 258.329 349.122 258.726C352.907 266.998 355.106 275.906 355.605 284.989C355.663 285.605 355.862 286.199 356.188 286.725C356.514 287.25 356.957 287.693 357.483 288.018C364.426 291.385 371.556 294.348 378.839 296.894C386.534 299.287 389.896 297.076 392.774 289.473C396.046 280.718 396.682 271.54 397.015 259.544ZM349.88 281.93C349.021 273.806 346.648 265.915 342.882 258.665C342.452 258.037 341.872 257.526 341.195 257.177C340.519 256.828 339.766 256.653 339.005 256.666C334.46 257.776 330.005 259.224 325.676 260.998C324.248 261.576 323.059 262.622 322.305 263.966C321.55 265.309 321.276 266.869 321.526 268.389C321.98 272.691 322.647 276.992 323.465 281.233C323.78 283.853 325.058 286.263 327.051 287.993C329.045 289.723 331.61 290.65 334.249 290.593C337.486 290.821 340.735 290.821 343.973 290.593C349.122 290.048 350.031 288.836 349.88 281.93Z" fill="#FF7596" fill-opacity="0.95"/>
<path d="M322.374 159.489C317.133 156.793 312.135 154.187 307.228 151.643C305.168 150.643 303.017 149.856 300.957 148.826C300.458 148.595 300.011 148.264 299.645 147.852C299.28 147.441 299.003 146.959 298.832 146.435C298.662 145.912 298.601 145.359 298.654 144.812C298.707 144.264 298.872 143.733 299.14 143.252C299.503 142.404 302.169 141.828 303.35 142.161C309.439 143.844 315.825 144.155 322.049 143.071C328.272 141.986 334.177 139.534 339.338 135.891C340.277 135.224 342.125 135.891 343.549 135.891C343.124 137.466 343.246 139.617 342.246 140.526C336.742 145.298 332.514 151.368 329.947 158.186L346.699 165.093C347.365 165.365 348.062 165.638 348.729 165.85C357.816 168.576 359.997 167.092 365.208 159.398C366.086 158.095 366.42 156.369 367.51 155.369C368.088 154.829 368.771 154.413 369.516 154.148C370.261 153.882 371.053 153.772 371.842 153.824C373.084 154.187 374.871 156.217 374.689 157.338C374.557 159.919 373.649 162.4 372.084 164.457C365.208 171.393 356.938 174.332 347.305 170.818C342.094 168.909 337.036 166.607 331.886 164.547C330.236 163.777 328.38 163.565 326.599 163.942C324.817 164.319 323.207 165.265 322.011 166.638C318.012 170.515 313.801 174.12 309.621 177.785C302.941 184.277 294.034 187.972 284.72 188.115C282.048 188.097 279.408 187.525 276.968 186.435C274.528 185.346 272.34 183.762 270.543 181.784C268.998 180.118 267.029 177.967 269.21 175.725C270.197 174.805 271.496 174.294 272.846 174.294C274.195 174.294 275.494 174.805 276.481 175.725C279.228 177.814 282.112 179.717 285.114 181.42C286.849 182.177 288.75 182.474 290.634 182.283C292.517 182.092 294.32 181.419 295.868 180.33C299.996 178.076 303.91 175.449 307.561 172.484C312.377 168.576 317.012 164.184 322.374 159.489ZM324.979 154.793L328.917 147.251L315.195 149.189L324.979 154.793Z" fill="#FF7596" fill-opacity="0.95"/>
<path d="M408.375 124.471C406.587 123.835 405.346 123.441 403.891 122.896C392.269 118.083 380.035 114.902 367.54 113.444C365.525 113.253 363.497 113.253 361.482 113.444C359.24 113.596 357.211 113.687 357.332 110.415C357.332 110.112 356.877 109.809 356.605 109.506C355.756 108.476 354.03 107.265 354.212 106.477C354.545 104.963 355.756 102.751 356.968 102.479C361.722 101.196 366.616 100.505 371.539 100.419C383.788 101.084 395.701 104.667 406.285 110.87C409.188 112.341 412.009 113.969 414.736 115.747C415.246 116.184 415.659 116.722 415.951 117.327C416.243 117.931 416.407 118.59 416.433 119.26C416.433 119.836 414.464 120.412 413.403 120.987C412.343 121.563 412.101 121.805 411.465 122.259C410.828 122.714 409.314 123.774 408.375 124.471Z" fill="#FF7596" fill-opacity="0.95"/>
<path d="M259.547 116.231C262.758 116.837 266.333 117.352 269.816 118.261C270.403 118.481 270.933 118.829 271.368 119.279C271.803 119.73 272.132 120.272 272.331 120.866C272.512 121.684 271.361 122.865 270.695 123.895C270.057 124.826 269.28 125.653 268.393 126.349C267.282 127.32 265.951 128.006 264.515 128.348C249.032 129.763 234.135 134.964 221.136 143.494C218.622 144.721 215.746 144.99 213.048 144.252C210.655 143.706 211.533 141.222 212.866 139.89C215.281 137.353 217.894 135.013 220.682 132.892C230.012 126.107 239.736 120.018 251.217 117.564C253.822 116.716 256.488 116.716 259.547 116.231Z" fill="#FF7596" fill-opacity="0.95"/>
<path d="M366.541 83.3945C362.027 83.3945 359.452 82.3949 357.877 79.608C357.09 78.3488 356.768 76.8538 356.967 75.3822C357.166 73.9105 357.874 72.5548 358.968 71.5502C361.972 68.5224 365.451 66.0054 369.267 64.0984C371.188 63.4729 373.267 63.536 375.146 64.2768C377.026 65.0175 378.589 66.3897 379.567 68.1575C381.475 71.7623 379.567 74.7915 377.537 77.4269C376.205 79.116 374.543 80.5161 372.653 81.5421C370.762 82.5681 368.683 83.1984 366.541 83.3945ZM365.602 79.0021C368.267 77.3057 371.024 75.7306 373.508 73.8222C374.205 73.2769 374.72 71.0656 374.356 70.7929C373.387 69.975 371.539 69.036 370.691 69.4601C367.894 70.7405 365.326 72.4698 363.087 74.5795C361.239 76.4576 362.451 78.2751 365.602 79.1233V79.0021Z" fill="#FF7596" fill-opacity="0.95"/>
<path d="M261.728 104.599C258.718 104.349 255.841 103.252 253.428 101.435C251.016 99.6174 249.167 97.1541 248.097 94.33C247.623 93.2374 247.467 92.0332 247.646 90.8558C247.826 89.6784 248.334 88.5756 249.112 87.674C249.89 86.7724 250.907 86.1086 252.046 85.7589C253.184 85.4091 254.398 85.3876 255.549 85.6968C258.152 86.2566 260.61 87.3541 262.764 88.9191C264.918 90.484 266.722 92.4819 268.059 94.7845C271.149 99.9645 267.878 104.599 261.728 104.599ZM263.031 98.9042C262.668 96.6444 261.485 94.5978 259.708 93.1558C257.93 91.7138 255.684 90.9779 253.398 91.0888C253.442 92.2637 253.736 93.4156 254.26 94.4679C254.785 95.5201 255.528 96.4484 256.439 97.1909C257.351 97.9334 258.41 98.473 259.547 98.7737C260.684 99.0743 261.871 99.1291 263.031 98.9345V98.9042Z" fill="#FF7596" fill-opacity="0.95"/>
<path d="M321.647 290.684C316.618 295.38 312.014 300.196 306.864 304.376C301.714 308.557 295.141 312.252 287.84 309.98C284.255 308.948 281.02 306.958 278.48 304.225C271.252 296.096 267.16 285.656 266.939 274.781C266.939 260.574 273.724 253.91 287.84 255.969C296.466 257.731 304.966 260.058 313.286 262.937C315.588 263.603 316.316 265.027 316.316 267.753C315.922 275.744 317.769 283.686 321.647 290.684Z" fill="#DEFFFF"/>
<path d="M397.015 259.544C396.682 271.661 396.046 280.748 392.774 289.442C389.896 297.045 386.534 299.257 378.839 296.864C371.556 294.318 364.426 291.354 357.483 287.988C356.957 287.663 356.514 287.22 356.188 286.694C355.862 286.169 355.663 285.575 355.605 284.959C355.106 275.876 352.907 266.967 349.122 258.696C348.874 258.299 348.709 257.856 348.637 257.394C348.565 256.931 348.588 256.459 348.704 256.006C348.82 255.553 349.027 255.128 349.313 254.757C349.598 254.386 349.956 254.077 350.364 253.849C359.876 246.085 371.051 240.622 383.02 237.885C384.559 237.607 386.122 237.496 387.685 237.552C392.683 237.552 394.592 238.915 395.349 243.883C396.258 250.002 396.682 256.06 397.015 259.544Z" fill="#DEFFFF"/>
<path d="M349.88 281.93C350.031 288.836 349.153 290.048 343.973 290.533C340.735 290.76 337.486 290.76 334.249 290.533C331.61 290.589 329.045 289.662 327.051 287.932C325.058 286.202 323.78 283.793 323.465 281.172C322.647 276.932 321.98 272.63 321.526 268.329C321.276 266.808 321.55 265.248 322.305 263.905C323.059 262.562 324.248 261.515 325.676 260.937C330.005 259.163 334.46 257.715 339.005 256.605C339.766 256.592 340.519 256.768 341.195 257.117C341.872 257.466 342.452 257.977 342.882 258.605C346.655 265.873 349.029 273.785 349.88 281.93Z" fill="#DEFFFF"/>
<path d="M324.888 154.793L315.104 149.189L328.826 147.25L324.888 154.793Z" fill="#FFDCE9"/>
<path d="M365.602 79.1233C362.572 78.2751 361.27 76.4576 363.087 74.6704C365.326 72.5607 367.894 70.8314 370.691 69.551C371.539 69.1269 373.387 70.0659 374.356 70.8838C374.72 71.1867 374.205 73.3981 373.508 73.913C371.024 75.8517 368.267 77.3361 365.602 79.1233Z" fill="white"/>
<path d="M263.031 98.9345C261.874 99.1289 260.689 99.0749 259.554 98.776C258.419 98.4771 257.361 97.9402 256.45 97.201C255.539 96.4618 254.796 95.5372 254.269 94.4886C253.743 93.44 253.446 92.2914 253.398 91.1191C255.684 91.0082 257.93 91.7442 259.708 93.1861C261.485 94.6281 262.668 96.6748 263.031 98.9345Z" fill="white"/>
</g>
<defs>
<clipPath id="clip0_88_13">
<rect width="529" height="850" fill="white"/>
</clipPath>
</defs>
</svg>
