<svg width="524" height="786" viewBox="0 0 524 786" fill="none" xmlns="http://www.w3.org/2000/svg">
<g clip-path="url(#clip0_109_2)">
<path d="M475.39 652.513L507.14 684.899C507.671 685.404 508.149 685.963 508.565 686.567C518.663 702.851 526.092 719.62 523.484 739.725C521.271 756.858 517.814 773.415 509.202 788.486C506.074 793.896 502.406 798.976 498.255 803.648C480.394 823.844 457.954 837.459 433.452 848.133C406.959 859.293 379.117 866.929 350.637 870.846C321.429 874.789 291.908 875.906 262.485 874.182C229.782 872.54 197.351 867.386 165.751 858.807C128.24 849.013 95.824 829.393 65.0451 806.589C48.0636 794.005 36.4191 777.235 27.7161 758.071C14.1514 728.791 5.23027 697.578 1.27353 665.552C-0.6861 647.384 -0.298815 629.039 2.42584 610.969C7.10247 577.363 15.0133 544.288 26.0483 512.203C38.4205 476.239 53.34 441.457 75.6585 410.284C84.4221 397.973 94.5201 386.601 104.042 374.836C104.345 374.441 104.709 373.895 105.073 373.865C109.561 373.986 108.985 370.348 109.561 367.649C113.331 344.014 121.564 321.312 133.82 300.754C138.763 292.445 143.342 283.894 148.072 275.464C149.537 273.254 150.336 270.67 150.373 268.02C150.411 265.369 149.686 262.764 148.285 260.514C136.557 240.145 130.29 217.092 130.09 193.589C130.054 192.038 129.704 190.511 129.059 189.101C122.517 173.658 118.424 157.288 116.93 140.582C115.016 127.016 114.812 113.262 116.323 99.645C117.376 91.9868 119.143 84.4438 121.599 77.1142C125.542 65.5304 134.517 59.4959 146.223 56.8274C162.355 53.1582 178.305 54.9473 194.044 58.7985C196.467 59.5108 199.02 59.6626 201.51 59.2423C204 58.822 206.362 57.8407 208.417 56.3726C235.043 39.2453 265.429 28.8392 296.964 26.0485C313.502 24.5011 330.166 24.9286 346.604 27.3221C348.605 27.4142 350.586 26.8846 352.275 25.8059C365.799 17.4971 379.293 9.03676 394.486 4.06362C400.352 2.1719 406.383 0.83181 412.498 0.0608237C422.93 -1.30376 431.421 3.09324 438.547 10.4013C448.736 20.7115 454.891 33.4173 459.774 46.7902C465.844 64.3627 469.099 82.7845 469.417 101.373C469.647 104.093 470.487 106.725 471.873 109.076C482.137 126.886 488.426 146.707 490.31 167.177C492.969 196.668 486.625 226.272 472.115 252.084C469.508 256.845 466.93 261.606 464.504 266.457C463.774 268.06 463.452 269.818 463.569 271.575C463.685 273.332 464.236 275.033 465.171 276.525C478.362 302.877 490.552 329.683 497.284 358.4C502.523 380.286 505.63 402.628 506.564 425.113C507.261 444.46 508.444 463.837 508.535 483.183C508.303 517.255 503.572 551.148 494.464 583.98C490.189 600.355 486.065 616.791 481.607 633.136C479.666 640.323 477.21 646.903 475.39 652.513ZM107.196 380.294C95.5463 392.75 84.9473 406.148 75.5069 420.352C56.7363 449.19 43.1207 480.454 31.7795 512.749C21.4413 542.883 13.7006 573.845 8.64227 605.298C5.03735 624.481 4.30154 644.092 6.45894 663.49C10.3654 694.035 18.6267 723.864 30.9911 752.067C39.8761 772.384 51.3689 790.396 69.8969 803.617C95.2781 821.63 121.175 838.672 150.953 848.558C188.893 861.016 228.424 867.97 268.338 869.208C298.506 870.701 328.748 869.075 358.582 864.357C394.395 858.292 428.509 847.345 459.804 828.665C476.998 818.385 492.281 805.589 503.016 788.334C513.75 771.08 518.178 750.884 518.39 730.385C518.265 723.73 517.162 717.129 515.115 710.796C513.348 705.922 510.963 701.295 508.019 697.029C505.552 692.906 502.753 688.991 499.65 685.323C495.222 680.199 490.158 675.65 485.761 670.495C481.147 664.851 475.377 660.26 468.84 657.031C450.266 647.882 429.063 645.563 408.95 650.481C380.575 657.277 353.721 669.32 329.774 685.991C312.459 697.787 296.084 711.038 278.223 721.955C233.435 749.246 185.189 764.409 131.97 759.708C118.257 758.627 104.962 754.482 93.0645 747.579C91.8212 746.851 90.305 744.546 90.6386 743.576C91.6696 740.998 93.671 742.545 95.5207 743.242C103.358 746.701 111.41 749.649 119.628 752.067C139.582 756.797 159.808 756.039 179.943 752.885C202.465 749.253 224.414 742.688 245.231 733.357C245.989 732.993 246.99 732.174 247.05 731.507C247.869 723.683 249.719 715.738 248.93 708.066C247.361 693.392 245.043 678.807 241.986 664.37C236.168 635.802 222.915 609.275 203.565 587.468C191.345 573.975 177.228 562.33 161.658 552.898C156.654 549.866 151.529 546.833 146.496 543.407C145.586 542.8 145.434 541.102 144.919 539.92C146.132 539.426 147.43 539.179 148.739 539.192C150.358 539.731 151.882 540.519 153.258 541.527C159.08 545.196 164.933 548.896 170.724 552.656C187.024 562.797 201.499 575.611 213.542 590.561C231.948 614.34 244.226 642.28 249.294 671.92C252.327 687.84 255.935 703.73 253.812 720.135C253.418 723.168 253.206 726.2 252.872 729.566C254.335 728.972 255.763 728.293 257.148 727.534C270.885 718.922 284.713 710.432 298.268 701.516C314.43 690.873 330.32 679.744 346.483 669.07C347.526 668.548 348.389 667.726 348.961 666.711C349.534 665.695 349.79 664.531 349.697 663.369C349.515 650.42 349.697 637.472 349.424 624.524C349.242 613.516 349.212 602.448 348.242 591.501C347.362 581.524 342.753 577.491 333.08 576.157C330.789 575.926 328.538 575.406 326.378 574.61C325.013 574.034 324.073 572.427 322.951 571.275C324.406 570.552 325.976 570.09 327.591 569.91C331.806 570.274 335.96 571.548 340.145 571.639C352.532 571.621 364.816 569.382 376.413 565.028C378.687 564.24 381.628 561.995 383.054 565.361C384.479 568.727 380.87 569.364 378.778 570.486C362.555 579.098 353.761 592.138 354.185 610.908C354.519 624.706 354.701 638.503 354.913 652.331C354.913 656.243 354.913 660.185 354.913 664.46L357.49 663.399C368.892 658.699 380.203 653.665 391.757 649.359C411.134 642.065 432.237 640.672 452.405 645.356C458.47 646.721 464.11 648.995 470.175 650.936C470.751 649.329 471.479 647.661 471.933 645.932C479.181 618.792 487.096 591.834 493.16 564.421C497.586 544.935 500.496 525.135 501.863 505.199C503.612 473.121 502.781 440.955 499.377 409.011C496.344 378.383 490.431 348.363 478.302 319.949C473.056 307.607 469.204 294.659 460.683 283.863C456.468 278.435 454.103 278.284 449.524 283.227C446.219 286.775 442.853 290.292 439.274 293.537C438.395 294.295 436.515 293.931 435.09 294.083C435.044 292.744 435.281 291.411 435.787 290.171C437.237 288.228 438.85 286.412 440.609 284.743C450.687 274.566 459.31 263.045 466.233 250.507C491.311 203.656 491.947 156.775 465.505 110.198C461.549 103.818 457.257 97.654 452.647 91.7304C451.313 89.911 450.191 88.0612 452.162 86.3024C454.133 84.5436 455.558 86.6662 456.741 88.0611C458.652 90.3051 460.471 92.6704 462.594 95.3086C462.734 94.8015 462.835 94.2845 462.897 93.7621C462.897 92.3065 462.897 90.7297 462.897 89.3954C461.572 71.5721 457.117 54.1217 449.736 37.8445C445.796 28.4217 439.965 19.9071 432.603 12.8272C429.457 9.7429 425.589 7.49459 421.352 6.28702C417.115 5.07946 412.643 4.951 408.344 5.91334C397.892 8.07946 387.797 11.7033 378.353 16.6784C371.076 20.4386 364.04 24.593 356.217 28.9596C363.191 30.87 369.256 32.5075 375.291 34.236C376.57 34.5544 377.761 35.1554 378.778 35.9948C379.148 36.348 379.423 36.7888 379.576 37.2766C379.73 37.7644 379.758 38.2831 379.657 38.7846C378.856 39.6203 377.778 40.1374 376.625 40.2402C375.779 40.2377 374.947 40.0295 374.199 39.6337C347.532 31.1837 319.343 28.6485 291.596 32.2043C252.131 36.6579 215.066 53.4084 185.644 80.0859C184.767 81.0577 183.744 81.8866 182.611 82.5422C182.115 82.727 181.582 82.7929 181.056 82.735C180.529 82.6771 180.024 82.4968 179.579 82.2086C179.356 81.7776 179.239 81.2992 179.239 80.8137C179.239 80.3283 179.356 79.8498 179.579 79.4188C180.793 77.6088 182.218 75.9496 183.824 74.476C187.372 71.2617 191.102 68.2596 195.287 64.6813C179.124 60.8605 163.629 58.6165 147.678 61.9824C135.791 64.4084 127.725 71.0797 124.935 82.7848C122.34 92.0962 120.884 101.688 120.599 111.35C121.198 126.381 122.574 141.371 124.723 156.26C125.831 163.212 127.33 170.096 129.211 176.88L130.242 176.729C130.848 172.726 131.424 168.693 132.152 164.599C132.513 161.845 133.142 159.133 134.032 156.503C134.518 155.259 136.337 154.562 137.55 153.47C138.196 154.726 138.705 156.047 139.066 157.412C139.052 158.619 138.847 159.817 138.46 160.96C134.619 177.83 134.073 195.283 136.852 212.359C142.644 246.717 159.444 274.888 185.371 297.782C187.605 299.445 189.723 301.258 191.709 303.21C192.527 304.181 192.133 306.243 192.285 307.698C190.98 307.68 189.681 307.538 188.403 307.274C187.618 306.948 186.928 306.426 186.402 305.757C179.246 298.874 172.059 292.051 165.175 285.016C164.25 283.934 163.101 283.065 161.808 282.47C160.515 281.874 159.109 281.566 157.685 281.566C156.262 281.566 154.855 281.874 153.562 282.47C152.269 283.065 151.12 283.934 150.195 285.016C148.251 287.007 146.542 289.215 145.101 291.596C139.187 302.452 132.971 313.187 127.877 324.376C118.082 345.755 113.806 368.619 111.865 391.908C109.208 417.507 111.713 443.378 119.234 467.991C119.841 469.81 120.447 472.024 118.112 472.509C117.296 472.428 116.514 472.145 115.836 471.684C115.158 471.223 114.606 470.6 114.231 469.871C112.6 465.707 111.312 461.417 110.38 457.044C106.167 438.147 104.646 418.751 105.861 399.428C106.316 393.151 106.71 387.026 107.196 380.294Z" fill="#FF7596"/>
<path d="M410.922 323.376C409.838 338.019 406.945 352.472 402.309 366.405C399.277 376.23 392.06 380.142 381.962 378.201C373.565 376.661 365.734 372.902 359.28 367.315C358.001 366.207 356.512 365.368 354.903 364.847C353.293 364.326 351.595 364.134 349.909 364.283C345.603 364.283 341.237 363.858 336.931 364.283C333.587 364.28 330.284 365.016 327.257 366.436C321.496 369.953 316.462 374.593 310.761 378.262C305.735 381.565 300.404 384.378 294.841 386.662C292.632 387.657 290.153 387.878 287.803 387.289C285.453 386.7 283.371 385.336 281.893 383.417C273.796 372.47 264.578 362.039 261.06 348.423C259.657 343.308 259.475 337.935 260.528 332.736C261.581 327.537 263.841 322.659 267.125 318.493C272.037 311.974 279.254 310.245 286.896 310.639C299.798 311.492 312.185 316.028 322.587 323.709C323.777 324.496 325.131 324.999 326.546 325.177C327.96 325.356 329.397 325.207 330.745 324.74C334.777 323.615 338.994 323.306 343.147 323.83C345.011 324.214 346.937 324.182 348.787 323.736C350.637 323.291 352.366 322.443 353.852 321.253C362.615 315.461 371.227 309.305 380.446 304.362C385.417 302.148 390.774 300.932 396.214 300.784C399.218 300.477 402.228 301.301 404.657 303.096C407.085 304.891 408.756 307.526 409.345 310.488C409.89 312.719 410.255 314.991 410.436 317.28C410.709 319.403 410.831 321.829 410.922 323.376ZM287.23 315.916C277.162 315.916 271.673 319.282 268.186 327.439C266.128 331.802 265.166 336.601 265.383 341.421C265.6 346.24 266.988 350.933 269.429 355.094C273.584 362.312 278.527 369.195 283.045 376.139C287.199 382.204 291.172 383.842 297.509 379.869C306.364 374.29 314.612 367.74 322.982 361.311C324.029 360.482 324.753 359.313 325.03 358.006C325.307 356.699 325.119 355.337 324.498 354.154C321.706 347.659 320.935 340.474 322.284 333.534C322.333 332.491 322.136 331.451 321.71 330.497C321.283 329.544 320.638 328.704 319.828 328.045C310.313 321.027 299.018 316.824 287.23 315.916ZM405.221 324.285C405.221 322.466 405.221 320.646 405.221 318.827C405.156 316.894 404.892 314.974 404.432 313.096C402.946 307.728 400.065 305.393 394.577 306.212C389.644 306.716 384.835 308.06 380.355 310.185C372.622 314.4 365.405 319.555 358.067 324.467C353.761 327.348 353.579 329.289 354.67 334.353C356.247 341.631 357.127 349.06 358.461 356.398C358.683 358.056 359.378 359.614 360.462 360.886C366.748 367.223 374.88 371.406 383.69 372.834C390.847 374.017 394.941 371.773 397.033 364.768C401.393 351.655 404.142 338.061 405.221 324.285ZM344.572 359.552C352.123 359.4 354.125 357.156 352.881 349.636C352.153 345.239 351.031 340.903 350.061 336.536C348.09 327.924 339.63 327.439 333.504 329.501C331.567 330.113 329.89 331.357 328.741 333.033C327.592 334.709 327.038 336.722 327.166 338.75C327.237 341.161 327.491 343.564 327.924 345.937C329.441 355.549 331.897 358.824 344.572 359.552Z" fill="#FF7596"/>
<path d="M332.655 205.991C339.054 208.265 345.179 210.509 351.335 212.662C353.153 213.384 355.14 213.574 357.062 213.209C358.985 212.843 360.763 211.939 362.191 210.6C362.661 210.213 363.157 209.858 363.677 209.539C365.617 208.296 367.983 207.811 369.044 210.024C369.384 210.906 369.499 211.859 369.377 212.797C369.255 213.734 368.901 214.626 368.347 215.392C366.013 217.045 363.302 218.087 360.462 218.424C354.024 219.003 347.55 217.796 341.752 214.937C340.873 214.543 339.963 214.148 339.053 213.815C327.894 209.448 331.351 208.417 323.437 217.999C317.372 225.49 310.913 232.767 300.875 234.708C297.433 235.202 293.926 234.996 290.565 234.102C290.006 233.986 289.48 233.747 289.026 233.401C288.571 233.056 288.2 232.613 287.939 232.105C287.678 231.597 287.535 231.038 287.519 230.467C287.503 229.896 287.615 229.33 287.847 228.808C288.078 228.286 288.424 227.823 288.858 227.453C289.293 227.082 289.805 226.814 290.356 226.667C290.908 226.521 291.485 226.499 292.046 226.605C292.607 226.711 293.137 226.941 293.598 227.279C300.117 231.918 305.424 228.401 309.851 224.398C315.446 219.039 320.703 213.337 325.59 207.325C325.84 206.708 325.932 206.038 325.858 205.376C325.784 204.714 325.546 204.082 325.165 203.535C321.193 199.532 316.978 195.772 312.823 191.982C312.308 191.527 311.307 191.496 310.913 190.981C310.003 189.768 308.426 187.948 308.729 187.099C309.578 184.673 311.58 185.765 313.278 186.553C317.46 188.715 322.196 189.567 326.869 188.999C331.542 188.431 335.936 186.47 339.478 183.369C340.63 182.46 342.51 182.581 344.209 182.217C344.209 183.885 344.633 185.886 343.905 187.16C340.509 193.407 336.658 199.441 332.655 205.991ZM334.475 192.8L325.377 194.589L329.956 199.744L334.475 192.8Z" fill="#FF7596"/>
<path d="M401.248 130.242C404.281 131.212 407.313 132.031 410.194 133.274C410.691 133.606 411.096 134.058 411.371 134.588C411.647 135.118 411.784 135.709 411.771 136.307C410.952 138.308 411.771 141.371 408.192 141.886C405.109 142.309 402.066 142.988 399.095 143.918C389.524 147.226 381.139 153.28 374.987 161.324C371.652 165.387 370.439 165.539 365.617 162.719C365.072 162.483 364.482 162.37 363.889 162.385H360.614C360.614 160.899 360.311 159.141 360.978 158.019C365.055 150.991 370.294 144.705 376.473 139.43C383.569 133.365 391.939 131.394 401.248 130.242Z" fill="#FF7596"/>
<path d="M235.709 181.702L229.644 181.368C230.008 179.64 229.826 177.487 230.797 176.243C234.81 171.05 239.836 166.725 245.569 163.529C251.303 160.334 257.625 158.336 264.153 157.655C267.768 157.113 271.457 157.375 274.959 158.424C278.46 159.472 281.687 161.28 284.409 163.719C285.364 164.973 286.025 166.425 286.345 167.967C286.665 169.51 286.636 171.105 286.259 172.635C285.228 174.242 280.012 174.788 277.678 173.544C269.824 169.299 261.788 170.512 254.146 173.544C249.46 175.724 245.044 178.442 240.985 181.641C238.074 183.885 237.104 184.037 235.709 181.702Z" fill="#FF7596"/>
<path d="M418.321 23.0159C421.353 22.9911 424.329 23.8344 426.897 25.4464C429.466 27.0584 431.519 29.3717 432.816 32.1131C436.136 39.457 438.775 47.0903 440.7 54.9168C441.095 56.0782 441.129 57.3323 440.797 58.5134C440.465 59.6945 439.783 60.7472 438.84 61.5324C437.897 62.3175 436.738 62.7982 435.516 62.911C434.295 63.0238 433.067 62.7635 431.997 62.1643C423.519 57.8921 415.406 52.9326 407.738 47.3358C405.504 45.866 403.895 43.6193 403.222 41.0311C402.55 38.4428 402.862 35.6972 404.099 33.3261C405.296 30.4685 407.256 27.9951 409.764 26.1767C412.272 24.3582 415.232 23.2648 418.321 23.0159ZM418.321 28.4438C416.36 28.6597 414.49 29.3829 412.895 30.5422C411.3 31.7015 410.034 33.2568 409.223 35.0546C408.812 35.7475 408.542 36.5155 408.43 37.3138C408.319 38.1121 408.368 38.9246 408.574 39.7038C408.78 40.4831 409.139 41.2134 409.631 41.8522C410.123 42.491 410.737 43.0252 411.437 43.4239C418.199 48.1848 425.356 52.5211 432.482 56.6755C434.483 57.8278 435.969 56.4633 435.514 54.2496C433.816 46.9719 432.118 39.6031 427.478 33.4776C426.451 31.9888 425.092 30.7591 423.508 29.8856C421.924 29.012 420.158 28.5184 418.351 28.4438H418.321Z" fill="#FF7596"/>
<path d="M133.547 107.317C133.547 101.009 135.003 95.4903 141.25 92.5489C144.36 90.8873 147.849 90.0639 151.374 90.1596C154.899 90.2553 158.339 91.2668 161.354 93.0947C163.186 94.1003 164.587 95.7393 165.296 97.7044C166.005 99.6695 165.973 101.826 165.206 103.769C164.561 105.972 163.611 108.075 162.385 110.016C158.049 116.535 153.652 123.055 149.013 129.362C144.858 135.003 140.097 134.396 137.884 127.755C135.67 121.114 134.366 114.291 132.637 107.559L133.547 107.317ZM143.251 127.846C148.618 120.144 153.622 113.351 158.11 106.255C161.991 100.191 160.293 96.6426 153.106 95.9148C149.764 95.706 146.422 96.3204 143.372 97.704C142.341 98.2673 141.441 99.0419 140.73 99.9773C140.019 100.913 139.514 101.988 139.248 103.132C138.254 111.582 139.64 120.142 143.251 127.846Z" fill="#FF7596"/>
<path d="M375.442 97.0066C374.367 99.3249 372.968 101.479 371.288 103.405C369.579 104.874 367.556 105.93 365.374 106.493C363.192 107.055 360.909 107.109 358.703 106.65C357.778 106.605 356.88 106.318 356.101 105.817C355.322 105.316 354.688 104.619 354.264 103.795C353.84 102.971 353.64 102.05 353.685 101.125C353.73 100.199 354.017 99.3018 354.519 98.5228C355.74 96.0597 357.577 93.9535 359.85 92.4077C362.124 90.8618 364.758 89.9287 367.497 89.6985C371.652 89.3043 374.624 92.367 375.442 97.0066ZM359.128 101.07C362.342 102.283 367.528 100.858 368.771 98.4015C369.104 97.5536 369.104 96.6112 368.771 95.7633C368.619 95.3994 367.315 95.2478 366.588 95.3387C364.949 95.5516 363.397 96.1939 362.087 97.2004C360.776 98.2069 359.756 99.5419 359.128 101.07Z" fill="#FF7596"/>
<path d="M259.908 109.773C262.576 109.847 265.195 110.508 267.58 111.708C269.964 112.908 272.055 114.618 273.705 116.717C274.631 117.787 275.141 119.154 275.141 120.568C275.141 121.983 274.631 123.35 273.705 124.42C273.08 125.625 272.032 126.557 270.762 127.039C269.492 127.52 268.089 127.516 266.822 127.027C263.065 125.236 259.616 122.862 256.602 119.992C255.831 119.061 255.293 117.958 255.035 116.776C254.776 115.595 254.804 114.368 255.116 113.2C255.965 111.35 258.907 110.44 259.908 109.773ZM260.09 115.201L259.392 116.444C261.879 118.203 264.335 120.022 266.882 121.63C267.262 121.709 267.654 121.705 268.031 121.615C268.409 121.526 268.762 121.355 269.065 121.114C269.308 120.932 269.065 119.628 268.762 119.204C267.813 117.815 266.505 116.71 264.978 116.005C263.451 115.3 261.762 115.023 260.09 115.201Z" fill="#FF7596"/>
<path d="M287.23 315.916C299.018 316.824 310.313 321.027 319.828 328.045C320.638 328.704 321.283 329.544 321.71 330.497C322.136 331.451 322.333 332.491 322.284 333.534C320.935 340.474 321.706 347.659 324.498 354.154C325.119 355.337 325.307 356.699 325.03 358.006C324.753 359.313 324.029 360.482 322.982 361.311C314.612 367.679 306.364 374.29 297.509 379.869C291.172 383.842 287.199 382.325 283.045 376.139C278.375 369.195 273.584 362.312 269.429 355.094C266.988 350.933 265.6 346.24 265.383 341.421C265.166 336.601 266.128 331.802 268.186 327.439C271.673 319.403 277.162 315.795 287.23 315.916Z" fill="#DEFFFF"/>
<path d="M405.221 324.285C404.142 338.103 401.382 351.739 397.003 364.889C394.91 371.894 390.938 374.138 383.66 372.955C374.85 371.527 366.718 367.344 360.432 361.008C359.348 359.735 358.653 358.177 358.431 356.52C357.096 349.181 356.217 341.752 354.64 334.474C353.548 329.41 353.73 327.469 358.036 324.588C365.375 319.676 372.592 314.521 380.324 310.306C384.804 308.181 389.614 306.838 394.546 306.333C400.035 305.515 402.916 307.85 404.402 313.217C404.861 315.095 405.126 317.016 405.19 318.948C405.342 320.646 405.221 322.435 405.221 324.285Z" fill="#DEFFFF"/>
<path d="M344.572 359.552C331.897 358.794 329.41 355.549 327.924 345.937C327.491 343.564 327.237 341.161 327.166 338.75C327.038 336.722 327.592 334.709 328.741 333.033C329.89 331.357 331.567 330.113 333.504 329.501C339.569 327.348 348.09 327.924 350.061 336.536C351.031 340.903 352.153 345.239 352.881 349.636C354.125 357.156 352.153 359.4 344.572 359.552Z" fill="#DEFFFF"/>
<path d="M334.475 192.8L329.865 199.744L325.286 194.589L334.475 192.8Z" fill="#FFDCE9"/>
<path d="M418.351 28.4438C420.153 28.523 421.912 29.0188 423.491 29.8922C425.069 30.7656 426.424 31.9928 427.448 33.4776C432.088 39.5425 433.786 46.9719 435.484 54.2496C436 56.4633 434.514 57.8278 432.452 56.6755C425.325 52.4605 418.169 48.1848 411.407 43.4239C410.706 43.0252 410.092 42.491 409.601 41.8522C409.109 41.2134 408.75 40.4831 408.543 39.7038C408.337 38.9246 408.289 38.1121 408.4 37.3138C408.512 36.5155 408.781 35.7475 409.193 35.0546C410.009 33.2486 411.284 31.6879 412.891 30.5281C414.497 29.3682 416.38 28.6496 418.351 28.4438Z" fill="#FFDCE9"/>
<path d="M143.251 127.846C139.641 120.142 138.254 111.582 139.248 103.132C139.514 101.988 140.02 100.913 140.73 99.9773C141.441 99.0419 142.341 98.2673 143.372 97.704C146.422 96.3204 149.764 95.706 153.106 95.9148C160.293 96.6426 161.991 100.13 158.11 106.255C153.622 113.351 148.618 120.144 143.251 127.846Z" fill="#FFDCE9"/>
<path d="M359.128 101.07C359.766 99.5255 360.805 98.1797 362.138 97.172C363.471 96.1643 365.049 95.5313 366.709 95.3387C367.437 95.3387 368.741 95.3388 368.892 95.7633C369.225 96.6112 369.225 97.5536 368.892 98.4015C367.528 100.858 362.342 102.283 359.128 101.07Z" fill="white"/>
<path d="M107.196 380.294C106.71 387.026 106.316 393.151 105.861 399.307C104.646 418.629 106.168 438.026 110.38 456.923C111.312 461.296 112.6 465.586 114.231 469.75C114.606 470.478 115.158 471.101 115.836 471.562C116.514 472.023 117.297 472.307 118.112 472.388C120.447 471.903 119.841 469.689 119.234 467.869C111.699 443.249 109.183 417.367 111.835 391.756C113.776 368.467 117.9 345.603 127.846 324.225C132.971 313.035 139.157 302.3 145.07 291.444C146.511 289.063 148.221 286.855 150.165 284.864C151.09 283.782 152.239 282.913 153.532 282.318C154.825 281.722 156.231 281.414 157.655 281.414C159.078 281.414 160.485 281.722 161.778 282.318C163.071 282.913 164.22 283.782 165.145 284.864C172.18 291.899 179.367 298.722 186.372 305.606C186.898 306.274 187.587 306.796 188.373 307.122C189.653 307.356 190.953 307.467 192.255 307.455C192.255 305.909 192.497 303.938 191.678 302.967C189.694 301.1 187.587 299.367 185.371 297.782C159.505 274.887 142.705 246.625 136.853 212.359C134.073 195.336 134.598 177.936 138.399 161.112C138.787 159.968 138.991 158.771 139.006 157.564C138.644 156.199 138.136 154.877 137.489 153.621C136.276 154.592 134.457 155.289 133.972 156.654C133.082 159.285 132.452 161.997 132.092 164.75C131.364 168.753 130.788 172.786 130.181 176.88L129.15 177.032C127.284 170.197 125.806 163.262 124.723 156.26C122.76 141.392 121.566 126.432 121.145 111.441C121.381 101.785 122.786 92.1933 125.329 82.8756C128.119 71.1402 136.185 64.4992 148.072 62.0733C164.023 58.8286 179.519 60.9513 195.681 64.7721C191.497 68.3503 187.767 71.3524 184.219 74.5668C182.613 76.0404 181.188 77.6996 179.973 79.5096C179.75 79.9407 179.633 80.419 179.633 80.9045C179.633 81.39 179.75 81.8683 179.973 82.2994C180.418 82.5876 180.923 82.7679 181.45 82.8259C181.977 82.8838 182.509 82.8177 183.006 82.633C184.138 81.9773 185.162 81.1485 186.038 80.1767C215.46 53.4992 252.525 36.7487 291.991 32.2951C319.737 28.7392 347.926 31.2745 374.593 39.7244C375.341 40.1203 376.173 40.3285 377.019 40.3309C378.173 40.2282 379.25 39.7111 380.052 38.8753C380.152 38.3739 380.124 37.8551 379.971 37.3674C379.817 36.8796 379.542 36.4387 379.172 36.0856C378.156 35.2462 376.964 34.6452 375.685 34.3267C369.62 32.5983 363.555 30.9608 356.611 29.0504C364.435 24.6837 371.47 20.5294 378.748 16.7692C388.191 11.794 398.287 8.17022 408.738 6.0041C413.038 5.04176 417.509 5.17021 421.747 6.37778C425.984 7.58535 429.851 9.83366 432.997 12.918C440.359 19.9979 446.19 28.5124 450.131 37.9353C457.511 54.2125 461.966 71.6629 463.291 89.4862C463.291 90.9417 463.291 92.5186 463.291 93.8528C463.229 94.3753 463.128 94.8923 462.988 95.3994C460.865 92.7612 459.046 90.3959 457.135 88.1519C455.953 86.757 454.831 84.3918 452.556 86.3932C450.282 88.3945 451.707 90.0017 453.042 91.8212C457.638 97.7061 461.92 103.83 465.869 110.167C492.311 156.745 491.675 203.626 466.597 250.476C459.674 263.015 451.051 274.536 440.973 284.712C439.214 286.381 437.601 288.197 436.151 290.14C435.645 291.38 435.408 292.714 435.454 294.052C436.879 294.052 438.759 294.264 439.638 293.506C443.217 290.262 446.583 286.744 449.888 283.196C454.467 278.253 456.832 278.405 461.047 283.833C469.447 294.628 473.419 307.577 478.666 319.919C490.795 348.393 496.86 378.353 499.741 408.98C503.144 440.925 503.976 473.091 502.227 505.168C500.86 525.104 497.95 544.904 493.524 564.391C487.459 591.683 479.424 618.762 472.297 645.902C471.843 647.63 471.115 649.298 470.539 650.905C464.474 648.965 458.712 646.69 452.769 645.326C432.601 640.642 411.498 642.034 392.121 649.328C380.567 653.635 369.256 658.668 357.854 663.369L355.277 664.43C355.277 660.094 355.277 656.152 355.277 652.3C355.065 638.473 354.883 624.675 354.549 610.878C354.125 592.107 362.918 579.068 379.142 570.456C381.234 569.334 384.873 568.636 383.418 565.331C381.962 562.026 379.051 564.209 376.777 564.997C365.151 569.418 352.825 571.708 340.388 571.76C336.203 571.76 332.049 570.395 327.834 570.031C326.219 570.211 324.649 570.673 323.194 571.396C324.316 572.548 325.256 574.155 326.621 574.731C328.78 575.528 331.032 576.047 333.322 576.278C342.996 577.612 347.605 581.645 348.484 591.622C349.455 602.569 349.485 613.637 349.667 624.645C349.879 637.593 349.667 650.541 349.94 663.49C350.033 664.652 349.777 665.816 349.204 666.832C348.631 667.847 347.768 668.669 346.725 669.191C330.563 679.865 314.673 690.994 298.51 701.637C284.955 710.553 271.219 719.044 257.391 727.656C256.006 728.414 254.578 729.093 253.115 729.687C253.449 726.23 253.661 723.228 254.055 720.256C256.178 703.851 252.448 687.961 249.537 672.041C244.468 642.401 232.191 614.461 213.785 590.682C201.686 575.763 187.16 562.989 170.816 552.898C165.024 549.138 159.171 545.438 153.349 541.769C151.973 540.761 150.449 539.973 148.831 539.434C147.521 539.421 146.223 539.669 145.01 540.162C145.525 541.345 145.677 543.043 146.587 543.649C151.529 546.955 156.654 549.957 161.749 553.141C177.271 562.505 191.356 574.067 203.566 587.468C222.854 609.304 236.044 635.84 241.804 664.4C244.861 678.838 247.179 693.422 248.748 708.096C249.537 715.768 247.687 723.713 246.868 731.537C246.868 732.204 245.807 733.023 245.049 733.387C224.276 742.75 202.368 749.356 179.882 753.037C159.747 756.069 139.521 756.948 119.568 752.218C111.35 749.8 103.297 746.853 95.4602 743.394C93.6407 742.696 91.609 741.15 90.578 743.727C90.2444 744.637 91.7606 747.002 93.0039 747.73C104.901 754.634 118.197 758.779 131.91 759.86C185.128 764.681 233.374 749.428 278.163 722.106C296.024 711.19 312.399 697.847 329.714 686.142C353.66 669.472 380.514 657.428 408.89 650.632C429.003 645.714 450.205 648.033 468.78 657.182C475.317 660.411 481.086 665.002 485.701 670.646C490.098 675.802 495.162 680.35 499.589 685.475C502.693 689.142 505.492 693.057 507.959 697.18C510.903 701.447 513.287 706.074 515.054 710.947C517.101 717.281 518.205 723.881 518.329 730.536C517.996 751.035 513.902 770.867 502.955 788.486C492.008 806.104 476.937 818.537 459.743 828.817C428.449 847.496 394.334 858.322 358.522 864.508C328.687 869.227 298.445 870.852 268.277 869.36C228.363 868.121 188.833 861.167 150.893 848.709C121.114 838.823 95.2176 821.781 69.8363 803.769C51.3083 790.608 39.8155 772.596 30.9306 752.218C18.5731 723.964 10.332 694.084 6.45903 663.49C4.32162 644.088 5.07787 624.477 8.70301 605.298C13.7614 573.845 21.502 542.882 31.8403 512.749C43.1815 480.454 56.797 449.069 75.5676 420.352C84.9887 406.151 95.5674 392.752 107.196 380.294ZM410.922 323.375C410.922 321.829 410.709 319.524 410.436 317.311C410.255 315.021 409.89 312.749 409.345 310.518C408.756 307.557 407.085 304.921 404.657 303.126C402.228 301.332 399.218 300.507 396.214 300.814C390.774 300.962 385.417 302.178 380.446 304.393C371.349 309.335 362.615 315.491 353.852 321.283C352.366 322.473 350.637 323.321 348.787 323.766C346.937 324.212 345.011 324.244 343.147 323.861C338.994 323.336 334.777 323.645 330.745 324.77C329.397 325.237 327.96 325.387 326.546 325.208C325.131 325.029 323.777 324.526 322.587 323.739C312.185 316.059 299.798 311.523 286.896 310.67C279.163 310.276 272.037 312.004 267.125 318.524C263.841 322.689 261.581 327.568 260.528 332.766C259.475 337.965 259.657 343.338 261.06 348.453C264.578 362.069 273.796 372.5 281.893 383.447C283.371 385.366 285.453 386.73 287.803 387.319C290.153 387.908 292.632 387.687 294.841 386.692C300.404 384.408 305.735 381.595 310.761 378.292C316.462 374.623 321.496 369.984 327.257 366.466C330.284 365.046 333.587 364.311 336.931 364.313C341.237 364.04 345.603 364.586 349.909 364.313C351.595 364.164 353.293 364.356 354.903 364.877C356.512 365.398 358.001 366.237 359.28 367.345C365.734 372.932 373.566 376.691 381.962 378.232C392.06 380.172 399.338 376.261 402.309 366.436C406.948 352.493 409.84 338.029 410.922 323.375ZM332.655 205.991C336.658 199.441 340.509 193.407 343.996 187.19C344.724 185.917 344.239 183.915 344.3 182.247C342.692 182.611 340.721 182.49 339.569 183.4C336.027 186.5 331.633 188.462 326.96 189.03C322.287 189.597 317.551 188.745 313.369 186.584C311.671 185.795 309.669 184.704 308.82 187.13C308.517 188.07 310.094 189.798 311.004 191.011C311.398 191.527 312.399 191.557 312.914 192.012C317.068 195.802 321.284 199.562 325.256 203.565C325.637 204.112 325.875 204.745 325.949 205.407C326.023 206.069 325.931 206.738 325.681 207.356C320.794 213.367 315.537 219.069 309.942 224.428C305.515 228.431 300.208 231.949 293.689 227.309C293.228 226.971 292.698 226.741 292.137 226.635C291.576 226.53 290.999 226.551 290.447 226.697C289.896 226.844 289.384 227.113 288.949 227.483C288.515 227.853 288.169 228.317 287.937 228.838C287.706 229.36 287.594 229.927 287.61 230.497C287.626 231.068 287.769 231.628 288.03 232.136C288.291 232.643 288.662 233.086 289.117 233.432C289.571 233.777 290.097 234.016 290.656 234.132C294.017 235.026 297.524 235.232 300.966 234.738C311.004 232.798 317.341 225.641 323.528 218.03C331.442 208.447 327.985 209.478 339.144 213.845C340.054 214.179 340.964 214.573 341.843 214.967C347.641 217.827 354.115 219.033 360.553 218.454C363.393 218.117 366.104 217.075 368.437 215.422C368.992 214.656 369.346 213.764 369.468 212.827C369.59 211.889 369.475 210.936 369.135 210.055C368.074 207.841 365.708 208.326 363.768 209.569C363.248 209.888 362.752 210.243 362.282 210.631C360.854 211.969 359.076 212.874 357.153 213.239C355.231 213.604 353.244 213.415 351.426 212.693C345.179 210.509 339.053 208.265 332.655 205.991ZM401.248 130.181C391.939 131.182 383.569 133.213 376.382 139.278C370.203 144.554 364.964 150.839 360.887 157.867C360.22 158.989 360.614 160.748 360.523 162.234H363.798C364.391 162.218 364.981 162.332 365.526 162.567C370.348 165.387 371.591 165.236 374.897 161.172C381.048 153.128 389.433 147.074 399.004 143.766C401.975 142.837 405.018 142.157 408.101 141.735C411.589 141.219 410.861 138.156 411.68 136.155C411.693 135.558 411.556 134.966 411.28 134.436C411.005 133.906 410.6 133.454 410.103 133.122C407.343 132.031 404.25 131.212 401.248 130.242V130.181ZM235.709 181.732C237.104 184.067 238.074 183.915 241.107 181.732C245.165 178.532 249.582 175.815 254.267 173.635C261.909 170.603 269.945 169.269 277.799 173.635C280.134 174.879 285.35 174.333 286.381 172.726C286.757 171.196 286.787 169.601 286.467 168.058C286.147 166.516 285.485 165.064 284.531 163.81C281.809 161.371 278.582 159.563 275.08 158.515C271.579 157.466 267.889 157.204 264.274 157.746C257.746 158.427 251.424 160.425 245.69 163.62C239.957 166.815 234.931 171.141 230.918 176.334C229.947 177.578 230.129 179.731 229.765 181.459L235.709 181.732ZM418.321 23.0462C415.234 23.2843 412.272 24.3663 409.758 26.1739C407.245 27.9815 405.276 30.4452 404.068 33.2957C402.832 35.6669 402.52 38.4126 403.192 41.0008C403.864 43.5891 405.473 45.8357 407.707 47.3054C415.375 52.9023 423.489 57.8618 431.966 62.1339C433.037 62.7331 434.264 62.9935 435.486 62.8807C436.708 62.7679 437.867 62.2872 438.809 61.502C439.752 60.7169 440.435 59.6643 440.767 58.4832C441.099 57.302 441.065 56.0479 440.669 54.8864C438.745 47.0599 436.106 39.4267 432.785 32.0828C431.487 29.3518 429.436 27.048 426.874 25.4419C424.312 23.8358 421.344 22.9942 418.321 23.0159V23.0462ZM133.547 107.347L132.638 107.59C134.366 114.322 135.67 121.205 137.884 127.785C140.097 134.366 144.858 135.033 149.013 129.393C153.652 123.085 158.11 116.566 162.385 110.046C163.611 108.105 164.561 106.002 165.206 103.799C165.973 101.856 166.005 99.6999 165.296 97.7348C164.587 95.7697 163.186 94.1307 161.354 93.1251C158.339 91.2972 154.899 90.2857 151.374 90.1899C147.849 90.0942 144.36 90.9177 141.25 92.5793C135.003 95.4904 133.456 101.07 133.547 107.317V107.347ZM375.442 97.0369C374.624 92.3973 371.652 89.3346 367.497 89.7288C364.758 89.959 362.124 90.8921 359.85 92.438C357.577 93.9838 355.74 96.0901 354.519 98.5531C354.017 99.3321 353.729 100.229 353.685 101.155C353.64 102.08 353.84 103.001 354.264 103.825C354.688 104.649 355.322 105.346 356.101 105.848C356.88 106.349 357.778 106.636 358.703 106.68C360.909 107.139 363.192 107.086 365.374 106.523C367.556 105.96 369.579 104.904 371.288 103.435C372.97 101.5 374.369 99.3356 375.442 97.0066V97.0369ZM259.908 109.803C258.907 110.47 255.965 111.38 255.238 113.2C254.883 114.351 254.808 115.571 255.019 116.758C255.23 117.944 255.721 119.064 256.451 120.022C259.464 122.892 262.914 125.267 266.67 127.058C267.937 127.546 269.34 127.55 270.61 127.069C271.88 126.588 272.928 125.655 273.553 124.45C274.48 123.38 274.989 122.013 274.989 120.599C274.989 119.184 274.48 117.817 273.553 116.748C271.923 114.662 269.858 112.958 267.501 111.753C265.144 110.549 262.553 109.873 259.908 109.773V109.803Z" fill="white"/>
<path d="M260.09 115.201C261.768 115.029 263.461 115.316 264.989 116.032C266.516 116.748 267.82 117.865 268.762 119.265C269.126 119.689 269.308 120.993 269.065 121.175C268.762 121.416 268.409 121.587 268.031 121.676C267.654 121.765 267.262 121.77 266.882 121.69C264.335 120.083 261.879 118.264 259.392 116.505L260.09 115.201Z" fill="white"/>
<ellipse cx="198.5" cy="221.5" rx="49.5" ry="32.5" fill="#FFDCE9"/>
<ellipse cx="438.983" cy="183.186" rx="44.229" ry="31.5" transform="rotate(-22.8164 438.983 183.186)" fill="#FFDCE9"/>
</g>
<defs>
<clipPath id="clip0_109_2">
<rect width="524" height="875" fill="white"/>
</clipPath>
</defs>
</svg>
