<svg width="60" height="60" viewBox="0 0 60 60" fill="none" xmlns="http://www.w3.org/2000/svg">
<path fill-rule="evenodd" clip-rule="evenodd" d="M23.1558 7.57008C21.3933 3.13525 17.0628 0 12 0C5.37258 0 0 5.37258 0 12C0 17.0628 3.13525 21.3933 7.57008 23.1558C15.5444 26.5414 18.6479 28.1555 21.0439 30C18.6477 31.8447 15.5437 33.4589 7.56754 36.8452C3.13405 38.6084 0 42.9382 0 48C0 54.6274 5.37258 60 12 60C17.0632 60 21.394 56.8642 23.1563 52.4288C26.5415 44.4553 28.1555 41.3519 30 38.956C31.8446 41.3521 33.4588 44.4559 36.8447 52.4314C38.6077 56.8654 42.9378 60 48 60C54.6274 60 60 54.6274 60 48C60 42.9378 56.8654 38.6077 52.4314 36.8447C44.4559 33.4588 41.3521 31.8446 38.956 30C41.3519 28.1555 44.4553 26.5415 52.4288 23.1563C56.8642 21.394 60 17.0632 60 12C60 5.37258 54.6274 0 48 0C42.9382 0 38.6084 3.13405 36.8452 7.56754C33.4589 15.5437 31.8447 18.6477 30 21.0439C28.1555 18.6479 26.5414 15.5444 23.1558 7.57008Z" fill="#DEFFFF"/>
</svg>
