<svg width="122" height="122" viewBox="0 0 122 122" fill="none" xmlns="http://www.w3.org/2000/svg">
<mask id="path-1-inside-1_41_3358" fill="white">
<path fill-rule="evenodd" clip-rule="evenodd" d="M61.0868 121.312C94.4431 121.312 121.484 94.2709 121.484 60.9146C121.484 27.5583 94.4431 0.5177 61.0868 0.5177C27.7305 0.5177 0.68988 27.5583 0.68988 60.9146C0.68988 94.2709 27.7305 121.312 61.0868 121.312ZM62 87C75.8071 87 87 75.8071 87 62C87 48.1929 75.8071 37 62 37C48.1929 37 37 48.1929 37 62C37 75.8071 48.1929 87 62 87Z"/>
</mask>
<path fill-rule="evenodd" clip-rule="evenodd" d="M61.0868 121.312C94.4431 121.312 121.484 94.2709 121.484 60.9146C121.484 27.5583 94.4431 0.5177 61.0868 0.5177C27.7305 0.5177 0.68988 27.5583 0.68988 60.9146C0.68988 94.2709 27.7305 121.312 61.0868 121.312ZM62 87C75.8071 87 87 75.8071 87 62C87 48.1929 75.8071 37 62 37C48.1929 37 37 48.1929 37 62C37 75.8071 48.1929 87 62 87Z" fill="#FFF3E8"/>
<path d="M116.484 60.9146C116.484 91.5095 91.6817 116.312 61.0868 116.312V126.312C97.2045 126.312 126.484 97.0324 126.484 60.9146H116.484ZM61.0868 5.5177C91.6817 5.5177 116.484 30.3198 116.484 60.9146H126.484C126.484 24.7969 97.2045 -4.4823 61.0868 -4.4823V5.5177ZM5.68988 60.9146C5.68988 30.3198 30.4919 5.5177 61.0868 5.5177V-4.4823C24.9691 -4.4823 -4.31012 24.7969 -4.31012 60.9146H5.68988ZM61.0868 116.312C30.4919 116.312 5.68988 91.5095 5.68988 60.9146H-4.31012C-4.31012 97.0324 24.9691 126.312 61.0868 126.312V116.312ZM82 62C82 73.0457 73.0457 82 62 82V92C78.5685 92 92 78.5685 92 62H82ZM62 42C73.0457 42 82 50.9543 82 62H92C92 45.4315 78.5685 32 62 32V42ZM42 62C42 50.9543 50.9543 42 62 42V32C45.4315 32 32 45.4315 32 62H42ZM62 82C50.9543 82 42 73.0457 42 62H32C32 78.5685 45.4315 92 62 92V82Z" fill="#FF7596" mask="url(#path-1-inside-1_41_3358)"/>
<mask id="path-3-inside-2_41_3358" fill="white">
<path fill-rule="evenodd" clip-rule="evenodd" d="M61.6213 109.553C88.1883 109.553 109.725 88.0162 109.725 61.4492C109.725 34.8822 88.1883 13.3455 61.6213 13.3455C35.0544 13.3455 13.5176 34.8822 13.5176 61.4492C13.5176 88.0162 35.0544 109.553 61.6213 109.553ZM61.5 74C68.9558 74 75 67.9558 75 60.5C75 53.0442 68.9558 47 61.5 47C54.0442 47 48 53.0442 48 60.5C48 67.9558 54.0442 74 61.5 74Z"/>
</mask>
<path fill-rule="evenodd" clip-rule="evenodd" d="M61.6213 109.553C88.1883 109.553 109.725 88.0162 109.725 61.4492C109.725 34.8822 88.1883 13.3455 61.6213 13.3455C35.0544 13.3455 13.5176 34.8822 13.5176 61.4492C13.5176 88.0162 35.0544 109.553 61.6213 109.553ZM61.5 74C68.9558 74 75 67.9558 75 60.5C75 53.0442 68.9558 47 61.5 47C54.0442 47 48 53.0442 48 60.5C48 67.9558 54.0442 74 61.5 74Z" fill="#FFF3E8"/>
<path d="M104.725 61.4492C104.725 85.2548 85.4269 104.553 61.6213 104.553V114.553C90.9497 114.553 114.725 90.7776 114.725 61.4492H104.725ZM61.6213 18.3455C85.4269 18.3455 104.725 37.6437 104.725 61.4492H114.725C114.725 32.1208 90.9497 8.34546 61.6213 8.34546V18.3455ZM18.5176 61.4492C18.5176 37.6437 37.8158 18.3455 61.6213 18.3455V8.34546C32.2929 8.34546 8.51758 32.1208 8.51758 61.4492H18.5176ZM61.6213 104.553C37.8158 104.553 18.5176 85.2548 18.5176 61.4492H8.51758C8.51758 90.7776 32.2929 114.553 61.6213 114.553V104.553ZM70 60.5C70 65.1944 66.1944 69 61.5 69V79C71.7173 79 80 70.7173 80 60.5H70ZM61.5 52C66.1944 52 70 55.8056 70 60.5H80C80 50.2827 71.7173 42 61.5 42V52ZM53 60.5C53 55.8056 56.8056 52 61.5 52V42C51.2827 42 43 50.2827 43 60.5H53ZM61.5 69C56.8056 69 53 65.1944 53 60.5H43C43 70.7173 51.2827 79 61.5 79V69Z" fill="#FF7596" mask="url(#path-3-inside-2_41_3358)"/>
</svg>
