<svg width="33" height="50" viewBox="0 0 33 50" fill="none" xmlns="http://www.w3.org/2000/svg">
<path d="M32.7783 21.1829C32.7783 29.0706 32.7783 36.9395 32.7783 44.8272C32.8562 45.2959 32.8294 45.776 32.6998 46.2333C32.5701 46.6906 32.3409 47.1138 32.0283 47.4731C31.7157 47.8325 31.3274 48.119 30.891 48.3124C30.4545 48.5058 29.9807 48.6013 29.503 48.5922C28.0641 48.724 26.6441 48.8557 25.2052 48.931C19.6958 49.2322 14.1865 49.4581 8.696 49.797C4.51189 50.0605 3.60316 49.2699 3.16771 45.2225C2.24001 36.1865 1.27443 27.1692 0.195273 18.152C-0.148277 16.524 -0.0369805 14.8335 0.517037 13.2638C1.07105 11.6942 2.04666 10.3053 3.33809 9.24779C6.80276 6.46168 10.3432 3.75085 13.9214 1.11534C14.6777 0.521793 15.6258 0.222979 16.5878 0.274966C17.5498 0.326954 18.4597 0.72616 19.1468 1.3977C23.1227 4.63562 27.1364 7.83591 30.9986 11.1868C31.8656 12.0092 32.4488 13.0833 32.6647 14.2553C33.0812 16.5331 32.57 18.8674 32.7783 21.1829ZM6.74594 46.2391C13.7699 45.9567 20.3206 45.6178 26.8903 45.4484C28.7835 45.4484 29.4272 44.846 29.3704 42.8129C29.219 38.1631 29.3704 33.5133 29.3704 28.8635C29.3704 24.5149 29.484 20.1663 29.3704 15.8366C29.2977 14.8856 28.8646 13.9974 28.1587 13.3516C24.6183 10.302 21.0022 7.32761 17.3104 4.4662C16.936 4.23675 16.5112 4.10145 16.0724 4.07193C15.6337 4.04241 15.1943 4.11957 14.7923 4.29678C11.498 6.70639 8.31739 9.24778 5.19351 11.8268C4.39232 12.5088 3.79283 13.3947 3.45931 14.3895C3.12579 15.3844 3.07082 16.4508 3.30025 17.4743C4.24688 24.3078 5.0988 31.1602 5.9129 38.0125C6.34835 40.8175 6.51875 43.5659 6.74594 46.2391Z" fill="#FF7596"/>
<path d="M6.7462 46.239C6.51901 43.5659 6.34866 40.8174 6.02681 38.0878C5.21271 31.2355 4.36073 24.3831 3.4141 17.5496C3.18467 16.526 3.23965 15.4597 3.57316 14.4648C3.90668 13.4699 4.50617 12.5841 5.30736 11.9021C8.43124 9.30422 11.6119 6.76283 14.9062 4.37205C15.3081 4.19483 15.7475 4.11761 16.1863 4.14713C16.625 4.17665 17.0499 4.31202 17.4242 4.54147C21.1161 7.40288 24.7322 10.3772 28.2726 13.4269C28.9785 14.0727 29.4115 14.9608 29.4843 15.9118C29.5979 20.2415 29.4843 24.5902 29.4843 28.9388C29.4843 33.5886 29.2571 38.2384 29.4843 42.8882C29.4843 44.9213 28.9542 45.4672 27.0041 45.5237C20.3209 45.6178 13.7702 45.9566 6.7462 46.239Z" fill="#FFDCE9"/>
</svg>
