<svg width="29" height="52" viewBox="0 0 29 52" fill="none" xmlns="http://www.w3.org/2000/svg">
<path d="M2.53506 21.5222C2.26108 17.4132 1.88442 12.7415 1.62756 8.05283C1.47345 5.05205 1.98716 4.64286 5.05228 4.64286C10.8167 4.90632 16.5497 3.66002 21.6792 1.0283C22.0629 0.895678 22.4717 0.851339 22.8751 0.898587C23.2784 0.945834 23.6658 1.08345 24.0081 1.30111C26.6623 3.34709 26.8678 6.41607 27.2102 9.41684C28.2031 17.666 28.3751 25.9926 27.7239 34.2755C27.5795 36.5132 26.9691 38.6965 25.9314 40.6867C24.8937 42.6768 23.4514 44.4301 21.6964 45.8353C17.329 49.4282 11.9378 51.5634 6.28513 51.9391C2.86041 52.2972 0.856961 50.6945 0.942579 47.1822C1.06244 42.6981 1.47338 38.214 1.76448 33.7299C2.02133 29.8425 2.26108 25.9211 2.53506 21.5222ZM4.67551 7.52429C4.67551 8.44498 4.67551 9.127 4.67551 9.79194C4.79538 16.4414 5.12074 23.1078 5.018 29.7402C5.018 35.3837 4.41867 41.0102 4.04195 46.6366C3.92208 48.4609 4.65845 49.0236 6.45643 48.8531C12.2593 48.4675 17.6801 45.836 21.5594 41.5217C22.91 40.0019 23.8215 38.1457 24.1965 36.151C25.5076 26.5186 25.3228 16.7427 23.6485 7.16625C23.372 5.99695 22.9879 4.85548 22.5012 3.75629C16.9696 6.47771 10.8405 7.77328 4.67551 7.52429Z" fill="#FF7596"/>
<path d="M4.67538 7.52413C10.8389 7.77841 16.968 6.48874 22.5011 3.77319C22.9878 4.87239 23.3718 6.01386 23.6484 7.18316C25.3227 16.7596 25.5075 26.5355 24.1963 36.1679C23.8184 38.1566 22.9072 40.0065 21.5592 41.5215C17.68 45.8359 12.2592 48.4674 6.4563 48.853C4.65832 49.0235 3.92195 48.4608 4.04181 46.6365C4.41853 41.01 4.94938 35.3836 5.01787 29.7401C5.12061 23.1077 4.79524 16.4412 4.67538 9.79178C4.65825 9.12684 4.67538 8.44482 4.67538 7.52413Z" fill="#DEFFFF"/>
</svg>
