<svg width="31" height="79" viewBox="0 0 31 79" fill="none" xmlns="http://www.w3.org/2000/svg">
<path d="M30.5731 29.6855C30.0372 41.383 29.555 53.0804 28.9655 64.7604C28.9717 67.0929 28.2524 69.3721 26.9031 71.2959C25.5537 73.2197 23.638 74.6972 21.4099 75.5325C18.2519 76.7925 14.9256 77.6038 11.5323 77.9418C10.2116 78.1431 8.86213 78.0673 7.57378 77.7192C6.28542 77.3711 5.08767 76.7587 4.06026 75.923C3.03284 75.0872 2.19932 74.0472 1.61514 72.8721C1.03096 71.6969 0.709521 70.4136 0.672221 69.1076C0.43133 64.5967 0.610666 60.0737 1.20806 55.5945C2.58343 43.3733 4.11957 31.1521 5.74501 18.9308C6.37865 12.5406 9.45274 6.61849 14.3545 2.3449C15.9821 1.09776 18.0279 0.490452 20.0902 0.642279C22.1525 0.794106 24.0822 1.6941 25.5003 3.16547C28.8822 6.97547 30.6908 11.8803 30.5731 16.9231C30.7339 21.1656 30.5731 25.4255 30.5731 29.668V29.6855ZM3.35151 64.4287H3.47651C3.48807 65.8228 3.57156 67.2155 3.7266 68.6014C4.33391 72.7217 6.97746 75.096 11.1929 74.7294C14.2227 74.4313 17.1972 73.7324 20.0346 72.6518C21.7554 72.0076 23.2336 70.8647 24.2711 69.3763C25.3087 67.8878 25.856 66.125 25.8397 64.3239C26.2148 58.126 26.4827 51.9281 26.7149 45.7302C27.0364 37.4547 27.3103 29.1675 27.5366 20.8687C27.6973 15.3692 27.2329 10.0617 23.3926 5.50496C22.3596 4.52082 20.9984 3.93327 19.5584 3.84991C18.1184 3.76655 16.6959 4.19293 15.5512 5.05101C12.2713 8.29756 10.0839 12.4457 9.28164 16.9405C8.24565 22.9813 7.63835 29.1617 6.88814 35.1676C5.63781 44.9213 4.43512 54.675 3.28005 64.4287H3.35151Z" fill="#FF7596"/>
<path d="M3.28003 64.4287C4.47083 54.675 5.66162 44.9272 6.85242 35.1851C7.60262 29.1094 8.20992 22.9639 9.24591 16.958C10.0481 12.4632 12.2355 8.31509 15.5155 5.06854C16.6601 4.21047 18.0827 3.78408 19.5227 3.86745C20.9627 3.95081 22.3238 4.53835 23.3568 5.52249C27.1972 10.0793 27.6616 15.3867 27.5008 20.8863C27.2746 29.1851 27.0007 37.4722 26.6792 45.7477C26.447 51.9456 26.179 58.1436 25.8039 64.3415C25.8202 66.1425 25.2729 67.9053 24.2354 69.3938C23.1978 70.8822 21.7196 72.0251 19.9988 72.6693C17.1614 73.7499 14.187 74.4488 11.1572 74.7469C6.94174 75.1136 4.29818 72.7391 3.69087 68.6188C3.53583 67.2329 3.45235 65.8403 3.44078 64.4462L3.28003 64.4287Z" fill="#E9FFE3"/>
</svg>
