<svg width="25" height="48" viewBox="0 0 25 48" fill="none" xmlns="http://www.w3.org/2000/svg">
<path d="M24.2584 24.9681C24.2019 30.3371 22.9708 35.6292 20.6508 40.4756C18.847 43.9437 16.6102 47.1602 12.1548 47.1602C7.69941 47.1602 5.26425 43.9976 3.73101 40.4217C-1.12124 28.9753 -1.17535 17.421 4.65096 6.36988C8.72758 -1.3569 15.9428 -1.08737 20.29 6.5316C23.1203 12.2565 24.4837 18.5905 24.2584 24.9681ZM21.0296 20.0265C20.4163 17.6726 19.5144 13.4857 18.1255 9.44262C17.2416 6.87301 15.6001 4.15965 12.5156 4.05183C9.43107 3.94402 7.82567 6.71131 6.76142 9.24498C4.69649 13.9229 3.63021 18.9773 3.63021 24.0876C3.63021 29.1978 4.69649 34.2523 6.76142 38.9302C7.77155 41.3201 9.19657 43.8178 12.1729 43.8538C15.1491 43.8897 16.6644 41.2842 17.8549 38.8943C20.5065 33.5933 21.0296 27.8252 21.0296 20.0265Z" fill="#FF7596"/>
<path d="M21.0297 20.0267C21.0297 27.8254 20.5066 33.5935 17.855 38.9483C16.6645 41.3383 15.2936 43.9258 12.173 43.9078C9.05243 43.8899 7.73564 41.3742 6.76158 38.9843C4.69666 34.3063 3.63037 29.2519 3.63037 24.1416C3.63037 19.0314 4.69666 13.977 6.76158 9.29904C7.82583 6.76537 9.39516 4.05199 12.5158 4.10589C15.6363 4.1598 17.2418 6.87316 18.1256 9.49668C19.5146 13.4859 20.4164 17.6727 21.0297 20.0267Z" fill="#E9FFE3"/>
</svg>
