<svg width="19" height="70" viewBox="0 0 19 70" fill="none" xmlns="http://www.w3.org/2000/svg">
<path d="M0.442059 27.9566C0.442059 24.3173 0.442059 20.6581 0.442059 17.0188C0.442059 10.3367 4.8376 6.0014 8.97689 1.64615C9.39258 1.27094 9.89314 1.00431 10.4347 0.869676C10.9763 0.735047 11.5423 0.736517 12.0831 0.873925C12.624 1.01133 13.1232 1.28047 13.537 1.6578C13.9508 2.03513 14.2665 2.50912 14.4565 3.0382C15.3236 5.61194 15.8731 8.28367 16.0925 10.993C17.019 21.5928 17.5117 32.2323 18.7141 42.8122C19.3067 48.6951 17.8652 54.6039 14.6339 59.5372C13.1162 62.0429 11.6576 64.5885 10.0807 67.0545C9.13458 68.5062 7.95193 70.4353 6.13852 69.6C5.46107 69.1863 4.87867 68.6319 4.43005 67.9736C3.98144 67.3152 3.6769 66.568 3.53668 65.7817C2.64968 60.3924 1.99922 54.9433 1.56558 49.4943C0.993965 42.3747 0.737725 35.2154 0.343506 28.0958L0.442059 27.9566ZM11.5393 4.19168C10.4355 5.12637 9.84418 5.56385 9.31198 6.08091C7.16262 8.14995 5.51198 10.6886 4.48688 13.5018C3.46179 16.3149 3.08953 19.3277 3.3987 22.3087C4.04916 33.167 4.60107 44.0452 5.36979 54.9035C5.58662 58.165 6.17794 61.4265 6.61158 64.6681L7.55771 64.9465C9.96245 60.094 12.4657 55.2814 14.7128 50.3693C15.245 48.9567 15.4342 47.436 15.2647 45.9345C14.4631 34.6784 13.5893 23.4091 12.6431 12.1266C12.5052 9.72025 12.0124 7.21451 11.5393 4.19168Z" fill="#FF7596"/>
<path d="M11.5396 4.19177C11.9929 7.27426 12.5054 9.72036 12.7025 12.1466C13.6224 23.3894 14.4962 34.6587 15.3241 45.9545C15.4936 47.456 15.3044 48.9766 14.7722 50.3892C12.5251 55.3013 10.0218 60.114 7.61709 64.9664L6.67096 64.688C6.23732 61.4464 5.64599 58.1849 5.42917 54.9235C4.69987 44.0652 4.14796 33.187 3.45808 22.3287C3.14891 19.3477 3.52118 16.3349 4.54627 13.5218C5.57136 10.7086 7.222 8.16995 9.37136 6.10091C9.84442 5.56396 10.4357 5.2259 11.5396 4.19177Z" fill="#DEFFFF"/>
</svg>
