<svg width="45" height="71" viewBox="0 0 45 71" fill="none" xmlns="http://www.w3.org/2000/svg">
<path d="M26.3037 70.2494C19.9592 69.5966 13.6148 68.9605 7.27032 68.2742C6.41099 68.1671 5.56707 67.9593 4.75584 67.6549C1.97493 66.7007 0.92587 65.1774 1.60861 62.315C2.79091 57.4438 4.17305 52.6229 5.52187 47.8019C7.90905 38.3398 9.44723 28.6816 10.1179 18.9432C10.401 15.9469 10.7006 12.9673 10.8671 9.95418C10.8402 8.9715 11.1597 8.01087 11.7692 7.24205C12.3786 6.47322 13.2387 5.94565 14.1976 5.75257C17.3448 4.96582 20.5587 4.36324 23.706 3.54301C25.8339 3.0283 27.9082 2.31085 29.9006 1.40037C32.898 -0.0559539 34.5299 0.195125 35.7289 3.37561C37.1704 7.19584 38.35 11.1109 39.2591 15.0932C41.8829 26.1509 43.4607 37.4333 43.9716 48.7896C44.1112 52.6567 43.7303 56.525 42.8393 60.2895C41.3905 66.4999 37.0444 69.6803 30.7166 69.8979C29.2678 69.8979 27.8024 70.0486 26.337 70.1156L26.3037 70.2494ZM41.4572 50.2961C40.6655 39.1266 39.0513 28.0315 36.6281 17.1019C35.7288 13.1346 34.4966 9.23436 33.2976 5.3843C33.0478 4.5306 32.8313 3.37557 31.2827 3.86101C27.1696 5.14995 22.9566 6.33848 18.8935 7.51024C12.6489 9.26788 14.131 7.9287 13.3816 14.3399C12.3659 22.9439 11.7165 31.6317 10.2345 40.1688C9.0022 47.1826 6.68753 53.9955 4.90575 60.9089C4.00653 64.4242 4.223 65.01 7.80321 65.3448C15.4132 66.0646 23.0399 66.6338 30.6666 66.9351C32.6994 67.0934 34.7216 66.5156 36.3677 65.306C38.0137 64.0965 39.1752 62.3349 39.6421 60.3398C40.4208 57.0285 41.0102 53.6751 41.4072 50.2961H41.4572Z" fill="#FF7596" stroke="#FF7596"/>
<path d="M41.4067 50.2961C41.0042 53.6755 40.4093 57.0288 39.6249 60.3397C39.158 62.3349 37.9967 64.0965 36.3506 65.306C34.7045 66.5156 32.6823 67.0934 30.6494 66.9351C23.0227 66.6338 15.3961 66.0646 7.78605 65.3448C4.20584 65.01 3.98938 64.4242 4.8886 60.9089C6.67038 53.9955 8.98504 47.1826 10.2173 40.1688C11.7326 31.6317 12.3487 22.9439 13.3645 14.3399C14.1138 7.9287 12.6318 9.31809 18.8763 7.51023C23.0227 6.33848 27.2024 5.14994 31.2655 3.86101C32.8142 3.37557 33.0307 4.53059 33.2805 5.3843C34.4461 9.28458 35.6784 13.1849 36.6109 17.1019C39.023 28.0323 40.626 39.1275 41.4067 50.2961Z" fill="#FFDCE9"/>
</svg>
