<svg width="53" height="77" viewBox="0 0 53 77" fill="none" xmlns="http://www.w3.org/2000/svg">
<g clip-path="url(#clip0_79_5)">
<path d="M26.3099 -0.00026758C30.6523 0.0687163 34.9409 0.966777 38.9426 2.64512C43.0464 4.27433 46.6489 6.94567 49.3906 10.3924C51.7575 13.3114 53.0629 16.9405 53.0949 20.6906C53.1097 22.7868 52.6374 24.8581 51.7147 26.7428C50.7921 28.6275 49.4441 30.2747 47.7759 31.5557C45.1855 33.2652 42.4527 34.7508 39.6074 35.9962C38.2849 36.6381 37.0417 37.4307 35.9031 38.3581C35.0673 39.2434 34.3924 40.2663 33.9085 41.3814C33.158 43.3381 31.9916 45.1106 30.4891 46.5777C28.9795 47.3947 27.263 47.7559 25.5501 47.617C24.597 47.6611 23.6446 47.5168 22.7479 47.1924C21.8512 46.8681 21.0281 46.3702 20.3261 45.7275C19.6438 45.0113 19.1152 44.1644 18.7723 43.2386C18.4294 42.3128 18.2794 41.3274 18.3314 40.3421C18.3683 38.1169 18.8866 35.9257 19.8512 33.9176C19.8512 33.3508 21.5608 31.0832 24.1253 27.2096C26.285 24.2575 27.5387 20.7463 27.7347 17.1005C27.7763 15.7055 27.4136 14.3279 26.6899 13.1322C26.3752 12.6898 25.964 12.3241 25.4869 12.0623C25.0099 11.8005 24.4794 11.6495 23.9354 11.6207C23.4603 11.5809 22.983 11.6645 22.5501 11.8632C22.1172 12.0619 21.7437 12.369 21.4659 12.7544C20.816 14.0136 20.459 15.402 20.421 16.8169C20.3147 20.0349 18.9519 23.0852 16.6218 25.3201C15.5241 26.3573 14.2249 27.1605 12.8039 27.6804C11.3829 28.2003 9.8701 28.4259 8.35832 28.3433C6.24553 28.426 4.1783 27.7182 2.56442 26.3593C1.73513 25.6471 1.07497 24.7607 0.631512 23.7641C0.188056 22.7675 -0.0276534 21.6856 -9.75441e-05 20.5961C0.0748969 16.7962 1.37326 13.1205 3.7042 10.109C6.09268 6.77361 9.38747 4.18444 13.2024 2.64512C17.3356 0.85506 21.8022 -0.0464038 26.3099 -0.00026758ZM25.1702 53.0022C26.7314 52.999 28.2754 53.3258 29.7 53.961C31.1246 54.5963 32.3973 55.5254 33.4336 56.6869C35.6436 58.9146 36.8827 61.9185 36.8827 65.0483C36.8827 68.178 35.6436 71.1818 33.4336 73.4096C32.3452 74.5756 31.0205 75.4987 29.5469 76.1175C28.0732 76.7364 26.4843 77.0371 24.8852 76.9998C23.3625 77.0358 21.8479 76.7702 20.4293 76.2187C19.0107 75.6673 17.7164 74.841 16.6218 73.7876C15.4075 72.6676 14.4421 71.3072 13.7878 69.794C13.1335 68.2808 12.8047 66.6481 12.8225 65.001C12.7954 63.4934 13.0761 61.9961 13.6475 60.5996C14.2189 59.203 15.0691 57.9362 16.1468 56.8758C17.297 55.6411 18.6937 54.6587 20.2475 53.9917C21.8012 53.3247 23.4779 52.9876 25.1702 53.0022Z" fill="#DEFFFF"/>
</g>
<defs>
<clipPath id="clip0_79_5">
<rect width="53" height="77" fill="white"/>
</clipPath>
</defs>
</svg>
