<svg width="1440" height="146" viewBox="0 0 1440 146" fill="none" xmlns="http://www.w3.org/2000/svg">
<path d="M0.000111207 -12C58.9544 16.8685 120.837 37.4457 184.229 54.1909C218.064 63.1557 252.146 70.8973 286.476 77.4157C310.016 81.8517 333.579 86.1018 357.258 89.7016C383.935 93.766 410.705 97.2265 437.521 100.501C458.435 103.056 479.21 105.146 500.101 107.027C518.017 108.676 536.003 109.954 553.966 111.069C577.204 112.508 600.442 113.995 623.679 114.831C668.459 116.457 713.238 117.153 758.04 116.341C771.983 116.062 786.112 115.922 800.124 115.481C815.717 114.97 831.309 114.227 846.902 113.484C858.776 112.927 870.651 112.346 882.502 111.579C894.353 110.813 905.74 109.93 917.219 109.001C931.162 107.887 944.965 106.679 958.838 105.448C971.573 104.271 984.307 102.948 997.041 101.477C1011.96 99.758 1026.9 98.0394 1041.77 95.9259C1063.92 92.7673 1086.07 89.5391 1108.12 85.8695C1148.24 79.2272 1188.08 71.1217 1227.63 61.5531C1285.72 47.4092 1342.63 30.246 1397.71 6.99795C1410.7 1.51688 1423.41 -4.6145 1436.26 -10.4439L1439.81 -12V-7.54083L1434.17 -4.73061L1439.81 -3.08163V1.37754C1438.95 1.05239 1438.09 0.773696 1437.26 0.402098C1434.54 -1.05958 1431.43 -1.66017 1428.36 -1.32006C1425.29 -0.979958 1422.4 0.284759 1420.06 2.30652C1427.75 4.07161 1434.42 7.16053 1437.79 14.7318L1439.81 14.1976V18.7497C1438.93 18.959 1438.06 19.2148 1437.21 19.5161C1415.37 28.6435 1393.8 38.514 1371.63 46.7356C1351.12 54.3534 1329.99 60.3222 1309.08 66.8019C1286.1 73.932 1263.25 81.573 1239.99 87.565C1215.38 93.9053 1190.38 98.8058 1165.47 103.822C1144.74 108.049 1123.94 111.92 1103.05 115.435C1091.06 117.409 1078.91 118.222 1066.82 119.662C1052.56 121.38 1038.29 123.262 1024 124.934C1006.78 126.954 989.535 129.045 972.27 130.763C945.314 133.457 918.335 135.989 891.332 138.358C877.924 139.519 864.47 140.192 851.038 140.68C832.099 141.423 813.137 141.702 794.222 142.492C777.235 143.188 760.294 144.814 743.308 145.023C726.902 145.209 710.449 144.257 694.02 143.374C685.143 142.91 676.313 141.377 667.436 140.657C656.352 139.751 645.221 139.217 634.09 138.52L589.055 135.826C576.274 135.06 563.494 134.34 550.69 133.504C539.954 132.784 529.218 131.901 518.482 131.065C508.211 130.229 497.963 129.23 487.692 128.534C470.171 127.349 452.649 126.42 435.151 125.212C420.325 124.191 405.5 123.192 390.72 121.705C376.778 120.312 362.719 118.338 348.73 116.596C336.298 115.04 323.865 113.414 311.433 111.951C291.359 109.359 271.456 105.582 251.828 100.641C222.967 93.6731 194.036 86.845 165.267 79.4595C135.058 71.6792 104.501 64.3865 75.1744 53.2851C50.7127 43.9951 26.2588 34.6587 1.81266 25.2759C1.11553 25.0204 0.488105 24.6488 -0.185791 24.3237V19.8645L10.1318 24.1147L10.6663 23.534C7.79366 17.7685 4.21044 12.385 0.000111207 7.5089V1.37754C4.64767 7.62502 9.29523 13.8028 13.7569 20.12C14.4105 21.5468 14.8715 23.0542 15.1279 24.6024C15.3371 25.2295 15.6856 26.0888 16.1969 26.2978C22.076 28.6203 28.0249 30.9428 34.2062 33.2653C34.2062 32.4988 34.2062 32.1272 34.2062 31.7789C34.0667 30.966 33.9738 30.1299 33.7646 29.3402C31.4409 20.3987 25.98 13.2454 20.8212 5.92959C19.5956 3.74029 17.8967 1.85193 15.8483 0.402098C10.7825 -2.40811 5.3448 -4.56804 0.069824 -6.98342L0.000111207 -12ZM600.163 132.761C608.691 133.225 616.824 133.573 624.934 134.177C626.956 134.317 628.211 133.481 628.373 131.855C628.617 130.093 628.257 128.3 627.351 126.769C625.754 124.587 623.741 122.744 621.428 121.345C619.115 119.946 616.547 119.018 613.873 118.617C606.452 117.883 598.998 117.535 591.542 117.571C596.259 121.798 601.046 125.584 600.163 132.761ZM234.841 91.9777L251.596 96.0884C252.17 96.2537 252.777 96.2676 253.358 96.1288C253.94 95.99 254.475 95.7033 254.912 95.2965C255.35 94.8897 255.674 94.3766 255.855 93.8073C256.035 93.2379 256.065 92.6316 255.941 92.0473C255.763 90.9505 255.385 89.8957 254.826 88.9352C252.502 85.405 250.178 81.9677 248.017 78.4608C246.815 76.4284 245.148 74.7099 243.152 73.4463C241.157 72.1826 238.89 71.4099 236.538 71.1914C233.892 70.7543 231.27 70.1807 228.683 69.4728C228.111 69.4217 227.536 69.4217 226.964 69.4728C229.659 74.1178 232.401 78.7627 234.911 83.4077C235.665 84.7128 236.056 86.1954 236.043 87.7022C236.031 89.2089 235.616 90.685 234.841 91.9777ZM56.1194 41.5565C55.9533 40.5901 55.6965 39.6414 55.3526 38.7231C51.6965 31.3531 48.0326 23.9985 44.3611 16.6595C43.2897 14.5585 41.7887 12.7059 39.9553 11.2216C38.1219 9.73725 35.9969 8.65436 33.7182 8.04306C30.9993 7.16051 28.4199 5.85994 25.3061 4.53612C28.2108 9.36689 30.767 13.6635 33.3231 17.9368C36.0955 22.4567 37.7301 27.5809 38.0869 32.8704C38.1723 33.3556 38.3647 33.8157 38.65 34.2174C38.9354 34.6191 39.3066 34.9523 39.7368 35.1929C44.9653 37.3296 50.2635 39.327 56.1194 41.5565ZM258.288 97.7839C263.842 99.0148 269.14 100.362 274.555 101.291C275.461 101.43 277.018 100.013 277.669 98.9684C278.142 97.8686 278.232 96.6417 277.924 95.4846C276.669 88.6333 272.417 83.6632 267.467 79.2272C266.784 78.4737 265.932 77.8926 264.981 77.5318C260.124 76.3938 255.221 75.4416 250.202 74.3964C252.99 78.7163 255.755 82.7574 258.288 86.9379C259.409 88.5112 260.011 90.3946 260.011 92.326C260.011 94.2574 259.409 96.1409 258.288 97.7142V97.7839ZM209.14 85.6141L232.192 91.2345C232.229 89.1378 231.915 87.0497 231.263 85.0566C227.963 79.3898 224.291 73.932 220.736 68.4277C220.436 67.9539 219.986 67.5941 219.458 67.4058C215.019 66.2678 210.535 65.0833 205.91 64.0382C207.467 67.8471 209.094 71.1682 210.209 74.652C210.826 76.4493 211.049 78.3579 210.865 80.2489C210.681 82.14 210.092 83.9696 209.14 85.6141ZM48.0559 14.3138C48.1269 14.5767 48.2202 14.8331 48.3347 15.0802C52.9823 23.8127 58.2573 32.2201 60.279 42.1139C60.3479 42.4119 60.4815 42.6911 60.6702 42.9319C60.8589 43.1727 61.0982 43.3692 61.3711 43.5074C65.3216 45.0403 69.3185 46.457 73.478 47.9898C74.6984 43.0944 73.9738 37.9168 71.4563 33.5439C65.461 21.4206 61.8824 18.3781 48.0559 14.3138ZM1232.25 85.4515L1246.68 81.5497C1247.2 81.4377 1247.68 81.218 1248.11 80.905C1248.53 80.5921 1248.88 80.193 1249.14 79.7342C1249.39 79.2754 1249.55 78.7673 1249.6 78.2436C1249.64 77.7198 1249.58 77.1922 1249.4 76.6958C1248.61 74.6693 1247.26 72.912 1245.5 71.6327C1242.03 69.7112 1238.44 68.0048 1234.76 66.5233C1232.32 65.3818 1229.53 65.1995 1226.96 66.0123C1222.84 67.22 1218.66 68.0793 1214.5 69.1012C1222.73 72.1669 1229.12 76.6261 1232.25 85.4515ZM70.1783 22.9534C72.7055 26.9707 74.8824 31.1977 76.6849 35.5877C77.7561 40.2834 78.4247 45.0618 78.6833 49.871C82.2387 51.1019 86.6074 52.6348 90.9993 54.1212C91.4239 54.2434 91.86 54.3211 92.3007 54.3534C94.3688 49.7084 93.2534 42.532 90.5113 36.3077C86.5377 27.4823 78.4974 25.4617 70.1783 22.9534ZM273.346 79.1343C279.063 86.4502 284.291 93.0693 280.852 102.754C286.29 103.683 291.565 104.658 296.84 105.495C300.349 106.075 301.139 105.286 299.977 101.802C297.962 94.9154 294.357 88.5987 289.45 83.3613C288.823 82.6609 288.021 82.1399 287.126 81.8517C282.851 80.9227 278.482 80.133 273.346 79.1343ZM749.721 141.029C756.53 140.68 762.99 140.402 769.427 139.891C770.054 139.891 771.03 138.195 770.984 137.359C770.791 135.981 770.291 134.663 769.52 133.504C764.012 124.214 750.767 118.547 739.102 121.148C746.607 125.584 752.556 130.81 749.628 141.029H749.721ZM145.98 47.9201C151.666 55.1926 155.924 63.4748 158.528 72.3295C158.603 72.58 158.731 72.8114 158.903 73.0078C159.076 73.2043 159.289 73.361 159.528 73.4675C163.501 74.5823 167.498 75.6274 171.147 76.6493C172.503 75.0635 173.249 73.0456 173.249 70.9592C173.249 68.8728 172.503 66.8549 171.147 65.2691C168.567 61.5763 165.755 57.9997 162.92 54.4696C162.155 53.4334 161.117 52.6295 159.923 52.1471C155.693 50.6142 151.046 49.3833 145.98 47.9201ZM108.799 36.6329C112.61 44.5061 116.119 52.2631 113.447 61.3208L132.92 66.5464C132.641 64.9177 132.245 63.3111 131.735 61.7389C129.574 56.8385 127.227 52.0077 124.996 47.1305C121.836 40.3488 115.934 37.8173 108.707 36.6329H108.799ZM726.6 141.005C732.2 141.005 737.382 141.005 742.564 141.005C743.056 141.018 743.546 140.932 744.005 140.754C744.463 140.576 744.882 140.308 745.237 139.967C745.591 139.625 745.875 139.217 746.07 138.765C746.265 138.314 746.369 137.828 746.375 137.336C746.626 135.91 746.51 134.444 746.039 133.074C745.567 131.705 744.755 130.479 743.679 129.509C740.391 126.223 736.389 123.741 731.983 122.254C727.578 120.768 722.888 120.318 718.281 120.939C724.02 126.281 729.667 131.576 726.507 141.005H726.6ZM154.508 72.1669C151.865 64.9119 148.27 58.0394 143.819 51.729C139.543 45.946 133.571 43.5771 126.739 42.4391C131.085 50.4749 136.034 58.139 136.94 67.638L154.508 72.1669ZM705.523 140.169C709.845 140.169 714.098 140.169 718.35 140.169C722.603 140.169 724.229 138.056 723.346 134.084C722.277 129.3 714.423 121.287 709.636 120.846C704.849 120.405 700.341 120.846 695.368 120.846C706.731 132.551 706.847 132.877 705.523 140.146V140.169ZM1192.52 74.0248C1200.72 77.2995 1208.78 80.2027 1210.46 90.4913C1215.87 89.2836 1220.94 88.1688 1226 87.0076C1227.82 86.636 1228.03 85.4747 1227.42 84.1509C1226.83 82.9966 1226.12 81.9133 1225.28 80.9226C1221.31 75.7203 1215.48 73.8159 1209.5 72.2598C1207.98 71.6601 1206.36 71.3605 1204.72 71.3772C1200.6 72.0043 1196.58 73.0959 1192.52 74.0017V74.0248ZM1206.46 91.3274C1206.33 89.4088 1205.7 87.5578 1204.63 85.9544C1203.57 84.3509 1202.11 83.0496 1200.4 82.1768C1196.38 80.2956 1192.1 78.995 1188.06 77.1835C1181.97 74.4197 1176.72 78.2053 1171.02 78.7627C1178.78 82.2465 1186.94 84.9638 1189.01 94.8344L1206.46 91.3274ZM1257.47 58.4177C1265.28 61.5299 1272.62 64.3169 1274.55 73.1888L1288.33 68.8922C1292.35 67.638 1292.72 66.2445 1289.98 62.9234C1287.11 59.8551 1283.41 57.6782 1279.33 56.6527C1276.69 55.5276 1273.84 54.9659 1270.97 55.0037C1266.38 55.8282 1261.86 56.9611 1257.42 58.3946L1257.47 58.4177ZM1125.01 107.654L1138.79 105.03C1143.65 104.124 1144.09 103.195 1141.32 99.0845C1140.41 97.687 1139.25 96.4736 1137.89 95.5078C1135.19 93.7195 1132.24 92.3029 1129.5 90.561C1123.45 86.7057 1117.3 88.4243 1110.63 89.9571C1117.58 94.3931 1125.01 97.9929 1125.06 107.631L1125.01 107.654ZM1063.06 115.853C1069.64 115.179 1075.91 114.599 1082.16 113.786C1082.84 113.786 1083.95 112.207 1083.79 111.672C1083.45 110.244 1082.69 108.95 1081.6 107.956C1078.61 105.479 1075.38 103.301 1071.96 101.453C1065.41 98.2019 1058.51 96.4136 1050.93 99.3167C1057.65 102.87 1063.34 107.004 1063.11 115.83L1063.06 115.853ZM684.446 138.311C688.954 138.706 693.346 139.263 697.785 139.426C698.488 139.534 699.207 139.437 699.856 139.147C700.505 138.856 701.056 138.385 701.444 137.789C701.832 137.193 702.039 136.498 702.041 135.788C702.043 135.077 701.84 134.381 701.456 133.782C696.809 126.258 690.906 120.405 681.146 120.521C678.079 120.521 675.012 120.358 671.851 120.266C671.317 120.266 670.782 120.382 669.946 120.451C676.452 125.375 685.515 127.744 684.493 138.288L684.446 138.311ZM1356.3 47.7344C1351.65 37.9567 1330.02 33.7994 1320.3 40.5811C1327.55 42.9035 1334.99 45.0402 1337.36 53.7031L1356.3 47.7344ZM1147.16 103.474L1164.47 99.8044C1163.42 95.0433 1160.1 92.837 1156.8 90.5145C1148.76 85.1031 1140.37 82.1071 1130.7 86.7753C1137.86 90.561 1145.79 93.6963 1147.27 103.404L1147.16 103.474ZM656.817 135.315C663.253 135.966 669.597 136.686 675.941 137.196C677.436 137.117 678.918 136.868 680.356 136.453C679.832 134.743 679.219 133.061 678.521 131.413C678.001 130.642 677.299 130.012 676.476 129.579C673.06 127.256 669.644 125.096 666.158 123.006C664.372 121.68 662.331 120.739 660.163 120.242C656.003 119.824 651.774 120.126 647.312 120.126C653.238 123.494 657.862 127.674 656.817 135.315ZM848.296 136.175H865.887C865.765 134.596 865.461 133.038 864.981 131.53C861.867 125.12 855.686 121.938 850.411 117.595C850.327 117.574 850.239 117.574 850.155 117.595L835.608 118.245C842.254 123.262 847.971 127.907 848.296 136.175ZM775.376 139.519C779.814 139.287 784.067 139.147 788.319 138.799C792.967 138.404 793.339 137.452 791.015 133.295C790.748 132.806 790.453 132.333 790.132 131.878C781.859 121.171 774.539 118.779 761.689 120.939C768.707 125.259 774.516 130.368 775.376 139.519ZM1168.86 98.9219C1173.51 97.9929 1177.76 97.1104 1182.08 96.1814C1184.76 95.624 1185.55 94.1841 1183.83 92.0009C1182.06 89.6525 1179.84 87.6789 1177.3 86.1947C1173.29 84.2779 1169.17 82.6103 1164.96 81.2014C1160.31 79.3898 1155.94 82.0142 1150.62 82.5484C1158.29 86.8914 1166.21 89.7248 1168.86 98.9219ZM1106.12 110.767L1116.86 108.978C1121.01 108.258 1121.94 106.516 1119.85 102.777C1118.94 101.062 1117.65 99.5707 1116.09 98.4109C1112.25 95.833 1108.19 93.6266 1104.17 91.3041C1103.66 91.0785 1103.1 91.0136 1102.56 91.1184C1098.75 91.699 1094.97 92.3493 1090.62 93.046C1097.54 97.7142 1105 101.244 1106.12 110.767ZM1237.85 63.4111C1245.48 67.0574 1253.89 69.0548 1253.7 79.5292C1258.86 77.9499 1263.76 76.5564 1268.55 74.8842C1269.25 74.6287 1270.11 72.7707 1269.81 72.2598C1268.9 70.1612 1267.48 68.3187 1265.69 66.8949C1261.26 64.2705 1256.4 62.2499 1251.75 60.0667C1251.39 59.9629 1251.02 59.9629 1250.66 60.0667L1237.85 63.4111ZM304.601 106.772L312.99 107.817C316.081 108.212 317.638 107.027 317.638 103.869C317.769 102.209 317.464 100.544 316.755 99.038C314.222 94.8576 311.34 90.8629 308.552 86.8218C308.203 86.2666 307.667 85.8547 307.041 85.6605C303.137 84.8476 299.21 84.1509 294.981 83.338C299.559 90.7467 304.415 97.5516 304.601 106.772ZM109.729 60.3222C110.123 57.8578 110.279 55.3612 110.194 52.867C109.287 46.7869 107.015 40.9907 103.548 35.9129C103.155 35.1841 102.557 34.5865 101.828 34.1942C98.5749 32.9401 95.2519 31.8718 91.0691 30.4086C93.8254 34.0275 95.7395 38.2151 96.6722 42.6667C97.6048 47.1182 97.5324 51.7217 96.4602 56.1417L109.729 60.3222ZM1296.04 66.5697L1313.38 61.1583C1312.08 56.0489 1307.73 54.8179 1304.08 52.7277C1296.16 48.0827 1288.21 48.5704 1279.96 52.7277C1287.05 55.3056 1293.9 58.0462 1296.04 66.4536V66.5697ZM892.68 115.11C898.606 120.8 907.367 122.936 909.551 131.924L925.05 130.368C924.893 128.848 924.414 127.378 923.645 126.056C922.876 124.735 921.834 123.592 920.589 122.704C916.359 119.871 912.014 117.2 907.692 114.529C907.058 114.166 906.329 114.004 905.6 114.065C901.441 114.343 897.305 114.715 892.68 115.11ZM1317.42 59.8112C1322.23 58.2319 1326.88 56.8384 1331.53 55.5146C1333.34 54.9805 1333.59 53.8193 1332.64 52.658C1331.27 50.6157 1329.48 48.8895 1327.39 47.595C1323.33 45.8183 1319.12 44.3887 1314.82 43.3216C1309.54 41.9281 1305.22 45.3422 1299.81 46.3409C1306.89 49.9639 1314.61 51.4735 1317.42 59.8112ZM869.954 135.989L887.87 134.572C886.982 131.111 884.815 128.115 881.805 126.188C877.622 123.424 873.207 121.078 869.047 118.291C864.888 115.504 861.193 117.13 856.848 117.362C869.094 128.441 869.094 128.441 869.954 135.989ZM350.635 112.508C354.237 107.283 351.147 103.079 348.8 98.8522C344.919 91.8848 338.505 89.9339 330.999 90.0965C334.136 96.6691 340.643 102.15 337.064 110.79L350.635 112.508ZM187.32 80.7136C192.316 77.2299 191.015 73.3514 188.621 69.589C186.228 65.8265 183.509 62.1105 180.883 58.4177C180.511 57.8952 179.982 57.5048 179.373 57.303C175.934 56.3275 172.401 55.4218 168.544 54.3766C173.377 61.6925 180.628 67.8006 175.515 77.8105L187.32 80.7136ZM632.068 134.27C637.483 134.526 642.595 134.897 647.684 134.944C649.426 134.763 651.136 134.357 652.773 133.736C652.215 131.855 651.704 129.973 651.123 128.092C650.92 127.677 650.626 127.312 650.263 127.024C646.901 124.042 642.936 121.817 638.639 120.498C634.341 119.18 629.81 118.8 625.352 119.383C630.139 123.262 634.578 127.047 632.068 134.27ZM1070.82 96.0884C1070.96 96.3904 1070.98 96.5297 1071.03 96.553C1071.8 96.9246 1072.59 97.1801 1073.35 97.5981C1079.79 101.407 1087.41 104.078 1088.44 113.205C1091.99 112.741 1095.41 112.299 1098.94 111.788C1101.91 111.347 1102.73 109.954 1101.26 107.306C1100.27 105.428 1098.9 103.776 1097.24 102.452C1093.76 99.8974 1089.97 97.8071 1086.27 95.4846C1085.41 94.8057 1084.37 94.4011 1083.28 94.3234C1079.05 94.7415 1074.98 95.3917 1070.82 96.0884ZM1004.2 123.262C1003.66 119.476 1001.87 117.362 996.414 113.786C988.978 108.885 981.239 105.378 971.898 108.839C974.896 110.72 977.87 112.532 980.775 114.459C984.632 116.991 988.257 119.731 988.722 125.143L1004.2 123.262ZM1370.29 22.9534C1377.75 25.2759 1385.65 27.0642 1388.6 35.9129C1392.5 34.264 1396.24 32.6846 1400.01 31.0589C1402.54 29.9673 1402.91 28.8757 1401.19 26.7623C1400.19 25.542 1398.99 24.5047 1397.64 23.6966C1388.71 18.3781 1379.63 17.2401 1370.29 22.9534ZM1010.45 104.24C1017.19 108.514 1024.76 111.208 1025.23 120.498C1029.32 119.964 1033.15 119.406 1036.99 118.965C1040.82 118.524 1041.82 116.387 1039.45 113.437C1037.55 111.171 1035.29 109.233 1032.76 107.701C1030.12 106.164 1027.33 104.896 1024.44 103.915C1022.84 103.297 1021.13 103.005 1019.42 103.056C1016.65 103.149 1013.91 103.683 1010.45 104.171V104.24ZM914.686 113.809C917.923 115.737 920.98 117.952 923.819 120.428C926.263 123.43 928.44 126.639 930.325 130.02L943.339 128.812C943.013 124.446 941.015 121.705 937.552 118.222C930.906 111.649 923.052 112.137 914.686 113.739V113.809ZM1031.04 101.964C1033.9 103.869 1037.03 105.773 1039.96 107.98C1041.55 109.084 1042.81 110.587 1043.63 112.337C1044.44 114.087 1044.78 116.02 1044.61 117.943C1048.56 117.502 1052.14 117.061 1055.72 116.712C1058.46 116.457 1059.92 114.784 1058.83 112.299C1057.81 109.94 1056.29 107.832 1054.37 106.122C1051.26 103.318 1047.43 101.437 1043.31 100.69C1039.18 99.9437 1034.94 100.361 1031.04 101.895V101.964ZM192.153 81.8517C195.802 82.6878 198.939 83.3381 202.053 84.1742C202.516 84.3165 203.005 84.3573 203.485 84.2937C203.966 84.2302 204.427 84.0638 204.837 83.8058C205.247 83.5479 205.597 83.2045 205.863 82.7991C206.128 82.3937 206.303 81.9359 206.375 81.4568C206.782 80.0372 206.853 78.5425 206.584 77.0905C205.516 72.088 203.252 67.4183 199.985 63.4808C199.537 62.8937 198.921 62.4563 198.219 62.2266C194.57 61.228 190.899 60.3454 187.111 59.3932C189.435 63.1556 191.573 66.6393 193.408 70.3321C195.244 74.0248 195.848 77.9267 192.084 81.782L192.153 81.8517ZM963.648 127.349C964.322 123.285 961.975 121.195 959.535 119.337C952.564 114.041 945.732 108.467 935.81 112.369C941.921 116.132 946.638 120.986 947.777 128.626L963.648 127.349ZM1406.58 28.2255C1410.53 26.53 1414.42 24.974 1418.2 23.1624C1418.81 22.8837 1419.46 21.049 1419.16 20.7006C1417.72 18.6055 1415.89 16.8076 1413.76 15.4053C1405.49 11.3178 1397.03 10.2262 1388.69 15.7305C1395.76 18.053 1403.15 20.0271 1406.58 28.2255ZM984.4 125.584C984.51 124.467 984.292 123.343 983.772 122.349C983.252 121.354 982.452 120.533 981.472 119.987C976.964 116.944 972.339 114.041 967.715 111.138C966.507 110.372 965.159 109.187 963.904 109.211C960.558 109.211 957.235 109.838 953.54 110.256C959.814 114.901 967.483 117.734 968.133 127.001L984.4 125.584ZM577.181 130.81L596.003 132.25C596.84 128.766 595.097 126.652 593.238 124.516C587.359 117.664 579.807 115.621 570.976 116.828C572.883 118.629 574.413 120.79 575.478 123.186C576.543 125.582 577.122 128.165 577.181 130.786V130.81ZM313.827 86.8218C318.195 93.9053 324.725 99.6651 320.635 108.746C323.935 109.187 326.886 109.605 329.93 109.931C330.444 110.051 330.979 110.052 331.493 109.935C332.007 109.817 332.488 109.584 332.898 109.252C333.309 108.921 333.638 108.5 333.86 108.021C334.083 107.543 334.193 107.02 334.183 106.493C334.346 105.205 334.128 103.897 333.555 102.731C331.232 98.4806 328.536 94.3234 325.887 90.1894C325.333 89.3669 324.512 88.76 323.563 88.4707C320.403 87.8204 317.382 87.4024 313.827 86.8218ZM991.673 106.331C998.761 110.836 1006.62 113.809 1008.71 122.704L1020.91 121.032C1021.12 119.374 1020.82 117.689 1020.06 116.204C1019.29 114.718 1018.08 113.502 1016.61 112.717C1012.7 110.232 1008.61 108.072 1004.52 105.959C1003.39 105.393 1002.12 105.129 1000.85 105.193C998.017 105.378 995.159 105.866 991.673 106.331ZM796.685 137.777C799.915 137.777 803.052 137.777 806.166 137.777C808.373 137.777 808.978 136.848 808.699 134.944C808.622 133.929 808.411 132.93 808.071 131.971C805.538 126.072 800.147 123.122 795.198 119.731C795.034 119.644 794.849 119.604 794.663 119.615L783.811 120.149C790.085 125.143 795.662 130.043 796.685 137.777ZM802.006 119.685C808.211 124.33 813.393 128.975 812.672 137.173C815.81 137.173 818.668 137.173 821.526 137.173C825.174 137.034 825.779 136.221 825.36 132.528C824.872 128.162 817.366 119.917 813.091 119.081C812.72 119.035 812.346 119.035 811.975 119.081L802.006 119.685ZM891.983 134.061C895.376 133.643 898.583 133.295 901.766 132.807C902.865 132.571 903.945 132.253 904.996 131.855C904.485 130.694 903.997 129.532 903.416 128.417C903.173 128.027 902.848 127.694 902.463 127.442C897.165 123.563 891.867 119.685 886.522 115.83C886.123 115.62 885.668 115.539 885.221 115.597L873.741 116.294C881.317 121.241 889.566 124.492 891.983 134.061ZM1372.54 42.1372L1381.32 38.7928C1384.53 37.5619 1385.02 35.5877 1382.58 33.1259C1377.77 28.2487 1362.57 22.7908 1353.86 28.9454C1357.44 30.2925 1361.22 31.4769 1364.8 33.1259C1366.75 33.8443 1368.49 35.0492 1369.84 36.6264C1371.2 38.2035 1372.13 40.1005 1372.54 42.1372ZM829.148 136.686H840.767C844.601 136.686 844.903 136.128 843.509 132.505C840.93 125.747 834.632 122.774 829.566 118.57C829.225 118.413 828.844 118.364 828.474 118.431L820.434 119.011C826.267 123.703 830.473 128.696 829.148 136.686ZM355.399 113.159C357.723 113.53 360.186 113.995 362.58 114.274C367.227 114.784 369.551 111.951 367.924 107.608C366.917 105.022 365.689 102.528 364.253 100.153C360.79 94.2537 356.747 92.3957 349.636 93.1853C353.726 99.1309 358.141 104.984 355.399 113.159ZM366.019 95.0434C372.99 108.746 372.99 108.746 371.549 115.412C374.501 115.806 377.405 116.248 380.333 116.55C380.791 116.659 381.267 116.667 381.728 116.572C382.189 116.477 382.623 116.282 383 116.001C383.377 115.719 383.688 115.358 383.91 114.943C384.131 114.528 384.259 114.07 384.284 113.6C384.593 112.067 384.593 110.488 384.284 108.955C382.483 104.046 379.066 99.8936 374.593 97.18C372.386 95.7865 369.295 95.8098 366.019 95.0434ZM1423.69 20.8864C1426.01 19.8877 1428.47 18.9355 1430.84 17.9136C1434.42 16.404 1434.59 15.5911 1431.82 12.479C1427.97 8.6718 1422.92 6.3024 1417.53 5.76703C1415.53 5.31469 1413.45 5.33527 1411.45 5.82714C1409.46 6.319 1407.61 7.26859 1406.05 8.60047C1413.39 10.5514 1420.81 12.3397 1423.69 20.8864ZM450.023 106.261C454.973 110.906 458.645 115.737 457.762 122.518C461.224 122.751 464.547 123.053 467.847 123.215C471.147 123.378 472.099 122.007 470.844 119.151C467.986 112.764 463.873 107.538 456.228 106.749L450.023 106.261ZM475.097 123.563C478.861 123.749 482.277 123.865 485.693 124.098C489.109 124.33 490.155 122.82 488.947 119.824C488.386 118.354 487.439 117.062 486.205 116.085C482.962 113.631 479.527 111.441 475.934 109.536C473.68 108.76 471.338 108.269 468.962 108.072C472.169 112.95 475.934 117.061 475.097 123.563ZM560.147 129.741C563.889 130.02 567.305 130.206 570.697 130.531C573.021 130.74 573.579 129.811 573.021 127.767C571.919 124.13 569.769 120.899 566.84 118.477C562.425 114.599 557.057 116.155 551.944 115.365C556.824 118.872 560.589 122.983 560.147 129.741ZM492.897 124.562C496.313 124.841 499.264 125.027 502.192 125.375C506.468 125.886 507.258 124.887 505.701 120.869C502.936 113.67 494.547 109.257 485.624 110.349C490.318 113.972 494.454 117.664 492.897 124.562ZM399.946 118.199C403.013 118.454 405.593 118.756 408.172 118.826C408.782 118.879 409.396 118.793 409.968 118.574C410.539 118.355 411.053 118.008 411.47 117.56C411.887 117.111 412.196 116.574 412.373 115.989C412.551 115.403 412.592 114.785 412.494 114.181C411.774 107.863 403.037 100.106 396.228 99.9903C400.573 105.332 402.688 111.185 399.853 118.199H399.946ZM381.565 97.9697C386.77 103.381 390.628 109.141 387.583 117.014L390.325 117.432C395.833 118.268 397.808 116.317 397.297 110.674C396.808 106.925 394.888 103.51 391.939 101.143C388.99 98.7752 385.24 97.6384 381.472 97.9697H381.565ZM423.393 103.218C428.714 108.7 430.225 114.041 424.996 120.335C429.806 120.149 434.105 122.007 438.474 119.894C440.356 118.965 441.193 117.734 440.217 115.946C436.895 110.326 431.84 105.934 425.81 103.428C424.95 103.222 424.065 103.151 423.184 103.218H423.393ZM520.55 112.834C524.268 117.339 529.125 120.916 525.012 127.442C529.659 127.767 533.912 128.162 538.141 128.301C538.745 128.301 539.93 127.14 539.861 126.652C539.758 125.181 539.269 123.763 538.443 122.542C536.372 119.645 533.663 117.263 530.524 115.58C527.385 113.896 523.901 112.957 520.341 112.834H520.55ZM510.581 126.002C513.016 126.333 515.468 126.535 517.924 126.606C518.66 126.685 519.403 126.561 520.073 126.247C520.742 125.934 521.313 125.442 521.723 124.827C522.133 124.211 522.366 123.495 522.397 122.756C522.428 122.018 522.255 121.285 521.898 120.637C520.266 117.478 517.655 114.931 514.455 113.378C511.255 111.825 507.638 111.349 504.144 112.021C508.071 115.806 510.883 120.103 510.372 126.002H510.581ZM1360.53 46.4105C1362.66 45.6906 1364.83 44.8777 1367.06 44.2274C1368.8 43.7397 1369.15 42.5088 1368.22 41.3475C1367.01 39.6346 1365.48 38.1618 1363.73 37.0044C1358.19 33.9472 1351.99 32.274 1345.65 32.1272C1343.95 32.2781 1342.28 32.6853 1340.71 33.3349C1348.21 36.2845 1356.3 37.7477 1360.32 46.4105H1360.53ZM535.585 114.134C540.883 118.059 544.671 122.193 544.183 128.835L556.127 129.555C556.917 122.24 546.251 114.204 535.26 114.134H535.585ZM443.633 121.752C446.329 121.915 448.908 121.961 451.441 122.286C453.974 122.611 454.322 121.218 454.16 119.337C454.11 118.413 453.864 117.51 453.439 116.689C449.652 109.838 444.702 104.612 435.802 104.635C439.985 109.536 446.677 113.205 443.308 121.752H443.633ZM415.748 119.197C419.582 120.219 421.58 117.711 423.579 115.644C424.223 114.836 424.591 113.842 424.628 112.81C424.666 111.777 424.371 110.76 423.788 109.907C422.593 107.238 420.587 105.011 418.056 103.544C415.524 102.077 412.595 101.443 409.683 101.732C413.772 106.702 418.281 111.649 415.422 119.197H415.748Z" fill="#FF7596" fill-opacity="0.95"/>
<path d="M0 -6.9834C5.27498 -4.66091 10.7126 -2.33841 15.7785 0.402123C17.8269 1.85195 19.5258 3.74032 20.7514 5.92961C25.9101 13.2454 31.4407 20.3987 33.6948 29.3403C33.9039 30.1299 33.9969 30.966 34.1363 31.7789C34.1363 32.1273 34.1363 32.4989 34.1363 33.2653C27.9551 30.9428 22.0062 28.6203 16.127 26.2978C15.6158 26.0888 15.2672 25.2295 15.0581 24.6024C14.8017 23.0542 14.3406 21.5469 13.6871 20.12C9.29512 13.8028 4.64756 7.62505 0 1.37756V-6.9834Z" fill="#FFDCE9"/>
<path d="M1440 14.1047L1437.98 14.6389C1434.61 7.06755 1427.94 3.97867 1420.25 2.21358C1422.58 0.191818 1425.48 -1.07293 1428.55 -1.41304C1431.62 -1.75314 1434.72 -1.15256 1437.44 0.309122C1438.28 0.68072 1439.14 0.959413 1440 1.28456V14.1047Z" fill="#FFDCE9"/>
<path d="M0 7.50891C4.26585 12.3313 7.91149 17.668 10.8521 23.3947L10.3176 23.9753L0 19.7716V7.50891Z" fill="#FFDCE9"/>
<path d="M600.163 132.76C601.046 125.468 596.259 121.798 591.542 117.618C598.998 117.581 606.452 117.93 613.873 118.663C616.547 119.065 619.115 119.992 621.428 121.391C623.741 122.791 625.754 124.634 627.351 126.815C628.257 128.346 628.617 130.139 628.373 131.901C628.211 133.48 626.956 134.224 624.934 134.224C616.824 133.573 608.691 133.225 600.163 132.76Z" fill="#FFDCE9"/>
<path d="M234.841 91.9776C235.605 90.6788 236.008 89.1994 236.008 87.6926C236.008 86.1859 235.605 84.7065 234.841 83.4077C232.331 78.7627 229.589 74.1177 226.894 69.4727C227.466 69.4217 228.041 69.4217 228.613 69.4727C231.2 70.1806 233.822 70.7542 236.468 71.1914C238.82 71.4098 241.087 72.1826 243.082 73.4462C245.078 74.7099 246.745 76.4284 247.947 78.4607C250.271 81.9445 252.595 85.4282 254.756 88.9352C255.315 89.8956 255.693 90.9505 255.871 92.0473C255.995 92.6316 255.965 93.2379 255.785 93.8072C255.604 94.3766 255.28 94.8896 254.842 95.2964C254.405 95.7032 253.87 95.9899 253.288 96.1287C252.707 96.2675 252.1 96.2536 251.526 96.0884L234.841 91.9776Z" fill="#FFDCE9"/>
<path d="M56.1193 41.5566C50.2633 39.2341 44.9651 37.3993 39.8528 35.2626C39.4227 35.022 39.0515 34.6888 38.7661 34.2871C38.4807 33.8854 38.2884 33.4253 38.2029 32.9401C37.8814 27.6605 36.2869 22.537 33.5554 18.0065C30.9992 13.7332 28.4431 9.4366 25.5383 4.60583C28.6522 5.92965 31.2316 7.23023 33.9504 8.11277C36.2292 8.72408 38.3541 9.80696 40.1875 11.2913C42.0209 12.7756 43.5219 14.6282 44.5933 16.7292C48.2649 24.0683 51.9287 31.4228 55.5848 38.7928C55.8458 39.6961 56.0247 40.6211 56.1193 41.5566Z" fill="#FFDCE9"/>
<path d="M258.288 97.7142C259.446 96.1253 260.07 94.2103 260.07 92.2447C260.07 90.2791 259.446 88.3641 258.288 86.7753C255.755 82.5948 252.99 78.5537 250.201 74.2339C255.221 75.279 260.124 76.2312 264.981 77.3692C265.932 77.73 266.784 78.311 267.467 79.0646C272.417 83.5702 276.762 88.5404 277.924 95.322C278.232 96.4791 278.142 97.706 277.668 98.8057C277.018 99.8741 275.345 101.291 274.555 101.128C269.14 100.362 263.842 99.0148 258.288 97.7142Z" fill="#FFDCE9"/>
<path d="M209.14 85.6141C210.092 83.9696 210.681 82.14 210.865 80.249C211.049 78.3579 210.826 76.4493 210.209 74.652C209.094 71.1683 207.467 67.8471 205.91 64.0382C210.558 65.1762 215.019 66.3607 219.458 67.4058C219.986 67.5942 220.436 67.9539 220.736 68.4277C224.291 73.932 227.963 79.3898 231.263 85.0567C231.915 87.0498 232.229 89.1378 232.192 91.2345L209.14 85.6141Z" fill="#FFDCE9"/>
<path d="M48.0557 14.3137C61.9983 18.3781 65.4608 21.4205 71.4561 33.5439C73.9736 37.9168 74.6982 43.0943 73.4778 47.9898C69.3183 46.4569 65.3213 45.0402 61.3709 43.5074C61.098 43.3691 60.8587 43.1726 60.67 42.9319C60.4812 42.6911 60.3477 42.4119 60.2787 42.1139C58.2571 32.2201 52.9588 23.8127 48.3345 15.0801C48.22 14.833 48.1267 14.5766 48.0557 14.3137Z" fill="#FFDCE9"/>
<path d="M1232.25 85.4516C1229.12 76.6261 1222.73 72.0973 1214.5 69.1942C1218.66 68.1723 1222.84 67.313 1226.96 66.1053C1229.53 65.2925 1232.32 65.4747 1234.76 66.6162C1238.44 68.0977 1242.03 69.8041 1245.5 71.7257C1247.26 73.005 1248.61 74.7622 1249.4 76.7887C1249.58 77.2851 1249.64 77.8128 1249.6 78.3365C1249.55 78.8603 1249.39 79.3683 1249.14 79.8271C1248.88 80.2859 1248.53 80.685 1248.11 80.9979C1247.68 81.3109 1247.2 81.5306 1246.68 81.6426L1232.25 85.4516Z" fill="#FFDCE9"/>
<path d="M70.1782 22.9534C78.4974 25.4617 86.4447 27.4822 90.3951 36.3077C93.1372 42.5319 94.2526 49.7084 92.1844 54.3533C91.7438 54.3211 91.3077 54.2433 90.8831 54.1212C86.4912 52.6348 82.1224 51.1019 78.5671 49.871C78.3084 45.0617 77.6399 40.2833 76.5686 35.5877C74.8034 31.2016 72.6655 26.9747 70.1782 22.9534Z" fill="#FFDCE9"/>
<path d="M273.346 79.1343C278.482 80.1329 282.85 80.9226 287.289 81.8516C288.184 82.1398 288.986 82.6609 289.613 83.3612C294.519 88.5986 298.125 94.9154 300.139 101.802C301.301 105.285 300.511 106.075 297.002 105.494C291.727 104.658 286.452 103.683 281.015 102.754C284.291 93.0692 279.063 86.4501 273.346 79.1343Z" fill="#FFDCE9"/>
<path d="M749.628 141.029C752.556 130.81 746.607 125.561 739.009 121.148C750.627 118.547 763.919 124.121 769.427 133.504C770.198 134.663 770.698 135.981 770.891 137.359C770.891 138.195 769.961 139.844 769.334 139.891C762.897 140.402 756.437 140.68 749.628 141.029Z" fill="#FFDCE9"/>
<path d="M145.98 47.9202C151.046 49.3833 155.577 50.6142 159.923 52.1006C161.117 52.583 162.155 53.3869 162.92 54.4231C165.755 57.9533 168.567 61.53 171.147 65.2227C172.503 66.8085 173.249 68.8263 173.249 70.9128C173.249 72.9992 172.503 75.0171 171.147 76.6029C167.405 75.581 163.408 74.5359 159.528 73.4211C159.289 73.3147 159.076 73.1578 158.903 72.9614C158.731 72.7649 158.603 72.5335 158.528 72.283C155.918 63.4447 151.661 55.1788 145.98 47.9202Z" fill="#FFDCE9"/>
<path d="M108.707 36.6328C115.933 37.8173 121.836 40.3488 124.973 47.1304C127.297 52.0076 129.621 56.8384 131.712 61.7389C132.222 63.311 132.618 64.9176 132.897 66.5464L113.424 61.3208C116.026 52.2631 112.518 44.506 108.707 36.6328Z" fill="#FFDCE9"/>
<path d="M726.506 141.005C729.551 131.576 724.02 126.281 718.28 120.869C722.875 120.266 727.548 120.727 731.936 122.217C736.324 123.707 740.31 126.186 743.586 129.463C744.662 130.432 745.474 131.659 745.945 133.028C746.417 134.397 746.533 135.863 746.282 137.289C746.276 137.781 746.172 138.267 745.977 138.719C745.781 139.17 745.498 139.579 745.144 139.92C744.789 140.262 744.37 140.529 743.911 140.707C743.453 140.886 742.963 140.971 742.471 140.959C737.289 141.052 732.107 141.005 726.506 141.005Z" fill="#FFDCE9"/>
<path d="M154.508 72.1668L136.94 67.5219C136.104 58.0229 131.084 50.3587 126.739 42.3229C133.571 43.5073 139.543 45.8763 143.819 51.6128C148.279 57.9593 151.874 64.8715 154.508 72.1668Z" fill="#FFDCE9"/>
<path d="M705.523 140.146C706.847 132.877 706.731 132.644 695.368 120.73C700.294 120.73 705.012 120.382 709.636 120.73C714.26 121.078 722.277 129.184 723.346 133.968C724.229 137.94 722.394 140.123 718.35 140.053C714.307 139.983 709.845 140.146 705.523 140.146Z" fill="#FFDCE9"/>
<path d="M1192.52 74.0017C1196.58 73.096 1200.6 72.0044 1204.72 71.3541C1206.36 71.3373 1207.98 71.637 1209.5 72.2366C1215.48 73.7927 1221.31 75.6971 1225.28 80.8995C1226.12 81.8902 1226.83 82.9734 1227.42 84.1277C1228.02 85.4515 1227.82 86.6128 1226 86.9844C1220.94 88.076 1215.87 89.3069 1210.46 90.4681C1208.88 80.1795 1200.72 77.2764 1192.52 74.0017Z" fill="#FFDCE9"/>
<path d="M1206.41 91.3041L1188.96 94.8111C1186.89 84.9405 1178.74 82.2232 1170.98 78.7395C1176.67 78.1821 1181.92 74.3964 1188.01 77.1602C1192.05 78.9717 1196.33 80.2723 1200.35 82.1535C1202.06 83.0263 1203.52 84.3277 1204.59 85.9311C1205.65 87.5346 1206.28 89.3855 1206.41 91.3041Z" fill="#FFDCE9"/>
<path d="M1257.42 58.3946C1261.84 56.9553 1266.35 55.8147 1270.92 54.9805C1273.79 54.9428 1276.64 55.5044 1279.29 56.6295C1283.36 57.655 1287.06 59.832 1289.93 62.9002C1292.67 66.2214 1292.25 67.5451 1288.28 68.869L1274.5 73.1656C1272.57 64.2937 1265.23 61.5067 1257.42 58.3946Z" fill="#FFDCE9"/>
<path d="M1125.06 107.631C1125.06 97.9929 1117.58 94.393 1110.67 89.9338C1117.34 88.401 1123.5 86.6824 1129.54 90.5377C1132.28 92.2796 1135.24 93.6963 1137.93 95.4846C1139.29 96.4504 1140.46 97.6637 1141.37 99.0612C1144.14 103.172 1143.69 104.101 1138.84 105.007L1125.06 107.631Z" fill="#FFDCE9"/>
<path d="M1063.11 115.83C1063.34 106.981 1057.65 102.87 1050.98 99.2934C1058.55 96.3903 1065.45 98.1787 1072.01 101.43C1075.43 103.278 1078.66 105.456 1081.65 107.933C1082.73 108.926 1083.49 110.22 1083.83 111.649C1084 112.183 1082.88 113.693 1082.21 113.763C1075.91 114.575 1069.68 115.156 1063.11 115.83Z" fill="#FFDCE9"/>
<path d="M684.493 138.288C685.399 127.744 676.452 125.375 670.085 120.428C670.922 120.428 671.456 120.242 671.991 120.242C675.058 120.242 678.126 120.544 681.286 120.498C691.046 120.382 696.948 126.234 701.596 133.759C702.028 134.364 702.267 135.085 702.282 135.828C702.298 136.571 702.088 137.302 701.682 137.924C701.275 138.546 700.69 139.031 700.003 139.316C699.316 139.6 698.559 139.671 697.831 139.519C693.393 139.24 689.001 138.683 684.493 138.288Z" fill="#FFDCE9"/>
<path d="M1356.34 47.7344L1337.41 53.7031C1335.08 45.0402 1327.6 42.9965 1320.35 40.5811C1330.06 33.8226 1351.6 37.9567 1356.34 47.7344Z" fill="#FFDCE9"/>
<path d="M1147.27 103.404C1145.79 93.6964 1137.98 90.5609 1130.82 86.7985C1140.49 82.1535 1148.88 85.1264 1156.92 90.5378C1160.22 92.8602 1163.54 94.9737 1164.59 99.8277L1147.27 103.404Z" fill="#FFDCE9"/>
<path d="M656.816 135.315C657.862 127.674 653.238 123.494 647.312 120.126C651.774 120.126 656.003 119.824 660.163 120.242C662.331 120.739 664.372 121.68 666.158 123.006C669.644 125.096 673.129 127.349 676.475 129.579C677.298 130.012 678.001 130.642 678.52 131.413C679.219 133.061 679.831 134.743 680.356 136.453C678.917 136.868 677.436 137.117 675.941 137.196C669.597 136.685 663.253 135.966 656.816 135.315Z" fill="#FFDCE9"/>
<path d="M848.296 136.174C847.97 127.93 842.254 123.285 835.608 118.245L850.155 117.595C850.239 117.574 850.326 117.574 850.41 117.595C855.639 121.822 861.867 125.003 864.981 131.53C865.461 133.038 865.765 134.596 865.887 136.174H848.296Z" fill="#FFDCE9"/>
<path d="M775.376 139.519C774.516 130.391 768.706 125.282 761.688 120.939C774.539 118.779 781.859 121.171 790.132 131.878C790.453 132.333 790.748 132.806 791.015 133.295C793.338 137.452 792.92 138.404 788.319 138.799C784.066 139.124 779.814 139.263 775.376 139.519Z" fill="#FFDCE9"/>
<path d="M1168.86 98.9219C1166.31 89.632 1158.38 86.8914 1150.62 82.6645C1155.94 82.1303 1160.19 79.506 1164.96 81.3175C1169.17 82.7264 1173.29 84.394 1177.3 86.3108C1179.84 87.795 1182.06 89.7686 1183.83 92.117C1185.55 94.3002 1184.76 95.7402 1182.08 96.2975C1177.67 97.1104 1173.32 97.9929 1168.86 98.9219Z" fill="#FFDCE9"/>
<path d="M1106.12 110.767C1104.93 101.244 1097.47 97.7606 1090.62 93.046C1094.97 92.3492 1098.75 91.699 1102.56 91.1183C1103.1 91.0136 1103.66 91.0785 1104.17 91.3041C1108.19 93.6266 1112.25 95.833 1116.09 98.4109C1117.65 99.5707 1118.94 101.062 1119.85 102.777C1121.94 106.516 1121.01 108.258 1116.86 108.978L1106.12 110.767Z" fill="#FFDCE9"/>
<path d="M1237.92 63.4111L1250.77 60.1132C1251.13 60.0093 1251.51 60.0093 1251.87 60.1132C1256.51 62.3195 1261.32 64.3169 1265.81 66.9413C1267.6 68.3652 1269.01 70.2077 1269.92 72.3062C1270.22 72.8172 1269.36 74.6287 1268.67 74.9306C1263.88 76.6028 1258.98 77.9963 1253.82 79.5756C1253.96 69.0548 1245.55 67.0574 1237.92 63.4111Z" fill="#FFDCE9"/>
<path d="M304.601 106.772C304.439 97.482 299.559 90.7933 295.097 83.3613C299.326 84.151 303.253 84.8477 307.157 85.6838C307.784 85.878 308.319 86.2899 308.668 86.8451C311.456 90.8862 314.338 94.8808 316.871 99.0613C317.581 100.567 317.885 102.232 317.754 103.892C317.754 107.051 316.081 108.235 313.106 107.84L304.601 106.772Z" fill="#FFDCE9"/>
<path d="M109.729 60.2061L96.46 56.0256C97.5213 51.616 97.5882 47.0258 96.6557 42.5872C95.7233 38.1486 93.815 33.9728 91.0688 30.3622C95.2517 31.8253 98.5747 32.8937 101.828 34.1478C102.557 34.5401 103.155 35.1377 103.548 35.8665C107.014 40.9443 109.287 46.7405 110.194 52.8206C110.274 55.2916 110.118 57.7647 109.729 60.2061Z" fill="#FFDCE9"/>
<path d="M1296.04 66.4535C1293.9 58.0461 1287.05 55.3056 1280.01 52.5186C1288.26 48.3381 1296.27 47.8736 1304.13 52.5186C1307.73 54.6089 1312.08 55.8398 1313.42 60.9493L1296.04 66.4535Z" fill="#FFDCE9"/>
<path d="M892.68 115.11C897.328 114.715 901.441 114.343 905.6 114.064C906.329 114.004 907.058 114.166 907.692 114.529C912.014 117.2 916.36 119.871 920.589 122.704C921.834 123.592 922.876 124.735 923.645 126.056C924.414 127.378 924.893 128.848 925.05 130.368L909.551 131.924C907.366 122.936 898.606 120.8 892.68 115.11Z" fill="#FFDCE9"/>
<path d="M1317.42 59.8112C1314.61 51.4734 1306.89 49.9639 1299.76 46.3408C1305.17 45.3421 1309.5 41.928 1314.77 43.3215C1319.08 44.3886 1323.28 45.8183 1327.34 47.5949C1329.43 48.8894 1331.23 50.6156 1332.59 52.6579C1333.55 53.8192 1333.29 54.9804 1331.48 55.5146C1326.88 56.8384 1322.23 58.2319 1317.42 59.8112Z" fill="#FFDCE9"/>
<path d="M869.953 135.989C869.001 128.441 869.001 128.441 856.847 117.409C861.193 117.177 865.143 115.737 869.047 118.338C872.951 120.939 877.622 123.471 881.805 126.234C884.815 128.162 886.982 131.158 887.87 134.618L869.953 135.989Z" fill="#FFDCE9"/>
<path d="M350.635 112.508L337.064 110.79C340.643 102.15 334.136 96.6691 330.999 90.0964C338.505 89.9339 344.942 91.9312 348.799 98.8522C351.146 103.079 354.237 107.283 350.635 112.508Z" fill="#FFDCE9"/>
<path d="M187.32 80.7136L175.701 77.8105C180.72 67.8005 173.377 61.6924 168.73 54.3766C172.634 55.4217 176.119 56.3275 179.559 57.3029C180.168 57.5047 180.697 57.8952 181.069 58.4177C183.695 62.1104 186.39 65.7568 188.807 69.5889C191.224 73.421 192.316 77.2298 187.32 80.7136Z" fill="#FFDCE9"/>
<path d="M632.068 134.27C634.601 127.047 630.163 123.145 625.353 119.383C629.81 118.8 634.341 119.18 638.639 120.498C642.936 121.817 646.901 124.042 650.263 127.024C650.626 127.312 650.92 127.677 651.123 128.092C651.704 129.974 652.215 131.855 652.773 133.736C651.136 134.357 649.426 134.763 647.684 134.944C642.572 134.874 637.459 134.526 632.068 134.27Z" fill="#FFDCE9"/>
<path d="M1070.82 96.0885C1074.98 95.4614 1079.05 94.7414 1083.16 94.3002C1084.25 94.3779 1085.3 94.7825 1086.16 95.4614C1089.85 97.7839 1093.64 99.8974 1097.13 102.429C1098.79 103.753 1100.16 105.405 1101.15 107.283C1102.68 109.93 1101.87 111.324 1098.82 111.765C1095.36 112.276 1091.85 112.717 1088.32 113.182C1087.3 104.055 1079.67 101.384 1073.24 97.5749C1072.52 97.1568 1071.73 96.9013 1070.91 96.5297C1070.98 96.5297 1070.96 96.3904 1070.82 96.0885Z" fill="#FFDCE9"/>
<path d="M1004.2 123.261L988.722 125.143C988.257 119.731 984.632 116.991 980.775 114.459C977.87 112.532 974.895 110.72 971.898 108.839C981.193 105.378 988.978 108.839 996.414 113.786C1001.85 117.362 1003.66 119.476 1004.2 123.261Z" fill="#FFDCE9"/>
<path d="M1370.29 22.9534C1379.58 17.2401 1388.71 18.3084 1397.64 23.6966C1398.99 24.5046 1400.19 25.542 1401.19 26.7623C1402.91 28.8757 1402.54 29.9673 1400.01 31.0589C1396.24 32.6846 1392.5 34.2639 1388.6 35.9129C1385.65 27.0642 1377.75 25.2991 1370.29 22.9534Z" fill="#FFDCE9"/>
<path d="M1010.45 104.171C1013.91 103.683 1016.65 103.149 1019.42 103.009C1021.13 102.958 1022.84 103.251 1024.44 103.869C1027.33 104.849 1030.12 106.118 1032.76 107.654C1035.29 109.187 1037.55 111.125 1039.45 113.391C1041.77 116.341 1040.68 118.477 1036.99 118.919C1033.29 119.36 1029.32 119.917 1025.23 120.451C1024.79 111.208 1017.19 108.444 1010.45 104.171Z" fill="#FFDCE9"/>
<path d="M914.686 113.739C923.052 112.137 930.953 111.533 937.552 118.152C941.038 121.636 943.013 124.376 943.339 128.743L930.325 129.95C928.44 126.57 926.263 123.36 923.819 120.359C920.98 117.883 917.923 115.667 914.686 113.739Z" fill="#FFDCE9"/>
<path d="M1031.04 101.895C1034.92 100.37 1039.14 99.9518 1043.25 100.686C1047.35 101.42 1051.17 103.277 1054.28 106.052C1056.2 107.762 1057.72 109.87 1058.74 112.23C1059.83 114.715 1058.37 116.387 1055.62 116.642C1052.05 116.991 1048.47 117.432 1044.52 117.873C1044.69 115.951 1044.35 114.017 1043.53 112.267C1042.72 110.518 1041.45 109.015 1039.87 107.91C1037.03 105.704 1033.9 103.799 1031.04 101.895Z" fill="#FFDCE9"/>
<path d="M192.084 81.782C195.848 77.9267 195.267 74.0481 193.408 70.2857C191.549 66.5233 189.318 63.1092 187.111 59.3468C190.899 60.299 194.57 61.1816 198.219 62.1802C198.921 62.4099 199.537 62.8472 199.985 63.4343C203.252 67.3719 205.516 72.0416 206.584 77.0441C206.853 78.4961 206.782 79.9907 206.375 81.4104C206.299 81.8934 206.118 82.354 205.846 82.7603C205.574 83.1665 205.216 83.5086 204.798 83.7627C204.38 84.0169 203.912 84.177 203.426 84.232C202.94 84.287 202.447 84.2356 201.983 84.0813C198.869 83.2684 195.732 82.6181 192.084 81.782Z" fill="#FFDCE9"/>
<path d="M963.625 127.279L947.754 128.487C946.615 120.869 941.898 116.015 935.786 112.23C945.709 108.374 952.61 113.948 959.512 119.197C962.045 121.125 964.369 123.262 963.625 127.279Z" fill="#FFDCE9"/>
<path d="M1406.58 28.2254C1403.14 20.0271 1395.76 18.0529 1388.64 15.7304C1396.99 10.2262 1405.45 11.3177 1413.72 15.4053C1415.84 16.8075 1417.67 18.6054 1419.11 20.7006C1419.41 21.0489 1418.76 22.8837 1418.16 23.1624C1414.42 24.9739 1410.53 26.53 1406.58 28.2254Z" fill="#FFDCE9"/>
<path d="M984.4 125.584L968.133 127.001C967.576 117.711 959.814 114.924 953.54 110.256C957.235 109.838 960.511 109.257 963.904 109.211C965.159 109.211 966.507 110.372 967.715 111.138C972.363 114.041 977.01 116.944 981.472 119.987C982.452 120.533 983.252 121.354 983.772 122.349C984.292 123.343 984.51 124.467 984.4 125.584Z" fill="#FFDCE9"/>
<path d="M577.181 130.786C577.119 128.169 576.539 125.59 575.474 123.198C574.409 120.806 572.88 118.649 570.976 116.851C579.806 115.644 587.243 117.688 593.238 124.539C595.097 126.676 596.84 128.789 596.003 132.273L577.181 130.786Z" fill="#FFDCE9"/>
<path d="M313.826 86.8218C317.382 87.4024 320.403 87.8204 323.377 88.4707C324.326 88.7601 325.147 89.3669 325.701 90.1894C328.35 94.3234 330.953 98.4807 333.369 102.731C333.942 103.897 334.16 105.205 333.997 106.493C334.007 107.021 333.897 107.543 333.674 108.021C333.452 108.5 333.123 108.921 332.712 109.252C332.302 109.584 331.821 109.817 331.307 109.935C330.793 110.052 330.258 110.051 329.744 109.931C326.816 109.605 323.865 109.187 320.449 108.746C324.725 99.6651 318.195 93.9054 313.826 86.8218Z" fill="#FFDCE9"/>
<path d="M991.673 106.331C995.159 105.866 998.017 105.378 1000.85 105.193C1002.12 105.129 1003.39 105.393 1004.52 105.959C1008.61 108.096 1012.7 110.232 1016.61 112.717C1018.08 113.502 1019.29 114.718 1020.06 116.204C1020.82 117.689 1021.12 119.374 1020.91 121.032L1008.71 122.704C1006.61 113.809 998.761 110.836 991.673 106.331Z" fill="#FFDCE9"/>
<path d="M796.685 137.777C795.662 130.043 790.178 125.143 783.811 120.196L794.663 119.662C794.849 119.65 795.034 119.69 795.198 119.778C800.147 123.169 805.538 126.118 808.071 132.017C808.411 132.976 808.622 133.976 808.699 134.99C808.978 136.895 808.373 137.916 806.166 137.824C803.052 137.684 799.915 137.777 796.685 137.777Z" fill="#FFDCE9"/>
<path d="M802.006 119.685L811.975 119.081C812.346 119.035 812.72 119.035 813.091 119.081C817.367 119.917 824.872 128.162 825.36 132.528C825.779 136.198 825.174 137.011 821.526 137.173C818.668 137.173 815.81 137.173 812.672 137.173C813.323 128.998 808.211 124.376 802.006 119.685Z" fill="#FFDCE9"/>
<path d="M891.983 134.061C889.659 124.492 881.317 121.241 873.765 116.271L885.221 115.621C885.668 115.562 886.123 115.643 886.522 115.853C891.867 119.685 897.165 123.563 902.463 127.465C902.848 127.717 903.173 128.05 903.416 128.441C903.997 129.556 904.485 130.763 904.996 131.878C903.945 132.276 902.865 132.594 901.766 132.83C898.583 133.295 895.376 133.643 891.983 134.061Z" fill="#FFDCE9"/>
<path d="M1372.54 42.1371C1372.13 40.1005 1371.2 38.2035 1369.84 36.6263C1368.49 35.0492 1366.75 33.8443 1364.8 33.1259C1361.22 31.4769 1357.44 30.2924 1353.86 28.9454C1362.57 22.7908 1377.77 28.2487 1382.58 33.1259C1384.9 35.5877 1384.53 37.5618 1381.32 38.7927L1372.54 42.1371Z" fill="#FFDCE9"/>
<path d="M829.148 136.686C830.473 128.696 826.266 123.703 820.341 119.035L828.381 118.454C828.751 118.388 829.132 118.436 829.473 118.593C834.586 122.774 840.883 125.747 843.416 132.528C844.81 136.151 844.508 136.686 840.674 136.709L829.148 136.686Z" fill="#FFDCE9"/>
<path d="M355.399 113.159C358.141 104.984 353.726 99.2238 349.636 93.1853C356.747 92.3957 360.79 94.2537 364.253 100.153C365.689 102.528 366.917 105.022 367.924 107.608C369.574 111.858 367.134 114.784 362.579 114.274C360.186 113.972 357.862 113.53 355.399 113.159Z" fill="#FFDCE9"/>
<path d="M366.019 95.0433C369.295 95.8098 372.386 95.7865 374.5 97.2265C378.973 99.94 382.39 104.092 384.191 109.001C384.5 110.534 384.5 112.113 384.191 113.646C384.166 114.116 384.038 114.575 383.817 114.99C383.595 115.404 383.284 115.765 382.907 116.047C382.53 116.328 382.096 116.524 381.635 116.619C381.174 116.713 380.698 116.706 380.24 116.596C377.312 116.294 374.407 115.853 371.456 115.458C372.99 108.746 372.99 108.746 366.019 95.0433Z" fill="#FFDCE9"/>
<path d="M1423.69 20.8864C1420.81 12.3397 1413.39 10.5514 1406.05 8.60049C1407.61 7.26862 1409.46 6.31903 1411.45 5.82716C1413.45 5.33529 1415.53 5.31471 1417.53 5.76706C1422.92 6.30242 1427.97 8.67182 1431.82 12.479C1434.59 15.475 1434.42 16.404 1430.84 17.9136C1428.47 18.9355 1426.1 19.8878 1423.69 20.8864Z" fill="#FFDCE9"/>
<path d="M450.023 106.261L456.228 106.818C463.943 107.608 467.986 112.834 470.844 119.22C472.099 122.077 470.844 123.424 467.847 123.285C464.849 123.145 461.224 122.82 457.761 122.588C458.644 115.737 454.973 110.976 450.023 106.261Z" fill="#FFDCE9"/>
<path d="M475.097 123.564C475.933 117.061 472.169 112.95 468.892 108.073C471.268 108.269 473.61 108.761 475.864 109.536C479.457 111.441 482.892 113.631 486.135 116.085C487.369 117.062 488.317 118.354 488.877 119.824C490.085 122.82 488.877 124.33 485.624 124.098C482.37 123.865 478.861 123.749 475.097 123.564Z" fill="#FFDCE9"/>
<path d="M560.147 129.741C560.589 122.983 556.824 118.872 551.898 115.319C557.01 116.131 562.378 114.552 566.793 118.431C569.723 120.853 571.873 124.084 572.974 127.721C573.579 129.765 572.974 130.693 570.651 130.484C567.304 130.229 563.888 130.02 560.147 129.741Z" fill="#FFDCE9"/>
<path d="M492.897 124.562C494.454 117.595 490.318 113.925 485.647 110.349C494.57 109.187 502.959 113.67 505.724 120.869C507.281 124.887 506.491 125.886 502.215 125.375C499.264 125.027 496.313 124.841 492.897 124.562Z" fill="#FFDCE9"/>
<path d="M399.853 118.199C402.688 111.231 400.573 105.332 396.088 99.8973C403.06 100.013 411.681 107.771 412.355 114.088C412.453 114.692 412.411 115.31 412.234 115.896C412.056 116.481 411.747 117.019 411.33 117.467C410.913 117.915 410.4 118.262 409.828 118.481C409.257 118.7 408.642 118.787 408.033 118.733C405.5 118.756 402.92 118.454 399.853 118.199Z" fill="#FFDCE9"/>
<path d="M381.472 97.9696C385.221 97.6697 388.942 98.821 391.865 101.185C394.789 103.55 396.692 106.947 397.18 110.674C397.715 116.317 395.74 118.268 390.209 117.432L387.467 117.014C390.534 109.141 386.677 103.381 381.472 97.9696Z" fill="#FFDCE9"/>
<path d="M423.184 103.218C423.964 103.181 424.746 103.251 425.507 103.427C431.537 105.934 436.592 110.326 439.915 115.946C440.891 117.734 440.054 118.965 438.172 119.894C433.803 122.007 429.504 120.149 424.694 120.335C430.015 113.972 428.505 108.7 423.184 103.218Z" fill="#FFDCE9"/>
<path d="M520.341 112.834C523.865 112.988 527.308 113.943 530.408 115.625C533.508 117.307 536.184 119.672 538.234 122.542C539.06 123.763 539.549 125.181 539.651 126.652C539.651 127.14 538.536 128.325 537.932 128.301C533.703 128.162 529.45 127.767 524.802 127.442C528.916 120.939 524.059 117.339 520.341 112.834Z" fill="#FFDCE9"/>
<path d="M510.372 126.002C510.883 120.103 508.048 115.806 503.935 112.067C507.428 111.395 511.046 111.871 514.246 113.424C517.446 114.978 520.057 117.524 521.689 120.684C522.046 121.331 522.218 122.064 522.188 122.803C522.157 123.541 521.924 124.258 521.514 124.873C521.104 125.489 520.533 125.98 519.864 126.294C519.194 126.607 518.451 126.731 517.715 126.652C515.258 126.566 512.806 126.349 510.372 126.002Z" fill="#FFDCE9"/>
<path d="M1360.32 46.4105C1356.3 37.7476 1348.21 36.2845 1340.5 33.3349C1342.08 32.6852 1343.74 32.2781 1345.45 32.1272C1351.78 32.274 1357.98 33.9472 1363.52 37.0044C1365.28 38.1618 1366.8 39.6346 1368.01 41.3475C1368.94 42.5087 1368.59 43.67 1366.85 44.2274C1364.62 44.8777 1362.46 45.6905 1360.32 46.4105Z" fill="#FFDCE9"/>
<path d="M535.26 114.134C546.251 114.134 556.917 122.24 555.802 129.555L543.765 128.835C544.346 122.193 540.558 118.059 535.26 114.134Z" fill="#FFDCE9"/>
<path d="M443.307 121.752C446.677 113.205 439.984 109.536 435.476 104.635C444.376 104.635 449.419 109.838 453.114 116.689C453.539 117.511 453.785 118.413 453.834 119.337C453.997 121.218 453.602 122.611 451.115 122.286C448.629 121.961 446.003 121.915 443.307 121.752Z" fill="#FFDCE9"/>
<path d="M415.422 119.197C418.211 111.603 413.772 106.702 409.357 101.732C412.269 101.443 415.199 102.077 417.73 103.544C420.262 105.011 422.267 107.237 423.463 109.907C424.046 110.76 424.341 111.777 424.303 112.81C424.265 113.842 423.897 114.836 423.253 115.644C421.255 117.711 419.256 120.219 415.422 119.197Z" fill="#FFDCE9"/>
</svg>
