<svg width="407" height="599" viewBox="0 0 407 599" fill="none" xmlns="http://www.w3.org/2000/svg">
<path d="M157.096 322.242C157.545 313.464 156.217 304.101 156.682 294.651C157.079 286.977 157.7 279.321 161.855 272.527C163.934 268.774 166.913 265.596 170.525 263.281C174.137 260.967 178.269 259.587 182.547 259.266C187.517 258.902 192.514 259.35 197.341 260.594C205.738 262.56 211.135 268.337 215.256 275.407C219.998 283.511 221.826 292.495 222.601 301.79C223.382 310.967 223.468 320.19 222.86 329.381C221.894 343.538 221.946 357.679 222.17 371.819C222.291 380.803 223.222 389.753 223.395 398.72C223.567 407.687 219.118 414.688 212.256 420.103C208.6 422.982 204.583 425.397 199.738 425.414C194.299 425.716 188.847 425.716 183.409 425.414C179.305 424.983 175.184 424.707 171.063 424.327C156.388 422.742 141.625 422.119 126.87 422.465C112.972 422.959 99.0801 423.454 85.1939 423.948C74.4517 424.293 63.7609 425.914 53.0359 426.448C44.949 426.845 36.7935 427.172 28.7929 425.069C16.7229 421.861 9.06714 413.826 4.65299 402.479C1.95384 395.629 0.925387 388.234 1.65276 380.907C2.34247 373.681 2.42843 366.404 2.68707 359.144C2.82502 354.85 2.98017 350.522 3.08362 346.263C3.34227 335.916 2.16976 325.57 1.35935 315.223C0.790335 306.808 -0.175041 298.393 0.290514 289.943C0.697361 282.193 3.58299 274.779 8.52209 268.793C13.4612 262.807 20.1923 258.567 27.7236 256.697C35.5691 254.783 42.5351 257.386 49.1908 261.111C59.1744 266.664 63.6057 275.907 65.5714 286.633C67.2957 295.634 66.4854 304.653 65.7268 313.706C64.8991 323.725 63.6057 333.761 64.2264 343.866C64.3031 348.358 65.8134 352.709 68.5371 356.282C70.0855 358.328 72.218 359.857 74.6529 360.667C77.0878 361.476 79.7111 361.528 82.1764 360.817C89.0735 359.092 94.7807 356.213 95.7981 348.867C96.0524 345.826 95.2748 342.789 93.5909 340.245C91.0562 335.675 87.9528 331.381 86.9527 326.087C85.2284 316.827 86.2628 308.274 93.6254 301.549C97.7974 298.07 102.854 295.82 108.23 295.048C121.231 292.496 133.887 302.152 135.905 315.275C136.603 320.512 135.783 325.839 133.543 330.623C131.192 335.302 129.287 340.192 127.853 345.228C127.411 347.223 127.364 349.285 127.714 351.298C127.829 352.596 128.354 353.823 129.213 354.803C130.072 355.782 131.219 356.463 132.491 356.747C137.313 357.78 142.277 357.972 147.164 357.317C151.647 356.817 154.061 353.867 155.303 349.625C156.451 344.76 157.03 339.778 157.027 334.778C157.286 330.864 157.096 326.846 157.096 322.242Z" fill="#DEFFFF"/>
<path d="M183.512 55.9927C183.288 66.753 182.443 77.4788 181.236 88.1874C180.236 97.1027 179.511 106.053 179.098 115.019C178.701 122.452 179.097 129.867 179.373 137.264C179.684 148.749 179.977 160.234 180.322 171.753C180.511 178.305 180.322 184.893 180.718 191.445C181.08 198.343 181.925 205.241 181.908 212.242C182.171 220.093 180.388 227.878 176.735 234.832C174.361 239.213 170.943 242.941 166.783 245.685C162.623 248.428 157.851 250.102 152.889 250.559C145.739 251.54 138.456 250.563 131.818 247.731C124.823 244.628 119.073 239.265 115.489 232.504C109.669 222.32 107.033 210.626 107.919 198.93C108.506 188.583 109.373 178.237 110.523 167.89C111.213 161.786 111.385 155.595 112.075 149.491C112.885 142.352 113.575 135.195 113.799 128.039C114.118 123.119 113.788 118.18 112.816 113.347C112.074 110.892 110.561 108.74 108.503 107.209C106.445 105.678 103.949 104.85 101.384 104.845C96.9253 104.576 92.4579 105.204 88.2455 106.69C85.7845 107.549 83.6423 109.135 82.1027 111.238C80.5631 113.341 79.6988 115.863 79.6241 118.468C78.9843 128.429 77.5251 138.321 75.2616 148.042C73.3477 156.319 67.9508 162.044 60.7433 166.183C54.6394 169.632 47.8972 170.787 41.0345 171.615C35.2156 172.204 29.3387 171.767 23.6714 170.321C18.8462 169.179 14.6469 166.221 11.9462 162.062C7.73013 155.983 5.46287 148.766 5.44563 141.369C5.06629 129.487 6.23875 117.589 5.82492 105.707C5.41109 93.8261 5.03159 82.2728 4.35912 70.5812C3.66339 61.7935 3.4218 52.9756 3.63506 44.163C4.11785 34.1096 6.49722 24.5563 14.2737 17.4345C20.8678 11.115 29.3431 7.11905 38.4136 6.05316C43.6794 5.3056 49.0458 5.74151 54.122 7.32921C61.6226 9.8641 65.8642 15.7101 68.7265 22.6077C72.1751 30.816 73.3302 39.5759 74.5544 48.3187C75.3993 54.4576 75.0893 60.6313 75.8308 66.753C76.0706 69.817 77.2145 72.7407 79.1177 75.1537C81.0209 77.5667 83.5976 79.36 86.5212 80.3067C91.1506 82.2921 96.2746 82.8216 101.212 81.8244C109.609 79.7896 113.075 73.8921 111.903 65.3907C110.73 56.8893 108.678 48.3876 108.643 39.6621C108.564 33.191 110.7 26.8875 114.696 21.7973C119.473 15.2094 126.496 10.597 134.439 8.82965C149.25 5.65672 162.199 9.36412 172.925 19.9348C178.359 25.5616 181.753 32.8468 182.563 40.6278C183.299 45.7149 183.616 50.8538 183.512 55.9927Z" fill="#DEFFFF"/>
<path d="M341.592 155.595C330.119 155.691 318.656 154.93 307.296 153.319C302.364 152.559 297.387 152.115 292.398 151.991C283.639 151.991 274.863 152.75 267.207 157.716C259.551 162.682 260.534 171.373 264.81 176.96C267.844 180.961 272.207 182.271 276.88 182.771C287.587 183.875 298.226 182.771 308.882 181.944C318.763 181.202 328.436 178.874 338.299 178.254C345.558 177.788 352.841 177.84 360.093 178.409C366.018 178.661 371.885 179.687 377.543 181.461C384.234 183.78 390.222 187.769 394.941 193.049C398.993 197.654 400.528 203.499 400.976 209.5C401.343 214.318 400.696 219.16 399.077 223.713C397.459 228.266 394.904 232.43 391.579 235.935C385.975 242.143 378.422 245.299 370.353 247.213C361.059 249.349 351.503 250.11 341.988 249.472C321.297 248.282 300.606 248.731 279.828 248.627C272.034 248.702 264.253 249.278 256.533 250.352C247.23 251.722 237.739 250.991 228.755 248.213C223.91 246.644 219.082 245.299 214.961 242.213C208.077 236.89 203.423 229.192 201.908 220.623C200.184 212.139 200.787 203.551 201.718 194.98C202.701 185.91 204.046 176.909 204.736 167.804C205.541 160.67 205.927 153.496 205.891 146.317C205.615 139.42 204.719 132.522 204.391 125.624C203.943 116.519 203.771 107.363 209.857 99.6546C213.151 95.7623 217.425 92.8214 222.237 91.136C230.859 87.7907 239.739 87.9113 248.619 88.4459C265.413 89.446 282.225 89.2911 299.02 89.1877C308.003 89.1877 316.986 88.8599 325.935 88.2046C332.557 87.739 339.195 87.1008 345.782 87.118C358.49 87.118 371.301 87.4287 383.268 92.5674C395.234 97.7062 401.442 107.053 402.959 119.813C403.579 124.445 403.044 129.158 401.401 133.532C399.758 137.907 397.059 141.807 393.544 144.886C388.748 149.087 382.837 151.807 376.526 152.715C365.016 154.907 353.306 155.872 341.592 155.595V155.595Z" fill="#DEFFFF"/>
<path d="M272.725 500.676C272.725 507.004 272.363 513.333 273.949 519.558C275.535 525.783 278.656 528.629 286.105 529.129C292.658 529.577 298.641 527.128 304.607 524.731C311.797 521.869 316.901 516.627 321.488 510.643C325.798 505.004 330.333 499.52 332.747 492.657C334.931 485.91 336.523 478.987 337.506 471.964C339.058 462.342 340.316 452.685 345.058 443.856C347.137 439.684 350.223 436.098 354.038 433.421C357.853 430.744 362.275 429.061 366.905 428.526C374.595 427.353 381.699 427.905 388.01 432.751C395.855 438.786 401.201 446.356 402.39 456.513C403.546 466.36 404.115 476.24 404.839 486.121C405.27 492.243 404.425 498.279 404.684 504.366C404.994 511.401 404.856 518.454 405.253 525.473C405.839 535.44 407.426 545.373 406.891 555.374C406.581 560.927 407.27 566.652 405.167 572.049C399.58 585.845 389.906 594.95 375.009 597.657C370.591 598.496 366.026 598.028 361.87 596.312C356.163 593.95 350.524 591.483 345.938 587.121C340.196 581.672 337.541 574.653 335.696 567.204C334.494 562.025 332.933 556.938 331.023 551.977C330.113 549.727 328.895 547.614 327.402 545.7C324.66 542.131 320.97 542.096 317.056 543.027C307.106 545.6 297.891 550.453 290.14 557.202C283.243 562.876 278.518 570.428 272.777 577.102C266.535 584.327 259.982 591.346 250.568 594.605C239.619 598.399 222.307 597.295 213.203 587.276C209.172 582.651 206.556 576.964 205.667 570.894C204.091 561.327 203.743 551.597 204.633 541.941C204.961 537.906 204.857 533.836 205.012 529.767C205.392 519.92 206.082 510.074 205.547 500.21C204.995 490.002 204.478 479.793 204.254 469.567C203.926 454.047 211.237 442.597 223.79 434.113C227.298 431.862 231.321 430.539 235.48 430.268C243.55 429.526 251.62 429.302 258.327 435.234C263.293 439.614 265.811 445.374 267.621 451.495C269.547 459.048 270.838 466.748 271.483 474.516C272.465 483.2 272.879 491.938 272.725 500.676V500.676Z" fill="#DEFFFF"/>
<path d="M248.274 383.029C248.274 374.976 248.032 366.923 248.274 358.887C248.98 340.108 248.274 321.33 248.688 302.551C248.86 293.808 249.498 285.03 252.878 276.805C257.292 266.027 264.31 257.836 276.242 255.06C280.788 254.117 285.514 254.599 289.777 256.44C296.519 259.13 302.658 262.561 306.451 269.079C309.4 274.132 310.193 279.788 310.71 285.479C311.882 298.533 309.986 311.586 310.71 324.64C310.778 326.987 311.19 329.311 311.934 331.538C312.848 334.073 314.02 334.746 316.624 333.987C320.797 332.588 324.53 330.121 327.453 326.83C332.005 322.105 333.229 316.208 333.746 309.879C334.47 301.257 333.746 292.359 336.057 283.823C337.191 279.05 339.364 274.586 342.422 270.75C345.48 266.913 349.348 263.8 353.748 261.63C356.669 260.3 359.818 259.544 363.024 259.406C370.275 258.576 377.61 259.92 384.095 263.268C395.648 269.39 402.786 278.788 404.528 291.808C405.307 298.01 405.388 304.28 404.769 310.5C404.338 315.328 404.769 320.192 404.218 325.02C403.528 331.78 402.907 338.522 402.493 345.299C401.887 353.164 401.772 361.061 402.148 368.941C402.735 379.58 404.166 390.324 401.372 400.894C399.113 409.516 394.855 416.966 386.94 421.449C375.405 427.95 364.266 425.329 354.179 418.121C345.195 411.724 341.143 402.343 340.212 391.393C339.66 385.064 340.074 378.736 339.816 372.424C339.744 368.517 338.986 364.652 337.574 361.008C336.419 358.18 335.66 357.801 332.78 358.887C328.866 360.37 326.349 363.457 323.866 366.613C320.538 370.855 319.642 375.873 319.176 381.08C318.59 387.685 318.486 394.307 317.452 400.877C316.193 409.016 311.693 414.983 305.503 419.846C300.79 423.638 295.314 426.367 289.45 427.847C279.828 430.089 271.586 427.485 263.93 421.38C259.675 418.222 255.965 414.389 252.947 410.033C249.702 404.932 247.914 399.041 247.774 392.996C247.653 389.72 247.774 386.426 247.774 383.133L248.274 383.029Z" fill="#DEFFFF"/>
<path d="M3.03084 540.434C3.03084 532.053 3.27224 523.672 3.03084 515.291C2.75495 507.273 1.9273 499.272 1.30656 491.27C0.841006 485.114 -0.124589 478.958 0.013353 472.836C0.237509 463.059 2.11709 453.557 8.32449 445.522C9.92547 443.516 11.6533 441.615 13.4973 439.831C17.3942 435.882 22.7049 435.83 27.6363 435.227C38.1544 433.916 48.7071 435.227 59.2079 435.744C68.019 436.21 76.7957 437.141 85.624 436.951C94.4523 436.762 103.763 436.606 112.799 435.968C120.782 435.416 128.713 434.02 136.714 433.399C144.715 432.778 153.216 431.778 161.389 434.192C179.08 439.365 188.46 453.523 186.994 470.646C185.77 485.063 177.838 495.444 164.096 500.91C157.607 503.426 150.709 504.718 143.749 504.721C130.013 504.775 116.3 503.58 102.78 501.151C94.3234 499.503 85.6163 499.626 77.2093 501.513C73.0021 502.583 68.5879 503.772 67.2429 508.911C66.8159 510.494 66.5616 512.119 66.4843 513.757C66.174 522.672 67.3465 531.518 67.7948 540.416C68.4845 554.212 68.0365 568.007 62.4498 581.181C60.4284 586.232 56.6583 590.388 51.828 592.89C47.0742 595.476 41.8114 596.988 36.4101 597.318C31.0088 597.649 25.6007 596.791 20.567 594.805C10.7559 591.114 6.35883 582.854 4.03105 573.215C3.25823 569.706 2.92218 566.115 3.03084 562.524C3.08257 555.16 3.03084 547.797 3.03084 540.434Z" fill="#DEFFFF"/>
<path d="M358.42 73.3999C348.885 73.5896 339.729 71.9688 330.573 70.4685C322.435 69.1407 314.313 67.7609 306.037 67.1573C296.852 66.5652 287.641 66.4964 278.448 66.9506C266.999 67.468 255.584 69.1406 244.101 68.675C237.084 68.5154 230.122 67.3953 223.409 65.3466C219.867 64.1878 216.59 62.3386 213.766 59.9056C210.943 57.4726 208.629 54.5042 206.96 51.1719C204.47 47.0837 202.719 42.5892 201.787 37.894C201.051 33.3725 201.286 28.7462 202.475 24.3222C203.664 19.8983 205.78 15.7781 208.684 12.2349C215.305 3.90592 224.013 0.353484 234.41 0.0258447C243.524 -0.118571 252.636 0.342371 261.688 1.40546C264.637 1.71586 267.603 1.87114 270.568 1.92287C287.811 2.30225 305.054 1.66408 322.193 1.35368C332.435 1.16399 342.695 0.78442 352.92 1.14655C361.541 1.4397 370.49 1.47441 378.887 3.95757C392.095 7.85476 402.303 15.6836 405.338 29.8238C407.976 42.119 405.804 53.6727 395.992 62.6914C390.647 67.606 384.06 70.0027 377.112 71.5547C370.982 72.9405 364.703 73.5604 358.42 73.3999V73.3999Z" fill="#DEFFFF"/>
<path d="M36.3969 180.892C41.2268 180.628 46.06 181.35 50.6016 183.015C55.1432 184.68 59.2982 187.253 62.8125 190.578C66.3268 193.902 69.1268 197.907 71.042 202.35C72.9572 206.792 73.9472 211.578 73.9517 216.415C74.0409 221.144 73.1884 225.844 71.444 230.241C69.6996 234.637 67.0981 238.643 63.7908 242.024C60.4836 245.406 56.5364 248.095 52.1798 249.937C47.8231 251.778 43.1438 252.734 38.4142 252.749C33.6227 252.877 28.855 252.036 24.3968 250.275C19.9387 248.514 15.8822 245.871 12.4713 242.503C9.06031 239.135 6.36504 235.113 4.54743 230.677C2.72981 226.242 1.82731 221.485 1.89408 216.691C1.80029 207.391 5.36462 198.426 11.8188 191.729C18.2729 185.033 27.1 181.141 36.3969 180.892V180.892Z" fill="#DEFFFF"/>
<path d="M149.456 592.114C144.731 592.112 140.052 591.177 135.689 589.363C131.325 587.549 127.362 584.893 124.027 581.545C120.692 578.197 118.051 574.223 116.254 569.853C114.457 565.482 113.541 560.799 113.556 556.074C113.413 547.323 116.52 538.829 122.275 532.236C128.03 525.643 136.025 521.418 144.714 520.378C169.596 517.498 185.58 536.432 185.614 555.815C185.649 575.99 170.13 591.7 149.456 592.114Z" fill="#DEFFFF"/>
</svg>
