<svg width="447" height="565" viewBox="0 0 447 565" fill="none" xmlns="http://www.w3.org/2000/svg">
<path d="M374.28 64.05C374.524 66.1867 374.524 68.3443 374.28 70.481C373.98 71.9142 373.979 73.3937 374.275 74.8276C374.571 76.2614 375.159 77.6189 376.002 78.8157C386.542 98.0316 393.996 118.354 395.41 140.348C397.647 174.458 389.524 205.585 367.133 232.235C366.028 233.547 365.668 234.344 367.133 235.759C369.674 238.757 371.542 242.266 372.609 246.049C375.899 254.589 379.164 263.104 382.197 271.773C382.352 272.656 382.745 273.48 383.334 274.156C383.923 274.831 384.686 275.333 385.539 275.606C411.888 285.304 431.399 302.102 438.854 330.09C444.946 352.984 439.702 373.409 423.044 390.593C421.71 392.018 420.218 393.286 418.597 394.375C414.767 396.741 414.638 398.593 417.029 402.863C420.859 409.68 424.895 416.369 428.88 423.083C436.797 436.331 443.147 450.299 445.1 465.708C448.082 489.4 444.483 511.42 426.797 529.324C421.791 534.384 415.711 538.252 409.009 540.642C407.358 541.193 405.908 542.223 404.844 543.601C402.6 546.813 399.732 549.54 396.41 551.617C393.088 553.694 389.382 555.08 385.513 555.691C383.693 556.247 381.962 557.062 380.372 558.109C374.218 561.125 367.194 561.854 360.553 560.167C359.382 559.794 358.124 559.794 356.954 560.167C351.849 561.904 346.355 562.145 341.119 560.862C335.566 559.652 330.142 557.826 324.461 557.003C323.736 556.963 323.032 556.752 322.405 556.385C318.446 553.813 314.898 555.202 310.991 556.823C294.591 563.743 277.573 566.341 260.118 561.968C259.229 561.82 258.364 561.552 257.548 561.17C252.407 557.929 246.546 558.598 240.839 558.881C229.871 559.64 218.872 559.846 207.883 559.498C189.327 558.287 170.944 555.167 153.026 550.186C150.691 549.571 148.243 549.514 145.881 550.019C143.519 550.524 141.309 551.577 139.428 553.093C132.976 557.312 126.318 561.685 118.374 560.347C111.871 559.241 106.036 561.299 99.9432 561.993C97.095 562.615 94.1377 562.527 91.3316 561.736C83.8254 558.829 75.6508 558.572 68.196 555.588C64.9108 554.173 61.5255 553.004 58.0678 552.09C49.5333 550.057 43.1325 544.372 36.8859 538.816C19.9712 523.664 7.73503 505.374 3.15932 483.02C-3.03587 452.743 3.59633 424.909 21.5135 399.751C27.7087 391.03 34.3666 382.747 41.4359 374.644C42.3874 373.573 43.0119 372.252 43.2353 370.837C48.248 343.261 57.2195 317.253 73.6971 294.23C78.7982 286.624 84.7491 279.625 91.4344 273.368C91.927 273.02 92.2819 272.51 92.4369 271.927C93.7994 264.416 97.2183 257.522 98.8121 250.062C99.6072 245.726 99.9945 241.325 99.9689 236.917C99.9689 235.502 99.0177 234.91 98.2723 234.164C81.8742 217.791 70.6236 196.974 65.9082 174.278C59.5844 145.699 65.3426 118.997 79.918 94.0702C82.2356 89.9851 83.5072 85.3897 83.6197 80.6935C84.5511 69.8176 86.9641 59.1202 90.7917 48.8985C95.6479 34.7683 103.2 21.7161 113.028 10.4665C120.045 2.59489 128.683 0.176774 138.734 1.10285C156.728 2.56913 171.741 10.4665 185.493 21.3993C186.117 21.9894 186.884 22.4065 187.718 22.6095C188.552 22.8125 189.424 22.7943 190.249 22.5568C206.907 18.3895 223.667 18.5696 240.787 19.8301C252.036 20.5698 263.145 22.7395 273.846 26.2869C274.416 26.4883 275.033 26.5201 275.621 26.3786C276.21 26.2371 276.745 25.9283 277.162 25.4894C296.853 9.74621 319.5 3.49519 344.461 4.54988C348.488 4.52784 352.442 5.61862 355.89 7.70197C359.337 9.78533 362.142 12.7804 363.997 16.3573C368.944 25.5111 372.02 35.5588 373.046 45.9144C373.766 51.9339 374.023 57.9791 374.511 63.9214L374.28 64.05ZM405.95 456.55C402.322 464.792 398.281 472.845 393.842 480.679C393.122 481.837 393.534 482.506 394.459 483.252C398.953 487.184 402.331 492.233 404.253 497.889C404.896 499.51 405.688 501.069 406.618 502.545C410.342 508.482 412.337 515.342 412.376 522.352C412.372 526.401 411.792 530.429 410.654 534.314C420.427 529.506 428.349 521.615 433.198 511.857C434.055 510.975 434.667 509.884 434.972 508.693C440.366 495.635 442.142 481.363 440.113 467.38C437.543 449.167 429.599 432.961 419.805 417.629C418.884 415.329 417.522 413.232 415.795 411.455C415.633 416.55 415.213 421.632 414.536 426.684C414.099 428.562 413.61 430.414 413.225 432.318C411.312 440.54 408.882 448.634 405.95 456.55ZM342.455 364.303C340.013 358.541 340.013 358.541 334.358 360.753C317.669 367.515 302.381 377.319 289.269 389.667C263.563 413.076 244.9 440.832 234.952 474.274C230.222 490.12 228.269 506.249 231.945 522.635C237.086 545.633 253.512 558.829 277.033 558.984C291.802 558.812 306.278 554.834 319.063 547.434C355.051 527.78 380.758 498.326 398.007 461.54C406.432 444.645 410.873 426.041 410.988 407.159C410.988 399.442 410.988 399.442 403.996 403.069C399.244 405.006 394.208 406.153 389.086 406.465C390.012 412.15 389.087 414.774 385.359 416.343C383.014 417.204 380.428 417.13 378.136 416.137C374.096 414.344 370.24 412.164 366.619 409.629C364.733 408.357 362.518 407.66 360.244 407.622C358.368 407.622 357.674 409.089 356.979 410.504C356.285 411.918 357.699 412.459 358.548 413.076C363.606 417.112 369.194 420.435 375.154 422.954C377.588 423.826 379.807 425.212 381.657 427.019C382.536 427.751 383.16 428.742 383.442 429.851C383.723 430.96 383.648 432.129 383.225 433.192C382.787 434.166 382.056 434.979 381.135 435.518C380.214 436.057 379.147 436.297 378.084 436.202C372.943 436.434 369.344 433.63 365.565 431.057C362.295 428.517 358.86 426.197 355.283 424.112C354.294 423.359 353.053 423.016 351.817 423.155C350.582 423.294 349.448 423.904 348.651 424.858C347.69 425.787 346.541 426.498 345.281 426.942C344.021 427.386 342.68 427.552 341.35 427.43C340.003 427.545 338.65 427.275 337.45 426.651C336.25 426.027 335.251 425.075 334.57 423.906C333.889 422.737 333.553 421.398 333.602 420.046C333.651 418.693 334.083 417.383 334.846 416.266C335.222 415.533 335.688 414.85 336.235 414.234C337.417 412.922 337.186 412.047 335.695 411.095C332.372 409.049 328.816 407.408 325.104 406.208C322.681 405.465 320.489 404.112 318.739 402.279C316.988 400.446 315.736 398.193 315.104 395.738C314.663 394.617 314.54 393.395 314.749 392.208C314.958 391.021 315.491 389.915 316.289 389.012C317.087 388.11 318.12 387.446 319.271 387.094C320.423 386.742 321.65 386.715 322.816 387.017C325.878 387.538 328.665 389.101 330.708 391.442C333.278 394.014 335.643 396.587 338.163 399.159C339.843 400.847 341.977 402.009 344.306 402.503C346.286 402.966 346.671 401.217 347.468 400.188C348.574 398.773 347.031 398.439 346.337 397.95C344.383 396.612 342.378 395.378 340.373 394.143C336.884 392.315 333.548 390.208 330.399 387.841C329.22 386.819 328.432 385.419 328.169 383.88C327.907 382.341 328.186 380.759 328.96 379.403C329.603 378.041 330.695 376.942 332.053 376.291C333.41 375.64 334.951 375.476 336.414 375.827C339.454 376.514 342.172 378.209 344.126 380.638C345.232 381.821 346.388 383.03 347.494 384.239C345.574 379.978 344.584 375.357 344.589 370.683C344.753 369.526 344.646 368.348 344.276 367.24C343.906 366.133 343.282 365.127 342.455 364.303ZM431.45 323.942C431.361 323.443 431.232 322.953 431.065 322.475C421.245 300.738 404.407 286.976 382.223 279.207C380.809 278.719 380.166 279.207 379.395 280.262C364.743 298.269 346.131 311.131 325.412 320.752C310.361 327.91 294.322 332.766 277.83 335.157C276.236 335.389 275.259 335.466 276.288 337.498C277.741 340.447 278.845 343.554 279.578 346.759C279.758 347.479 279.912 348.174 280.863 348.251C284.231 348.508 284.951 351.055 285.182 353.679C285.37 355.827 285.714 357.96 286.21 360.058C286.421 360.567 286.511 361.117 286.472 361.666C286.434 362.215 286.269 362.747 285.99 363.221C285.71 363.695 285.325 364.098 284.863 364.397C284.402 364.696 283.878 364.884 283.331 364.946C280.298 365.512 279.809 367.338 280.118 370.245C284.282 367.287 288.087 364.354 292.148 361.782C306.158 352.856 320.631 344.958 337.443 342.617C338.779 342.437 339.114 341.769 339.371 340.688C341.16 334.086 345.279 328.356 350.964 324.559C351.83 324.007 352.461 323.156 352.738 322.167C353.552 319.231 355.008 316.513 356.999 314.209C358.991 311.904 361.469 310.071 364.254 308.842C371.822 305.205 380.37 304.139 388.598 305.806C399.318 307.452 408.572 312.546 417.415 318.514C419.214 319.697 420.936 321.086 422.556 322.321C423.816 323.299 425.127 324.508 423.816 326.205C422.505 327.903 421.245 327.106 419.805 326.205C418.366 325.305 417.672 324.585 416.566 323.839C407.698 317.742 398.418 312.494 387.596 310.771C380.156 309.326 372.446 310.441 365.72 313.935C362.365 315.657 359.725 318.508 358.265 321.987L363.535 321.446C365.984 321.138 368.463 321.138 370.912 321.446C372.3 321.678 373.483 322.295 373.483 324.019C373.483 325.742 372.146 325.974 370.912 326C369.164 326 367.416 326 365.771 326C362.267 325.948 358.797 326.687 355.617 328.16C344.512 334.103 340.579 347.505 346.389 359.673C348.214 363.505 348.188 363.428 352.301 362.091C357.082 360.521 361.915 359.107 366.748 357.718C368.239 357.28 369.807 357.435 370.27 359.235C370.732 361.036 369.421 361.808 367.982 362.322C367.031 362.657 366.002 362.888 365.026 363.197C360.99 364.406 357.005 365.769 352.918 366.798C350.553 367.416 349.962 368.779 349.962 371.017C350.007 375.268 351.457 379.384 354.084 382.725C356.711 386.065 360.368 388.443 364.486 389.487C369.292 390.722 374.332 390.722 379.138 389.487C382.223 388.664 385.231 387.609 388.315 386.915C389.703 386.529 391.374 386.271 391.991 388.072C392.608 389.873 391.297 390.979 389.755 391.545C387.544 392.342 385.282 393.011 383.02 393.654C378.982 394.831 374.78 395.344 370.578 395.172C373.371 397.681 376.683 399.543 380.278 400.623C383.873 401.704 387.662 401.977 391.374 401.423C402.157 399.655 412.126 394.584 419.907 386.908C427.688 379.232 432.898 369.33 434.818 358.566C437.954 346.425 435.512 335.132 431.45 323.942ZM8.81468 484.023C14.9682 507.765 29.6001 528.429 49.9446 542.109C50.3816 542.443 50.8958 542.983 51.7441 542.392C51.5641 541.98 51.4099 541.543 51.2299 541.105C46.7596 531.627 45.7862 520.871 48.4822 510.743C51.1783 500.615 57.3697 491.769 65.9596 485.773C67.7769 484.443 69.4256 482.897 70.8694 481.168C75.1013 475.665 80.8071 471.477 87.3234 469.091C93.8398 466.705 100.899 466.218 107.681 467.689C111.22 468.119 114.783 468.334 118.349 468.332C120.123 468.332 120.405 467.74 119.994 466.094C118.221 459.869 115.934 453.803 113.156 447.958C105.03 430.521 94.7816 414.156 82.6429 399.236C81.5889 397.899 80.0723 396.33 81.8203 394.709C83.5683 393.088 85.1878 394.863 86.3189 396.278C100.123 413.513 112.436 431.675 120.585 452.357C122.616 457.502 125.726 462.518 125.469 468.409C125.469 469.258 126.164 469.566 126.858 469.875C136.806 474.325 143.772 481.991 149.428 491.046C149.827 491.753 150.311 492.41 150.867 493.001C156.274 498.302 159.926 505.134 161.33 512.577C162.636 517.781 162.753 523.213 161.672 528.469C160.59 533.724 158.338 538.668 155.083 542.932C153.052 545.504 152.898 545.504 156.163 546.276C181.098 551.961 206.238 555.742 231.919 554.173C235.132 553.967 238.345 553.659 241.841 553.402C240.549 551.731 238.849 550.42 236.906 549.594C226.063 543.425 218.043 533.277 214.541 521.298C209.786 506.404 210.274 491.303 213.23 476.177C217.943 453.891 227.106 432.786 240.17 414.131C241.867 411.558 243.589 408.986 245.62 406.156C244.232 406.413 243.435 406.516 242.664 406.696C230.298 409.521 217.32 407.445 206.451 400.904C195.581 394.362 187.665 383.863 184.362 371.609C183.514 368.367 182.563 366.464 178.81 366.104C176.239 365.949 173.669 364.303 173.951 361.473C174.414 357.512 172.537 352.804 176.908 349.82C177.23 349.561 177.626 349.408 178.039 349.383C183.437 349.614 184.594 345.807 185.571 341.666C185.897 340.474 186.363 339.326 186.959 338.244C187.884 336.444 187.318 336.058 185.442 336.032C179.785 335.924 174.164 335.112 168.707 333.614C153.299 329.009 138.531 322.484 124.75 314.192C113.134 307.703 103.548 298.111 97.0641 286.487C95.753 284.121 94.4935 281.728 93.1824 279.336C92 280.468 90.9974 281.342 90.0977 282.32C89.198 283.297 87.7841 284.892 86.653 286.281C67.1163 309.433 55.8056 336.624 49.2248 366.026C49.0233 367.008 49.1126 368.027 49.4819 368.959C49.8355 369.92 49.8947 370.964 49.652 371.958C49.4093 372.953 48.8757 373.852 48.1195 374.541C45.5053 377.007 43.2084 379.79 41.2816 382.824C38.5428 385.569 36.0485 388.547 33.8268 391.725C18.0946 411.275 7.1181 432.884 6.26979 458.454C5.85545 467.056 6.71299 475.672 8.81468 484.023ZM389.266 169.391C390.051 165.598 390.464 161.739 390.5 157.866C390.921 149.769 390.516 141.649 389.292 133.634C389.331 132.914 389.331 132.193 389.292 131.473C386.169 112.474 379.554 94.2185 369.781 77.6324C368.624 75.703 367.211 73.9023 366.054 71.973C364.897 70.0437 365.103 68.3716 367.365 68.2945C369.627 68.2173 369.37 66.9311 369.344 65.5677C369.366 59.3013 369.014 53.0391 368.29 46.8147C367.31 36.3448 363.998 26.2277 358.599 17.2062C357.4 15.2289 355.759 13.5564 353.806 12.3201C351.852 11.0838 349.639 10.3172 347.34 10.0806C336.189 8.7927 324.896 9.66608 314.076 12.653C303.175 15.2985 292.874 19.9858 283.717 26.467C282.971 27.0072 281.789 27.4444 281.815 28.3448C281.84 29.2451 283.306 29.5024 284.154 29.914C286.03 30.7886 287.958 31.4831 289.835 32.3063C291.711 33.1295 293.279 33.927 292.405 36.1135C291.531 38.3001 289.655 37.7598 287.958 37.091C286.262 36.4222 283.974 35.4447 281.969 34.6472C270.255 29.6038 257.793 26.5187 245.08 25.5151C238.563 24.4784 231.956 24.1078 225.364 24.409C204.461 23.2754 183.616 27.4989 164.8 36.6795C163.232 37.4255 161.458 38.7117 160.199 36.6795C158.939 34.6473 160.995 33.4382 162.589 32.5636C167.826 29.7139 173.338 27.4039 179.041 25.6694C179.684 25.4636 180.661 25.6695 180.686 24.692C180.686 24.2289 180.044 23.6887 179.581 23.3286C169.075 15.195 156.855 9.56452 143.849 6.86504C130.405 4.29262 120.38 8.0484 112.308 19.2127C100.711 35.3788 92.8123 53.9011 89.1723 73.465C88.5416 75.907 88.3073 78.4345 88.4782 80.9508C89.6607 80.9508 89.9434 79.9476 90.509 79.4331C91.7686 78.224 93.0796 77.0407 94.7505 78.5841C96.4214 80.1276 95.3674 81.5682 94.2878 82.9573C92.5141 85.221 90.6375 87.4075 88.9923 89.7484C82.2633 98.843 77.1581 109.034 73.9028 119.872C69.9697 133.84 66.5765 147.885 69.3785 162.599C69.6099 164.22 69.7384 165.841 70.0469 167.436C76.4991 200.877 93.1824 227.604 121.459 246.82C124.934 249.523 128.755 251.747 132.821 253.432C136.82 255.86 141.15 257.697 145.675 258.885C170.593 267.254 196.541 272.162 222.793 273.471C241.542 274.63 260.359 273.992 278.987 271.567C295.014 269.422 310.619 264.833 325.258 257.959L327.237 257.162C343.282 249.603 357.149 238.097 367.545 223.72C379.401 207.823 386.874 189.088 389.215 169.391H389.266ZM142.487 545.504C146.517 543.979 150.005 541.293 152.512 537.787C159.659 527.189 158.605 508.281 149.659 499.201C146.949 496.191 144.466 492.983 142.23 489.605C139.073 485.161 135.249 481.23 130.893 477.952C128.369 475.906 125.424 474.443 122.269 473.669C119.113 472.896 115.826 472.83 112.642 473.476C111.73 473.629 110.796 473.558 109.917 473.271C103.395 471.248 96.4001 471.343 89.9352 473.543C83.4703 475.743 77.8671 479.934 73.9285 485.515C73.0673 486.606 71.991 487.508 70.7666 488.165C61.3325 494.184 54.8288 502.313 53.0036 513.632C52.1983 518.61 52.1118 523.678 52.7466 528.681C53.4019 535.238 56.4434 541.325 61.2925 545.784C66.1415 550.242 72.4595 552.761 79.044 552.861C78.9005 551.855 78.4924 550.905 77.8615 550.109C75.1498 544.547 73.6597 538.468 73.4915 532.282C73.4915 530.764 73.6714 529.247 75.5737 529.092C77.4759 528.938 78.1443 530.456 78.35 532.102C78.35 532.694 78.35 533.337 78.4785 533.928C78.8086 540.538 81.0108 546.917 84.8279 552.321C86.0452 553.982 87.727 555.244 89.6607 555.948C95.5988 558.161 101.408 556.952 107.218 555.511C108.555 555.177 108.58 554.25 108.503 553.119C108.272 550.546 108.118 547.794 108.015 545.118C108.015 543.626 108.632 542.392 110.226 542.289C111.819 542.186 112.642 543.369 112.796 544.861C113.048 547.107 113.108 549.37 112.976 551.627C112.668 554.405 114.056 555.202 116.395 555.537C121.841 556.14 127.338 555.006 132.102 552.295C133.366 551.664 134.479 550.767 135.367 549.666C136.254 548.565 136.894 547.286 137.243 545.916C138.989 539.554 139.174 532.865 137.783 526.417C137.474 524.41 136.009 521.272 139.299 520.758C142.59 520.243 142.23 523.561 142.59 525.671C143.679 532.239 143.653 538.945 142.513 545.504H142.487ZM226.186 363.66H239.425C252.278 363.66 265.337 364.38 277.984 360.959C279.038 360.676 281.12 360.959 280.401 359.158C279.681 357.357 281.84 354.013 277.522 353.576C265.565 352.386 253.544 351.965 241.533 352.315C237.96 352.444 234.361 352.65 230.762 352.753C230.444 352.815 230.116 352.804 229.803 352.722C229.489 352.64 229.198 352.488 228.951 352.278C228.704 352.068 228.508 351.805 228.376 351.509C228.245 351.212 228.182 350.89 228.191 350.566C228.169 349.993 228.368 349.434 228.745 349.003C229.123 348.573 229.652 348.303 230.222 348.251C230.834 348.136 231.452 348.059 232.073 348.02C245.285 346.982 258.559 347.025 271.763 348.148C274.334 348.405 274.334 347.634 273.743 345.576C270.97 336.668 265.451 328.868 257.975 323.293C250.499 317.718 241.451 314.656 232.129 314.545C222.806 314.433 213.688 317.279 206.082 322.673C198.475 328.067 192.77 335.734 189.786 344.572C188.501 348.38 188.604 348.405 192.665 348.277C197.678 348.148 202.717 348.097 207.755 348.122C209.426 348.122 211.328 348.508 211.328 350.695C211.328 352.881 209.503 353.113 207.781 353.113C204.387 353.113 200.994 353.113 197.498 353.113C192.163 352.86 186.817 353.032 181.509 353.627C180.532 353.807 179.401 353.627 178.81 354.785C176.83 358.618 178.553 361.602 182.871 362.091C197.269 363.42 211.73 363.944 226.186 363.66ZM355.309 547.665C355.309 545.607 355.309 543.549 355.309 541.491C355.309 540.102 355.926 538.919 357.417 538.919C358.907 538.919 359.679 539.871 359.781 541.234C359.961 543.807 360.064 546.379 360.09 548.951C360.09 555.485 360.09 555.485 366.722 556.103C375.899 557.003 381.349 553.067 383.174 544.141C384.728 534.887 384.138 525.4 381.452 516.41C381.015 514.687 380.526 512.654 382.814 512.037C385.102 511.42 385.822 513.4 386.259 515.098C389.381 525.803 389.718 537.128 387.236 547.999C387.081 548.668 386.413 549.414 386.927 550.006C387.441 550.598 388.418 550.006 389.164 549.826C395.41 547.922 398.906 542.829 402.505 537.993C405.729 533.794 407.432 528.624 407.338 523.33C407.081 509.928 399.78 499.381 393.174 488.551C393.02 488.294 392.737 488.139 392.531 487.908C391.22 486.441 390.372 486.364 389.138 488.268C375.07 510.241 356.708 529.141 335.155 543.832C334.425 544.46 333.851 545.248 333.476 546.134C333.1 547.021 332.935 547.982 332.992 548.943C333.049 549.905 333.328 550.84 333.805 551.675C334.283 552.511 334.947 553.225 335.746 553.762C340.391 556.042 345.594 556.935 350.733 556.334C355.052 556.103 355.283 555.794 355.257 551.447L355.309 547.665ZM232.33 538.584C231.096 535.523 229.759 532.925 228.963 530.224C223.59 513.915 224.335 497.4 228.011 480.936C233.234 458.733 242.849 437.802 256.288 419.378C271.843 396.627 292.292 377.65 316.132 363.84C322.723 360.048 329.683 356.936 336.903 354.553C340.168 353.524 338.42 351.132 338.42 349.409C338.42 347.685 336.594 348.251 335.515 348.457C329.747 349.48 324.097 351.083 318.651 353.242C305.927 358.561 294.032 365.682 283.331 374.387C278.977 377.645 275.264 381.684 272.38 386.297C268.796 391.981 263.916 396.733 258.139 400.162C256.566 401.142 255.175 402.387 254.026 403.841C243.553 416.684 234.814 430.851 228.037 445.977C220.659 462.698 215.775 480.01 215.93 498.429C215.93 511.574 218.886 523.922 226.983 534.649C228.183 536.609 230.102 538.022 232.33 538.584ZM226.675 368.573C214.747 368.753 202.845 368.573 190.969 367.57C188.887 367.416 188.398 367.982 189.041 369.962C194.311 386.992 205.441 397.822 222.896 401.886C227.472 402.966 227.497 402.812 227.703 398.233C227.703 396.793 227.703 395.352 227.703 393.911C227.906 392.317 227.606 390.699 226.846 389.283C226.085 387.867 224.902 386.725 223.461 386.014C222.572 385.605 221.83 384.93 221.338 384.083C220.846 383.236 220.627 382.257 220.711 381.281C220.856 380.305 221.292 379.395 221.961 378.67C222.631 377.945 223.503 377.438 224.464 377.216C228.178 375.931 232.215 375.931 235.929 377.216C238.243 377.962 240.428 378.863 240.582 381.821C240.736 384.779 238.782 386.323 236.263 386.966C235.172 387.319 234.229 388.028 233.586 388.979C232.944 389.93 232.637 391.068 232.716 392.214C232.587 394.786 232.716 397.359 232.484 399.931C232.253 402.503 233.281 402.941 235.466 402.683C242.544 402.015 249.366 399.698 255.389 395.918C264.845 389.884 271.683 380.507 274.54 369.654C275.208 367.287 274.694 366.618 272.303 367.313C271.007 367.641 269.68 367.839 268.344 367.904C254.386 369.165 240.428 368.419 226.675 368.599V368.573ZM170.121 270.821C169.018 270.798 167.925 271.03 166.926 271.498C165.928 271.967 165.051 272.659 164.363 273.522C163.258 274.86 162.332 276.378 161.355 277.818C154.929 287.31 149.71 297.652 141.921 306.115C140.629 307.436 139.451 308.865 138.4 310.385C136.497 313.318 136.986 314.887 140.096 316.533C146.256 319.819 152.628 322.689 159.17 325.125C161.4 326.096 163.896 326.269 166.237 325.613C168.579 324.957 170.622 323.512 172.023 321.524C179.972 309.892 186.318 297.242 190.892 283.915C191.334 282.013 191.089 280.016 190.199 278.279C189.31 276.541 187.834 275.175 186.033 274.423C180.789 273.033 175.417 272.082 170.121 271.053V270.821ZM185.75 331.247C188.887 332.456 191.072 330.784 193.282 327.749C197.818 321.444 204.062 316.571 211.277 313.703C218.809 310.771 224.13 306.243 225.852 298.115C226.932 293.098 228.423 288.185 229.374 283.143C229.708 281.291 229.888 278.461 226.52 278.487C219.323 278.487 212.176 277.638 205.03 277.021C203.756 276.834 202.456 277.077 201.335 277.71C200.214 278.343 199.334 279.331 198.835 280.519C197.755 282.603 196.856 284.815 195.802 286.925C189.863 298.963 184.825 311.491 177.807 322.938C177.263 323.738 176.956 324.675 176.92 325.642C176.884 326.609 177.121 327.566 177.604 328.404C178.087 329.242 178.797 329.927 179.651 330.38C180.505 330.833 181.47 331.035 182.434 330.964L185.75 331.247ZM297.238 320.7C297.238 324.122 298.421 324.996 301.634 324.07C305.876 322.887 309.989 321.241 314.204 319.929C316.369 319.246 318.344 318.068 319.973 316.487C321.602 314.906 322.839 312.966 323.587 310.822C327.752 300.533 331.942 290.243 335.335 279.747C337.109 274.242 337.905 268.557 339.216 262.95C339.483 262.163 339.535 261.319 339.368 260.505C339.201 259.692 338.82 258.937 338.265 258.319C336.954 257.239 335.695 258.679 334.332 259.245C327.957 262.075 321.685 265.188 315.181 267.734C313.538 268.311 312.055 269.269 310.853 270.53C309.651 271.791 308.765 273.319 308.266 274.988C307.609 276.717 307.101 278.498 306.75 280.313C305.142 292.42 302.309 304.332 298.292 315.864C297.804 317.487 297.452 319.148 297.238 320.829V320.7ZM156.214 269.869C156.42 268.223 156.008 267.297 154.106 266.834C147.639 265.21 141.325 263.023 135.238 260.3C130.096 258.036 129.608 258.191 126.241 262.872C120.688 270.59 116.626 279.362 111.202 287.207C108.632 290.937 108.992 293.253 111.537 297.06C114.082 300.867 118.375 303.208 122.025 305.96C127.166 309.871 131.125 309.279 135.958 304.777C143.969 296.774 150.244 287.202 154.389 276.661C155.356 274.554 155.972 272.303 156.214 269.998V269.869ZM370.424 255.927C370.192 250.988 367.57 245.637 364.794 240.492C363.277 237.637 362.224 237.663 359.91 240.004C358.875 241.138 357.768 242.204 356.594 243.193C348.471 249.11 344.975 257.522 343.355 267.04C342.037 275.044 339.945 282.901 337.109 290.5C334.821 296.442 332.533 302.385 330.322 308.353C329.962 309.356 329.268 310.539 330.322 311.465C331.376 312.391 332.456 311.465 333.407 310.899C337.803 308.327 342.327 305.755 346.568 302.925C350.81 300.095 355.257 297.626 358.265 293.15C361.652 287.637 364.305 281.704 366.157 275.503C368.587 269.284 370.027 262.722 370.424 256.055V255.927ZM301.865 277.689V276.198C301.865 272.519 301.274 272.056 297.675 272.982C292.613 274.363 287.459 275.377 282.251 276.017C280.726 276.094 279.267 276.665 278.093 277.644C276.92 278.623 276.097 279.957 275.748 281.445C271.84 292.944 270.401 305.06 266.596 316.559C266.09 317.862 265.901 319.267 266.044 320.658C266.187 322.049 266.658 323.386 267.419 324.559C270.221 328.598 273.254 331.993 278.884 329.704C279.089 329.677 279.296 329.677 279.501 329.704C281.868 329.517 284.127 328.637 285.997 327.173C287.867 325.709 289.264 323.726 290.015 321.472C291.454 317.536 292.868 313.575 294.591 309.742C299.141 299.607 300.349 288.699 301.865 277.818V277.689ZM269.578 283.246C269.578 278.873 268.73 277.664 266.082 277.895C257.471 278.667 248.859 278.95 240.248 278.899C239.431 278.814 238.609 279.01 237.918 279.454C237.227 279.898 236.707 280.564 236.443 281.342C232.973 289.265 231.302 297.78 228.731 305.986C228.114 307.967 229.143 309.51 231.765 309.382C239.184 309.138 246.543 310.785 253.152 314.166C257.754 316.302 257.985 316.25 261.378 312.494C262.715 310.794 263.654 308.817 264.129 306.706C265.902 301.124 267.111 295.388 268.344 289.677C269.042 287.643 269.458 285.522 269.578 283.375V283.246ZM97.7581 273.882C97.7581 277.329 99.9946 280.159 101.331 283.349C102.282 285.561 103.465 285.252 104.93 284.223C105.751 283.615 106.517 282.935 107.218 282.191C113.465 275.786 117.295 267.786 121.845 260.274C122.498 258.877 122.989 257.41 123.31 255.901C123.49 255.421 123.484 254.892 123.293 254.416C123.103 253.94 122.743 253.552 122.282 253.329C118.018 250.467 113.9 247.393 109.943 244.119C107.064 241.856 105.547 242.422 105.084 246.074C104.056 252.21 102.464 258.238 100.329 264.081C99.1058 267.241 98.2435 270.529 97.7581 273.882ZM368.959 284.892C370.809 282.886 372.712 280.931 374.511 278.847C378.187 274.603 378.059 270.204 374.177 265.728C372.455 272.107 370.578 278.333 368.959 284.892ZM323.073 551.086C325.412 551.858 327.135 553.324 328.728 552.295C329.628 551.755 328.96 549.029 328.266 548.771C326.441 548.077 325.258 549.877 323.073 551.086Z" fill="#FF7596"/>
<path d="M69.3271 162.599C66.5251 147.885 69.9183 133.84 73.8514 119.872C75.985 120.129 78.0929 120.515 80.2523 120.617C94.7889 121.433 109.368 120.212 123.567 116.99C148.383 111.317 171.289 99.2577 190.018 82.0055C199.928 72.8787 208.198 62.115 214.464 50.1847C219.121 42.094 222.748 33.4522 225.261 24.4605C231.854 24.1593 238.46 24.5299 244.978 25.5666C248.611 40.0612 254.216 53.9879 261.635 66.9568C265.829 74.4446 270.773 81.4863 276.391 87.9735C276.726 88.8007 277.221 89.5537 277.847 90.1893C278.474 90.8249 279.219 91.3307 280.041 91.6778C280.041 92.7325 280.863 93.2727 281.48 93.9415C290.06 103.055 299.862 110.934 310.605 117.351C318.021 121.937 325.996 125.551 334.332 128.103C335.232 131.833 337.726 130.316 339.885 129.775C340.287 130.067 340.717 130.317 341.17 130.521C356.777 135.045 373.182 136.108 389.241 133.634C390.465 141.649 390.87 149.769 390.449 157.866C390.413 161.739 389.999 165.598 389.215 169.391C384.519 164.691 379.168 160.697 373.329 157.532C369.884 155.834 366.285 154.393 362.763 152.824C365.051 150.638 364.794 148.966 361.864 147.988C359.439 147.197 356.966 146.561 354.46 146.085C350.289 145.091 346.023 144.556 341.736 144.49C340.348 144.49 339.165 145.107 339.319 146.625C339.474 148.142 339.679 148.888 341.35 149.197L344.898 149.712C347.821 149.912 350.726 150.333 353.586 150.972C350.784 152.104 348.008 150.586 345.155 150.972C332.867 152.233 321.453 155.705 311.737 163.834C295.85 177.211 288.884 194.214 291.789 214.871C293.557 227.914 300.108 239.834 310.169 248.312C314.831 251.979 319.793 255.249 325.001 258.088C310.362 264.961 294.757 269.551 278.73 271.696C260.195 274.103 241.474 274.74 222.819 273.599C196.567 272.291 170.619 267.383 145.7 259.014C141.175 257.826 136.846 255.989 132.847 253.56C134.718 252.549 136.446 251.295 137.988 249.83C154.106 236.454 160.995 219.193 158.219 198.562C157.327 191.716 155.095 185.114 151.65 179.133C148.205 173.152 143.615 167.909 138.143 163.706C129.458 156.748 118.934 152.475 107.861 151.409C103.182 150.921 98.6579 151.898 94.0822 151.409C99.9448 149.193 106.17 148.094 112.436 148.168C113.979 148.168 115.804 148.323 115.907 146.136C116.01 143.949 114.184 143.847 112.642 143.744C106.483 143.478 100.323 144.243 94.4164 146.007C93.0025 146.367 91.563 146.856 91.383 148.58C91.2031 150.303 92.8997 150.741 94.1593 151.281C93.6799 151.637 93.1518 151.923 92.5912 152.13C88.2675 152.875 84.0591 154.181 80.0723 156.014C76.0972 157.49 72.4475 159.727 69.3271 162.599ZM266.134 187.192C263.478 187.417 260.811 186.91 258.422 185.725C251.43 182.999 244.515 180.118 237.471 177.571C236.238 177.26 235.095 176.661 234.138 175.822C233.18 174.984 232.435 173.93 231.963 172.748C231.492 171.565 231.307 170.288 231.424 169.02C231.542 167.752 231.958 166.53 232.639 165.455C234.872 161.008 238.478 157.4 242.921 155.165C244.463 154.419 245.492 153.313 244.772 151.512C244.052 149.712 242.587 149.917 241.096 150.278C240.299 150.458 239.502 150.689 238.731 150.946C236.005 151.899 233.112 152.278 230.232 152.062C227.353 151.845 224.549 151.036 221.996 149.686C221.268 149.303 220.512 148.976 219.734 148.708C219.216 148.473 218.635 148.416 218.082 148.546C217.528 148.677 217.034 148.987 216.675 149.429C216.39 149.859 216.253 150.371 216.285 150.887C216.318 151.402 216.518 151.893 216.855 152.284C218.043 154.089 219.47 155.724 221.097 157.146C223.691 159.401 225.494 162.431 226.238 165.789C227.086 170.291 226.443 173.892 223.667 175.873C215.916 181.281 207.374 185.454 198.347 188.246C194.998 189.145 191.515 189.433 188.064 189.095C186.508 189.022 184.994 188.572 183.65 187.783C182.307 186.995 181.175 185.891 180.352 184.568C180.125 184.094 179.789 183.68 179.371 183.362C178.953 183.043 178.465 182.829 177.948 182.736C177.431 182.643 176.899 182.674 176.396 182.827C175.894 182.98 175.434 183.251 175.057 183.616C173.129 185.34 173.72 187.372 175.314 189.044C176.198 189.904 177.182 190.656 178.244 191.282C183.823 194.755 190.018 194.652 196.239 193.854C203.979 192.589 211.339 189.61 217.78 185.134C225.698 179.835 233.204 180.221 241.276 184.002C242.767 184.697 244.258 185.365 245.8 185.957C250.556 187.861 255.26 189.944 260.119 191.539C266.973 193.595 274.33 193.186 280.915 190.382C281.928 190.106 282.815 189.49 283.428 188.638C284.041 187.786 284.343 186.748 284.282 185.7C284.271 184.975 284.042 184.271 283.625 183.679C283.207 183.087 282.621 182.635 281.943 182.381C281.019 182.036 280.01 181.986 279.057 182.24C278.104 182.493 277.253 183.037 276.622 183.796C275.235 185.105 273.574 186.089 271.76 186.676C269.946 187.264 268.024 187.44 266.134 187.192ZM287.007 135.975C291.007 135.932 295.002 136.277 298.935 137.004C305.939 138.089 312.746 140.195 319.14 143.255C321.068 144.155 323.433 145.261 324.95 142.895C326.466 140.528 324.95 138.856 323.176 137.313C322.43 136.644 321.376 136.078 321.325 134.972C321.196 132.965 319.808 132.271 318.292 131.499C308.464 126.579 297.864 123.385 286.956 122.058C279.63 121.055 275.799 123.447 273.1 130.316C271.481 134.406 273.1 136.721 277.47 136.515C280.595 136.172 283.735 135.992 286.879 135.975H287.007ZM168.193 123.113C160.305 123.416 152.56 125.306 145.417 128.669C142.204 130.213 138.348 131.422 137.706 135.898C137.706 136.258 136.986 136.567 136.6 136.875C135.135 137.93 134.03 139.216 135.263 140.991C136.497 142.766 137.834 142.2 139.402 141.506C143.191 139.672 147.141 138.19 151.201 137.081C160.738 134.509 170.327 133.171 179.967 136.669C181.483 137.21 182.846 138.522 184.594 138.033C187.164 137.287 185.571 135.229 185.802 133.711C186.547 128.566 185.493 126.791 180.661 125.068C176.611 123.665 172.35 122.969 168.065 123.01L168.193 123.113ZM97.9638 123.602C94.5308 123.458 91.0919 123.596 87.6813 124.013C86.1647 124.322 84.828 124.913 85.1107 126.817C85.3935 128.721 86.8073 128.926 88.3754 128.798C98.0946 127.659 107.942 128.419 117.372 131.036C117.633 131.154 117.915 131.219 118.201 131.226C118.488 131.232 118.772 131.182 119.039 131.076C119.305 130.97 119.547 130.812 119.751 130.611C119.955 130.409 120.116 130.169 120.225 129.904C120.365 129.626 120.445 129.322 120.46 129.011C120.475 128.7 120.426 128.39 120.315 128.099C120.203 127.809 120.033 127.545 119.814 127.324C119.595 127.103 119.332 126.931 119.043 126.817C118.132 126.349 117.164 126.003 116.164 125.788C110.188 124.188 104.021 123.418 97.8353 123.499L97.9638 123.602Z" fill="#FBFDFD"/>
<path d="M41.2817 382.799C43.2084 379.764 45.5054 376.982 48.1195 374.515C48.8758 373.826 49.4094 372.927 49.6521 371.932C49.8948 370.938 49.8355 369.894 49.4819 368.933C49.1127 368.002 49.0233 366.982 49.2249 366.001C55.7028 336.598 67.2192 309.407 86.6531 286.256C87.7842 284.918 88.9153 283.683 90.0977 282.294C91.2802 280.905 92 280.442 93.1825 279.31C94.4935 281.702 95.7531 284.095 97.0641 286.461C103.545 298.095 113.13 307.696 124.75 314.192C138.492 322.465 153.216 328.982 168.579 333.588C174.035 335.086 179.657 335.898 185.313 336.006C187.19 336.006 187.756 336.418 186.83 338.218C186.234 339.3 185.768 340.449 185.442 341.64C184.465 345.756 183.308 349.563 177.91 349.357C177.497 349.383 177.102 349.535 176.779 349.794C172.409 352.778 174.208 357.512 173.823 361.448C173.489 364.277 176.136 365.923 178.681 366.078C182.434 366.335 183.386 368.342 184.234 371.583C187.537 383.837 195.453 394.336 206.322 400.878C217.192 407.419 230.17 409.495 242.536 406.671C243.307 406.491 244.104 406.388 245.492 406.13C243.461 409.089 241.739 411.584 240.042 414.105C226.978 432.76 217.814 453.865 213.102 476.152C210.146 491.278 209.657 506.378 214.413 521.272C217.915 533.252 225.935 543.399 236.777 549.569C238.721 550.394 240.42 551.705 241.713 553.376C238.217 553.633 235.004 553.942 231.79 554.147C206.084 555.717 180.969 551.935 156.034 546.25C152.769 545.504 152.924 545.556 154.954 542.906C158.21 538.642 160.462 533.698 161.543 528.443C162.625 523.187 162.508 517.755 161.201 512.551C159.797 505.109 156.145 498.276 150.739 492.975C150.182 492.384 149.699 491.728 149.299 491.02C143.644 481.965 136.677 474.3 126.729 469.849C126.035 469.541 125.315 469.232 125.341 468.383C125.521 462.492 122.488 457.502 120.457 452.331C112.308 431.752 99.8918 413.488 86.1904 396.252C85.0593 394.838 83.7483 392.882 81.6918 394.683C79.6353 396.484 81.4605 397.873 82.5144 399.211C94.6532 414.131 104.902 430.495 113.028 447.932C115.806 453.777 118.093 459.843 119.866 466.068C120.277 467.714 119.994 468.409 118.22 468.306C114.655 468.308 111.092 468.093 107.552 467.663C100.772 466.201 93.7164 466.694 87.205 469.084C80.6935 471.475 74.9934 475.665 70.7667 481.168C69.3229 482.896 67.6741 484.443 65.8568 485.773C57.2547 491.771 51.0551 500.627 48.3586 510.766C45.662 520.905 46.6429 531.673 51.1271 541.157C51.3071 541.594 51.4613 542.031 51.6413 542.443C50.793 543.035 50.2788 542.443 49.8418 542.16C29.4973 528.481 14.8655 507.817 8.71191 484.075C25.6523 484.769 38.2997 477.155 47.5026 463.495C58.9932 446.543 61.3325 427.867 56.3712 408.24C54.2042 398.357 48.9129 389.436 41.2817 382.799Z" fill="#FBFDFD"/>
<path d="M389.241 133.634C373.182 136.108 356.777 135.045 341.17 130.521C340.717 130.317 340.287 130.067 339.885 129.775C345.558 126.913 351.621 124.902 357.879 123.807C359.576 123.37 361.324 123.19 363.02 122.753C363.33 122.71 363.628 122.604 363.895 122.441C364.163 122.278 364.394 122.063 364.575 121.807C364.755 121.552 364.882 121.262 364.946 120.955C365.01 120.649 365.011 120.333 364.948 120.026C364.917 119.742 364.829 119.468 364.689 119.219C364.55 118.97 364.362 118.751 364.137 118.576C363.911 118.401 363.653 118.273 363.378 118.199C363.102 118.126 362.814 118.108 362.532 118.148C361.715 118.11 360.896 118.161 360.09 118.302C352.51 119.711 345.118 121.99 338.06 125.094C336.479 125.583 335.145 126.66 334.332 128.103C325.996 125.551 318.021 121.937 310.605 117.351C299.862 110.934 290.06 103.055 281.48 93.9415C280.863 93.2727 280.015 92.7325 280.041 91.6778C280.761 91.6778 281.48 91.6778 282.174 91.6778C284.798 91.6891 287.394 91.1474 289.795 90.0882C292.195 89.0289 294.346 87.4758 296.107 85.5298C297.105 84.4646 297.732 83.1048 297.895 81.6535C298.057 80.2023 297.745 78.7376 297.007 77.4781C296.373 76.4039 295.431 75.545 294.304 75.013C293.176 74.4809 291.915 74.3001 290.683 74.494C287.18 74.9538 283.911 76.5099 281.344 78.94C278.777 81.3701 277.043 84.5499 276.391 88.025C270.773 81.5379 265.829 74.4961 261.635 67.0083C254.216 54.0394 248.611 40.1126 244.978 25.6181C257.69 26.6217 270.152 29.7068 281.866 34.7502C283.871 35.5476 285.85 36.4222 287.856 37.1939C289.861 37.9657 291.454 38.4801 292.303 36.2164C293.151 33.9527 291.377 33.1038 289.732 32.4093C288.087 31.7147 285.928 30.8915 284.051 30.0169C283.203 29.6053 281.737 29.6825 281.712 28.4477C281.686 27.213 282.868 27.11 283.614 26.5698C292.771 20.0887 303.073 15.4015 313.973 12.756C324.793 9.76904 336.087 8.89566 347.237 10.1835C349.536 10.4202 351.749 11.1867 353.703 12.423C355.656 13.6593 357.297 15.3317 358.496 17.3091C363.896 26.3306 367.207 36.4478 368.187 46.9177C368.911 53.1421 369.263 59.4043 369.241 65.6707C369.241 67.034 369.653 68.2431 367.262 68.3974C364.871 68.5518 364.923 70.4039 365.951 72.076C366.979 73.748 368.522 75.806 369.678 77.7353C379.451 94.3214 386.066 112.577 389.189 131.576C389.241 132.261 389.259 132.948 389.241 133.634ZM356.363 47.2521C356.532 42.4985 355.366 37.7927 352.995 33.6697C351.996 31.479 350.206 29.7471 347.984 28.8216C345.763 27.896 343.273 27.8452 341.016 28.6792C334.402 30.7042 328.341 34.2249 323.304 38.9689C319.68 42.1587 320.143 45.5029 323.998 48.4354C330.836 53.5803 339.011 56.0241 346.697 59.3425C350.836 61.1432 354.075 58.9566 355.54 54.635C356.152 52.2235 356.429 49.7392 356.363 47.2521Z" fill="#FFF3E8"/>
<path d="M225.261 24.4605C222.748 33.4522 219.121 42.0941 214.464 50.1847C208.198 62.1151 199.928 72.8787 190.018 82.0056C171.289 99.2577 148.383 111.317 123.567 116.99C109.368 120.212 94.7888 121.433 80.2522 120.618C78.0929 120.618 75.9849 120.129 73.8513 119.872C77.1066 109.035 82.2118 98.843 88.9409 89.7485C90.5861 87.4076 92.4626 85.2211 94.2364 82.9573C95.316 81.5682 96.19 80.0247 94.699 78.5842C93.2081 77.1436 91.7171 78.2241 90.4575 79.4331C89.892 79.9476 89.6092 80.8737 88.4267 80.9509C88.2558 78.4345 88.4902 75.907 89.1208 73.4651C92.7609 53.9012 100.66 35.3788 112.256 19.2128C120.328 8.04844 130.251 4.34411 143.798 6.86508C156.804 9.56457 169.024 15.1951 179.53 23.3286C179.992 23.6888 180.661 24.229 180.635 24.692C180.635 25.5666 179.632 25.4637 178.99 25.6695C173.287 27.4039 167.774 29.7139 162.538 32.5636C160.944 33.4382 158.759 34.3129 160.147 36.6795C161.535 39.0461 163.18 37.477 164.748 36.6795C183.553 27.5253 204.38 23.3198 225.261 24.4605ZM124.75 26.1582C122.661 26.06 120.583 26.4976 118.711 27.4296C116.839 28.3616 115.237 29.757 114.056 31.4832C108.09 39.2051 105.27 48.9027 106.164 58.6223C106.447 65.1819 110.38 66.8282 115.701 62.9696C122.359 58.1591 128.863 53.1687 135.392 48.2039C137.544 46.7757 139.205 44.7189 140.148 42.313C140.672 41.3024 140.914 40.1683 140.846 39.0314C140.778 37.8945 140.403 36.7973 139.762 35.8563C137.719 33.5242 135.539 31.3165 133.233 29.2452C132.114 28.1637 130.781 27.3299 129.319 26.798C127.858 26.2662 126.301 26.0482 124.75 26.1582ZM168.656 73.1049C168.966 75.9687 170.29 78.6269 172.388 80.599C174.486 82.5711 177.22 83.7271 180.095 83.8577C182.974 83.8577 184.696 82.3914 184.517 79.5617C184.453 77.1827 183.79 74.8581 182.591 72.8032C181.391 70.7483 179.693 69.0295 177.653 67.8057C176.747 67.179 175.682 66.824 174.582 66.7824C173.481 66.7408 172.392 67.0143 171.442 67.5709C170.492 68.1274 169.72 68.9438 169.217 69.9241C168.714 70.9044 168.502 72.0079 168.604 73.1049H168.656Z" fill="#FFF3E8"/>
<path d="M434.535 358.284C432.615 369.047 427.405 378.95 419.624 386.625C411.843 394.301 401.874 399.373 391.092 401.14C387.379 401.694 383.59 401.421 379.995 400.34C376.4 399.26 373.088 397.398 370.295 394.889C374.497 395.061 378.699 394.548 382.737 393.371C384.999 392.728 387.261 392.059 389.472 391.262C391.014 390.696 392.351 389.667 391.709 387.789C391.066 385.911 389.421 386.246 388.033 386.632C384.948 387.429 381.94 388.484 378.855 389.204C374.049 390.439 369.009 390.439 364.203 389.204C360.085 388.16 356.428 385.782 353.801 382.442C351.174 379.101 349.725 374.985 349.679 370.734C349.679 368.496 350.27 367.133 352.635 366.515C356.722 365.461 360.707 364.123 364.743 362.914C365.719 362.605 366.748 362.374 367.699 362.039C369.138 361.525 370.475 360.727 369.987 358.952C369.498 357.177 367.956 356.997 366.465 357.435C361.632 358.824 356.799 360.239 352.018 361.808C347.905 363.145 347.931 363.223 346.106 359.39C340.296 347.222 344.229 333.82 355.334 327.877C358.514 326.404 361.984 325.665 365.488 325.717C367.236 325.717 368.984 325.717 370.629 325.717C371.966 325.717 373.2 325.254 373.2 323.736C373.2 322.218 372.146 321.369 370.629 321.163C368.18 320.855 365.701 320.855 363.252 321.163L357.982 321.704C359.442 318.225 362.082 315.374 365.437 313.652C372.163 310.158 379.873 309.043 387.313 310.488C398.135 312.211 407.415 317.459 416.284 323.556C417.389 324.302 418.443 325.125 419.523 325.922C420.602 326.72 422.299 327.697 423.533 325.922C424.767 324.147 423.533 323.016 422.273 322.038C420.577 320.7 418.854 319.466 417.132 318.231C408.289 312.263 399.138 307.169 388.315 305.523C380.087 303.856 371.539 304.922 363.972 308.559C361.186 309.788 358.708 311.621 356.716 313.926C354.725 316.23 353.269 318.948 352.455 321.884C352.179 322.873 351.547 323.725 350.681 324.276C344.967 328.06 340.82 333.791 339.011 340.405C338.754 341.486 338.42 342.154 337.083 342.334C320.271 344.675 305.798 352.624 291.789 361.499C287.727 364.071 283.922 367.004 279.758 369.962C279.449 367.055 279.938 365.229 282.971 364.663C283.518 364.601 284.042 364.413 284.504 364.114C284.965 363.815 285.35 363.412 285.63 362.938C285.909 362.464 286.074 361.932 286.112 361.383C286.151 360.834 286.061 360.284 285.85 359.775C285.354 357.677 285.01 355.545 284.822 353.396C284.591 350.823 283.871 348.251 280.503 347.968C279.552 347.968 279.398 347.196 279.218 346.476C278.485 343.272 277.381 340.164 275.928 337.215C274.874 335.183 275.928 335.106 277.47 334.874C293.962 332.483 310.002 327.627 325.052 320.469C345.874 310.745 364.486 297.986 379.035 279.979C379.807 279.027 380.449 278.436 381.863 278.924C404.047 286.642 420.885 300.455 430.705 322.192C430.872 322.67 431.001 323.16 431.09 323.659C429.446 330.51 429.011 337.597 429.805 344.598C429.918 349.542 431.571 354.327 434.535 358.284Z" fill="#FBFDFD"/>
<path d="M342.455 364.303C343.287 365.125 343.915 366.129 344.29 367.237C344.665 368.345 344.776 369.524 344.615 370.683C344.61 375.357 345.6 379.978 347.52 384.239C346.414 383.03 345.257 381.821 344.152 380.638C342.198 378.209 339.48 376.514 336.44 375.827C334.976 375.476 333.436 375.64 332.078 376.291C330.721 376.942 329.629 378.041 328.985 379.403C328.212 380.759 327.932 382.341 328.195 383.88C328.457 385.419 329.246 386.819 330.425 387.841C333.542 390.194 336.843 392.293 340.296 394.117C342.301 395.352 344.306 396.69 346.26 397.925C346.954 398.413 348.496 398.748 347.391 400.163C346.594 401.191 346.209 402.941 344.229 402.478C341.9 401.983 339.765 400.822 338.085 399.134C335.515 396.561 333.124 393.989 330.631 391.416C328.603 388.998 325.792 387.369 322.687 386.812C321.521 386.509 320.295 386.536 319.143 386.888C317.991 387.24 316.959 387.904 316.161 388.807C315.362 389.709 314.829 390.815 314.62 392.002C314.411 393.189 314.534 394.411 314.975 395.532C315.608 397.988 316.859 400.24 318.61 402.073C320.361 403.906 322.552 405.259 324.975 406.002C328.688 407.202 332.244 408.843 335.566 410.889C337.057 411.841 337.288 412.716 336.106 414.028C335.56 414.644 335.093 415.327 334.718 416.06C333.954 417.177 333.523 418.488 333.474 419.84C333.425 421.193 333.76 422.531 334.442 423.7C335.123 424.87 336.121 425.821 337.321 426.445C338.522 427.069 339.874 427.339 341.221 427.224C342.552 427.347 343.893 427.18 345.153 426.736C346.413 426.292 347.562 425.581 348.522 424.652C349.32 423.698 350.454 423.088 351.689 422.949C352.924 422.81 354.165 423.153 355.154 423.906C358.732 425.991 362.167 428.311 365.437 430.851C369.216 433.424 372.917 436.331 377.956 435.996C379.019 436.091 380.085 435.852 381.006 435.312C381.927 434.773 382.658 433.96 383.097 432.987C383.519 431.924 383.595 430.754 383.313 429.645C383.031 428.537 382.407 427.545 381.529 426.813C379.678 425.006 377.46 423.62 375.025 422.748C369.065 420.23 363.478 416.906 358.419 412.87C357.571 412.279 356.157 411.841 356.851 410.298C357.545 408.754 358.239 407.494 360.116 407.417C362.39 407.454 364.605 408.151 366.491 409.423C370.111 411.959 373.968 414.138 378.007 415.931C380.299 416.924 382.885 416.998 385.23 416.137C388.881 414.568 389.883 411.944 388.958 406.259C394.079 405.947 399.115 404.8 403.867 402.864C404.664 413.796 401.528 424.112 398.726 434.479C398.562 435.135 398.146 435.699 397.569 436.051C396.991 436.402 396.299 436.512 395.642 436.357C394.536 436.151 393.456 435.791 392.377 435.482C390.569 434.87 388.61 434.871 386.802 435.485C384.995 436.099 383.44 437.291 382.377 438.877C381.612 440.615 381.449 442.56 381.915 444.401C382.381 446.242 383.448 447.874 384.948 449.039C386.284 450.17 387.75 451.096 389.164 452.125C389.615 452.349 390.013 452.666 390.334 453.054C390.654 453.443 390.888 453.895 391.022 454.381C391.155 454.867 391.185 455.375 391.108 455.873C391.032 456.371 390.851 456.847 390.577 457.27C388.649 461.232 387.03 465.348 384.871 469.181C381.297 475.534 381.169 478.827 372.197 473.039C370.841 472.205 369.269 471.789 367.678 471.844C366.087 471.899 364.547 472.422 363.252 473.348C362.095 474.453 361.31 475.892 361.006 477.463C360.702 479.035 360.894 480.662 361.555 482.12C362.342 484.133 363.582 485.938 365.18 487.393C369.164 491.355 369.241 492.538 366.105 497.889C364.279 500.734 362.141 503.366 359.73 505.735C354.589 511.214 354.589 511.162 347.956 507.715C347.14 507.225 346.208 506.962 345.256 506.953C344.304 506.944 343.367 507.19 342.542 507.664C341.716 508.139 341.032 508.825 340.561 509.653C340.089 510.48 339.847 511.419 339.859 512.372C339.861 514.534 340.505 516.647 341.71 518.442C342.234 519.214 342.446 520.155 342.303 521.077C342.16 521.999 341.672 522.832 340.939 523.407C337.88 526.314 334.307 528.552 331.119 531.304C328.343 533.671 325.669 535.009 322.173 532.153C321.257 531.453 320.124 531.098 318.973 531.15C317.821 531.202 316.725 531.657 315.875 532.436C314.925 533.088 314.271 534.089 314.054 535.221C313.837 536.353 314.076 537.525 314.718 538.482C314.892 538.737 315.011 539.026 315.066 539.331C315.122 539.635 315.113 539.947 315.04 540.248C314.968 540.548 314.833 540.83 314.645 541.076C314.456 541.321 314.219 541.524 313.947 541.671C312.713 542.623 311.377 543.601 309.757 542.803C305.19 540.696 300.744 538.335 296.441 535.729C283.806 527.175 270.634 519.442 257.008 512.577C253.378 510.641 250.157 508.021 247.522 504.86C246.162 503.38 245.167 501.601 244.618 499.667C244.069 497.733 243.981 495.696 244.361 493.721C244.592 492.101 245.26 490.763 247.291 490.84C248.168 490.936 249.052 490.729 249.796 490.255C250.54 489.781 251.101 489.067 251.385 488.231C251.67 487.395 251.661 486.487 251.361 485.657C251.06 484.826 250.486 484.123 249.733 483.663C248.616 482.911 247.823 481.765 247.513 480.454C247.203 479.142 247.399 477.762 248.062 476.589C248.731 474.891 249.116 473.065 249.682 471.316C251.738 465.116 253.101 464.344 259.63 465.399C260.748 465.617 261.904 465.504 262.959 465.075C264.013 464.645 264.92 463.918 265.568 462.981C266.167 462.134 266.479 461.116 266.455 460.079C266.432 459.041 266.076 458.038 265.44 457.219C264.677 456.01 263.659 454.983 262.458 454.209C258.782 451.508 258.139 448.936 260.196 444.897C261.764 441.784 263.383 438.697 265.105 435.662C265.549 434.726 266.19 433.898 266.984 433.234C267.779 432.569 268.707 432.085 269.706 431.814C270.705 431.542 271.751 431.491 272.771 431.662C273.792 431.833 274.764 432.224 275.619 432.807C276.746 433.509 277.955 434.07 279.218 434.479C284.359 435.868 288.395 432.446 287.418 427.559C286.872 425.891 285.843 424.423 284.462 423.34C279.09 417.655 278.627 415.803 282.586 410.709C286.292 406.056 290.239 401.6 294.411 397.359C296.981 394.58 298.935 394.786 302.354 396.664C303.248 397.171 304.197 397.577 305.181 397.873C309.86 399.314 312.893 396.587 312.096 391.776C311.912 390.448 311.37 389.194 310.528 388.149C308.677 385.886 309.372 384.214 311.557 382.567C321.422 375.771 331.746 369.669 342.455 364.303ZM272.38 464.242C268.139 464.242 264.668 467.148 262.998 472.679C261.156 478.695 257.954 484.205 253.641 488.782C252.314 490.087 251.234 491.621 250.453 493.31C249.912 494.311 249.668 495.445 249.75 496.58C249.832 497.715 250.236 498.803 250.916 499.715C251.668 500.574 252.66 501.188 253.765 501.477C254.869 501.766 256.035 501.717 257.111 501.336C258.609 501.008 260.026 500.384 261.28 499.5C262.533 498.617 263.598 497.492 264.411 496.191C266.057 493.464 267.522 490.635 268.961 487.805C269.867 485.727 271.218 483.873 272.92 482.377C273.819 481.498 275.008 480.978 276.263 480.917C277.518 480.855 278.752 481.256 279.732 482.043C282.573 483.907 285.055 486.269 287.059 489.014C287.946 490.044 288.412 491.371 288.364 492.73C288.317 494.089 287.759 495.38 286.801 496.345C284.565 498.918 282.226 501.336 279.887 503.805C279.013 504.706 277.907 505.683 276.699 504.603C275.491 503.522 276.57 502.391 277.342 501.464C279.327 499.534 281.055 497.355 282.483 494.982C283.218 493.426 283.318 491.644 282.761 490.016C282.204 488.388 281.035 487.041 279.501 486.261C278.961 485.801 278.32 485.475 277.63 485.308C276.941 485.141 276.221 485.139 275.531 485.302C274.84 485.465 274.198 485.788 273.655 486.245C273.112 486.702 272.684 487.28 272.406 487.934C269.63 493.979 266.185 499.638 263.152 505.529C262.708 506.248 262.477 507.078 262.485 507.923C262.493 508.767 262.74 509.593 263.197 510.303C263.655 511.013 264.303 511.58 265.068 511.937C265.834 512.294 266.684 512.427 267.522 512.32C275.388 512.32 280.94 516.127 285.259 522.25C286.445 524.18 287.979 525.872 289.783 527.24C293.048 529.401 296.621 529.478 298.729 526.777C301.711 522.97 305.079 519.523 308.215 515.896C309.258 514.737 309.937 513.297 310.168 511.754C310.454 510.537 310.322 509.26 309.795 508.126C309.269 506.993 308.377 506.069 307.264 505.503C304.693 504.166 302.714 505.503 301.043 507.381C299.731 509.221 298.635 511.206 297.778 513.298C297.449 514.223 296.889 515.05 296.151 515.698C295.414 516.347 294.522 516.795 293.562 517.002C292.534 517.13 291.454 517.156 290.837 516.076C290.616 515.668 290.527 515.201 290.582 514.74C290.637 514.28 290.834 513.847 291.146 513.503C293.614 509.593 296.039 505.658 298.421 501.696C298.961 500.75 299.798 500.009 300.801 499.585C301.805 499.162 302.919 499.081 303.973 499.355C306.213 499.748 308.316 500.708 310.08 502.145C311.844 503.581 313.211 505.446 314.05 507.561C314.628 508.728 314.823 510.048 314.606 511.333C314.389 512.617 313.771 513.8 312.842 514.712C311.222 516.436 309.423 517.979 307.701 519.6C305.348 521.463 303.639 524.019 302.816 526.906C302.464 528.048 302.486 529.274 302.88 530.403C303.273 531.532 304.016 532.506 305.001 533.182C306.026 533.9 307.257 534.261 308.507 534.21C309.756 534.158 310.954 533.698 311.916 532.899C313.556 531.809 314.885 530.311 315.772 528.552C318.339 523.037 322.551 518.454 327.829 515.433C333.535 512.037 333.51 506.198 328.471 501.825C325.611 499.473 322.489 497.462 319.166 495.831C316.046 494.478 313.15 492.656 310.58 490.429C309.243 489.04 307.726 487.342 309.731 485.284C310.074 484.86 310.506 484.517 310.998 484.282C311.489 484.047 312.027 483.925 312.572 483.925C313.117 483.925 313.655 484.047 314.146 484.282C314.638 484.517 315.07 484.86 315.413 485.284C317.983 487.856 320.811 490.429 323.561 492.821C326.425 495.557 330.245 497.063 334.204 497.014C335.395 497.103 336.585 496.825 337.614 496.218C338.643 495.611 339.462 494.704 339.962 493.619C340.539 492.456 340.746 491.144 340.552 489.86C340.359 488.576 339.776 487.383 338.882 486.442C337.356 484.613 335.367 483.227 333.124 482.429C329.846 481.227 326.644 479.827 323.536 478.236C311.119 471.959 298.755 465.656 290.118 454.055C289.278 452.983 288.217 452.106 287.007 451.482C286.222 451.029 285.342 450.764 284.437 450.707C283.532 450.651 282.627 450.804 281.791 451.155C280.955 451.506 280.211 452.045 279.618 452.731C279.024 453.417 278.597 454.231 278.37 455.109C277.787 456.721 277.721 458.475 278.182 460.126C278.643 461.777 279.607 463.243 280.94 464.319C283.091 466.073 285.469 467.526 288.01 468.64C291.197 470.081 294.436 471.393 297.572 472.911C300.709 474.428 298.729 476.872 298.138 478.75C297.547 480.628 295.876 479.29 294.899 478.75C289.903 476.272 285.386 472.928 281.557 468.872C280.437 467.5 279.041 466.379 277.46 465.582C275.879 464.784 274.149 464.328 272.38 464.242ZM321.505 447.649C328.548 447.212 334.049 450.453 338.934 454.955C339.961 455.815 340.741 456.933 341.193 458.194C341.645 459.456 341.752 460.815 341.504 462.132C341.433 462.919 341.068 463.65 340.482 464.179C339.896 464.709 339.132 464.997 338.342 464.988C336.389 464.988 335.772 463.83 335.515 462.081C335.397 460.852 335.2 459.631 334.924 458.428C333.767 453.283 329.782 450.016 325.978 450.865C322.173 451.714 319.911 456.447 320.965 461.489C321.127 462.291 321.368 463.076 321.685 463.83C322.686 466.214 324.152 468.374 325.997 470.185C327.842 471.996 330.029 473.421 332.43 474.377C340.502 477.49 351.041 474.145 353.123 464.293C353.635 461.289 353.246 458.201 352.007 455.417C350.767 452.634 348.731 450.28 346.157 448.653C342.293 445.922 338.049 443.772 333.561 442.273C332.79 442.042 331.659 441.759 331.967 440.755C332.276 439.752 333.381 440.447 334.024 440.755C336.235 441.579 338.342 442.659 340.579 443.328C346.687 445.337 351.898 449.423 355.308 454.878C356.562 456.639 358.02 458.246 359.653 459.663C362.609 462.389 365.797 462.852 368.316 461.129C369.665 460.071 370.609 458.58 370.988 456.907C371.367 455.235 371.159 453.482 370.398 451.945C368.982 448.617 366.668 445.748 363.714 443.662C358.843 440.02 353.266 437.435 347.34 436.074C331.068 432.163 317.366 424.498 308.189 409.938C306.492 407.365 303.279 407.365 301.171 410.092C300.243 411.249 299.572 412.591 299.204 414.029C298.836 415.467 298.779 416.966 299.037 418.428C299.295 419.889 299.862 421.278 300.7 422.503C301.538 423.727 302.628 424.758 303.896 425.527C306.878 427.302 310.117 428.716 313.073 430.671C315.001 431.88 318.214 432.035 317.983 435.405C317.752 438.775 314.41 439.238 311.891 440.164C311.127 440.484 310.302 440.633 309.474 440.601C308.234 440.696 306.998 440.366 305.97 439.665C304.942 438.964 304.183 437.933 303.819 436.742C303.299 434.634 302.306 432.672 300.914 431.006C300.33 430.211 299.557 429.574 298.666 429.152C297.774 428.731 296.792 428.538 295.807 428.592C294.822 428.645 293.866 428.943 293.026 429.459C292.185 429.975 291.486 430.692 290.992 431.546C289.529 433.699 288.935 436.326 289.331 438.899C289.727 441.472 291.083 443.799 293.125 445.411C295.778 447.471 298.873 448.885 302.165 449.541C305.458 450.197 308.858 450.078 312.096 449.193C315.147 448.251 318.313 447.732 321.505 447.649Z" fill="#FFDCE9"/>
<path d="M325.104 257.959C319.896 255.121 314.934 251.851 310.271 248.184C300.21 239.705 293.659 227.785 291.891 214.742C288.986 194.163 295.953 177.082 311.839 163.706C321.453 155.602 332.867 152.13 345.257 150.843C348.111 150.535 350.887 152.052 353.689 150.843L362.866 152.747C366.388 154.316 369.987 155.757 373.431 157.455C379.271 160.62 384.622 164.614 389.318 169.313C386.918 188.999 379.392 207.707 367.493 223.566C357.098 237.943 343.23 249.448 327.186 257.007L325.104 257.959ZM339.936 164.143C339.52 164.127 339.11 164.243 338.764 164.474C338.418 164.705 338.154 165.039 338.008 165.429C337.81 165.965 337.796 166.552 337.968 167.097C338.14 167.642 338.489 168.114 338.959 168.439L348.753 177.802C349.936 178.909 351.324 179.989 352.789 178.6C354.254 177.211 353.355 175.744 352.249 174.561C349.219 171.203 345.936 168.081 342.43 165.223C341.744 164.593 340.865 164.212 339.936 164.143Z" fill="#FFDCE9"/>
<path d="M142.513 545.504C143.631 538.932 143.631 532.218 142.513 525.645C142.153 523.536 142.358 520.269 139.222 520.732C136.086 521.195 137.397 524.385 137.706 526.391C139.097 532.84 138.911 539.529 137.166 545.89C136.816 547.261 136.177 548.54 135.289 549.64C134.402 550.741 133.289 551.638 132.024 552.27C127.261 554.98 121.764 556.115 116.318 555.511C113.979 555.177 112.591 554.379 112.899 551.601C113.031 549.345 112.971 547.082 112.719 544.836C112.719 543.369 111.819 542.263 110.149 542.263C108.478 542.263 107.886 543.601 107.938 545.093C107.938 547.665 108.195 550.418 108.426 553.093C108.426 554.225 108.426 555.151 107.141 555.485C101.331 556.926 95.5217 558.058 89.5836 555.923C87.6498 555.218 85.9681 553.956 84.7508 552.296C80.9337 546.892 78.7315 540.512 78.4014 533.903C78.4014 533.311 78.4013 532.668 78.2728 532.076C78.0415 530.43 77.5273 528.912 75.4965 529.067C73.4658 529.221 73.3372 530.739 73.4143 532.256C73.5826 538.443 75.0727 544.521 77.7844 550.083C78.4153 550.88 78.8233 551.83 78.9669 552.836C72.3824 552.736 66.0644 550.217 61.2153 545.758C56.3663 541.299 53.3247 535.212 52.6695 528.655C52.0346 523.652 52.1212 518.584 52.9265 513.606C54.7516 502.288 61.2553 494.159 70.6895 488.139C71.938 487.441 73.0244 486.485 73.8771 485.335C77.8157 479.754 83.4189 475.563 89.8838 473.363C96.3487 471.164 103.343 471.068 109.866 473.091C110.744 473.378 111.679 473.449 112.591 473.297C115.774 472.65 119.062 472.716 122.217 473.49C125.373 474.263 128.318 475.726 130.842 477.773C135.197 481.05 139.021 484.981 142.178 489.426C144.414 492.804 146.897 496.011 149.608 499.021C158.553 508.179 159.607 527.086 152.461 537.607C150 541.168 146.538 543.917 142.513 545.504Z" fill="#FBFDFD"/>
<path d="M342.455 364.303C331.764 369.671 321.456 375.773 311.608 382.567C309.423 384.214 308.729 385.886 310.58 388.149C311.421 389.194 311.963 390.448 312.148 391.776C313.022 396.587 309.911 399.314 305.233 397.873C304.248 397.577 303.3 397.171 302.405 396.664C298.986 394.683 297.11 394.58 294.462 397.359C290.3 401.592 286.361 406.04 282.663 410.684C278.704 415.829 279.167 417.629 284.539 423.314C285.92 424.397 286.949 425.865 287.495 427.533C288.472 432.421 284.488 435.842 279.295 434.453C278.032 434.044 276.823 433.483 275.696 432.781C274.841 432.198 273.869 431.808 272.848 431.636C271.828 431.465 270.782 431.517 269.783 431.788C268.784 432.059 267.856 432.544 267.062 433.208C266.267 433.872 265.626 434.701 265.183 435.636C263.46 438.672 261.841 441.759 260.273 444.871C258.216 448.91 258.859 451.482 262.535 454.183C263.736 454.957 264.754 455.984 265.517 457.193C266.153 458.013 266.509 459.015 266.532 460.053C266.556 461.091 266.245 462.108 265.645 462.955C264.997 463.892 264.09 464.619 263.036 465.049C261.981 465.478 260.825 465.591 259.707 465.373C253.178 464.319 251.815 465.09 249.759 471.29C249.193 473.039 248.808 474.866 248.139 476.564C247.476 477.737 247.28 479.117 247.59 480.428C247.9 481.74 248.693 482.886 249.81 483.638C250.563 484.098 251.137 484.801 251.438 485.631C251.738 486.461 251.747 487.369 251.462 488.205C251.178 489.041 250.617 489.755 249.873 490.229C249.129 490.704 248.245 490.91 247.368 490.815C245.337 490.815 244.669 492.075 244.438 493.696C244.058 495.67 244.146 497.707 244.695 499.641C245.244 501.576 246.239 503.354 247.599 504.834C250.234 507.995 253.455 510.616 257.085 512.552C270.711 519.416 283.883 527.149 296.518 535.703C300.821 538.309 305.267 540.671 309.834 542.778C311.402 543.575 312.79 542.598 314.024 541.646C314.296 541.498 314.533 541.295 314.722 541.05C314.91 540.805 315.045 540.523 315.117 540.222C315.19 539.922 315.199 539.609 315.144 539.305C315.088 539.001 314.97 538.711 314.795 538.456C314.153 537.499 313.915 536.327 314.131 535.195C314.348 534.063 315.002 533.062 315.952 532.411C316.802 531.631 317.898 531.176 319.05 531.124C320.201 531.072 321.334 531.428 322.25 532.128C325.746 534.983 328.42 533.645 331.196 531.279C334.384 528.552 337.957 526.288 341.016 523.382C341.749 522.806 342.237 521.973 342.38 521.051C342.524 520.13 342.311 519.188 341.787 518.417C340.582 516.621 339.938 514.508 339.936 512.346C339.924 511.393 340.166 510.455 340.638 509.627C341.11 508.8 341.793 508.113 342.619 507.639C343.444 507.164 344.381 506.918 345.333 506.927C346.285 506.936 347.217 507.2 348.034 507.69C354.563 511.137 354.614 511.188 359.807 505.709C362.218 503.34 364.356 500.708 366.182 497.863C369.318 492.564 369.241 491.329 365.257 487.368C363.659 485.912 362.419 484.108 361.632 482.094C360.971 480.637 360.779 479.009 361.083 477.438C361.387 475.866 362.172 474.428 363.329 473.322C364.624 472.396 366.164 471.873 367.755 471.818C369.346 471.764 370.918 472.179 372.275 473.014C381.246 478.802 381.375 475.586 384.948 469.155C387.107 465.322 388.727 461.206 390.654 457.245C390.928 456.822 391.109 456.345 391.185 455.847C391.262 455.35 391.232 454.841 391.099 454.355C390.965 453.87 390.731 453.417 390.411 453.029C390.09 452.64 389.692 452.324 389.241 452.1C387.827 451.071 386.362 450.145 385.025 449.013C383.525 447.849 382.458 446.216 381.992 444.375C381.526 442.534 381.689 440.59 382.454 438.852C383.517 437.265 385.072 436.073 386.879 435.459C388.687 434.846 390.646 434.845 392.454 435.456C393.534 435.765 394.613 436.125 395.719 436.331C396.376 436.486 397.069 436.377 397.646 436.025C398.223 435.674 398.639 435.109 398.803 434.453C401.605 424.163 404.741 413.874 403.945 402.838C410.885 399.134 410.885 399.134 410.937 406.928C410.853 425.841 406.429 444.481 398.006 461.412C380.629 498.198 355.077 527.652 319.063 547.305C306.277 554.706 291.802 558.684 277.033 558.855C253.512 558.701 237.086 545.504 231.944 522.507C228.268 506.121 230.222 489.992 234.952 474.145C244.9 440.704 263.666 412.999 289.192 389.59C302.326 377.234 317.642 367.429 334.358 360.676C340.013 358.515 340.013 358.515 342.455 364.303ZM278.19 551.267C281.739 551.387 285.287 551.006 288.729 550.135C289.596 549.994 290.401 549.598 291.042 548.998C291.682 548.398 292.13 547.621 292.328 546.765C292.611 545.17 291.223 544.192 289.912 543.138C283.739 538.562 277.264 534.411 270.529 530.713C264.745 527.6 259.27 523.947 253.332 521.169C251.687 520.397 249.964 519.806 248.422 521.169C246.88 522.533 247.342 524.128 247.934 525.722C248.833 528.115 249.759 530.507 250.684 532.899C255.26 544.784 268.704 552.038 278.113 551.267H278.19Z" fill="#FFF3E8"/>
<path d="M69.3271 162.599C72.4713 159.688 76.1574 157.424 80.1752 155.937C84.162 154.104 88.3703 152.798 92.6941 152.052C93.2546 151.846 93.7827 151.56 94.2622 151.204C98.8379 151.667 103.362 150.689 108.041 151.204C119.114 152.269 129.638 156.542 138.323 163.5C143.795 167.704 148.385 172.946 151.83 178.927C155.275 184.908 157.507 191.511 158.399 198.356C161.175 218.935 154.286 236.248 138.168 249.624C136.626 251.089 134.898 252.343 133.027 253.354C128.961 251.67 125.139 249.446 121.665 246.743C93.3881 227.527 76.602 200.774 70.2526 167.358C69.687 165.841 69.5585 164.22 69.3271 162.599ZM114.956 163.628C114.968 163.267 114.888 162.908 114.722 162.586C114.556 162.265 114.31 161.991 114.008 161.793C113.706 161.594 113.358 161.476 112.997 161.45C112.636 161.425 112.275 161.493 111.948 161.648C109.065 162.521 106.425 164.053 104.236 166.124C103.927 166.326 103.678 166.607 103.515 166.939C103.352 167.27 103.281 167.64 103.31 168.008C103.339 168.377 103.466 168.731 103.679 169.033C103.892 169.335 104.182 169.574 104.519 169.725C106.37 170.728 115.007 165.583 114.956 163.628Z" fill="#FFDCE9"/>
<path d="M41.2817 382.799C48.9416 389.408 54.269 398.311 56.474 408.188C61.4353 427.816 59.0447 446.492 47.6054 463.444C38.4026 477.104 25.7551 484.718 8.81473 484.023C6.6892 475.623 5.82287 466.954 6.24411 458.299C7.09241 432.575 18.069 411.121 33.8012 391.571C36.0369 388.436 38.5398 385.501 41.2817 382.799Z" fill="#FFF3E8"/>
<path d="M226.186 363.66C211.806 363.918 197.423 363.377 183.103 362.039C178.784 361.551 177.062 358.567 179.041 354.734C179.632 353.627 180.764 353.756 181.74 353.576C187.048 352.98 192.395 352.808 197.73 353.062C201.123 353.062 204.516 353.062 208.012 353.062C209.734 353.062 211.585 352.856 211.559 350.643C211.534 348.431 209.657 348.071 207.986 348.071C202.845 348.071 197.91 348.071 192.897 348.225C188.835 348.225 188.732 348.225 190.018 344.521C193.002 335.682 198.706 328.016 206.313 322.622C213.92 317.227 223.038 314.382 232.36 314.493C241.683 314.605 250.73 317.667 258.206 323.242C265.682 328.816 271.202 336.617 273.974 345.524C274.642 347.634 274.617 348.405 271.995 348.097C258.79 346.974 245.516 346.931 232.304 347.968C231.683 348.007 231.065 348.085 230.454 348.2C229.883 348.252 229.355 348.521 228.977 348.952C228.599 349.383 228.401 349.942 228.423 350.515C228.413 350.839 228.476 351.161 228.608 351.457C228.739 351.754 228.936 352.017 229.183 352.227C229.429 352.437 229.72 352.588 230.034 352.671C230.347 352.753 230.675 352.763 230.993 352.701C234.592 352.701 238.191 352.393 241.764 352.264C253.775 351.914 265.796 352.335 277.753 353.525C282.072 353.885 279.861 357.229 280.632 359.107C281.403 360.985 279.27 360.624 278.216 360.907C265.517 364.329 252.51 363.48 239.656 363.608L226.186 363.66Z" fill="#FFF3E8"/>
<path d="M355.308 547.588V551.292C355.308 555.64 355.103 555.948 350.784 556.18C345.645 556.78 340.443 555.887 335.797 553.607C334.999 553.071 334.335 552.357 333.857 551.521C333.379 550.685 333.101 549.75 333.044 548.789C332.986 547.828 333.152 546.867 333.527 545.98C333.902 545.093 334.477 544.305 335.206 543.678C356.759 528.987 375.122 510.087 389.189 488.114C390.423 486.21 391.271 486.287 392.582 487.753C392.788 487.985 393.071 488.139 393.225 488.396C399.832 499.226 407.132 509.773 407.389 523.176C407.484 528.47 405.78 533.639 402.556 537.838C398.958 542.675 395.462 547.768 389.215 549.672C388.469 549.903 387.621 550.623 386.979 549.852C386.336 549.08 387.133 548.514 387.287 547.845C389.769 536.974 389.433 525.648 386.31 514.944C385.873 513.246 385.128 511.265 382.866 511.883C380.603 512.5 381.066 514.455 381.503 516.256C384.19 525.246 384.779 534.733 383.225 543.986C381.4 552.913 375.951 556.849 366.773 555.948C360.218 555.331 360.244 555.331 360.141 548.797C360.141 546.224 360.013 543.652 359.833 541.08C359.833 539.716 358.984 538.662 357.468 538.764C355.951 538.867 355.36 539.922 355.36 541.337C355.308 543.472 355.308 545.53 355.308 547.588Z" fill="#FBFDFD"/>
<path d="M232.33 538.584C230.111 538.035 228.193 536.641 226.983 534.7C218.886 523.973 216.032 511.548 215.93 498.48C215.775 480.062 220.659 462.749 228.037 446.029C234.781 430.899 243.484 416.724 253.923 403.867C255.072 402.412 256.464 401.168 258.036 400.188C263.813 396.759 268.694 392.007 272.278 386.323C275.161 381.71 278.874 377.671 283.228 374.413C293.935 365.744 305.83 358.657 318.549 353.37C323.995 351.212 329.644 349.609 335.412 348.586C336.492 348.38 338.291 347.608 338.317 349.537C338.342 351.467 340.065 353.627 336.8 354.682C329.58 357.065 322.621 360.176 316.03 363.969C292.189 377.779 271.741 396.756 256.185 419.507C242.746 437.931 233.132 458.862 227.909 481.065C224.233 497.529 223.487 514.044 228.86 530.353C229.862 532.951 231.096 535.549 232.33 538.584Z" fill="#FFF3E8"/>
<path d="M419.882 417.681C429.677 433.115 437.517 449.219 440.19 467.431C442.219 481.414 440.443 495.686 435.049 508.744C434.749 509.93 434.136 511.014 433.275 511.883C428.291 509.885 424.001 506.469 420.936 502.056C410.566 489.246 405.261 473.07 406.027 456.601C408.985 448.687 411.441 440.593 413.379 432.369C413.764 430.466 414.253 428.613 414.69 426.736C416.627 423.841 418.362 420.815 419.882 417.681Z" fill="#FFF3E8"/>
<path d="M226.675 368.599C240.53 368.419 254.386 369.165 268.216 367.879C269.552 367.813 270.878 367.615 272.175 367.287C274.565 366.592 275.079 367.287 274.411 369.628C271.554 380.481 264.717 389.858 255.26 395.892C249.238 399.672 242.415 401.989 235.338 402.658C233.153 402.915 232.073 402.452 232.356 399.905C232.639 397.358 232.356 394.76 232.587 392.188C232.516 391.008 232.853 389.84 233.541 388.88C234.229 387.919 235.227 387.225 236.366 386.914C238.937 386.22 240.865 384.805 240.685 381.77C240.505 378.734 238.345 377.911 236.032 377.165C232.318 375.879 228.28 375.879 224.567 377.165C223.606 377.387 222.734 377.893 222.064 378.618C221.395 379.343 220.959 380.253 220.814 381.229C220.729 382.206 220.948 383.184 221.441 384.031C221.933 384.879 222.675 385.553 223.564 385.963C225.005 386.673 226.188 387.816 226.949 389.232C227.709 390.647 228.009 392.265 227.806 393.86C227.806 395.3 227.806 396.741 227.806 398.182C227.6 402.761 227.574 402.915 222.999 401.834C205.544 397.77 194.413 386.94 189.144 369.911C188.527 367.93 188.989 367.338 191.072 367.518C202.845 368.522 214.721 368.805 226.675 368.599Z" fill="#FFF3E8"/>
<path d="M170.121 271.053C175.416 272.184 180.789 273.136 186.033 274.5C187.834 275.252 189.31 276.618 190.199 278.356C191.089 280.093 191.334 282.09 190.892 283.992C186.347 297.407 180.009 310.145 172.049 321.858C170.648 323.847 168.604 325.291 166.263 325.947C163.921 326.603 161.425 326.431 159.196 325.459C152.654 323.023 146.282 320.153 140.122 316.867C137.011 315.221 136.523 313.652 138.425 310.719C139.476 309.199 140.655 307.77 141.947 306.449C149.659 297.883 154.954 287.542 161.381 278.153C162.358 276.712 163.283 275.194 164.389 273.857C165.063 272.978 165.931 272.268 166.926 271.782C167.92 271.295 169.014 271.046 170.121 271.053Z" fill="#FFDCE9"/>
<path d="M185.75 331.376L182.357 331.119C181.393 331.19 180.428 330.987 179.574 330.534C178.719 330.082 178.01 329.397 177.527 328.559C177.044 327.721 176.806 326.763 176.842 325.797C176.878 324.83 177.186 323.893 177.73 323.093C184.851 311.62 189.889 299.092 195.724 287.079C196.778 284.97 197.678 282.757 198.758 280.674C199.257 279.486 200.136 278.498 201.258 277.865C202.379 277.231 203.679 276.989 204.953 277.175C212.099 277.793 219.246 278.719 226.443 278.641C229.811 278.641 229.631 281.445 229.297 283.297C228.397 288.442 226.855 293.253 225.775 298.269C224.001 306.398 218.731 310.925 211.2 313.858C203.985 316.725 197.741 321.599 193.205 327.903C191.072 330.913 189.015 332.585 185.75 331.376Z" fill="#FFDCE9"/>
<path d="M297.238 320.829C297.459 319.191 297.811 317.574 298.292 315.993C302.309 304.46 305.143 292.549 306.75 280.442C307.101 278.627 307.609 276.845 308.266 275.117C308.765 273.447 309.651 271.92 310.853 270.659C312.055 269.398 313.538 268.44 315.181 267.863C321.685 265.29 328.034 262.203 334.332 259.374C335.592 258.808 336.903 257.367 338.265 258.448C338.82 259.066 339.201 259.82 339.368 260.634C339.535 261.448 339.483 262.291 339.217 263.078C338.008 268.686 337.109 274.371 335.335 279.876C331.942 290.423 327.752 300.687 323.587 310.951C322.84 313.095 321.602 315.035 319.973 316.616C318.344 318.197 316.369 319.375 314.204 320.057C309.989 321.369 305.876 323.016 301.634 324.199C298.421 325.073 297.136 324.25 297.238 320.829Z" fill="#FFDCE9"/>
<path d="M156.188 269.998C155.982 272.348 155.373 274.645 154.389 276.789C150.244 287.331 143.969 296.903 135.958 304.906C131.125 309.408 127.218 310.051 122.025 306.089C118.375 303.337 114.313 301.15 111.537 297.189C108.76 293.227 108.658 291.066 111.203 287.336C116.627 279.49 120.688 270.795 126.241 263.001C129.608 258.319 130.019 258.165 135.238 260.429C141.325 263.152 147.639 265.338 154.106 266.963C156.009 267.426 156.42 268.48 156.188 269.998Z" fill="#FFDCE9"/>
<path d="M370.424 256.055C370.063 262.725 368.658 269.296 366.259 275.529C364.408 281.73 361.755 287.662 358.368 293.175C355.36 297.652 350.836 300.07 346.671 302.951C342.507 305.832 337.906 308.301 333.51 310.925C332.559 311.465 331.582 312.417 330.425 311.491C329.268 310.565 329.962 309.382 330.425 308.379C332.636 302.41 334.924 296.468 337.211 290.526C340.048 282.927 342.14 275.07 343.458 267.065C345.078 257.547 348.599 249.058 356.697 243.219C357.871 242.229 358.978 241.164 360.013 240.029C362.352 237.688 363.38 237.663 364.897 240.518C367.571 245.766 370.193 251.116 370.424 256.055Z" fill="#FFDCE9"/>
<path d="M301.865 277.818C300.349 288.699 299.141 299.607 294.616 309.793C292.894 313.626 291.48 317.511 290.041 321.524C289.29 323.778 287.893 325.761 286.023 327.225C284.153 328.689 281.894 329.569 279.527 329.755C279.322 329.729 279.115 329.729 278.91 329.755C273.28 332.045 270.247 328.649 267.445 324.61C266.684 323.438 266.213 322.101 266.07 320.71C265.927 319.319 266.116 317.914 266.622 316.61C270.427 305.112 271.763 292.995 275.774 281.497C276.123 280.009 276.946 278.674 278.119 277.695C279.292 276.716 280.752 276.146 282.277 276.069C287.485 275.428 292.639 274.414 297.701 273.033C301.3 272.107 301.814 272.57 301.891 276.249L301.865 277.818Z" fill="#FFDCE9"/>
<path d="M269.578 283.375C269.47 285.565 269.054 287.73 268.344 289.806C267.111 295.516 265.902 301.253 264.129 306.835C263.654 308.945 262.715 310.923 261.378 312.623C257.985 316.379 257.754 316.43 253.152 314.295C246.543 310.913 239.184 309.267 231.765 309.51C229.194 309.639 228.114 308.096 228.731 306.115C231.302 297.909 232.973 289.394 236.443 281.471C236.707 280.692 237.227 280.027 237.918 279.583C238.609 279.139 239.431 278.943 240.248 279.027C248.859 279.027 257.471 278.796 266.082 278.024C268.704 277.792 269.501 279.001 269.578 283.375Z" fill="#FFDCE9"/>
<path d="M405.95 456.55C405.183 473.018 410.489 489.194 420.859 502.005C423.924 506.417 428.214 509.834 433.198 511.831C428.358 521.602 420.435 529.504 410.654 534.314C411.792 530.429 412.372 526.401 412.376 522.352C412.337 515.342 410.342 508.482 406.618 502.545C405.688 501.069 404.896 499.51 404.253 497.889C402.331 492.233 398.953 487.184 394.459 483.252C393.534 482.506 393.122 481.837 393.842 480.679C398.281 472.845 402.322 464.792 405.95 456.55Z" fill="#FBFDFD"/>
<path d="M97.7581 273.882C98.249 270.555 99.1113 267.294 100.329 264.159C102.464 258.316 104.056 252.288 105.084 246.152C105.547 242.499 107.064 241.933 109.943 244.197C113.9 247.471 118.018 250.544 122.282 253.406C122.742 253.63 123.103 254.017 123.293 254.493C123.483 254.969 123.489 255.499 123.31 255.978C122.989 257.487 122.497 258.954 121.845 260.351C117.295 267.863 113.465 275.786 107.218 282.268C106.517 283.012 105.751 283.693 104.93 284.301C103.465 285.33 102.359 285.638 101.331 283.426C99.9945 280.159 97.7581 277.329 97.7581 273.882Z" fill="#FFDCE9"/>
<path d="M434.535 358.283C431.755 354.363 430.231 349.689 430.165 344.881C429.371 337.88 429.806 330.793 431.45 323.942C435.512 335.132 437.954 346.425 434.535 358.283Z" fill="#FFF3E8"/>
<path d="M368.958 284.892C370.629 278.333 372.506 272.03 374.1 265.728C377.981 270.204 378.11 274.603 374.434 278.847C372.66 280.931 370.758 282.886 368.958 284.892Z" fill="#FFDCE9"/>
<path d="M419.883 417.681C418.338 420.817 416.577 423.843 414.613 426.736C415.29 421.684 415.71 416.601 415.872 411.507C417.599 413.283 418.961 415.381 419.883 417.681Z" fill="#FBFDFD"/>
<path d="M323.073 551.086C325.181 549.877 326.441 548.077 328.214 548.771C328.908 549.029 329.577 551.755 328.677 552.296C327.135 553.325 325.412 551.858 323.073 551.086Z" fill="#FFF3E8"/>
<path d="M266.134 187.192C268.003 187.388 269.892 187.172 271.669 186.559C273.445 185.946 275.066 184.95 276.416 183.642C277.047 182.883 277.898 182.339 278.852 182.085C279.805 181.832 280.813 181.881 281.738 182.227C282.416 182.48 283.002 182.933 283.419 183.525C283.836 184.117 284.066 184.821 284.077 185.545C284.137 186.594 283.835 187.631 283.222 188.484C282.609 189.336 281.722 189.952 280.709 190.227C274.125 193.031 266.767 193.441 259.913 191.385C255.054 189.79 250.35 187.706 245.595 185.803C244.052 185.211 242.561 184.542 241.07 183.848C233.024 180.066 225.492 179.68 217.575 184.979C211.133 189.456 203.773 192.435 196.033 193.7C189.889 194.6 183.694 194.703 178.039 191.128C176.976 190.501 175.992 189.75 175.108 188.89C173.514 187.217 172.923 185.185 174.851 183.462C175.229 183.096 175.688 182.826 176.191 182.673C176.693 182.52 177.225 182.488 177.742 182.581C178.259 182.674 178.747 182.889 179.165 183.207C179.583 183.526 179.92 183.939 180.147 184.414C180.969 185.737 182.101 186.84 183.445 187.629C184.788 188.418 186.303 188.868 187.858 188.941C191.309 189.278 194.792 188.991 198.141 188.092C207.169 185.3 215.71 181.126 223.462 175.719C226.289 173.738 226.932 170.137 226.032 165.635C225.288 162.277 223.486 159.247 220.891 156.992C219.264 155.57 217.837 153.935 216.649 152.13C216.312 151.739 216.112 151.248 216.079 150.732C216.047 150.217 216.184 149.705 216.469 149.274C216.828 148.833 217.323 148.522 217.876 148.392C218.43 148.262 219.011 148.319 219.528 148.554C220.306 148.822 221.062 149.149 221.791 149.532C224.344 150.882 227.147 151.69 230.027 151.907C232.906 152.124 235.799 151.744 238.525 150.792C239.297 150.535 240.093 150.303 240.89 150.123C242.381 149.763 243.872 149.634 244.566 151.358C245.26 153.081 244.258 154.265 242.716 155.011C238.272 157.246 234.666 160.854 232.433 165.3C231.752 166.376 231.336 167.598 231.219 168.866C231.101 170.133 231.286 171.411 231.758 172.593C232.229 173.776 232.974 174.83 233.932 175.668C234.889 176.506 236.032 177.106 237.266 177.417C244.309 179.989 251.224 182.844 258.216 185.571C260.651 186.846 263.395 187.408 266.134 187.192ZM227.575 156.914C228.423 157.943 228.346 159.693 229.605 159.744C230.865 159.795 231.276 158.355 231.713 157.172C230.373 156.761 228.955 156.673 227.575 156.914Z" fill="#FF7596"/>
<path d="M286.879 135.975C283.692 135.987 280.509 136.168 277.342 136.515C272.946 136.721 271.352 134.406 272.972 130.316C275.542 123.447 279.501 121.055 286.827 122.058C297.736 123.385 308.335 126.579 318.163 131.499C319.68 132.271 321.068 132.965 321.197 134.972C321.197 136.078 322.302 136.644 323.047 137.313C324.744 138.856 326.286 140.682 324.821 142.895C323.356 145.107 320.939 144.155 319.012 143.255C312.618 140.195 305.81 138.089 298.806 137.004C294.873 136.277 290.879 135.932 286.879 135.975Z" fill="#FF7596"/>
<path d="M168.065 123.01C172.318 122.945 176.552 123.606 180.583 124.965C185.365 126.688 186.419 128.541 185.725 133.608C185.493 135.126 187.164 137.184 184.516 137.93C182.768 138.419 181.406 137.107 179.889 136.566C170.25 133.068 160.661 134.483 151.124 136.978C147.064 138.088 143.114 139.569 139.325 141.403C137.86 142.097 136.266 142.509 135.186 140.888C134.107 139.268 135.058 137.827 136.523 136.772C136.909 136.464 137.577 136.155 137.628 135.795C138.271 131.319 142.127 130.11 145.34 128.566C152.467 125.209 160.194 123.32 168.065 123.01Z" fill="#FF7596"/>
<path d="M276.416 87.9735C277.069 84.4984 278.803 81.3187 281.37 78.8886C283.937 76.4585 287.205 74.9024 290.709 74.4426C291.94 74.2487 293.202 74.4295 294.329 74.9616C295.457 75.4936 296.399 76.3525 297.033 77.4267C297.771 78.6862 298.082 80.1509 297.92 81.6021C297.758 83.0534 297.131 84.4131 296.133 85.4783C294.372 87.4243 292.221 88.9775 289.821 90.0368C287.42 91.096 284.824 91.6377 282.2 91.6264C281.506 91.6264 280.786 91.6264 280.067 91.6264C278.416 90.9375 277.105 89.6248 276.416 87.9735ZM283.28 86.816C286.583 86.3855 289.658 84.8965 292.046 82.5715C292.348 82.2888 292.56 81.9234 292.656 81.5209C292.752 81.1184 292.727 80.6965 292.585 80.3078C292.443 79.9719 292.175 79.7055 291.838 79.5659C291.502 79.4263 291.124 79.4248 290.786 79.5617C287.331 80.2266 284.265 82.1982 282.226 85.0668C281.558 86.0185 281.558 86.8417 283.254 86.816H283.28Z" fill="#FF7596"/>
<path d="M97.8352 123.499C103.964 123.398 110.079 124.134 116.01 125.685C117.01 125.9 117.978 126.246 118.889 126.714C119.178 126.828 119.441 127 119.66 127.221C119.878 127.442 120.049 127.706 120.16 127.997C120.272 128.287 120.321 128.598 120.306 128.908C120.29 129.219 120.21 129.523 120.071 129.801C119.962 130.066 119.801 130.306 119.597 130.508C119.393 130.709 119.151 130.867 118.884 130.973C118.618 131.079 118.333 131.129 118.047 131.123C117.761 131.116 117.479 131.051 117.218 130.933C107.788 128.316 97.9403 127.556 88.2211 128.695C86.653 128.695 85.2392 128.695 84.9564 126.714C84.6737 124.733 86.0361 124.142 87.527 123.91C90.9461 123.492 94.3937 123.354 97.8352 123.499Z" fill="#FF7596"/>
<path d="M334.332 128.103C335.145 126.66 336.479 125.583 338.06 125.094C345.118 121.99 352.51 119.711 360.09 118.302C360.896 118.161 361.715 118.11 362.532 118.148C362.814 118.108 363.102 118.126 363.378 118.199C363.653 118.273 363.911 118.401 364.137 118.576C364.362 118.751 364.55 118.97 364.689 119.219C364.829 119.468 364.917 119.742 364.948 120.026C365.011 120.333 365.01 120.649 364.946 120.955C364.882 121.262 364.755 121.552 364.575 121.807C364.394 122.063 364.163 122.278 363.895 122.441C363.628 122.604 363.33 122.71 363.02 122.753C361.324 123.19 359.576 123.37 357.879 123.807C351.621 124.902 345.558 126.913 339.885 129.775C337.726 130.315 335.232 131.833 334.332 128.103Z" fill="#FF7596"/>
<path d="M362.763 152.721L353.535 150.921C350.675 150.281 347.77 149.86 344.846 149.66L341.299 149.146C339.628 148.888 339.319 147.782 339.268 146.573C339.216 145.364 340.296 144.49 341.684 144.438C345.971 144.504 350.238 145.039 354.409 146.033C356.914 146.51 359.387 147.146 361.812 147.937C364.794 148.966 365.051 150.638 362.763 152.721Z" fill="#FF7596"/>
<path d="M94.185 151.306C92.9254 150.766 91.2288 150.56 91.4087 148.605C91.5887 146.65 93.0282 146.367 94.4421 146.033C100.349 144.269 106.509 143.504 112.668 143.769C114.21 143.769 116.035 144.027 115.932 146.162C115.83 148.297 114.004 148.22 112.462 148.194C106.23 148.088 100.032 149.144 94.185 151.306Z" fill="#FF7596"/>
<path d="M356.363 47.2521C356.424 49.722 356.147 52.1887 355.54 54.5835C354.075 58.9052 350.836 61.0917 346.697 59.291C338.985 55.9726 330.836 53.5545 323.999 48.3839C320.143 45.4514 319.68 42.1073 323.304 38.9175C328.341 34.1735 334.402 30.6528 341.016 28.6278C343.274 27.7937 345.763 27.8446 347.984 28.7701C350.206 29.6956 351.996 31.4275 352.995 33.6183C355.375 37.7562 356.542 42.4812 356.363 47.2521ZM351.376 45.7858C351.269 42.5623 350.387 39.4122 348.805 36.6022C348.603 35.8987 348.248 35.2483 347.767 34.6972C347.286 34.146 346.689 33.7076 346.019 33.413C345.349 33.1184 344.623 32.9748 343.892 32.9925C343.16 33.0102 342.442 33.1887 341.787 33.5154C336.663 35.0642 331.966 37.7755 328.06 41.4384C326.184 43.1362 326.492 44.0109 328.446 45.2713C333.073 48.4354 338.471 49.9531 343.432 52.3455C350.373 55.5096 351.299 54.9693 351.376 45.6572V45.7858Z" fill="#FF7596"/>
<path d="M124.75 26.1581C126.301 26.0481 127.858 26.2661 129.32 26.7979C130.781 27.3298 132.114 28.1636 133.233 29.2451C135.519 31.293 137.682 33.4749 139.711 35.779C140.352 36.72 140.726 37.8172 140.794 38.9541C140.862 40.0911 140.621 41.2251 140.096 42.2358C139.153 44.6416 137.493 46.6985 135.341 48.1266C128.811 53.0914 122.308 58.0819 115.65 62.8923C110.328 66.7509 106.395 65.1047 106.113 58.545C105.218 48.8254 108.038 39.1278 114.004 31.4059C115.199 29.6862 116.814 28.3012 118.695 27.3826C120.575 26.4641 122.66 26.0425 124.75 26.1581ZM111.1 56.024C111.408 56.8472 110.56 58.3391 111.768 58.9051C112.976 59.471 113.67 58.0304 114.57 57.4388C115.47 56.8471 116.524 55.9468 117.526 55.2008C122.667 51.3679 127.809 47.4835 132.719 43.6763C134.287 42.4415 136.472 40.8209 135.289 38.5315C134.415 36.5969 133.102 34.8926 131.456 33.5532C129.81 32.2138 127.875 31.276 125.804 30.8142C121.639 30.1197 119.094 32.7436 116.961 35.779C112.642 41.9014 111.537 48.744 111.048 56.024H111.1Z" fill="#FF7596"/>
<path d="M168.604 73.1049C168.51 72.016 168.725 70.9227 169.226 69.9512C169.726 68.9798 170.492 68.17 171.433 67.6156C172.374 67.0612 173.453 66.7849 174.545 66.8185C175.636 66.8522 176.696 67.1944 177.602 67.8057C179.641 69.0294 181.34 70.7483 182.539 72.8032C183.739 74.8581 184.402 77.1827 184.465 79.5617C184.645 82.3914 182.923 83.8577 180.044 83.8577C177.168 83.727 174.434 82.5711 172.336 80.599C170.238 78.6269 168.915 75.9686 168.604 73.1049ZM179.735 79.0987C179.196 76.6974 177.993 74.4959 176.265 72.7448C175.597 72.1532 174.774 71.4071 173.874 72.256C173.7 72.4218 173.561 72.6214 173.467 72.8425C173.372 73.0636 173.323 73.3017 173.323 73.5423C173.323 73.7829 173.372 74.0209 173.467 74.242C173.561 74.4631 173.7 74.6627 173.874 74.8285C175.378 76.7852 177.413 78.2676 179.735 79.0987Z" fill="#FF7596"/>
<path d="M272.38 464.242C274.126 464.345 275.832 464.81 277.39 465.607C278.947 466.404 280.323 467.516 281.429 468.872C285.326 472.989 289.932 476.37 295.027 478.853C296.004 479.29 297.598 480.962 298.266 478.853C298.935 476.744 300.837 474.557 297.701 473.014C294.565 471.47 291.326 470.184 288.138 468.743C285.597 467.629 283.219 466.176 281.069 464.422C279.736 463.346 278.771 461.88 278.31 460.229C277.85 458.578 277.915 456.824 278.498 455.212C278.726 454.334 279.153 453.52 279.746 452.834C280.339 452.148 281.083 451.609 281.919 451.258C282.755 450.907 283.661 450.754 284.566 450.81C285.47 450.867 286.35 451.132 287.136 451.585C288.345 452.209 289.406 453.086 290.246 454.158C298.806 465.759 311.171 472.165 323.664 478.338C326.772 479.93 329.974 481.33 333.252 482.532C335.496 483.33 337.484 484.716 339.011 486.544C339.905 487.485 340.488 488.679 340.681 489.963C340.874 491.247 340.668 492.559 340.09 493.722C339.591 494.807 338.771 495.714 337.742 496.321C336.713 496.928 335.523 497.206 334.332 497.117C330.373 497.166 326.553 495.66 323.69 492.924C320.939 490.352 318.189 487.985 315.541 485.387C315.199 484.963 314.766 484.62 314.275 484.385C313.783 484.15 313.245 484.028 312.7 484.028C312.156 484.028 311.618 484.15 311.126 484.385C310.635 484.62 310.202 484.963 309.86 485.387C307.855 487.342 309.371 489.04 310.708 490.532C313.279 492.759 316.174 494.581 319.294 495.934C322.617 497.565 325.74 499.576 328.6 501.928C333.741 506.301 333.741 512.217 327.957 515.536C322.68 518.557 318.468 523.14 315.901 528.655C315.014 530.414 313.685 531.912 312.045 533.002C311.082 533.801 309.884 534.261 308.635 534.313C307.386 534.364 306.154 534.003 305.13 533.285C304.145 532.609 303.401 531.635 303.008 530.506C302.615 529.377 302.593 528.151 302.945 527.009C303.768 524.122 305.476 521.566 307.829 519.703C309.551 518.082 311.351 516.539 312.97 514.815C313.9 513.903 314.517 512.721 314.734 511.436C314.951 510.152 314.757 508.831 314.178 507.664C313.339 505.549 311.972 503.684 310.208 502.248C308.444 500.811 306.342 499.851 304.102 499.458C303.048 499.184 301.933 499.265 300.93 499.688C299.926 500.111 299.09 500.853 298.549 501.799C296.15 505.761 293.725 509.696 291.274 513.606C290.963 513.95 290.765 514.383 290.71 514.843C290.655 515.304 290.744 515.771 290.966 516.179C291.583 517.259 292.662 517.234 293.691 517.105C294.651 516.898 295.542 516.45 296.28 515.801C297.018 515.153 297.578 514.327 297.906 513.401C298.764 511.309 299.859 509.324 301.171 507.484C302.842 505.555 304.796 504.268 307.392 505.606C308.506 506.172 309.397 507.096 309.924 508.229C310.451 509.363 310.582 510.64 310.297 511.857C310.066 513.4 309.386 514.84 308.343 515.999C305.207 519.626 301.84 523.073 298.858 526.88C296.75 529.453 293.177 529.453 289.912 527.343C288.107 525.975 286.573 524.283 285.388 522.353C281.069 516.23 275.516 512.346 267.65 512.423C266.813 512.53 265.962 512.397 265.197 512.04C264.432 511.683 263.783 511.116 263.326 510.406C262.869 509.696 262.622 508.87 262.614 508.026C262.606 507.181 262.837 506.351 263.28 505.632C266.314 499.741 269.758 494.082 272.534 488.037C272.813 487.383 273.24 486.805 273.783 486.348C274.326 485.891 274.969 485.568 275.659 485.405C276.35 485.242 277.069 485.244 277.759 485.411C278.448 485.578 279.089 485.904 279.629 486.364C281.163 487.144 282.332 488.491 282.889 490.119C283.446 491.747 283.346 493.529 282.611 495.085C281.183 497.458 279.455 499.637 277.47 501.567C276.699 502.493 275.516 503.548 276.827 504.706C278.138 505.863 279.141 504.706 280.015 503.908C282.354 501.336 284.693 498.969 286.93 496.448C287.887 495.483 288.445 494.192 288.493 492.833C288.54 491.474 288.074 490.147 287.187 489.117C285.183 486.372 282.701 484.01 279.861 482.146C278.881 481.359 277.646 480.958 276.391 481.02C275.136 481.081 273.947 481.601 273.049 482.48C271.347 483.976 269.995 485.83 269.09 487.908C267.65 490.738 266.185 493.567 264.54 496.294C263.726 497.595 262.662 498.72 261.408 499.603C260.154 500.487 258.737 501.111 257.239 501.439C256.163 501.82 254.997 501.869 253.893 501.58C252.789 501.291 251.796 500.677 251.044 499.818C250.365 498.906 249.96 497.818 249.878 496.683C249.796 495.548 250.04 494.414 250.581 493.413C251.362 491.724 252.442 490.19 253.769 488.885C258.083 484.308 261.284 478.798 263.126 472.782C264.643 467.149 268.139 464.293 272.38 464.242Z" fill="#FF7596"/>
<path d="M321.505 447.649C318.35 447.724 315.22 448.226 312.199 449.141C308.961 450.027 305.561 450.146 302.268 449.489C298.975 448.833 295.881 447.419 293.228 445.36C291.186 443.748 289.83 441.42 289.434 438.847C289.038 436.275 289.631 433.647 291.094 431.495C291.589 430.641 292.288 429.924 293.129 429.408C293.969 428.892 294.925 428.594 295.91 428.54C296.895 428.487 297.877 428.679 298.769 429.101C299.66 429.522 300.433 430.159 301.017 430.954C302.409 432.621 303.402 434.582 303.922 436.691C304.286 437.881 305.045 438.912 306.073 439.613C307.101 440.315 308.337 440.645 309.577 440.549C310.405 440.582 311.23 440.432 311.994 440.112C314.564 439.186 317.752 438.903 318.086 435.353C318.42 431.803 315.104 431.829 313.176 430.62C310.22 428.768 306.981 427.353 303.999 425.475C302.731 424.706 301.641 423.675 300.803 422.451C299.965 421.227 299.398 419.837 299.14 418.376C298.882 416.915 298.939 415.415 299.307 413.977C299.675 412.54 300.346 411.198 301.274 410.041C303.382 407.468 306.595 407.211 308.292 409.886C317.469 424.446 331.17 432.112 347.443 436.022C353.369 437.384 358.946 439.969 363.817 443.611C366.771 445.697 369.085 448.565 370.501 451.894C371.262 453.431 371.47 455.183 371.091 456.856C370.712 458.529 369.768 460.019 368.419 461.077C365.848 462.801 362.712 462.338 359.756 459.611C358.123 458.194 356.665 456.588 355.411 454.826C351.979 449.42 346.77 445.381 340.682 443.405C338.445 442.659 336.337 441.578 334.127 440.832C333.484 440.575 332.481 439.649 332.07 440.832C331.659 442.016 332.893 442.119 333.664 442.35C338.152 443.849 342.395 445.999 346.26 448.73C348.834 450.357 350.87 452.711 352.109 455.495C353.349 458.278 353.738 461.366 353.226 464.37C351.144 474.222 340.605 477.567 332.533 474.454C330.132 473.498 327.945 472.073 326.1 470.262C324.255 468.451 322.789 466.291 321.788 463.907C321.471 463.153 321.23 462.368 321.068 461.566C320.014 456.421 322.25 451.791 326.081 450.942C329.911 450.093 333.792 453.514 335.026 458.505C335.302 459.708 335.5 460.929 335.618 462.158C335.798 463.907 336.492 465.116 338.445 465.065C339.235 465.074 339.999 464.786 340.585 464.256C341.171 463.727 341.536 462.996 341.607 462.209C341.855 460.892 341.747 459.533 341.296 458.271C340.844 457.01 340.064 455.892 339.037 455.032C334.05 450.453 328.548 447.212 321.505 447.649Z" fill="#FF7596"/>
<path d="M339.936 164.143C340.892 164.195 341.801 164.576 342.507 165.223C346.013 168.081 349.296 171.203 352.327 174.561C353.432 175.744 354.357 177.134 352.866 178.6C351.375 180.066 350.013 178.909 348.831 177.802L339.036 168.439C338.566 168.114 338.218 167.642 338.045 167.097C337.873 166.552 337.887 165.965 338.085 165.429C338.227 165.052 338.479 164.726 338.81 164.497C339.141 164.267 339.534 164.143 339.936 164.143Z" fill="#FF7596"/>
<path d="M278.113 551.266C268.704 552.038 255.26 544.784 250.607 532.848C249.682 530.456 248.756 528.063 247.857 525.671C247.266 524.076 246.854 522.404 248.345 521.118C249.836 519.831 251.61 520.397 253.255 521.118C259.193 523.896 264.669 527.549 270.452 530.661C277.187 534.359 283.662 538.511 289.835 543.086C291.146 544.038 292.406 545.118 292.251 546.713C292.053 547.569 291.606 548.346 290.965 548.946C290.324 549.547 289.519 549.942 288.652 550.083C285.212 550.972 281.664 551.37 278.113 551.266Z" fill="#FFDCE9"/>
<path d="M114.956 163.628C114.956 165.635 106.37 170.805 104.673 169.725C104.336 169.574 104.046 169.335 103.833 169.033C103.621 168.731 103.493 168.377 103.464 168.008C103.435 167.64 103.506 167.27 103.669 166.939C103.832 166.607 104.081 166.326 104.39 166.124C106.579 164.053 109.219 162.521 112.102 161.648C112.422 161.527 112.766 161.485 113.105 161.527C113.444 161.569 113.768 161.693 114.049 161.887C114.33 162.082 114.559 162.343 114.717 162.646C114.875 162.949 114.957 163.286 114.956 163.628Z" fill="#FF7596"/>
<path d="M227.574 156.914C228.953 156.664 230.371 156.744 231.713 157.146C231.276 158.355 230.582 159.718 229.605 159.718C228.628 159.718 228.474 157.866 227.574 156.914Z" fill="#FFDCE9"/>
<path d="M283.254 86.8159C281.557 86.8159 281.557 86.0185 282.2 85.0667C284.24 82.1982 287.305 80.2266 290.76 79.5617C291.098 79.4248 291.476 79.4263 291.813 79.5658C292.149 79.7054 292.418 79.9719 292.56 80.3077C292.702 80.6964 292.726 81.1183 292.63 81.5208C292.534 81.9233 292.322 82.2887 292.02 82.5715C289.633 84.8964 286.557 86.3855 283.254 86.8159Z" fill="#FFF3E8"/>
<path d="M351.375 45.6571C351.375 54.8921 350.373 55.5095 343.484 52.2168C338.522 49.8244 333.201 48.3067 328.497 45.1426C326.543 43.8307 326.235 43.0075 328.111 41.3097C332.017 37.6469 336.714 34.9355 341.838 33.3866C342.493 33.06 343.212 32.8816 343.943 32.8639C344.674 32.8462 345.4 32.9897 346.07 33.2843C346.74 33.5789 347.337 34.0173 347.818 34.5684C348.3 35.1196 348.654 35.77 348.856 36.4736C350.42 39.2881 351.284 42.438 351.375 45.6571Z" fill="#FFDCE9"/>
<path d="M111.048 56.024C111.537 48.7441 112.642 41.9015 116.806 35.9334C118.94 32.898 121.485 30.2741 125.649 30.9687C127.72 31.4305 129.656 32.3682 131.302 33.7076C132.948 35.047 134.261 36.7514 135.135 38.686C136.42 40.8982 134.235 42.5189 132.564 43.8308C127.552 47.7409 122.436 51.548 117.372 55.3552C116.369 56.1012 115.444 56.9244 114.416 57.5932C113.388 58.262 112.771 59.5997 111.614 59.0595C110.457 58.5193 111.357 56.8472 111.048 56.024Z" fill="#FFDCE9"/>
<path d="M179.735 79.0987C177.44 78.2292 175.442 76.7207 173.977 74.7513C173.803 74.5855 173.664 74.3859 173.569 74.1648C173.474 73.9437 173.426 73.7056 173.426 73.465C173.426 73.2245 173.474 72.9864 173.569 72.7653C173.664 72.5442 173.803 72.3446 173.977 72.1788C174.877 71.3299 175.699 72.1788 176.368 72.6676C178.071 74.4524 179.238 76.6811 179.735 79.0987Z" fill="#FFDCE9"/>
</svg>
