<svg width="69" height="56" viewBox="0 0 69 56" fill="none" xmlns="http://www.w3.org/2000/svg">
<g clip-path="url(#clip0_212_42)">
<path d="M0.858696 32.1048L1.78388 27.2991C2.11947 25.226 2.2304 23.1222 2.11446 21.0249C2.11446 17.5541 2.11446 15.4182 2.11446 14.3503C2.13528 12.4091 2.54409 10.4921 3.31637 8.71432C4.08864 6.93657 5.20842 5.33478 6.60866 4.00474C8.29501 2.16879 10.4747 0.868891 12.881 0.264322C15.2873 -0.340247 17.8158 -0.223339 20.1574 0.600619C22.0797 1.16321 23.8711 2.10844 25.4262 3.38083C26.9812 4.65321 28.2686 6.22713 29.2122 8.00955C30.8804 10.9864 31.5525 14.4276 31.1287 17.8212C31.1287 18.4887 31.1287 19.4898 31.1287 20.8247C31.1287 22.1596 31.1287 23.0941 31.1287 23.7615C30.9113 27.9612 31.1774 32.1722 31.9218 36.3098C32.3852 38.847 32.3852 41.4484 31.9218 43.9856C31.3194 47.3508 29.5363 50.3841 26.8989 52.5291C24.2502 54.7026 20.9261 55.8609 17.5138 55.7996C15.0043 55.8019 12.5241 55.2554 10.2436 54.1977C7.93755 53.1417 5.88559 51.5932 4.22925 49.6591C1.89576 47.0061 0.582468 43.5956 0.528115 40.0476C0.313367 37.3964 0.424485 34.7285 0.858696 32.1048ZM13.6806 30.7698C13.5811 31.9245 13.5811 33.086 13.6806 34.2407C13.6806 35.5089 14.2092 36.2431 15.2005 36.5101C15.6712 36.6751 16.1838 36.6723 16.6528 36.5023C17.1217 36.3323 17.5189 36.0052 17.7782 35.5755C18.1679 35.1296 18.5009 34.6363 18.7696 34.1071C19.0002 33.3914 19.1553 32.6532 19.2323 31.9046C19.3356 30.6831 19.3356 29.4551 19.2323 28.2336C19.2323 26.9654 19.2321 25.0297 18.7034 22.4933C18.7359 22.0935 18.7359 21.6918 18.7034 21.292C18.6343 20.8489 18.4679 20.427 18.2163 20.0574C17.9647 19.6878 17.6343 19.3798 17.2494 19.156C17.0364 19.0392 16.7979 18.978 16.5555 18.978C16.3131 18.978 16.0745 19.0392 15.8615 19.156C15.6282 19.2002 15.4071 19.2946 15.2132 19.4329C15.0194 19.5711 14.8574 19.7498 14.738 19.957C14.3446 20.5487 14.137 21.2467 14.143 21.9595V25.0965C14.2572 27.0003 14.1015 28.9106 13.6806 30.7698Z" fill="#DEFFFF"/>
<path d="M64.043 34.2408C65.2624 34.7647 66.3309 35.5911 67.1494 36.6435C67.9619 37.6632 68.4869 38.8853 68.6693 40.1811C69.3476 43.4934 68.8566 46.9411 67.2815 49.9261C66.6729 51.1204 65.8428 52.1855 64.8361 53.0632C63.7335 54.0068 62.3132 54.4847 60.8705 54.398C60.1647 54.3272 59.4818 54.1061 58.8667 53.7495C58.2515 53.3928 57.7182 52.9087 57.3017 52.3289C56.4431 51.2874 55.7516 50.1163 55.2527 48.8582L53.4683 43.7854L52.5431 41.1156C52.2126 39.9142 51.8821 39.0465 51.6839 38.4458C51.3958 37.6362 50.9951 36.8722 50.4941 36.1765C50.4476 36.01 50.3391 35.868 50.1911 35.7809C50.0432 35.6937 49.8674 35.6681 49.701 35.7092C49.5405 35.7213 49.3888 35.7869 49.2692 35.8956C49.1495 36.0043 49.069 36.15 49.0402 36.3099C48.792 37.0179 48.658 37.7615 48.6435 38.5124C48.6435 40.1811 48.6435 41.6495 48.6435 42.9177C48.9039 44.7773 48.9039 46.6647 48.6435 48.5243C48.47 49.9602 47.9357 51.3274 47.0912 52.4957C46.2467 53.664 45.1202 54.5945 43.8189 55.1989C43.096 55.6215 42.2961 55.8926 41.4671 55.9958C40.6381 56.099 39.797 56.0322 38.9941 55.7996C38.0298 55.6023 37.138 55.1406 36.4166 54.4648C35.7443 53.7738 35.3049 52.8862 35.1609 51.9285C34.9323 50.8505 34.9323 49.7359 35.1609 48.658C35.4913 45.9214 35.6895 43.9189 35.8878 42.5172C36.3121 39.4631 36.5768 36.3885 36.6809 33.3062C36.7379 28.5045 36.25 23.7122 35.2268 19.0227C34.4337 15.5519 33.9711 13.1489 33.839 12.0142C33.6383 10.5081 33.6383 8.98163 33.839 7.47551C33.9662 5.56024 34.8183 3.76781 36.2184 2.46955C37.5736 1.0963 39.3895 0.286505 41.3074 0.200204C42.5153 0.112311 43.7193 0.416347 44.7441 1.06794C45.8007 1.7318 46.5952 2.7466 46.9912 3.93797C47.4308 5.13403 47.6547 6.39994 47.6522 7.67574C47.7176 8.85399 47.7176 10.035 47.6522 11.2133C47.4192 12.9407 47.4192 14.692 47.6522 16.4195C47.7085 16.6454 47.8226 16.8525 47.9827 17.0202C48.1468 17.1846 48.3526 17.3002 48.5775 17.354C48.8219 17.402 49.0751 17.3612 49.2928 17.2391C49.5104 17.117 49.6784 16.9214 49.7671 16.6865C50.2849 15.6438 50.7481 14.5743 51.155 13.4826L51.7498 11.814C52.0142 11.0575 52.2787 10.3901 52.5431 9.81166C52.5431 9.21095 53.0056 8.61017 53.2039 8.0762C53.9309 6.54104 54.6578 5.07266 55.451 3.73774C55.9889 2.74373 56.7329 1.87857 57.6321 1.20135C58.67 0.340741 59.9932 -0.08875 61.3332 -2.66619e-05C62.7018 0.0509301 64.0005 0.623194 64.9682 1.60182C66.5186 3.18454 67.3962 5.31604 67.4138 7.54232C67.5642 9.83199 67.1556 12.1239 66.224 14.2169C65.24 16.6895 63.8053 18.9536 61.9942 20.8915L60.2757 22.7604L58.8217 24.162C58.2197 24.7846 57.6672 25.4543 57.1694 26.1645C56.6483 26.9233 56.4354 27.8549 56.5746 28.7675C56.6262 29.2272 56.7701 29.6713 56.9974 30.073C57.2246 30.4747 57.5306 30.8254 57.8965 31.1037C58.4566 31.587 59.0792 31.9911 59.7471 32.3051L62.2586 33.4398L63.25 33.8403L64.043 34.2408Z" fill="#DEFFFF"/>
</g>
<defs>
<clipPath id="clip0_212_42">
<rect width="69" height="56" fill="white"/>
</clipPath>
</defs>
</svg>
