<svg width="125" height="218" viewBox="0 0 125 218" fill="none" xmlns="http://www.w3.org/2000/svg">
<path d="M0.0513603 155.369C0.745641 135.814 4.20132 116.454 10.3163 97.8613C13.8063 86.5184 17.8353 75.3291 18.9388 63.3973C19.2711 60.5688 18.901 57.7023 17.861 55.0502C14.8233 47.2552 14.53 38.6618 17.0292 30.6787C19.5283 22.6956 24.6716 15.7966 31.6159 11.1125C35.4788 8.07655 39.5907 5.36998 43.9081 3.02141C47.7091 1.0655 51.9237 0.0449219 56.2003 0.0449219C60.477 0.0449219 64.6917 1.0655 68.4926 3.02141C70.2913 3.77125 72.2606 4.01906 74.1896 3.73834C78.9647 3.30759 83.7701 4.11905 88.1373 6.09354C92.5044 8.06802 96.2841 11.1381 99.1076 15.0044C99.4416 15.5279 99.8575 15.9948 100.339 16.3871C111.477 24.6574 115.326 36.3588 115.942 49.5196C115.948 52.9143 115.212 56.2694 113.786 59.3518C112.04 64.0602 111.476 69.124 112.144 74.1001C113.996 88.6784 116.704 103.136 120.253 117.398C122.848 127.31 124.125 137.52 124.051 147.765C123.477 161.121 119.214 174.058 111.733 185.148C101.751 200.127 88.8684 211.341 70.9048 215.694C43.2923 222.351 6.05631 204.684 1.07783 169.811C0.282444 165.04 -0.0612181 160.205 0.0513603 155.369ZM37.5696 207.245C47.2719 211.845 58.2339 213.088 68.7235 210.778C83.0431 207.782 94.0522 199.461 102.957 188.297C117.841 169.682 121.844 148.635 116.763 125.566C113.838 112.277 110.45 99.0903 108.449 85.6223C107.781 81.1414 107.217 76.635 106.575 71.9237C106.178 72.128 105.8 72.368 105.446 72.6406C103.525 74.9215 101.151 76.7812 98.4752 78.1031C95.799 79.425 92.8777 80.1805 89.8949 80.3221C89.1837 80.4313 88.5075 80.7029 87.9189 81.1158C84.2911 83.3899 80.1193 84.6533 75.8366 84.7749C71.554 84.8965 67.3169 83.8717 63.5654 81.8071C63.0513 81.4904 62.4693 81.2998 61.8671 81.2508C61.2649 81.2019 60.6597 81.296 60.101 81.5255C55.3697 83.3237 50.1772 83.5209 45.3225 82.0868C40.4679 80.6526 36.2201 77.6665 33.2326 73.588C30.923 70.5154 29.8452 66.3675 25.6623 64.7032C23.9686 64.0374 23.5066 63.7558 23.2757 65.8554C22.5191 72.3568 21.2055 78.7814 19.3493 85.059C16.7831 94.5071 13.3187 103.75 11.3171 113.378C10.2136 118.166 8.75084 122.903 8.00664 127.716C5.44041 141.953 3.61842 156.266 6.38994 170.681C9.85434 188.528 20.6581 200.485 37.5696 207.245ZM91.6656 75.3036C94.6639 74.908 97.4587 73.5719 99.6466 71.4884C104.337 67.194 107.8 61.7331 109.681 55.6647C111.588 49.6395 111.213 43.1256 108.628 37.3573C106.062 30.7001 103.496 23.9148 96.6441 20.1253C96.2117 19.8349 95.8518 19.4495 95.5919 18.9987C89.6126 10.3699 81.0671 7.88628 71.1101 8.75684C69.7829 8.94587 68.4303 8.69394 67.2608 8.03991C59.7674 3.6359 52.3254 4.148 44.678 7.88629C41.4959 9.44818 39.058 11.9319 36.1068 13.7498C29.6612 17.5305 24.7321 23.4279 22.1623 30.4335C19.5924 37.4391 19.5415 45.1179 22.0182 52.1569C23.0829 55.4091 25.2403 58.1948 28.1259 60.0431C28.1259 58.2508 27.8949 57.0218 27.8692 55.8183C27.7252 49.8686 28.8628 43.9573 31.2053 38.484C31.7956 37.0501 32.7707 35.9235 34.4901 36.538C36.2095 37.1525 36.1581 38.6632 35.7475 40.1483C35.7475 40.5323 35.4653 40.9164 35.337 41.3005C33.2338 46.6555 32.357 52.4118 32.7707 58.1484C33.438 68.211 41.0339 78.6321 53.4288 78.0432C57.9967 77.8128 59.5878 76.5069 60.6656 72.1285C61.4088 67.5928 61.7437 62.9998 61.6664 58.4044C61.6664 56.6377 62.1283 54.9734 64.3866 55.127C66.6449 55.2807 66.5166 56.9706 66.5422 58.5837C66.6681 63.9035 66.1337 69.2185 64.9512 74.4074C64.7202 75.3035 63.976 76.2509 65.3618 76.9678C71.9057 80.6293 83.1971 81.6535 87.5853 72.4358C88.5498 70.5219 89.4066 68.5558 90.1515 66.5467C92.0863 59.9417 92.2191 52.9411 90.5364 46.2677C90.2542 44.7571 90.1772 42.9392 92.2302 42.5807C94.2831 42.2223 94.976 43.7841 95.284 45.346C96.3316 49.9366 96.729 54.6511 96.4644 59.3518C95.9249 64.9375 94.2761 70.3602 91.6143 75.3036H91.6656Z" fill="#FF7596"/>
<path d="M11.3171 113.275C13.3188 103.648 16.7062 94.4046 19.3494 84.9565C21.2056 78.6789 22.5192 72.2543 23.2757 65.7529C23.5067 63.6533 23.9686 63.9349 25.6623 64.6007C29.8453 66.265 30.7948 70.4129 33.2327 73.4855C36.2068 77.5665 40.4411 80.5607 45.2856 82.0085C50.1301 83.4563 55.3169 83.2775 60.0497 81.4998C60.6084 81.2703 61.2137 81.1762 61.8159 81.2251C62.4181 81.2741 63.0001 81.4648 63.5142 81.7815C67.2656 83.8461 71.5028 84.8709 75.7854 84.7493C80.068 84.6277 84.2399 83.3642 87.8676 81.0901C88.4562 80.6772 89.1325 80.4056 89.8436 80.2964C92.8265 80.1548 95.7478 79.3994 98.424 78.0775C101.1 76.7556 103.474 74.8958 105.395 72.615C105.749 72.3423 106.127 72.1023 106.524 71.898C107.166 76.6093 107.73 81.1157 108.397 85.5966C110.399 99.0647 113.786 112.251 116.712 125.54C121.844 148.584 117.79 169.657 102.906 188.272C94.0009 199.435 82.9918 207.757 68.6722 210.752C58.2018 213.059 47.2599 211.825 37.5696 207.245C39.7839 201.094 41.064 194.647 41.3676 188.118C41.8978 180.062 41.5278 171.972 40.2642 163.998C38.4836 152.673 34.4527 141.818 28.4082 132.069C23.6589 125.007 17.9011 118.676 11.3171 113.275Z" fill="white"/>
<path d="M91.6142 75.3036C94.2882 70.3543 95.9458 64.9225 96.49 59.3262C96.7545 54.6255 96.3572 49.911 95.3095 45.3204C95.0016 43.7585 94.1804 42.2223 92.2557 42.5551C90.331 42.888 90.2797 44.7315 90.562 46.2422C92.2447 52.9156 92.1118 59.9161 90.1771 66.5211C89.4321 68.5302 88.5754 70.4964 87.6108 72.4102C83.2226 81.6279 71.9312 80.6037 65.3873 76.9422C64.0016 76.1485 64.7458 75.2011 64.9767 74.3818C66.1593 69.1929 66.6937 63.8779 66.5678 58.5581C66.5678 56.945 66.5678 55.2551 64.4122 55.1014C62.2566 54.9478 61.8459 56.6121 61.692 58.3788C61.7693 62.9742 61.4343 67.5672 60.6911 72.103C59.6133 76.4814 58.1249 77.7872 53.4544 78.0177C41.0595 78.6322 33.4635 68.1854 32.7963 58.1228C32.3825 52.3862 33.2593 46.6298 35.3625 41.2749C35.4908 40.8908 35.6705 40.5067 35.7731 40.1226C36.1837 38.6376 36.2607 37.1269 34.5156 36.5124C32.7706 35.8979 31.8211 37.0245 31.2309 38.4584C28.8884 43.9317 27.7507 49.843 27.8948 55.7927C27.8948 56.9961 28.0231 58.3533 28.1514 60.0176C25.2659 58.1693 23.1084 55.3835 22.0438 52.1313C19.5671 45.0923 19.618 37.4135 22.1878 30.4079C24.7577 23.4022 29.6868 17.5049 36.1324 13.7242C39.0835 11.9062 41.5214 9.42257 44.7036 7.86068C52.4022 4.12239 59.793 3.61037 67.2863 8.01438C68.4558 8.66841 69.8085 8.92034 71.1357 8.73131C81.0926 7.86075 89.6381 10.3444 95.6175 18.9732C95.8774 19.424 96.2373 19.8093 96.6696 20.0997C103.496 23.8892 106.036 30.6745 108.654 37.3317C111.239 43.1 111.613 49.6139 109.706 55.6391C107.815 61.7223 104.334 67.1931 99.6208 71.4884C97.4261 73.5768 94.6216 74.9132 91.6142 75.3036Z" fill="white"/>
<path d="M11.317 113.275C17.8827 118.68 23.6231 125.011 28.3567 132.069C34.3742 141.824 38.3788 152.679 40.1357 163.998C41.3993 171.972 41.7694 180.062 41.2391 188.118C40.9768 194.64 39.74 201.087 37.5695 207.245C20.7094 200.485 9.90553 188.528 6.44113 170.579C3.66961 156.163 5.56863 141.85 8.05786 127.614C8.85339 122.8 10.2135 118.063 11.317 113.275Z" fill="#FFF3E8"/>
</svg>
