<svg width="154" height="154" viewBox="0 0 154 154" fill="none" xmlns="http://www.w3.org/2000/svg">
<path d="M110.724 6.02503C111.366 10.8849 109.826 15.4878 108.902 20.142C108.856 20.3943 108.744 20.6298 108.577 20.8242C108.41 21.0186 108.194 21.1647 107.952 21.2476L100.021 18.8819C98.3527 18.4191 96.7613 18.522 96.248 20.4248C95.7346 22.3276 97.2233 22.9962 98.8147 23.5105C112.264 27.3387 123.951 35.7629 131.848 47.3214C139.548 57.9155 143.886 69.6668 142.269 83.0637C142.269 83.8351 142.423 84.8635 141.601 85.3264C138.496 87.1778 140.138 88.8235 141.601 90.7778C146.991 98.0805 149.532 106.026 146.529 115.052C145.236 118.695 142.794 121.818 139.574 123.949C138.828 119.088 137.155 114.418 134.646 110.192C133.824 108.726 132.567 108.032 131.104 108.855C129.641 109.677 129.769 111.04 130.334 112.377C130.667 113.123 131.104 113.843 131.437 114.589C133.651 118.778 134.797 123.451 134.774 128.191C134.363 136.728 128.896 142.334 121.196 142.231C119.579 142.231 118.501 141.845 118.116 140.02C117.656 138.127 117.082 136.263 116.396 134.44C116.255 133.827 115.881 133.294 115.354 132.954C114.827 132.613 114.188 132.491 113.573 132.614C111.956 132.897 111.699 134.208 111.905 135.443C112.261 137.245 112.732 139.023 113.316 140.765C113.599 141.473 113.727 142.233 113.691 142.994C113.655 143.756 113.457 144.5 113.109 145.178C112.761 145.856 112.271 146.451 111.674 146.923C111.077 147.395 110.385 147.733 109.646 147.914C106.386 149.103 102.811 149.096 99.5549 147.896C96.2989 146.696 93.5724 144.379 91.8589 141.357C89.6741 137.407 88.4188 133.01 88.1886 128.5C88.2023 128.194 88.1553 127.888 88.0502 127.6C87.9451 127.313 87.784 127.049 87.5763 126.824C87.3685 126.599 87.1183 126.418 86.8401 126.291C86.5619 126.163 86.2612 126.093 85.9556 126.083C84.5182 125.903 83.9792 126.88 83.5686 127.986C83.154 129.362 83.0835 130.819 83.3632 132.228C83.9887 136.603 85.3789 140.834 87.4699 144.725C82.3397 144.872 77.3097 143.283 73.1927 140.212C69.0756 137.142 66.112 132.771 64.7805 127.806C64.6285 126.795 64.3968 125.797 64.0874 124.823C63.911 124.31 63.5506 123.881 63.0762 123.62C62.6019 123.359 62.0475 123.283 61.5208 123.409C60.4684 123.409 59.5958 124.051 59.5701 125.054C59.5701 127.626 57.7734 127.626 55.9767 127.626C48.964 127.81 42.0393 126.028 35.9823 122.483C37.2601 113.757 37.3205 104.895 36.1619 96.152C34.8627 85.7662 31.6697 75.708 26.7422 66.4782C22.7046 59.1034 17.6402 52.3415 11.7014 46.3957C13.9712 41.2056 17.364 36.5857 21.6345 32.8702C44.2726 12.5563 71.0175 3.96797 101.202 5.43366C104.538 5.71651 107.644 7.00215 110.724 6.02503Z" fill="white"/>
<path d="M36.2904 122.611C42.3474 126.157 49.2721 127.938 56.2849 127.754C58.0815 127.754 59.8269 127.754 59.8782 125.183C59.8782 124.18 60.7766 123.614 61.8289 123.537C62.3556 123.412 62.91 123.487 63.3844 123.749C63.8588 124.01 64.2192 124.439 64.3956 124.951C64.7049 125.926 64.9367 126.923 65.0886 127.934C66.4201 132.9 69.3838 137.271 73.5008 140.341C77.6179 143.411 82.6478 145.001 87.7781 144.854C85.6871 140.962 84.2969 136.732 83.6714 132.357C83.3917 130.947 83.4622 129.49 83.8767 128.114C84.2874 127.009 84.8264 126.031 86.2637 126.211C86.5694 126.221 86.87 126.292 87.1482 126.419C87.4264 126.546 87.6767 126.728 87.8844 126.953C88.0921 127.177 88.2532 127.441 88.3583 127.729C88.4634 128.017 88.5105 128.322 88.4967 128.629C88.7269 133.138 89.9823 137.536 92.1671 141.485C93.8806 144.508 96.6071 146.824 99.8631 148.025C103.119 149.225 106.694 149.231 109.954 148.042C110.693 147.861 111.385 147.523 111.982 147.051C112.579 146.58 113.069 145.985 113.417 145.307C113.765 144.629 113.963 143.884 113.999 143.123C114.035 142.362 113.907 141.602 113.625 140.894C113.04 139.152 112.569 137.374 112.213 135.571C112.008 134.337 112.213 133 113.881 132.743C114.496 132.62 115.135 132.741 115.662 133.082C116.189 133.423 116.563 133.956 116.705 134.568C117.39 136.392 117.964 138.255 118.424 140.148C118.809 141.974 119.887 142.334 121.504 142.36C129.204 142.36 134.671 136.857 135.082 128.32C135.105 123.58 133.959 118.907 131.745 114.717C131.412 113.972 130.975 113.252 130.642 112.506C130.077 111.169 130.026 109.729 131.412 108.983C132.798 108.237 134.132 108.855 134.954 110.32C137.463 114.546 139.136 119.217 139.882 124.077C143.102 121.946 145.544 118.823 146.837 115.18C149.84 106.155 147.299 98.2091 141.909 90.9063C140.472 88.9521 138.829 87.3064 141.909 85.455C142.731 84.9922 142.474 83.9636 142.577 83.1922C144.194 69.7953 139.83 58.0441 132.156 47.45C124.259 35.8915 112.572 27.4673 99.1228 23.639C97.5315 23.2276 96.0171 22.5334 96.5561 20.5534C97.0951 18.5734 98.6608 18.5477 100.329 19.0106L108.26 21.3762C120.372 26.9014 130.715 35.6876 138.136 46.7557C146.298 59.304 150.354 72.9066 147.017 87.8978C146.951 88.5076 147.012 89.1246 147.198 89.7092C147.383 90.2937 147.689 90.8329 148.095 91.292C150.505 94.8818 152.089 98.9632 152.733 103.241C153.377 107.519 153.064 111.887 151.817 116.029C151.102 118.876 149.757 121.526 147.882 123.782C146.007 126.039 143.65 127.844 140.985 129.066C139.702 129.631 139.83 130.66 139.651 131.637C137.623 142.411 131.104 147.76 120.093 147.554C119.652 147.489 119.203 147.527 118.78 147.665C118.357 147.803 117.971 148.038 117.654 148.351C114.512 151.512 110.367 153.476 105.935 153.903C101.502 154.331 97.0594 153.194 93.3735 150.691C92.0738 149.75 90.4786 149.312 88.8818 149.457C76.5874 149.894 67.3216 144.828 61.5979 133.72C61.0076 132.614 60.5969 132.1 59.0312 132.177C35.1097 133.411 18.837 121.094 7.03024 101.783C-7.57419 77.8695 1.61454 40.2244 24.997 23.1504C42.0124 10.8177 61.9088 3.07834 82.773 0.676595C91.3116 -0.399145 99.9627 -0.191165 108.44 1.2937C111.777 1.88512 112.341 3.06797 110.827 6.12791C107.644 7.10504 104.539 5.81936 101.407 5.66508C71.1973 4.19939 44.4525 12.7878 21.84 33.1017C17.5695 36.8171 14.1767 41.437 11.9069 46.6272C-3.05684 75.6581 6.87622 107.492 36.2904 122.611Z" fill="#FF7596"/>
<path d="M36.2904 122.611C7.00457 107.492 -2.92851 75.6579 12.0096 46.5242C17.9484 52.4699 23.0127 59.2318 27.0504 66.6066C31.9154 75.8487 35.0473 85.9064 36.2904 96.2804C37.5086 105.015 37.5086 113.877 36.2904 122.611Z" fill="#FFF3E8"/>
</svg>
