<svg width="106" height="102" viewBox="0 0 106 102" fill="none" xmlns="http://www.w3.org/2000/svg">
<path d="M72.6039 70.0542C73.7836 72.4097 74.5138 73.8679 75.1879 75.3261C76.6929 78.2185 77.5617 81.3984 77.7361 84.6531C77.9105 87.9078 77.3864 91.1623 76.199 94.1984C73.5589 100.396 68.9246 102.611 62.6332 100.424C58.7276 98.9974 54.5634 98.4144 50.4155 98.7131C48.1558 98.9282 45.8887 98.3863 43.9715 97.1728C42.0544 95.9594 40.5962 94.1434 39.8269 92.0111C38.3263 88.4571 37.5161 84.6506 37.4396 80.7943C35.8106 81.5234 35.2207 82.8975 34.322 83.935C31.315 87.8699 27.4039 91.0247 22.9188 93.1328C21.6802 93.769 20.3174 94.1278 18.9256 94.1842C17.5338 94.2406 16.1464 93.9932 14.8602 93.4592C13.574 92.9252 12.42 92.1177 11.4785 91.0926C10.5371 90.0676 9.83089 88.8499 9.40922 87.5244C9.06972 86.8211 8.82418 86.0762 8.67894 85.3091C8.12329 80.4331 5.90142 75.8973 2.38759 72.4659C-0.954712 69.3532 -0.421098 64.8945 1.74157 60.9406C5.4209 54.3787 11.8808 52.528 18.5935 51.3222L23.8738 50.4529C23.3401 48.7143 21.9358 48.6301 21.0651 48.0693C15.9922 45.6563 11.352 42.4256 7.3308 38.507C1.20794 31.833 1.34836 26.0844 7.80827 19.859C9.83588 17.9259 11.5677 15.7055 12.9481 13.2692C14.123 10.5991 16.2933 8.49103 18.9988 7.3917C21.7043 6.29237 24.7323 6.28825 27.4408 7.38032C33.8315 9.32543 39.3184 13.4814 42.9164 19.1019C43.5905 20.0554 43.8433 21.4014 45.3038 21.9061C45.7251 19.5506 45.9498 17.2511 46.5115 15.0358C47.972 9.23113 50.5841 7.18403 56.4822 7.2962C57.2024 7.26917 57.9079 7.08436 58.5486 6.75484C59.1893 6.42531 59.7495 5.95914 60.1897 5.38936C62.2484 3.29616 64.7882 1.73701 67.5882 0.847515C70.3882 -0.0419782 73.3635 -0.23488 76.2551 0.2857C78.0915 0.602817 79.8463 1.28174 81.4173 2.28282C82.9882 3.2839 84.3439 4.58713 85.4052 6.1166C86.4666 7.64607 87.2124 9.37117 87.5992 11.1913C87.986 13.0115 88.0061 14.8904 87.6583 16.7184C87.093 21.2907 85.643 25.7097 83.3892 29.7298C82.9117 30.5711 81.8725 31.4123 82.4904 32.534C83.1083 33.6557 84.316 32.7303 85.299 32.6743C89.2987 32.0064 93.3977 32.246 97.292 33.3753C100.269 34.5531 102.909 36.516 102.685 39.9371C102.179 45.9381 104.342 51.3783 105.493 57.0428C107.74 67.9511 102.432 74.2886 91.2253 74.4849C84.7687 74.3827 78.4128 72.8704 72.6039 70.0542ZM55.106 52.2475C61.0573 56.9588 67.3891 61.1702 74.0363 64.8384C79.5885 68.0399 85.9102 69.6686 92.3207 69.5495C98.584 69.241 101.617 65.4834 100.747 59.3142C99.8759 53.9301 97.3201 48.9105 97.7414 43.2461C98.0503 39.0958 96.5617 37.7779 92.1241 37.4413C87.0715 37.1145 82.0224 38.1305 77.491 40.3858C69.9919 43.9471 63.1949 48.7423 55.106 52.2475ZM49.9943 34.0483C49.9943 39.1239 49.9943 42.7132 49.9943 46.2746C49.9943 47.9851 50.3032 48.5741 52.0446 47.8169C60.3412 44.6779 67.8963 39.856 74.233 33.6557C79.2005 28.6959 82.1436 22.0694 82.4904 15.0639C82.6405 13.5409 82.4029 12.0047 81.7996 10.5979C81.1963 9.19116 80.2468 7.95932 79.0394 7.0167C77.8319 6.07409 76.4055 5.45125 74.8926 5.20597C73.3797 4.96069 71.8292 5.10093 70.3851 5.61366C67.451 6.42111 64.7975 8.02241 62.7175 10.2407C62.0911 10.9533 61.3233 11.5281 60.4626 11.9288C59.602 12.3294 58.6674 12.5471 57.7181 12.5681C52.4659 12.5681 51.3705 13.6898 50.6964 19.1299C50.0735 24.0769 49.8388 29.0648 49.9943 34.0483ZM44.377 44.536C44.1252 39.2379 43.2581 33.9869 41.793 28.8886C40.7374 25.0402 38.7355 21.5161 35.969 18.6365C33.2026 15.7569 29.7594 13.6131 25.9522 12.3999C25.1921 12.0263 24.3628 11.8135 23.5165 11.7749C22.6702 11.7363 21.825 11.8725 21.0339 12.1753C20.2428 12.4781 19.5229 12.9408 18.9193 13.5344C18.3157 14.1279 17.8415 14.8395 17.5262 15.6247C15.6896 18.8318 13.3899 21.7515 10.7012 24.2896C7.24653 27.5706 7.07801 30.0664 9.99901 33.9081C10.9825 35.2725 12.1552 36.4904 13.4818 37.5255C21.1041 43.4599 29.9322 47.6613 39.3494 49.836C44.2927 50.9296 44.4331 50.7052 44.405 44.6482L44.377 44.536ZM72.7163 86.8513C72.7349 83.2811 71.8869 79.7596 70.2446 76.588C66.0317 68.0352 58.7292 62.567 51.2301 56.9586C49.573 55.7528 49.4887 57.1549 49.0393 58.1083C46.5168 63.479 44.6316 69.1258 43.422 74.9335C42.2671 79.4106 42.4427 84.1268 43.9276 88.5059C45.5004 92.6281 46.989 93.7217 51.4828 93.6656C55.6213 93.3831 59.7747 93.9264 63.7005 95.2639C67.8854 96.9184 69.8795 95.8529 71.649 91.7307C72.3682 90.2042 72.7422 88.5383 72.7443 86.8513H72.7163ZM32.7491 54.8835C27.1641 54.9138 21.6021 55.6009 16.178 56.9306C14.2312 57.2303 12.3648 57.9186 10.6903 58.9545C9.01579 59.9903 7.56753 61.3525 6.43201 62.9596C4.94343 65.3712 4.466 68.1474 6.82526 69.9701C8.73802 71.5155 10.2986 73.4505 11.4029 75.6458C12.5071 77.8412 13.1297 80.2465 13.229 82.7012C13.4021 83.6753 13.7142 84.6197 14.1558 85.5054C14.3112 86.2356 14.6444 86.9162 15.1259 87.4873C15.6075 88.0583 16.2225 88.5021 16.9167 88.7793C17.6109 89.0565 18.3628 89.1587 19.106 89.0768C19.8491 88.9948 20.5606 88.7314 21.1774 88.3096C23.2984 87.2877 25.2422 85.934 26.9352 84.2996C35.0241 76.8404 38.1698 66.4648 43.3939 57.239C44.1242 55.893 43.1692 55.6687 42.1581 55.6967C38.7034 55.865 35.305 54.6031 32.7772 54.8835H32.7491Z" fill="#FF7596"/>
<path d="M55.1063 52.2476C63.1952 48.7424 69.9922 43.8351 77.5756 40.3859C82.1069 38.1306 87.1561 37.1146 92.2087 37.4414C96.534 37.7779 98.0226 39.0959 97.826 43.2462C97.4047 48.8546 99.9605 53.9302 100.831 59.3142C101.842 65.4835 98.809 69.2411 92.4052 69.5496C85.9663 69.6841 79.6135 68.0548 74.0367 64.8385C67.3894 61.1703 61.0576 56.9589 55.1063 52.2476Z" fill="#FFDCE9"/>
<path d="M49.9945 34.0482C49.8297 29.0654 50.055 24.0775 50.6685 19.1298C51.3426 13.6896 52.438 12.6241 57.6902 12.568C58.6395 12.547 59.5742 12.3293 60.4348 11.9286C61.2954 11.528 62.0633 10.9531 62.6896 10.2405C64.7697 8.02228 67.4232 6.42098 70.3572 5.61353C71.8014 5.1008 73.3518 4.96057 74.8648 5.20584C76.3777 5.45112 77.804 6.07396 79.0115 7.01657C80.2189 7.95919 81.1684 9.19104 81.7717 10.5978C82.375 12.0046 82.6126 13.5408 82.4625 15.0638C82.1158 22.0693 79.1726 28.6958 74.2051 33.6555C67.8684 39.8559 60.3134 44.6777 52.0167 47.8168C50.2754 48.5739 49.9102 47.985 49.9664 46.2744C50.0506 42.7131 49.9945 39.0396 49.9945 34.0482Z" fill="#FFDCE9"/>
<path d="M44.4051 44.6482C44.4051 50.8174 44.4051 51.0418 39.3496 49.9482C29.9323 47.7735 21.1042 43.5722 13.4819 37.6377C12.1553 36.6026 10.9826 35.3846 9.99913 34.0202C7.19048 30.1785 7.19048 27.6828 10.7013 24.4019C13.39 21.8637 15.6897 18.944 17.5263 15.7369C17.8416 14.9518 18.3158 14.2401 18.9194 13.6465C19.523 13.0529 20.243 12.5903 21.034 12.2875C21.8251 11.9848 22.6703 11.8484 23.5166 11.887C24.363 11.9257 25.1922 12.1385 25.9523 12.5121C29.7595 13.7253 33.2027 15.8691 35.9692 18.7487C38.7356 21.6283 40.7376 25.1524 41.7931 29.0008C43.2677 34.098 44.1443 39.349 44.4051 44.6482Z" fill="#FFDCE9"/>
<path d="M72.7443 86.8512C72.7546 88.5666 72.3804 90.2625 71.649 91.8147C69.8795 95.9369 67.8854 97.0024 63.7005 95.3479C59.7747 94.0104 55.6213 93.4671 51.4829 93.7496C46.989 93.7496 45.5004 92.7121 43.9276 88.5899C42.4427 84.2108 42.2671 79.4946 43.422 75.0175C44.6316 69.2097 46.5168 63.563 49.0393 58.1923C49.4887 57.2389 49.573 55.8368 51.2301 57.0426C58.7292 62.4547 66.0317 68.0351 70.2446 76.672C71.8834 79.8159 72.7408 83.3071 72.7443 86.8512Z" fill="#FFDCE9"/>
<path d="M32.7771 54.8835C35.3049 54.6031 38.7034 55.7248 42.1861 55.6407C43.1972 55.6407 44.1522 55.8369 43.4219 57.183C38.2821 66.4088 34.9959 76.8123 26.9632 84.2435C25.2702 85.8778 23.3264 87.2316 21.2054 88.2535C20.5886 88.6753 19.8771 88.9388 19.1339 89.0208C18.3908 89.1027 17.6389 89.0005 16.9447 88.7233C16.2505 88.4461 15.6354 88.0023 15.1539 87.4312C14.6723 86.8602 14.3392 86.1795 14.1838 85.4493C13.7422 84.5636 13.43 83.6192 13.257 82.6451C13.1577 80.1904 12.5351 77.7851 11.4308 75.5897C10.3266 73.3943 8.76598 71.4594 6.85322 69.9141C4.49396 68.0913 4.97143 65.3152 6.46001 62.9036C7.59553 61.2965 9.04375 59.9343 10.7183 58.8984C12.3927 57.8626 14.2592 57.1742 16.206 56.8745C21.6323 55.5637 27.1943 54.8954 32.7771 54.8835Z" fill="#FFDCE9"/>
</svg>
