<svg width="108" height="107" viewBox="0 0 108 107" fill="none" xmlns="http://www.w3.org/2000/svg">
<path d="M34.0536 57.79C24.0354 56.742 14.5166 52.8937 6.59066 46.687C4.66584 45.1683 3.01909 43.3282 1.72343 41.2482C-0.758549 37.0323 -0.726331 33.3315 2.91605 30.081C7.95017 25.4424 11.343 19.2998 12.5861 12.5739C15.4871 -0.29907 28.4772 -3.96793 38.5985 4.75348C43.508 9.52986 47.2188 15.396 49.4289 21.8745L51.3307 26.4444C52.3878 21.6622 54.1016 17.0486 56.4236 12.7347C58.4961 9.14933 61.3903 6.10535 64.8687 3.85238C66.9948 2.33783 69.5825 1.60906 72.1879 1.79109C74.7933 1.97312 77.2541 3.0546 79.1481 4.85002C81.6297 7.06566 84.7374 8.45978 88.0446 8.8407C98.7783 10.3211 103.227 17.5299 100.197 27.9891C97.647 35.8973 92.2792 42.5964 85.1113 46.8158L80.2441 50.034L87.0775 50.6455C93.31 50.9991 99.2198 53.5278 103.774 57.79C105.785 59.4593 107.158 61.7689 107.662 64.3303C108.167 66.8916 107.773 69.5483 106.547 71.8536C104.81 75.3055 104.32 79.2502 105.161 83.0209C107.965 96.634 97.6179 103.07 85.8204 100.689C77.7392 98.6849 70.5929 93.9699 65.5778 87.3333C63.0314 84.3404 60.7751 81.0578 58.1964 77.6786C57.4983 79.0162 57.1753 80.5174 57.2616 82.0233C57.0202 86.1402 55.9444 90.1653 54.0994 93.8549C52.2544 97.5446 49.6786 100.822 46.5279 103.489C38.9853 109.571 31.7327 107.64 28.9607 98.4685C27.4135 93.2871 25.3183 89.2965 19.7419 87.7839C18.1663 87.1912 16.7291 86.282 15.5193 85.1127C9.26605 80.0923 9.07265 73.7846 15.5193 68.5389C18.9678 65.8512 22.6961 63.5423 26.6399 61.6519C29.0896 60.3646 31.5716 59.1416 34.0536 57.79ZM37.4703 51.3535C39.1464 51.3535 40.6936 51.3535 42.4987 51.3535C48.6553 50.9351 48.7198 50.903 48.5909 44.9171C48.544 42.6133 48.285 40.3186 47.8172 38.0622C46.3211 28.3684 42.4943 19.1809 36.6645 11.2865C35.3448 9.34943 33.4809 7.84534 31.3071 6.96346C29.1333 6.08158 26.7469 5.86139 24.448 6.33048C19.5163 7.3925 18.7427 11.7371 17.7434 15.7599C17.7434 16.2748 17.4856 16.7575 17.3889 17.2725C16.3842 22.8802 13.5782 28.009 9.395 31.8833C5.01125 36.0026 5.01125 37.3542 9.395 41.5379C17.098 48.366 27.1836 51.8921 37.4703 51.3535ZM90.1075 95.3789C97.1344 95.3789 100.809 91.0343 99.4874 84.4369C98.1516 79.4321 98.726 74.1102 101.099 69.5044C101.872 68.2118 102.129 66.6757 101.818 65.2025C101.508 63.7293 100.652 62.4271 99.423 61.5554C95.8618 58.5492 91.4863 56.6673 86.8519 56.1487C77.5042 54.6683 68.4789 57.5647 59.2601 58.0474C56.617 58.2083 56.9715 59.7209 57.6162 61.5231C60.8041 70.9277 66.0699 79.4958 73.0238 86.5932C77.4264 91.5613 83.5086 94.735 90.1075 95.5077V95.3789ZM55.7789 42.2137C55.7789 44.4021 55.7789 46.5905 55.7789 48.6502C55.4888 51.5788 56.8748 51.8685 59.1956 51.2892C68.1852 49.5486 76.6743 45.833 84.0476 40.4115C89.3631 36.8986 93.187 31.5445 94.7813 25.3824C96.2641 19.1068 93.7176 15.2771 87.3354 14.6335C83.0686 14.5147 79.0043 12.7904 75.957 9.80613C75.4006 9.16926 74.7192 8.65311 73.955 8.28963C73.1908 7.92615 72.3601 7.72305 71.5142 7.69289C70.6683 7.66272 69.8251 7.80619 69.0369 8.11432C68.2487 8.42244 67.5322 8.88867 66.9316 9.48429C63.1417 12.4036 60.322 16.3965 58.8411 20.9412C56.5106 27.7817 55.4723 34.9948 55.7789 42.2137ZM52.5556 76.2626C52.1319 70.7265 51.4218 65.2159 50.4281 59.7531C49.7835 57.4681 49.0099 57.2429 47.0114 58.1762C38.8241 61.9415 30.8947 66.1252 22.9652 70.4376C21.5102 71.2629 20.1578 72.2567 18.9361 73.3984C16.2607 75.7799 16.2929 77.7752 18.9361 80.1888C19.8565 81.1061 20.9528 81.8285 22.1594 82.3129C25.3785 83.2548 28.2646 85.0877 30.4837 87.5994C32.7027 90.1111 34.1639 93.1989 34.6982 96.5053C36.0198 101.815 38.3728 102.266 42.8211 99.1764C44.3919 98.0476 45.7643 96.6665 46.8824 95.0893C50.413 89.4293 52.3608 82.9285 52.5233 76.2626H52.5556Z" fill="#FF7596"/>
<path d="M37.4702 51.3535C27.1876 51.8398 17.1261 48.2678 9.45939 41.4092C5.01118 37.2898 5.01118 35.9382 9.45939 31.7545C13.6425 27.8802 16.4486 22.7514 17.4533 17.1437C17.4533 16.6287 17.7112 16.146 17.8079 15.6311C18.8071 11.6083 19.5807 7.2637 24.5124 6.20168C26.8113 5.73259 29.1978 5.95288 31.3715 6.83476C33.5453 7.71664 35.4093 9.22073 36.7289 11.1578C42.5587 19.0522 46.3856 28.2396 47.8817 37.9334C48.3494 40.1898 48.6084 42.4845 48.6553 44.7883C48.6553 50.8385 48.6553 50.8707 42.5631 51.2247C40.8225 51.5787 39.1464 51.3535 37.4702 51.3535Z" fill="#FFDCE9"/>
<path d="M90.1074 95.5077C83.5267 94.7689 77.4471 91.6423 73.0237 86.7219C66.0699 79.6245 60.804 71.0565 57.6161 61.6519C56.9715 59.8497 56.6169 58.4337 59.2601 58.1762C68.4788 57.6935 77.5042 54.7971 86.8519 56.2774C91.4863 56.7961 95.8617 58.6779 99.4229 61.6841C100.652 62.5558 101.508 63.8581 101.818 65.3313C102.129 66.8045 101.872 68.3405 101.099 69.6331C98.7259 74.2389 98.1515 79.5609 99.4874 84.5657C100.809 91.1631 97.1343 95.4755 90.1074 95.5077Z" fill="#FFDCE9"/>
<path d="M55.7785 42.2137C55.4735 35.0289 56.5008 27.8497 58.8084 21.0376C60.2893 16.4929 63.109 12.5 66.899 9.58074C67.4995 8.98512 68.216 8.51889 69.0042 8.21077C69.7925 7.90264 70.6356 7.75917 71.4815 7.78934C72.3274 7.8195 73.1582 8.0226 73.9224 8.38608C74.6866 8.74956 75.3679 9.26571 75.9244 9.90258C78.9717 12.8869 83.0359 14.6112 87.3028 14.7299C93.7495 15.3736 96.2314 19.2033 94.7487 25.4788C93.1543 31.6409 89.3304 36.9951 84.015 40.508C76.6416 45.9294 68.1526 49.6451 59.163 51.3856C56.8422 51.8362 55.4561 51.6753 55.7462 48.7467C55.9396 46.5904 55.7785 44.4021 55.7785 42.2137Z" fill="#FFDCE9"/>
<path d="M52.5231 76.2627C52.3412 82.9346 50.3711 89.4359 46.8179 95.0894C45.6997 96.6666 44.3272 98.0477 42.7564 99.1765C38.3082 102.395 35.9552 101.816 34.6336 96.5054C34.0993 93.199 32.6381 90.1112 30.4191 87.5995C28.2 85.0878 25.3139 83.255 22.0948 82.313C20.8883 81.8286 19.7919 81.1062 18.8715 80.189C16.2283 77.7753 16.1961 75.78 18.8715 73.3985C20.0932 72.2568 21.4456 71.263 22.9007 70.4377C30.7978 66.1253 38.7595 61.9416 46.9468 58.1763C48.9452 57.243 49.7188 57.4682 50.3635 59.7532C51.368 65.2155 52.0888 70.726 52.5231 76.2627Z" fill="#FFDCE9"/>
</svg>
