<svg width="317" height="833" viewBox="0 0 317 833" fill="none" xmlns="http://www.w3.org/2000/svg">
<path d="M2 366C2 334.448 2.00321 311.336 3.95571 294.322C5.90996 277.292 9.77544 266.853 17.0918 260.233C24.4427 253.582 35.6657 250.426 53.3145 249.025C67.7226 247.881 86.0676 247.923 109.546 247.976C114.772 247.988 120.252 248 126 248H191C196.748 248 202.228 247.988 207.454 247.976C230.932 247.923 249.277 247.881 263.686 249.025C281.334 250.426 292.557 253.582 299.908 260.233C307.225 266.853 311.09 277.292 313.044 294.322C314.997 311.336 315 334.448 315 366V707C315 775.483 259.483 831 191 831H126C57.5167 831 2 775.483 2 707V366ZM159 327C175.569 327 189 313.569 189 297C189 280.431 175.569 267 159 267C142.431 267 129 280.431 129 297C129 313.569 142.431 327 159 327Z" fill="#DEFFFF" stroke="#FF7596" stroke-width="4"/>
<path d="M19 367C19 305.696 68.6964 256 130 256H189C250.304 256 300 305.696 300 367V706C300 767.304 250.304 817 189 817H130C68.6964 817 19 767.304 19 706V367ZM159 327C175.569 327 189 313.569 189 297C189 280.431 175.569 267 159 267C142.431 267 129 280.431 129 297C129 313.569 142.431 327 159 327Z" fill="#FFDCE9" stroke="#FF7596" stroke-width="4"/>
<line x1="34.5" y1="549.5" x2="283.5" y2="549.5" stroke="#FF7596" stroke-width="3" stroke-linecap="round"/>
<line x1="34.5" y1="591.5" x2="283.5" y2="591.5" stroke="#FF7596" stroke-width="3" stroke-linecap="round"/>
<line x1="34.5" y1="633.5" x2="283.5" y2="633.5" stroke="#FF7596" stroke-width="3" stroke-linecap="round"/>
<line x1="34.5" y1="675.5" x2="283.5" y2="675.5" stroke="#FF7596" stroke-width="3" stroke-linecap="round"/>
<line x1="34.5" y1="381.5" x2="283.5" y2="381.5" stroke="#FF7596" stroke-width="3" stroke-linecap="round"/>
<line x1="34.5" y1="423.5" x2="283.5" y2="423.5" stroke="#FF7596" stroke-width="3" stroke-linecap="round"/>
<line x1="34.5" y1="465.5" x2="283.5" y2="465.5" stroke="#FF7596" stroke-width="3" stroke-linecap="round"/>
<line x1="34.5" y1="507.5" x2="283.5" y2="507.5" stroke="#FF7596" stroke-width="3" stroke-linecap="round"/>
<g clip-path="url(#clip0_162_21)">
<path d="M115.881 -62.8859L113.848 -82.7819H123.198L125.637 -52.3288L128.889 -24.7181L132.141 9.79532L137.02 41.0604L140.678 63.3926L143.117 72.3255L134.987 77.198L132.141 66.2349L123.198 12.2316L119.133 -24.7181L115.881 -62.8859Z" fill="#FFDCE9"/>
<path d="M156.126 -57.2014L152.061 -81.9698H165.476L167.915 -79.1276V-49.8927V-11.3188V25.2248L165.476 58.9261L163.443 74.3557L156.126 69.8892L158.159 48.3691L159.785 17.51L158.159 -21.4699L156.126 -57.2014Z" fill="#FFDCE9"/>
<path d="M104.19 134.127C99.754 123.955 101.855 115.907 110.563 109.724C118.244 104.219 124.267 104.825 136.967 112.267C137.481 109.328 138.018 106.365 138.461 103.379C138.473 103.119 138.43 102.86 138.333 102.618C138.236 102.377 138.089 102.159 137.901 101.979C131.668 96.7768 131.551 89.7781 132.625 82.7327C133.025 80.1255 132.93 77.4663 132.345 74.8942C130.01 63.393 127.395 51.9151 125.644 40.3439C122.563 20.0943 119.715 -0.202026 117.333 -20.545C115.489 -36.3621 114.509 -52.2725 113.154 -68.1362C112.734 -73.3386 112.314 -78.5177 111.87 -83.9533H116.166C119.259 -30.5239 125.935 22.6379 136.15 75.1741L139.325 73.3778L142.08 71.7681C137.644 59.8703 135.963 47.5059 134.236 35.1648C132.438 22.2639 131.014 9.29287 129.426 -3.65475C127.839 -16.6024 126.275 -29.7133 124.757 -42.7542L120.088 -82.1337C120.088 -82.6702 120.088 -83.2301 120.088 -84H124.104C125.061 -76.2081 125.995 -68.4628 126.928 -60.6709C128.485 -47.7466 130.041 -34.8146 131.598 -21.8747C133.232 -8.36721 134.703 5.14034 136.43 18.6245C138.508 34.7682 139.885 51.0286 144.625 66.729C144.951 67.8721 145.418 69.0619 145.815 70.0651L154.99 68.1521C155.434 64.3494 155.994 60.4068 156.368 56.4875C157.799 39.8613 158.041 23.1541 157.091 6.4934C156.368 -9.06708 155.784 -24.6042 154.617 -40.1647C153.589 -53.8122 151.862 -67.3897 150.438 -81.0138C150.438 -81.9237 150.298 -82.8569 150.204 -83.9533H154.383C155.317 -75.7882 156.321 -67.623 157.091 -59.5278C158.072 -49.2319 158.943 -38.936 159.706 -28.6401C160.266 -20.9182 160.757 -13.1963 160.943 -5.47441C161.294 9.52617 161.737 24.5501 161.504 39.5507C161.226 48.3905 160.446 57.2075 159.169 65.9591C158.772 69.0152 159.636 70.2283 162.414 70.6249C166.967 19.161 168.414 -32.3261 163.535 -84.0466H167.994C168.274 -80.2207 168.671 -76.4414 168.787 -72.6387C169.465 -50.1962 170.468 -27.7303 170.608 -5.28774C170.725 8.84966 169.675 23.0104 168.928 37.1478C168.344 48.509 167.527 59.8469 166.593 71.1615C166.358 73.1918 166.732 75.2462 167.667 77.0638C169.091 80.0732 169.628 83.3626 171.752 86.2554C172.803 87.6785 171.939 90.9212 171.262 93.0442C170.393 94.772 169.25 96.3477 167.877 97.71L169.885 100.976C181.558 94.8638 191.993 96.8468 200.701 106.342C208.312 114.624 208.335 123.932 202.779 133.497C206.841 132.82 210.787 132.027 214.755 131.56C235.627 129.064 251.198 145.558 247.766 166.344C245.619 179.385 238.568 185.824 225.354 187.34C217.631 188.197 209.815 187.214 202.546 184.471C202.032 184.284 201.495 184.121 200.958 183.981C200.958 183.981 200.795 183.981 200.725 184.097C206.935 197.442 206.444 204.86 198.95 210.739C190.476 217.341 183.542 216.618 172.57 207.636C172.322 208.484 172.227 209.369 172.289 210.249C172.782 211.858 172.943 213.549 172.762 215.221C172.581 216.893 172.063 218.511 171.239 219.978C170.912 220.769 170.912 221.658 171.239 222.45C173.573 228.096 172.359 234.418 167.433 237.358C167.071 237.672 166.785 238.064 166.595 238.504C166.405 238.944 166.317 239.422 166.336 239.901C166.663 244.45 167.48 248.976 167.55 253.525C167.55 259.45 167.34 265.399 166.92 271.301C166.5 277.204 160.29 278.93 154.92 279C149.551 279.07 147.123 276.527 146.422 270.881C145.628 264.326 145.372 257.701 144.811 251.122C144.485 247.412 144.041 243.726 143.667 240.04C135.73 238.128 132.695 232.412 135.286 224.597C135.473 223.391 135.473 222.163 135.286 220.957V209.456C133.515 211.492 131.292 213.085 128.796 214.11C126.299 215.135 123.597 215.562 120.905 215.358C115.252 215.157 109.855 212.948 105.684 209.129C99.5438 203.53 97.0459 191.936 105.147 178.802C101.271 179.035 97.3494 179.502 93.4739 179.478C86.7138 179.26 80.1698 177.045 74.6685 173.113C69.1671 169.181 64.955 163.708 62.564 157.386C61.4861 154.439 61.0879 151.288 61.3991 148.167C61.7103 145.045 62.723 142.034 64.3614 139.359C65.9999 136.683 68.2219 134.411 70.8616 132.714C73.5013 131.016 76.4907 129.936 79.6065 129.554C87.0624 128.791 94.5891 129.964 101.458 132.96L104.19 134.127ZM216.576 135.55C210.733 135.555 204.96 136.82 199.651 139.259C198.038 140.254 196.811 141.768 196.172 143.552C195.799 144.531 196.732 146.374 197.62 147.308C198.11 147.844 199.954 147.681 200.795 147.308C205.621 144.831 210.924 143.423 216.343 143.178C218.956 142.891 221.6 143.158 224.102 143.962C226.604 144.766 228.908 146.089 230.864 147.844C233.215 149.882 234.921 152.561 235.771 155.553C236.621 158.545 236.579 161.719 235.65 164.688C233.759 170.963 228.646 173.809 222.553 175.069C215.666 176.516 209.246 174.533 202.989 171.873C199.487 170.403 196.149 168.444 192.577 167.207C191.34 166.787 189.589 167.86 188.071 168.257C188.515 169.633 188.538 171.57 189.472 172.293C192.539 174.708 195.83 176.825 199.301 178.615C204.106 181.232 209.386 182.86 214.831 183.405C220.276 183.95 225.775 183.4 231.004 181.788C233.263 181.184 235.364 180.098 237.162 178.603C238.959 177.109 240.411 175.242 241.416 173.133C249.634 155.216 237.237 135.55 216.576 135.55ZM97.5127 168.21C90.0888 168.024 84.6959 167.137 80.0034 163.848C77.9594 162.582 76.3926 160.676 75.5478 158.426C74.703 156.176 74.6279 153.71 75.3342 151.413C76.1266 149.157 77.6223 147.215 79.6015 145.871C81.5808 144.527 83.9392 143.853 86.3301 143.948C91.663 143.953 96.9273 145.149 101.738 147.448C104.797 148.754 108.742 148.124 109.793 146.328C110.843 144.531 109.326 141.849 105.941 139.702L105.684 139.562C99.2702 135.664 91.9644 133.471 84.4624 133.193C81.0828 132.948 77.7007 133.637 74.6865 135.184C71.6723 136.731 69.1422 139.077 67.3733 141.965C63.6613 147.844 64.8053 153.63 67.9103 159.439C71.214 165.415 76.4047 170.129 82.6721 172.847C88.9395 175.565 95.931 176.133 102.555 174.463C106.244 173.599 110.166 173.016 112.711 169.797C113.271 169.074 113.855 167.72 113.551 167.137C113.248 166.554 111.87 166.227 110.913 166.017C110.267 166.024 109.628 166.143 109.022 166.367L97.5127 168.21ZM218.094 147.378C212.355 147.504 206.738 149.06 201.752 151.903C198.88 153.443 199.254 156.289 198.063 158.459C196.406 161.468 196.709 163.568 199.791 165.341C206.421 169.097 213.448 172.013 221.316 170.753C225.775 170.03 229.814 168.07 231.424 163.381C232.073 161.376 232.166 159.232 231.693 157.179C231.221 155.125 230.2 153.237 228.74 151.717C227.441 150.224 225.81 149.057 223.976 148.311C222.143 147.566 220.16 147.262 218.187 147.424L218.094 147.378ZM121.582 211.136C123.268 211.178 124.944 210.878 126.509 210.252C128.075 209.626 129.496 208.689 130.687 207.496C135.823 202.364 136.85 195.832 136.827 188.973C136.827 188.133 135.73 187.317 135.146 186.5C134.559 187.213 134.065 187.997 133.675 188.833C132.209 193.697 129.182 197.943 125.061 200.918C123.931 201.77 122.579 202.279 121.166 202.383C119.754 202.486 118.342 202.18 117.1 201.501C115.798 200.922 114.717 199.941 114.015 198.702C113.313 197.463 113.028 196.032 113.201 194.619C113.538 191.811 114.574 189.132 116.213 186.827C118.476 184.648 120.947 182.694 123.59 180.995C124.43 180.318 125.458 179.198 125.434 178.289C125.411 177.379 124.22 176.516 123.333 175.956C122.446 175.396 120.882 174.952 119.925 174.136C119.298 173.532 118.461 173.194 117.59 173.194C116.719 173.194 115.882 173.532 115.256 174.136C109.528 177.975 105.551 183.92 104.19 190.676C102.229 202.457 109.583 211.206 121.676 211.182L121.582 211.136ZM174.507 185.357C174.247 185.38 173.989 185.427 173.737 185.497C170.515 186.897 171.402 189.626 171.402 192.216C171.357 195.577 172.196 198.891 173.835 201.826C175.474 204.762 177.855 207.216 180.741 208.943C182.634 209.994 184.756 210.568 186.921 210.617C189.087 210.666 191.232 210.187 193.172 209.223C195.111 208.258 196.786 206.837 198.053 205.081C199.32 203.325 200.141 201.288 200.444 199.145C201.262 190.56 196.312 184.564 190.219 179.455C188.497 178.038 186.526 176.954 184.406 176.259C183.402 175.909 182.071 176.842 180.741 177.215C180.968 178.369 181.395 179.474 182.001 180.481C183.659 182.371 185.76 183.841 187.394 185.73C188.58 186.863 189.511 188.235 190.123 189.756C190.735 191.277 191.014 192.911 190.943 194.549C190.899 195.508 190.595 196.438 190.063 197.238C189.531 198.039 188.791 198.679 187.923 199.091C187.055 199.504 186.091 199.672 185.134 199.579C184.177 199.485 183.264 199.134 182.491 198.561C180.828 197.233 179.44 195.593 178.406 193.732C177.122 191.143 175.978 188.273 174.601 185.404L174.507 185.357ZM161.574 124.188C165.753 126.171 166.383 125.938 168.297 121.856C168.904 120.596 169.535 119.336 170.258 118.146C172.31 114.449 175.492 111.506 179.34 109.748C181.355 108.84 183.584 108.513 185.775 108.806C187.966 109.099 190.031 109.999 191.736 111.404C195.215 114.087 195.845 117.726 195.168 121.926C194.097 127.749 190.985 133.001 186.39 136.739C185.555 137.391 184.976 138.316 184.756 139.352C184.756 142.035 187.417 143.015 189.822 140.822C193.414 137.761 196.621 134.275 199.371 130.441C201.27 127.797 202.304 124.631 202.329 121.376C202.354 118.122 201.369 114.94 199.511 112.267C197.689 109.034 195.021 106.357 191.792 104.524C188.563 102.691 184.896 101.771 181.184 101.863C170.235 102.143 160.943 113.154 161.667 124.235L161.574 124.188ZM105.871 125.798C106.415 130.772 108.638 135.413 112.174 138.956C113.401 140.21 114.904 141.16 116.563 141.732C119.131 142.642 120.929 141.172 120.392 138.443C119.855 136.801 119.016 135.274 117.917 133.94C114.275 128.481 116.493 122.555 122.586 121.879C123.942 121.807 125.298 122.026 126.562 122.521C127.826 123.016 128.97 123.776 129.917 124.748C131.013 125.741 132.278 126.531 133.652 127.081C134.713 127.342 135.829 127.255 136.837 126.836C137.846 126.416 138.693 125.684 139.255 124.748C139.57 124.435 139.814 124.057 139.97 123.64C140.125 123.224 140.188 122.778 140.155 122.335C140.121 121.892 139.992 121.461 139.777 121.072C139.561 120.683 139.264 120.346 138.905 120.083C135.235 116.685 131.176 113.733 126.812 111.288C117.777 107.345 105.917 115.207 105.964 125.845L105.871 125.798ZM106.384 162.938C105.801 160.022 105.334 157.409 104.703 154.866C104.615 154.489 104.45 154.134 104.216 153.825C103.983 153.515 103.688 153.258 103.349 153.07C99.35 151.324 95.24 149.843 91.046 148.637C88.5182 148.057 85.8851 148.122 83.3885 148.824C82.3409 149.104 81.3882 149.661 80.6312 150.437C79.8741 151.213 79.3408 152.178 79.0874 153.232C78.8339 154.286 78.8698 155.388 79.1913 156.423C79.5128 157.458 80.1079 158.387 80.9139 159.112C82.5605 160.611 84.4779 161.783 86.5635 162.565C93.2638 165.131 100.011 164.268 106.478 162.985L106.384 162.938ZM179.597 135.153C180.479 135.102 181.343 134.88 182.141 134.5C184.559 132.898 186.609 130.801 188.154 128.347C189.7 125.894 190.706 123.14 191.106 120.269C191.306 119.395 191.306 118.488 191.107 117.614C190.908 116.74 190.515 115.923 189.957 115.221C189.398 114.52 188.689 113.953 187.882 113.563C187.075 113.173 186.19 112.969 185.293 112.967C182.994 112.912 180.728 113.511 178.756 114.694C174.529 117.557 171.595 121.963 170.585 126.965C170.516 128.155 170.709 129.345 171.148 130.453C171.588 131.561 172.264 132.56 173.13 133.38C174.624 134.803 177.379 134.64 179.69 135.2L179.597 135.153ZM145.045 121.809C148.897 119.476 152.889 118.449 157.278 121.226C157.772 115.352 160.24 109.819 164.282 105.525C166.616 103.192 166.406 102.329 163.792 100.276L155.784 103.239C156.064 105.572 157.185 107.905 156.368 109.188C155.644 109.857 154.78 110.356 153.839 110.651C152.899 110.945 151.904 111.027 150.928 110.891C147.846 110.471 148.08 107.555 148.15 104.965C147.374 105.057 146.591 105.057 145.815 104.965C143.271 104.289 142.43 105.409 142.01 107.811C141.169 112.722 142.292 117.765 145.138 121.856L145.045 121.809ZM161.387 76.4106C160.467 75.3891 159.415 74.4947 158.259 73.751C153.589 71.4181 142.71 74.4276 139.792 78.9068C139.314 79.6202 138.959 80.4088 138.741 81.2397C138.445 82.5571 138.537 83.932 139.005 85.1986C139.473 86.4653 140.298 87.5696 141.38 88.3784C143.294 90.268 144.951 88.8683 146.656 88.0051C150.298 86.1621 153.963 84.3891 157.582 82.4761C158.825 82.0834 159.892 81.2698 160.599 80.1754C161.307 79.081 161.61 77.7744 161.457 76.4805L161.387 76.4106ZM167.107 217.668C167.835 216.722 168.257 215.576 168.316 214.383C168.374 213.19 168.066 212.009 167.433 210.996C166.687 210.082 165.677 209.42 164.54 209.103C163.403 208.786 162.196 208.827 161.083 209.223C154.949 210.485 149.289 213.434 144.741 217.738C141.526 220.481 139.249 224.16 138.228 228.259C137.811 229.614 137.948 231.079 138.609 232.334C139.269 233.588 140.4 234.53 141.753 234.955C141.846 224.48 157.161 213.889 167.177 217.715L167.107 217.668ZM152.375 274.777L153.473 274.404C153.729 273.424 154.033 272.445 154.22 271.465C155.687 262.665 156.118 253.723 155.504 244.823C155.592 243.021 155.144 241.234 154.218 239.685C153.292 238.137 151.928 236.897 150.298 236.121C147.963 236.681 147.286 238.291 147.52 240.507C148.204 247.07 148.842 253.626 149.434 260.173C149.761 263.673 149.854 267.172 150.368 270.695C150.831 272.147 151.508 273.523 152.375 274.777ZM151.909 230.266C152.213 231.225 152.653 232.137 153.216 232.972C156.134 236.541 160.57 236.844 164.889 233.952C165.882 233.227 166.683 232.27 167.222 231.165C167.761 230.06 168.021 228.84 167.979 227.612C167.938 226.383 167.596 225.183 166.984 224.117C166.372 223.051 165.509 222.15 164.469 221.494C160.056 218.788 152.352 223.71 151.909 230.172V230.266ZM162.671 86.1388C156.578 86.1388 149.854 90.0347 148.033 95.0505C147.73 96.4375 147.964 97.8877 148.687 99.1098C148.99 99.7163 150.601 99.8096 151.605 99.7863C152.723 99.6927 153.828 99.4736 154.897 99.133C159.622 98.2656 163.875 95.7224 166.873 91.9711C169.208 88.9383 168.134 86.6753 164.352 86.1621C163.796 86.0765 163.233 86.0376 162.671 86.0455V86.1388ZM152.422 193.452C153.373 193.503 154.324 193.36 155.217 193.031C156.11 192.702 156.927 192.194 157.618 191.539C158.308 190.884 158.858 190.095 159.233 189.221C159.608 188.347 159.801 187.405 159.799 186.454C159.799 182.464 155.387 178.452 150.881 178.405C147.776 178.405 144.625 182.161 144.671 185.87C144.76 187.877 145.612 189.773 147.052 191.173C148.492 192.574 150.413 193.372 152.422 193.406V193.452ZM159.239 163.125C159.236 162.355 159.073 161.594 158.759 160.892C158.445 160.189 157.988 159.559 157.416 159.043C156.845 158.527 156.172 158.136 155.441 157.895C154.709 157.654 153.936 157.568 153.169 157.642C151.211 157.742 149.356 158.545 147.944 159.904C146.533 161.263 145.661 163.086 145.488 165.038C145.614 166.578 146.33 168.011 147.487 169.037C148.644 170.063 150.153 170.602 151.698 170.543C153.67 170.503 155.55 169.708 156.953 168.324C158.356 166.939 159.174 165.07 159.239 163.101V163.125ZM162.414 240.111C159.683 239.551 159.146 240.46 159.286 242.233C159.599 245.193 159.74 248.169 159.706 251.145C159.379 258.797 158.819 266.449 158.352 273.984C161.924 273.098 162.858 272.631 163.021 268.222C163.068 258.844 162.624 249.395 162.391 240.157L162.414 240.111ZM131.014 182.091C125.131 184.027 120.298 186.5 117.66 191.889C117.116 192.781 116.918 193.84 117.103 194.868C117.288 195.895 117.843 196.819 118.664 197.465C120.625 199.075 122.376 197.908 123.894 196.625C128.259 192.986 129.707 187.83 131.014 182.138V182.091ZM168.367 181.788C169.109 181.77 169.84 181.606 170.519 181.305C171.198 181.004 171.81 180.573 172.322 180.036C172.833 179.499 173.234 178.866 173.501 178.174C173.768 177.482 173.896 176.744 173.877 176.002C173.754 174.373 173.042 172.845 171.873 171.703C170.704 170.56 169.159 169.883 167.527 169.797C166.072 169.852 164.697 170.477 163.7 171.539C162.704 172.6 162.166 174.011 162.204 175.466C162.123 176.296 162.221 177.135 162.493 177.924C162.765 178.713 163.204 179.434 163.78 180.039C164.356 180.643 165.055 181.116 165.831 181.426C166.606 181.736 167.44 181.875 168.274 181.835L168.367 181.788ZM166.033 158.319C166.795 158.389 167.565 158.308 168.295 158.079C169.026 157.85 169.705 157.479 170.291 156.986C170.877 156.494 171.36 155.89 171.711 155.209C172.062 154.529 172.274 153.786 172.336 153.023C172.195 151.392 171.444 149.873 170.232 148.771C169.021 147.668 167.438 147.062 165.799 147.074C165.058 147.043 164.318 147.16 163.623 147.42C162.928 147.679 162.292 148.074 161.752 148.583C161.212 149.092 160.78 149.704 160.481 150.382C160.182 151.061 160.021 151.792 160.01 152.533C160.117 154.041 160.764 155.459 161.831 156.53C162.898 157.6 164.315 158.252 165.823 158.366L166.033 158.319ZM138.671 217.318C142.757 214.402 146.959 211.276 151.302 208.383C153.379 207.007 154.01 205.793 152.259 204.137C151.65 203.569 150.934 203.13 150.151 202.845C149.369 202.56 148.538 202.437 147.706 202.481C141.823 203.484 136.944 212.349 138.461 217.365L138.671 217.318ZM188.842 148.451C188.092 148.417 187.344 148.545 186.648 148.825C185.952 149.106 185.325 149.533 184.809 150.078C184.293 150.622 183.9 151.271 183.657 151.981C183.415 152.69 183.328 153.443 183.402 154.19C183.466 154.841 183.659 155.474 183.968 156.051C184.278 156.628 184.699 157.138 185.206 157.553C185.714 157.967 186.299 158.276 186.926 158.464C187.554 158.651 188.213 158.713 188.865 158.645C190.319 158.727 191.749 158.251 192.864 157.314C193.979 156.378 194.695 155.052 194.865 153.606C194.678 150.504 192.32 148.474 188.631 148.497L188.842 148.451ZM144.204 144.578C144.254 146.023 144.842 147.398 145.852 148.434C146.862 149.469 148.223 150.091 149.667 150.177C151.104 150.022 152.438 149.358 153.427 148.306C154.417 147.253 154.996 145.881 155.06 144.438C155.079 143.764 154.962 143.092 154.718 142.463C154.473 141.834 154.105 141.261 153.635 140.776C153.165 140.291 152.603 139.905 151.982 139.641C151.361 139.376 150.693 139.239 150.018 139.236C149.253 139.118 148.473 139.171 147.731 139.39C146.99 139.61 146.307 139.991 145.731 140.507C145.155 141.022 144.7 141.659 144.4 142.371C144.1 143.083 143.961 143.853 143.994 144.625L144.204 144.578ZM167.69 194.409C161.13 196.625 157.441 201.034 158.165 205.49H169.184C171.239 201.851 167.06 198.585 167.48 194.456L167.69 194.409ZM142.71 154.866C142.791 153.474 142.314 152.107 141.386 151.066C140.458 150.024 139.154 149.394 137.761 149.314C136.368 149.233 135 149.709 133.958 150.637C132.916 151.564 132.285 152.867 132.205 154.26C132.389 155.741 133.068 157.118 134.131 158.168C135.194 159.217 136.579 159.879 138.064 160.045C138.699 160.017 139.321 159.859 139.893 159.582C140.464 159.305 140.973 158.914 141.389 158.434C141.804 157.953 142.117 157.393 142.308 156.788C142.499 156.182 142.564 155.544 142.5 154.913L142.71 154.866ZM139.045 178.405C139.725 178.475 140.411 178.396 141.057 178.172C141.703 177.948 142.291 177.585 142.781 177.109C143.271 176.633 143.65 176.055 143.892 175.416C144.134 174.778 144.233 174.094 144.181 173.413C144.159 172.062 143.623 170.77 142.682 169.799C141.741 168.828 140.466 168.252 139.115 168.187C137.762 168.182 136.457 168.685 135.458 169.597C134.459 170.509 133.839 171.763 133.722 173.109C133.728 174.516 134.292 175.863 135.289 176.856C136.287 177.848 137.637 178.405 139.045 178.405ZM173.223 165.901C173.168 166.546 173.248 167.196 173.458 167.808C173.668 168.421 174.003 168.983 174.442 169.46C174.881 169.936 175.415 170.315 176.009 170.574C176.603 170.833 177.244 170.966 177.892 170.963C179.303 170.9 180.638 170.313 181.636 169.315C182.634 168.318 183.223 166.983 183.285 165.574C183.152 164.219 182.519 162.962 181.509 162.048C180.499 161.134 179.185 160.628 177.822 160.628C176.517 160.73 175.304 161.339 174.444 162.325C173.584 163.311 173.146 164.595 173.223 165.901ZM160.943 139.072C161.644 139.117 162.346 139.018 163.007 138.782C163.668 138.546 164.274 138.177 164.788 137.699C165.301 137.221 165.712 136.643 165.994 136C166.276 135.358 166.425 134.665 166.43 133.963C166.375 132.738 165.84 131.584 164.94 130.75C164.04 129.916 162.847 129.469 161.62 129.508C160.271 129.615 159 130.184 158.022 131.119C157.044 132.054 156.418 133.298 156.251 134.64C156.246 135.245 156.367 135.845 156.604 136.402C156.842 136.958 157.192 137.46 157.632 137.876C158.072 138.292 158.593 138.613 159.163 138.819C159.733 139.024 160.339 139.111 160.943 139.072ZM125.761 170.59C127.027 170.59 128.242 170.087 129.137 169.193C130.032 168.298 130.535 167.084 130.535 165.819C130.535 164.554 130.032 163.34 129.137 162.446C128.242 161.551 127.027 161.048 125.761 161.048C124.551 161.205 123.435 161.782 122.608 162.677C121.78 163.573 121.293 164.73 121.232 165.947C121.207 166.554 121.305 167.159 121.522 167.727C121.739 168.294 122.07 168.81 122.494 169.245C122.918 169.68 123.427 170.023 123.989 170.255C124.551 170.486 125.154 170.6 125.761 170.59ZM120.182 154.26C120.155 153.675 120.012 153.102 119.763 152.573C119.513 152.044 119.161 151.569 118.727 151.177C118.293 150.784 117.785 150.481 117.234 150.286C116.682 150.09 116.097 150.006 115.512 150.037C114.26 150.149 113.088 150.7 112.204 151.592C111.319 152.484 110.78 153.661 110.68 154.913C110.629 155.512 110.7 156.115 110.89 156.686C111.08 157.257 111.384 157.783 111.783 158.232C112.183 158.682 112.67 159.046 113.215 159.301C113.76 159.557 114.351 159.699 114.952 159.719C115.654 159.71 116.347 159.561 116.991 159.282C117.635 159.003 118.218 158.599 118.704 158.093C119.191 157.588 119.572 156.99 119.826 156.336C120.079 155.682 120.2 154.984 120.182 154.283V154.26ZM173.69 147.494C174.337 147.565 174.991 147.496 175.608 147.291C176.226 147.087 176.792 146.752 177.268 146.309C177.745 145.866 178.12 145.326 178.368 144.726C178.617 144.125 178.733 143.478 178.709 142.828C178.569 141.642 177.991 140.551 177.088 139.767C176.186 138.983 175.024 138.564 173.828 138.59C172.633 138.616 171.49 139.086 170.623 139.909C169.756 140.731 169.226 141.847 169.138 143.038C169.099 143.643 169.191 144.248 169.407 144.814C169.623 145.38 169.958 145.892 170.39 146.317C170.822 146.742 171.34 147.069 171.909 147.276C172.479 147.483 173.086 147.566 173.69 147.518V147.494ZM129.707 132.004C129.707 129.671 125.598 125.658 123.287 125.868C122.864 125.852 122.443 125.923 122.049 126.076C121.655 126.23 121.297 126.462 120.997 126.76C120.697 127.057 120.462 127.414 120.305 127.806C120.149 128.198 120.075 128.619 120.088 129.041C120.365 130.306 120.931 131.491 121.74 132.503C122.55 133.514 123.583 134.325 124.757 134.873C126.812 135.48 129.823 133.73 129.707 132.004ZM129.1 139.562C128.54 139.49 127.972 139.541 127.434 139.712C126.897 139.884 126.403 140.171 125.989 140.553C125.575 140.936 125.25 141.405 125.037 141.927C124.824 142.449 124.729 143.012 124.757 143.575C124.841 144.801 125.406 145.944 126.328 146.756C127.25 147.568 128.456 147.985 129.683 147.914C130.746 147.75 131.726 147.245 132.476 146.475C133.226 145.704 133.704 144.711 133.839 143.645C133.815 143.059 133.674 142.484 133.424 141.955C133.173 141.425 132.818 140.951 132.38 140.561C131.942 140.171 131.43 139.874 130.874 139.686C130.319 139.498 129.731 139.425 129.146 139.469L129.1 139.562ZM145.792 134.22C145.817 133.608 145.712 132.998 145.484 132.429C145.255 131.861 144.91 131.347 144.468 130.922C144.027 130.496 143.501 130.169 142.925 129.962C142.348 129.754 141.734 129.671 141.123 129.717C140.097 129.822 139.148 130.306 138.461 131.074C137.774 131.843 137.4 132.84 137.411 133.87C137.372 135.044 137.791 136.186 138.579 137.057C139.368 137.927 140.464 138.458 141.636 138.536C142.211 138.584 142.788 138.505 143.328 138.303C143.868 138.102 144.357 137.783 144.758 137.371C145.16 136.958 145.466 136.461 145.652 135.916C145.839 135.372 145.903 134.792 145.839 134.22H145.792ZM151.255 131.887C152.377 131.849 153.447 131.408 154.27 130.646C155.094 129.883 155.614 128.849 155.737 127.734C155.719 127.176 155.59 126.626 155.358 126.118C155.126 125.609 154.795 125.152 154.385 124.772C153.974 124.392 153.492 124.098 152.967 123.905C152.442 123.713 151.884 123.627 151.325 123.652C150.255 123.754 149.26 124.246 148.528 125.033C147.797 125.82 147.38 126.847 147.356 127.921C147.424 128.938 147.863 129.894 148.591 130.609C149.318 131.323 150.283 131.744 151.302 131.794L151.255 131.887ZM179.807 183.794L178.873 184.424C180.507 187.69 182.025 191.003 183.846 194.152C184.219 194.829 185.597 194.969 186.53 195.342C186.67 194.316 187.207 193.172 186.927 192.309C185.473 188.815 182.989 185.845 179.807 183.794ZM141.38 99.273C143.714 96.5902 143.714 94.024 137.784 90.7813C135.94 93.4408 137.434 96.9634 141.38 99.273Z" fill="#FF7596"/>
<path d="M216.577 135.55C237.238 135.55 249.634 155.216 241.417 172.876C240.411 174.986 238.96 176.852 237.162 178.347C235.364 179.841 233.263 180.928 231.004 181.531C225.775 183.144 220.276 183.694 214.831 183.149C209.386 182.604 204.106 180.975 199.301 178.359C195.834 176.599 192.543 174.513 189.472 172.13C188.538 171.406 188.515 169.47 188.071 168.094C189.589 167.697 191.34 166.624 192.577 167.044C196.149 168.304 199.581 170.263 202.989 171.71C209.246 174.369 215.666 176.376 222.553 174.906C228.6 173.646 233.759 170.8 235.65 164.524C236.579 161.556 236.621 158.381 235.771 155.389C234.921 152.397 233.216 149.718 230.864 147.681C228.909 145.926 226.604 144.603 224.102 143.799C221.6 142.995 218.956 142.728 216.343 143.015C210.924 143.26 205.621 144.668 200.795 147.144C199.908 147.588 198.11 147.751 197.62 147.144C196.733 146.211 195.799 144.368 196.172 143.388C196.811 141.605 198.038 140.091 199.651 139.096C204.972 136.713 210.745 135.503 216.577 135.55Z" fill="#FFDCE9"/>
<path d="M97.6061 168.257L109.022 166.321C109.628 166.096 110.267 165.978 110.913 165.971C111.87 166.181 113.248 166.437 113.551 167.091C113.855 167.744 113.271 169.027 112.711 169.75C110.166 173.016 106.244 173.599 102.555 174.416C95.9395 176.085 88.957 175.521 82.6951 172.812C76.4332 170.103 71.2434 165.401 67.9336 159.439C64.8286 153.7 63.6847 147.774 67.3966 141.965C69.1656 139.077 71.6956 136.731 74.7098 135.184C77.724 133.637 81.1061 132.948 84.4858 133.193C91.9877 133.471 99.2936 135.663 105.707 139.562L105.964 139.702C109.349 141.849 110.89 144.368 109.816 146.328C108.742 148.287 104.82 148.661 101.762 147.448C96.9507 145.148 91.6863 143.953 86.3534 143.948C83.9625 143.853 81.6041 144.527 79.6249 145.871C77.6457 147.215 76.15 149.157 75.3576 151.413C74.6513 153.71 74.7264 156.176 75.5712 158.426C76.4159 160.676 77.9827 162.582 80.0267 163.848C84.7893 167.184 90.1822 168.07 97.6061 168.257Z" fill="#FFDCE9"/>
<path d="M121.676 211.182C109.583 211.182 102.229 202.457 104.353 190.56C105.715 183.804 109.692 177.859 115.419 174.019C116.046 173.415 116.883 173.077 117.754 173.077C118.625 173.077 119.462 173.415 120.088 174.019C121.046 174.836 122.423 175.092 123.497 175.839C124.571 176.585 125.598 177.425 125.598 178.172C125.598 178.918 124.594 180.201 123.754 180.878C121.111 182.578 118.64 184.531 116.376 186.71C114.737 189.016 113.702 191.694 113.365 194.502C113.192 195.915 113.477 197.347 114.179 198.585C114.881 199.824 115.962 200.805 117.264 201.384C118.506 202.063 119.918 202.369 121.33 202.266C122.742 202.162 124.095 201.654 125.224 200.801C129.345 197.827 132.373 193.58 133.839 188.717C134.228 187.88 134.723 187.096 135.31 186.384C135.894 187.2 136.991 188.017 136.991 188.857C136.991 195.692 135.987 202.247 130.851 207.38C129.666 208.61 128.239 209.583 126.66 210.238C125.082 210.892 123.385 211.214 121.676 211.182Z" fill="#FFDCE9"/>
<path d="M174.601 185.404C175.978 188.273 177.122 191.143 178.663 193.779C179.697 195.639 181.085 197.28 182.748 198.608C183.52 199.18 184.434 199.532 185.391 199.625C186.347 199.719 187.312 199.55 188.18 199.138C189.048 198.726 189.788 198.085 190.32 197.285C190.852 196.485 191.156 195.555 191.2 194.596C191.271 192.958 190.992 191.324 190.38 189.803C189.767 188.282 188.837 186.909 187.651 185.777C186.017 183.888 183.916 182.418 182.258 180.528C181.652 179.521 181.225 178.416 180.997 177.262C182.235 176.889 183.659 175.956 184.663 176.306C186.783 177 188.754 178.084 190.476 179.502C196.569 184.611 201.518 190.606 200.701 199.191C200.398 201.335 199.577 203.372 198.31 205.128C197.043 206.884 195.368 208.305 193.428 209.269C191.489 210.234 189.344 210.712 187.178 210.664C185.013 210.615 182.891 210.04 180.997 208.99C178.112 207.262 175.731 204.808 174.092 201.873C172.453 198.938 171.614 195.624 171.659 192.263C171.519 189.673 170.679 186.944 173.994 185.544C174.192 185.482 174.395 185.436 174.601 185.404Z" fill="#FFDCE9"/>
<path d="M161.667 124.235C160.943 113.154 170.235 102.119 181.278 101.816C184.99 101.724 188.657 102.644 191.886 104.477C195.114 106.31 197.782 108.987 199.604 112.221C201.463 114.893 202.447 118.075 202.422 121.329C202.397 124.584 201.364 127.75 199.464 130.394C196.714 134.229 193.508 137.715 189.916 140.775C187.581 142.968 184.803 141.988 184.849 139.306C185.07 138.27 185.648 137.345 186.484 136.693C191.078 132.954 194.19 127.702 195.262 121.879C195.939 117.68 195.262 114.04 191.83 111.357C190.124 109.952 188.059 109.052 185.868 108.759C183.677 108.467 181.448 108.793 179.433 109.701C175.586 111.459 172.403 114.402 170.352 118.1C169.628 119.289 168.998 120.549 168.391 121.809C166.476 125.985 165.846 126.218 161.667 124.235Z" fill="#FFDCE9"/>
<path d="M105.964 125.845C105.964 115.207 117.777 107.345 126.859 111.497C131.223 113.942 135.282 116.895 138.952 120.292C139.31 120.555 139.608 120.893 139.824 121.282C140.039 121.671 140.168 122.102 140.202 122.545C140.235 122.988 140.172 123.433 140.016 123.85C139.861 124.267 139.617 124.645 139.302 124.958C138.74 125.894 137.893 126.626 136.884 127.045C135.876 127.465 134.76 127.551 133.699 127.291C132.325 126.741 131.06 125.951 129.964 124.958C129.017 123.985 127.873 123.226 126.609 122.731C125.345 122.236 123.989 122.017 122.633 122.089C116.586 122.765 114.369 128.691 117.964 134.15C119.062 135.484 119.902 137.011 120.439 138.652C120.975 141.382 119.178 142.852 116.61 141.942C114.951 141.37 113.448 140.42 112.221 139.166C108.669 135.574 106.46 130.871 105.964 125.845Z" fill="#FFDCE9"/>
<path d="M145.138 121.855C142.362 117.754 141.298 112.732 142.173 107.858C142.594 105.525 143.434 104.335 145.979 105.012C146.754 105.103 147.538 105.103 148.313 105.012C148.313 107.601 148.01 110.518 151.092 110.937C152.068 111.074 153.062 110.992 154.003 110.698C154.944 110.403 155.807 109.903 156.531 109.234C157.348 108.045 156.228 105.525 155.947 103.286L163.955 100.323C166.57 102.376 166.663 103.146 164.445 105.572C160.404 109.865 157.936 115.399 157.442 121.272C153.053 118.473 148.99 119.499 145.138 121.855Z" fill="#FFDCE9"/>
<path d="M161.457 76.4806C161.621 77.7662 161.334 79.0689 160.644 80.1665C159.955 81.2642 158.905 82.0887 157.675 82.4994C154.056 84.4124 150.391 86.1855 146.749 88.0285C145.045 88.8917 143.387 90.3613 141.473 88.4017C140.366 87.587 139.523 86.4646 139.049 85.1744C138.576 83.8842 138.493 82.4833 138.812 81.1464C139.029 80.3155 139.384 79.5269 139.862 78.8135C142.78 74.3343 153.59 71.2549 158.329 73.6578C159.495 74.4518 160.548 75.4015 161.457 76.4806Z" fill="#FFDCE9"/>
<path d="M167.177 217.715C157.161 213.889 141.846 224.48 141.73 235.001C140.376 234.577 139.246 233.635 138.585 232.38C137.925 231.126 137.788 229.661 138.205 228.306C139.226 224.206 141.503 220.528 144.718 217.785C149.265 213.48 154.925 210.531 161.06 209.27C162.172 208.874 163.38 208.832 164.517 209.15C165.653 209.467 166.664 210.128 167.41 211.042C168.056 212.046 168.38 213.223 168.338 214.415C168.296 215.607 167.891 216.759 167.177 217.715Z" fill="#FFDCE9"/>
<path d="M152.375 274.777C151.508 273.523 150.831 272.147 150.368 270.695C149.854 267.219 149.761 263.696 149.434 260.173C148.827 253.626 148.189 247.07 147.52 240.507C147.286 238.291 147.87 236.681 150.298 236.121C151.928 236.897 153.292 238.137 154.218 239.685C155.144 241.234 155.592 243.021 155.504 244.823C156.118 253.723 155.687 262.665 154.22 271.465C154.033 272.445 153.73 273.424 153.473 274.404L152.375 274.777Z" fill="#FFDCE9"/>
<path d="M151.909 230.172C152.352 223.71 160.056 218.811 164.515 221.4C165.556 222.057 166.419 222.957 167.031 224.024C167.643 225.09 167.985 226.29 168.026 227.518C168.067 228.747 167.808 229.967 167.269 231.072C166.73 232.177 165.929 233.133 164.936 233.858C160.57 236.751 156.134 236.448 153.263 232.878C152.684 232.046 152.228 231.134 151.909 230.172Z" fill="#FFDCE9"/>
<path d="M162.671 86.0455C163.23 85.9988 163.792 85.9988 164.352 86.0455C168.134 86.5587 169.161 88.8216 166.873 91.8544C163.875 95.6057 159.622 98.149 154.897 99.0164C153.828 99.357 152.723 99.5761 151.605 99.6696C150.601 99.6696 148.99 99.6696 148.687 98.9931C147.964 97.771 147.73 96.3209 148.033 94.9338C149.854 89.9414 156.578 85.9988 162.671 86.0455Z" fill="#FFDCE9"/>
<path d="M152.422 193.406C150.394 193.371 148.456 192.556 147.013 191.131C145.57 189.706 144.731 187.78 144.671 185.754C144.671 182.044 147.776 178.265 150.881 178.288C155.387 178.288 159.846 182.348 159.8 186.337C159.81 187.294 159.625 188.243 159.254 189.126C158.883 190.009 158.335 190.806 157.644 191.469C156.952 192.131 156.132 192.645 155.234 192.978C154.336 193.311 153.379 193.457 152.422 193.406Z" fill="#FFDCE9"/>
<path d="M159.239 163.101C159.168 165.066 158.347 166.929 156.945 168.309C155.543 169.688 153.666 170.479 151.699 170.52C150.153 170.579 148.644 170.039 147.487 169.014C146.33 167.988 145.614 166.555 145.489 165.014C145.661 163.063 146.533 161.24 147.944 159.881C149.356 158.522 151.212 157.718 153.169 157.619C153.936 157.544 154.709 157.63 155.441 157.871C156.172 158.113 156.845 158.504 157.416 159.02C157.988 159.536 158.445 160.166 158.759 160.868C159.073 161.571 159.236 162.332 159.239 163.101Z" fill="#FFDCE9"/>
<path d="M162.391 240.157C162.601 249.489 163.045 258.82 162.905 268.152C162.905 272.561 161.901 273.028 158.235 273.914C158.702 266.379 159.263 258.727 159.589 251.075C159.623 248.099 159.483 245.123 159.169 242.163C159.146 240.507 159.683 239.597 162.391 240.157Z" fill="#FFDCE9"/>
<path d="M168.274 181.835C167.436 181.889 166.597 181.761 165.814 181.46C165.031 181.159 164.322 180.692 163.736 180.091C163.151 179.49 162.702 178.77 162.421 177.98C162.141 177.189 162.035 176.348 162.111 175.512C162.073 174.058 162.61 172.647 163.607 171.585C164.603 170.524 165.978 169.898 167.434 169.843C169.066 169.93 170.611 170.607 171.78 171.749C172.949 172.891 173.661 174.42 173.784 176.049C173.802 176.79 173.675 177.528 173.408 178.22C173.141 178.912 172.74 179.545 172.228 180.083C171.717 180.62 171.104 181.051 170.426 181.352C169.747 181.652 169.016 181.816 168.274 181.835Z" fill="#FFDCE9"/>
<path d="M165.823 158.366C164.285 158.302 162.824 157.679 161.714 156.613C160.605 155.547 159.924 154.113 159.8 152.58C159.811 151.839 159.972 151.107 160.271 150.429C160.57 149.75 161.002 149.139 161.542 148.63C162.082 148.121 162.718 147.725 163.413 147.466C164.108 147.207 164.848 147.09 165.589 147.121C167.228 147.109 168.811 147.715 170.022 148.817C171.234 149.92 171.985 151.438 172.126 153.07C172.065 153.833 171.852 154.576 171.501 155.256C171.15 155.936 170.667 156.54 170.081 157.033C169.495 157.525 168.816 157.897 168.086 158.126C167.355 158.354 166.585 158.436 165.823 158.366Z" fill="#FFDCE9"/>
<path d="M138.462 217.365C136.944 212.349 141.823 203.484 147.496 202.527C148.328 202.483 149.159 202.607 149.942 202.892C150.724 203.176 151.441 203.616 152.049 204.184C153.8 205.84 153.169 207.053 151.092 208.43C146.749 211.322 142.547 214.448 138.462 217.365Z" fill="#FFDCE9"/>
<path d="M188.632 148.497C192.32 148.497 194.678 150.504 194.655 153.653C194.485 155.098 193.769 156.424 192.654 157.361C191.539 158.297 190.109 158.773 188.655 158.692C188.003 158.76 187.344 158.698 186.717 158.51C186.089 158.323 185.504 158.013 184.996 157.599C184.489 157.185 184.068 156.675 183.758 156.098C183.449 155.521 183.256 154.888 183.192 154.236C183.118 153.49 183.205 152.737 183.447 152.027C183.69 151.318 184.083 150.669 184.599 150.124C185.115 149.58 185.742 149.153 186.438 148.872C187.134 148.591 187.882 148.463 188.632 148.497Z" fill="#FFDCE9"/>
<path d="M143.994 144.625C143.973 143.877 144.112 143.133 144.404 142.444C144.695 141.754 145.131 141.135 145.682 140.629C146.233 140.122 146.886 139.74 147.598 139.508C148.31 139.275 149.063 139.199 149.807 139.282C150.483 139.285 151.151 139.423 151.772 139.687C152.393 139.952 152.955 140.338 153.425 140.823C153.895 141.307 154.263 141.881 154.508 142.51C154.752 143.139 154.869 143.81 154.85 144.485C154.786 145.927 154.207 147.3 153.217 148.352C152.228 149.405 150.894 150.069 149.457 150.224C148.013 150.137 146.652 149.516 145.642 148.48C144.632 147.445 144.044 146.07 143.994 144.625Z" fill="#FFDCE9"/>
<path d="M167.48 194.456C167.13 198.585 171.239 201.851 168.974 205.537H157.955C157.231 201.081 160.92 196.672 167.48 194.456Z" fill="#FFDCE9"/>
<path d="M142.5 154.913C142.573 155.567 142.506 156.23 142.304 156.856C142.102 157.483 141.769 158.06 141.328 158.549C140.887 159.038 140.348 159.429 139.745 159.695C139.142 159.96 138.49 160.096 137.831 160.092C136.346 159.925 134.96 159.264 133.897 158.214C132.834 157.165 132.156 155.788 131.971 154.306C132.011 153.617 132.186 152.942 132.487 152.321C132.788 151.699 133.208 151.143 133.724 150.683C134.24 150.224 134.842 149.871 135.494 149.644C136.147 149.417 136.838 149.321 137.528 149.36C138.217 149.4 138.893 149.576 139.515 149.876C140.137 150.177 140.693 150.597 141.153 151.112C141.613 151.628 141.966 152.229 142.193 152.881C142.42 153.533 142.517 154.223 142.477 154.913H142.5Z" fill="#FFDCE9"/>
<path d="M139.045 178.405C137.637 178.405 136.287 177.848 135.289 176.856C134.292 175.863 133.728 174.516 133.722 173.11C133.839 171.763 134.459 170.509 135.458 169.597C136.457 168.685 137.762 168.182 139.115 168.187C140.466 168.252 141.741 168.828 142.682 169.799C143.623 170.77 144.159 172.062 144.181 173.413C144.233 174.094 144.134 174.778 143.892 175.416C143.65 176.055 143.271 176.633 142.781 177.109C142.291 177.585 141.703 177.948 141.057 178.172C140.412 178.396 139.725 178.475 139.045 178.405Z" fill="#FFDCE9"/>
<path d="M173.224 165.901C173.147 164.584 173.595 163.29 174.47 162.302C175.345 161.314 176.575 160.712 177.893 160.628C179.255 160.628 180.569 161.134 181.579 162.048C182.589 162.962 183.222 164.219 183.356 165.574C183.293 166.983 182.704 168.318 181.706 169.315C180.708 170.313 179.373 170.9 177.963 170.963C177.309 170.975 176.66 170.85 176.057 170.596C175.455 170.341 174.913 169.963 174.466 169.486C174.019 169.008 173.678 168.443 173.464 167.825C173.25 167.208 173.168 166.552 173.224 165.901Z" fill="#FFDCE9"/>
<path d="M160.943 139.072C160.341 139.107 159.737 139.019 159.17 138.811C158.604 138.604 158.085 138.283 157.648 137.867C157.21 137.452 156.862 136.951 156.626 136.396C156.39 135.841 156.27 135.243 156.274 134.64C156.442 133.298 157.067 132.054 158.046 131.119C159.024 130.184 160.295 129.615 161.644 129.507C162.871 129.469 164.063 129.916 164.963 130.75C165.863 131.583 166.398 132.738 166.453 133.963C166.448 134.667 166.299 135.362 166.016 136.006C165.732 136.65 165.319 137.229 164.803 137.708C164.287 138.186 163.678 138.554 163.015 138.789C162.351 139.024 161.646 139.12 160.943 139.072Z" fill="#FFDCE9"/>
<path d="M125.761 170.59C125.152 170.6 124.547 170.485 123.983 170.253C123.42 170.02 122.91 169.674 122.486 169.237C122.061 168.8 121.731 168.28 121.515 167.71C121.3 167.141 121.203 166.533 121.232 165.924C121.293 164.707 121.78 163.549 122.608 162.654C123.436 161.759 124.552 161.182 125.761 161.025C127.028 161.025 128.242 161.528 129.137 162.422C130.033 163.317 130.536 164.531 130.536 165.796C130.536 167.061 130.033 168.275 129.137 169.169C128.242 170.064 127.028 170.567 125.761 170.567V170.59Z" fill="#FFDCE9"/>
<path d="M120.182 154.283C120.203 154.978 120.088 155.671 119.841 156.322C119.595 156.973 119.223 157.569 118.746 158.076C118.269 158.583 117.696 158.991 117.062 159.277C116.427 159.563 115.742 159.721 115.046 159.742C114.444 159.722 113.853 159.58 113.308 159.324C112.764 159.069 112.276 158.705 111.877 158.256C111.477 157.806 111.173 157.28 110.983 156.709C110.794 156.139 110.722 155.535 110.773 154.936C110.873 153.684 111.413 152.508 112.297 151.615C113.182 150.723 114.354 150.172 115.606 150.06C116.771 150.022 117.904 150.444 118.76 151.234C119.616 152.024 120.127 153.119 120.182 154.283Z" fill="#FFDCE9"/>
<path d="M173.69 147.517C173.086 147.566 172.479 147.483 171.909 147.276C171.34 147.069 170.822 146.742 170.39 146.317C169.958 145.892 169.623 145.38 169.407 144.814C169.191 144.248 169.099 143.643 169.138 143.038C169.226 141.847 169.756 140.731 170.623 139.909C171.49 139.086 172.633 138.616 173.828 138.59C175.024 138.563 176.186 138.983 177.088 139.767C177.991 140.55 178.569 141.642 178.71 142.828C178.737 143.48 178.623 144.13 178.376 144.733C178.129 145.336 177.754 145.879 177.277 146.325C176.801 146.77 176.233 147.107 175.614 147.313C174.995 147.519 174.339 147.589 173.69 147.517Z" fill="#FFDCE9"/>
<path d="M129.146 139.469C129.722 139.428 130.3 139.501 130.847 139.684C131.394 139.868 131.899 140.158 132.333 140.537C132.767 140.917 133.122 141.379 133.376 141.896C133.631 142.413 133.78 142.976 133.816 143.552C133.681 144.618 133.203 145.611 132.453 146.381C131.703 147.152 130.723 147.657 129.66 147.821C128.433 147.891 127.227 147.475 126.305 146.663C125.382 145.85 124.818 144.707 124.734 143.482C124.704 142.912 124.8 142.342 125.017 141.815C125.234 141.287 125.566 140.814 125.988 140.43C126.41 140.046 126.913 139.76 127.459 139.594C128.005 139.428 128.582 139.385 129.146 139.469Z" fill="#FFDCE9"/>
<path d="M145.839 134.22C145.896 134.778 145.833 135.342 145.652 135.873C145.472 136.404 145.179 136.89 144.793 137.298C144.408 137.705 143.938 138.025 143.418 138.235C142.897 138.444 142.337 138.539 141.776 138.513C140.604 138.434 139.508 137.904 138.719 137.034C137.931 136.163 137.512 135.02 137.551 133.847C137.54 132.817 137.914 131.819 138.601 131.051C139.288 130.283 140.237 129.799 141.263 129.694C141.869 129.661 142.474 129.755 143.041 129.97C143.609 130.185 144.124 130.517 144.555 130.943C144.986 131.369 145.323 131.881 145.544 132.446C145.765 133.01 145.866 133.614 145.839 134.22Z" fill="#FFDCE9"/>
<path d="M151.302 131.794C150.276 131.731 149.31 131.291 148.59 130.559C147.87 129.826 147.447 128.854 147.403 127.828C147.427 126.754 147.844 125.726 148.575 124.939C149.307 124.152 150.302 123.661 151.372 123.559C151.93 123.534 152.489 123.62 153.014 123.812C153.539 124.004 154.021 124.299 154.432 124.679C154.842 125.058 155.173 125.516 155.405 126.024C155.637 126.533 155.766 127.082 155.784 127.641C155.661 128.756 155.141 129.79 154.317 130.552C153.494 131.315 152.424 131.756 151.302 131.794Z" fill="#FFDCE9"/>
<path d="M141.38 99.273C137.434 96.9401 135.94 93.4408 137.784 90.7812C143.714 94.024 143.714 96.5901 141.38 99.273Z" fill="#FFDCE9"/>
</g>
<path d="M118.003 337.31C116.657 342.918 118.763 347.905 120.717 352.957C121.288 354.483 121.71 356.06 121.976 357.666C122.302 358.968 122.157 360.34 121.567 361.548C120.976 362.755 119.977 363.721 118.741 364.28C117.426 364.88 115.94 365.014 114.536 364.659C113.132 364.304 111.895 363.482 111.034 362.332C110.085 360.923 109.422 359.346 109.08 357.688C108.516 355.269 107.561 354.413 105.129 355.119C100.787 356.36 96.5539 357.837 92.2554 359.186C90.2581 359.807 88.2825 360.427 86.2418 360.856C83.4629 361.455 80.4236 361.712 78.6868 359.015C77.9974 357.763 77.6958 356.339 77.8193 354.92C77.9427 353.501 78.4859 352.148 79.3815 351.031C81.6827 347.327 84.1142 343.689 86.3286 339.921C90.4264 332.489 93.0078 324.337 93.927 315.926C94.4264 312.437 94.5566 308.777 98.0302 306.379C98.7844 305.766 99.6766 305.34 100.632 305.136C101.588 304.933 102.579 304.958 103.523 305.209C104.466 305.461 105.335 305.931 106.057 306.582C106.778 307.232 107.331 308.044 107.669 308.948C109.116 312.08 109.37 315.621 108.386 318.923C107.153 323.476 104.972 327.726 101.981 331.402C98.7019 335.067 96.4034 339.482 95.2948 344.245C94.904 346.386 95.5119 346.921 97.596 346.386C99.3583 345.691 100.917 344.573 102.13 343.134C103.343 341.695 104.173 339.98 104.543 338.145C104.886 335.742 105.752 333.442 107.083 331.402C107.89 330.452 108.972 329.769 110.185 329.444C111.398 329.119 112.682 329.169 113.865 329.587C115.048 330.004 116.073 330.77 116.801 331.779C117.53 332.789 117.926 333.995 117.938 335.233C118.004 335.924 118.026 336.617 118.003 337.31Z" fill="#FF7596" stroke="#FF7596" stroke-width="2"/>
<path d="M67.2886 342.918C67.9833 348.312 68.8517 353.021 69.0905 357.773C69.1381 360.678 68.6979 363.571 67.7879 366.335C67.5024 367.523 66.7624 368.555 65.7226 369.218C64.6829 369.88 63.4238 370.12 62.2085 369.888C60.974 369.814 59.809 369.299 58.9305 368.441C58.0519 367.582 57.5195 366.439 57.4324 365.222C57.4737 361.743 57.7202 358.27 58.1705 354.819C58.3517 353.902 58.307 352.955 58.0402 352.058L56.6725 354.07C55.8502 355.332 54.6666 356.325 53.2714 356.923C51.8762 357.522 50.3323 357.698 48.8353 357.431C45.6657 356.874 44.0591 354.37 45.5788 351.587C46.5695 349.815 48.0238 348.336 49.7905 347.306C54.545 344.673 57.1935 340.563 59.3862 335.276C57.91 335.276 56.7811 335.169 55.6739 335.062C53.7905 335.006 51.916 334.784 50.0728 334.399C48.0537 333.842 46.4255 332.601 46.8814 330.118C47.0005 329.051 47.5045 328.062 48.3015 327.331C49.0986 326.6 50.1356 326.176 51.2234 326.136C53.6331 325.986 56.0429 326.136 58.4527 326.136C58.4527 322.454 57.2804 321.277 54.1108 321.705C51.9398 321.984 49.9208 321.705 49.0307 319.287C48.6977 318.038 48.7843 316.716 49.2774 315.519C49.7706 314.323 50.6438 313.317 51.7661 312.651C55.0009 310.682 58.0837 308.37 61.4704 306.786C63.42 305.933 65.5521 305.566 67.6794 305.716C69.8503 305.716 71.0878 308.22 70.5016 310.917C70.0289 312.184 69.4779 313.42 68.8517 314.62C67.9182 317.424 66.9629 320.207 66.2899 323.075C65.8774 324.788 66.9195 325.387 68.6129 324.959C70.2467 324.493 71.9632 324.38 73.6454 324.628C75.3275 324.875 76.9358 325.477 78.3606 326.393C79.0096 326.816 79.5561 327.375 79.9614 328.03C80.3666 328.684 80.6206 329.419 80.7052 330.182C80.4734 330.911 80.0749 331.577 79.5404 332.13C79.0059 332.683 78.3497 333.108 77.6224 333.371C75.4502 333.948 73.2068 334.222 70.9575 334.185C68.0701 334.313 67.4188 334.848 66.9195 338.337C69.6984 335.854 72.043 337.053 74.3008 338.829C75.1909 339.514 76.1245 340.135 76.9928 340.863C78.1398 341.732 78.9608 342.952 79.3263 344.332C79.6919 345.712 79.5813 347.172 79.0119 348.483C78.6776 349.221 78.1928 349.883 77.5877 350.428C76.9826 350.973 76.2702 351.389 75.4949 351.651C74.1706 351.844 72.4338 350.56 71.1529 349.511C70.3824 348.593 69.78 347.55 69.3727 346.428C68.83 345.422 68.2438 344.502 67.2886 342.918Z" fill="#FF7596" stroke="#FF7596" stroke-width="2"/>
<path d="M234.664 348.711C240.488 347.977 246.418 347.627 252.313 346.508C253.931 346.005 255.427 345.178 256.708 344.077C257.99 342.977 259.028 341.627 259.76 340.111C260.492 338.595 260.901 336.947 260.962 335.268C261.022 333.588 260.734 331.915 260.113 330.351C259.808 329.878 259.391 329.485 258.9 329.205C258.408 328.925 257.856 328.766 257.29 328.743C255.172 329.358 253.152 330.264 251.289 331.436C243.947 335.772 236.747 340.283 229.37 344.585C227.732 345.414 225.944 345.913 224.111 346.054C211.721 347.452 204.344 337.975 209.251 326.54C211.564 321.162 215.295 316.501 220.052 313.043C224.809 309.585 230.417 307.458 236.288 306.886C242.501 305.647 248.945 306.239 254.823 308.588C260.7 310.937 265.755 314.941 269.361 320.105C272.922 324.614 274.901 330.151 274.996 335.876C275.092 341.601 273.299 347.2 269.89 351.824C265.021 358.11 258.692 363.139 251.441 366.482C244.189 369.824 236.23 371.382 228.24 371.023C226.268 371.245 224.273 370.914 222.482 370.067C220.691 369.22 219.176 367.891 218.11 366.232C217.132 364.522 216.594 362.6 216.544 360.636C216.494 358.671 216.933 356.725 217.823 354.968C218.713 353.212 220.026 351.7 221.646 350.566C223.266 349.432 225.143 348.711 227.111 348.467C229.617 348.117 232.193 348.117 234.7 347.942L234.664 348.711ZM243.594 318.706C234.241 317.937 224.569 325.071 224.675 332.695C232.511 330.282 239.571 326.889 243.594 318.706Z" fill="#FF7596"/>
<path d="M157.57 789.465C157.49 788.895 157.355 788.334 157.166 787.79C155.578 785.423 154.539 783.027 157.166 780.66C158.412 779.714 159.932 779.202 161.496 779.202C163.06 779.202 164.581 779.714 165.827 780.66C166.548 781.208 167.039 782.045 167.732 782.652C168.425 783.258 170.243 785.336 170.85 785.077C172.601 784.29 174.129 783.08 175.295 781.555C175.699 781.064 175.007 778.899 174.314 778.523C172.3 777.419 170.097 776.704 167.818 776.416C161.855 775.642 155.792 776.448 150.238 778.754C149.132 779.403 147.846 779.676 146.572 779.534C144.522 778.928 141.693 778.177 140.942 776.647C140.708 775.599 140.695 774.513 140.904 773.459C141.113 772.406 141.539 771.407 142.155 770.527C143.685 768.131 146.254 766.485 147.928 764.205C150.382 760.914 150.18 759.99 147.409 756.468C146.119 756.706 144.934 757.334 144.014 758.269C143.095 759.204 142.486 760.4 142.27 761.693C142.001 763.055 141.416 764.335 140.563 765.43C139.71 766.525 138.612 767.406 137.358 768.001C136.104 768.595 134.728 768.888 133.34 768.856C131.952 768.823 130.591 768.466 129.366 767.813C128.449 767.395 127.626 766.796 126.946 766.052C126.267 765.308 125.745 764.434 125.411 763.483C124.863 759.151 124.863 754.767 125.411 750.435C125.697 748.22 126.776 746.184 128.448 744.703C130.12 743.222 132.271 742.397 134.505 742.381C138.728 741.757 143.006 741.593 147.264 741.89C156.699 742.668 166.198 741.779 175.324 739.263C180.696 737.971 186.158 737.093 191.664 736.636C199.169 736.059 202.547 740.331 201.565 747.837C201.448 750.004 201.762 752.172 202.489 754.217C204.019 759.528 202.143 762.646 196.456 763.974C190.162 765.446 185.977 763.137 185.168 757.767C184.36 752.398 183.494 751.33 177.951 751.301C176.219 751.301 174.487 751.301 172.755 751.301C169.9 751.384 167.173 752.501 165.081 754.445C162.989 756.388 161.674 759.026 161.381 761.867C161.424 762.371 161.598 762.855 161.887 763.27C162.176 763.686 162.569 764.018 163.026 764.234C165.478 764.718 167.982 764.873 170.474 764.696C172.857 764.272 175.21 763.693 177.518 762.964C178.997 762.566 180.544 762.496 182.052 762.759C183.56 763.022 184.993 763.611 186.249 764.486C187.506 765.36 188.556 766.498 189.327 767.821C190.098 769.144 190.57 770.619 190.711 772.144C193.165 790.331 172.842 807.276 155.434 801.445C153.656 800.987 152.019 800.094 150.671 798.847C149.401 797.346 147.957 794.776 148.477 793.391C148.996 792.005 151.595 790.504 153.5 789.465C154.481 789.031 155.925 789.465 157.57 789.465Z" fill="#FF7596" stroke="#FF7596" stroke-opacity="0.95"/>
<path d="M141.373 712.184C139.092 712.733 136.811 713.397 134.502 713.83C131.615 714.407 128.295 714.927 126.506 711.607C124.716 708.287 126.506 705.545 128.7 703.206C130.144 701.699 131.892 700.516 133.828 699.735C135.764 698.954 137.843 698.592 139.929 698.674H144.981C146.165 695.643 147.868 693.132 151.39 693.247C152.885 693.253 154.33 693.786 155.47 694.752C156.611 695.718 157.374 697.056 157.625 698.53C159.172 699.038 160.845 699.006 162.371 698.44C163.897 697.874 165.186 696.806 166.026 695.412C169.202 690.938 172.637 691.082 177.14 694.575C178.412 695.321 179.83 695.784 181.297 695.932C183.203 696.336 185.223 696.278 187.071 696.798C188.115 696.962 189.089 697.426 189.874 698.134C190.659 698.841 191.222 699.761 191.494 700.783C191.766 701.804 191.736 702.882 191.407 703.886C191.077 704.891 190.464 705.778 189.64 706.44C186.551 709.702 182.337 710.135 178.237 710.741C177.225 711.041 176.256 711.468 175.35 712.011L175.841 713.166C178.439 712.877 181.009 712.502 183.607 712.271C186.476 711.803 189.417 712.435 191.841 714.04C194.266 715.646 195.995 718.107 196.684 720.932C198.56 727.398 196.482 732.075 190.044 733.893C184.604 735.374 179.037 736.341 173.416 736.78C163.428 737.646 153.382 738.108 143.365 738.454C139.914 738.564 136.463 738.254 133.088 737.531C127.314 736.376 125.611 734.038 125.206 727.571C124.868 725.256 125.353 722.895 126.577 720.901C127.801 718.907 129.686 717.405 131.904 716.659L141.777 712.906L141.373 712.184ZM183.953 723.559C182.64 722.924 181.166 722.7 179.724 722.916C178.282 723.133 176.939 723.779 175.87 724.771C175.764 725.2 175.773 725.65 175.894 726.076C176.016 726.501 176.246 726.887 176.563 727.196C178.026 727.605 179.589 727.46 180.953 726.789C182.316 726.118 183.384 724.968 183.953 723.559ZM141.084 729.332C143.74 728.408 145.356 726.907 144.692 724.28C144.112 723.984 143.478 723.808 142.828 723.763C142.178 723.718 141.526 723.806 140.911 724.02C138.313 725.579 139.727 727.427 141.084 729.39V729.332Z" fill="#FF7596" stroke="#FF7596" stroke-opacity="0.95"/>
<defs>
<clipPath id="clip0_162_21">
<rect width="187" height="363" fill="white" transform="translate(61 -84)"/>
</clipPath>
</defs>
</svg>
