<svg width="303" height="302" viewBox="0 0 303 302" fill="none" xmlns="http://www.w3.org/2000/svg">
<path d="M150.596 0.0096828C170.545 -0.21637 190.34 3.51768 208.833 10.9951C227.326 18.4725 244.148 29.5444 258.323 43.5682C272.499 57.5921 283.745 74.2886 291.409 92.689C299.074 111.089 303.004 130.827 302.972 150.757C302.939 170.687 298.945 190.412 291.221 208.787C283.497 227.163 272.196 243.823 257.975 257.801C243.755 271.778 226.897 282.796 208.38 290.213C189.862 297.631 170.055 301.3 150.107 301.01C62.6594 300.753 -0.688783 228.888 0.00565391 149.418C0.384459 109.732 16.4042 71.7935 44.5927 43.8263C72.7812 15.859 110.867 0.116039 150.596 0.0096828ZM150.107 296.411C178.915 296.554 207.122 288.181 231.177 272.345C255.232 256.509 274.06 233.919 285.292 207.417C296.523 180.915 299.656 151.686 294.296 123.41C288.936 95.1336 275.322 69.0731 255.168 48.5087C235.014 27.9443 209.221 13.7952 181.036 7.84234C152.85 1.88945 123.532 4.39877 96.771 15.0545C70.01 25.7103 47.0024 44.0363 30.6442 67.7257C14.286 91.4151 5.30823 119.409 4.84101 148.184C4.49312 167.484 7.99008 186.66 15.1284 204.597C22.2668 222.534 32.904 238.875 46.4215 252.668C59.939 266.46 76.0669 277.431 93.8671 284.94C111.667 292.45 130.785 296.349 150.107 296.411Z" fill="#FF7596"/>
<path d="M150.101 296.401C121.114 296.36 92.7938 287.7 68.7496 271.525C44.7054 255.35 26.0249 232.391 15.0877 205.573C4.15047 178.755 1.4515 149.292 7.33453 120.936C13.2176 92.5806 27.4164 66.6161 48.1223 46.3498C68.8283 26.0836 95.1042 12.4329 123.603 7.13664C152.102 1.84036 181.534 5.13822 208.151 16.61C234.767 28.0819 257.363 47.2084 273.06 71.5535C288.757 95.8987 296.845 124.36 296.293 153.313C295.611 191.562 279.897 228.007 252.544 254.779C225.191 281.551 188.395 296.501 150.101 296.401ZM286.185 148.637C286.356 130.973 283.012 113.451 276.348 97.0888C269.684 80.7263 259.833 65.8492 247.367 53.3212C234.9 40.7933 220.066 30.8641 203.727 24.1101C187.387 17.3561 169.868 13.9118 152.185 13.9773C116.143 13.929 81.5482 28.1422 55.9687 53.5077C30.3892 78.8732 15.9068 113.326 15.6892 149.331C15.3159 167.307 18.5786 185.174 25.2817 201.86C31.9848 218.547 41.9904 233.71 54.6992 246.442C67.4081 259.174 82.5585 269.212 99.2432 275.955C115.928 282.699 133.803 286.009 151.799 285.687C187.739 285.085 221.994 270.365 247.148 244.714C272.301 219.062 286.326 184.545 286.185 148.637Z" fill="#FFF3E8"/>
<path d="M286.185 148.637C286.326 184.545 272.301 219.062 247.147 244.714C221.994 270.365 187.739 285.085 151.799 285.687C133.803 286.009 115.928 282.699 99.2431 275.955C82.5585 269.212 67.408 259.174 54.6992 246.442C41.9904 233.71 31.9848 218.547 25.2817 201.86C18.5786 185.174 15.3159 167.307 15.6892 149.331C15.9067 113.326 30.3892 78.8731 55.9687 53.5077C81.5481 28.1422 116.143 13.929 152.185 13.9772C169.868 13.9118 187.387 17.3561 203.727 24.1101C220.066 30.8641 234.9 40.7933 247.366 53.3212C259.833 65.8491 269.684 80.7263 276.348 97.0888C283.012 113.451 286.356 130.973 286.185 148.637ZM20.2673 151.078C20.9617 222.892 76.8511 280.574 148.867 281.036C183.258 281.255 216.375 268.052 241.164 244.238C265.954 220.424 280.456 187.882 281.581 153.545C282.332 136.168 279.568 118.819 273.453 102.534C267.339 86.2489 258 71.363 245.995 58.7659C233.99 46.1689 219.566 36.1195 203.584 29.2186C187.603 22.3176 170.392 18.7069 152.982 18.6021C80.1432 18.2681 20.6017 77.6202 20.2673 151.078Z" fill="#FF7596"/>
<path d="M20.2673 151.078C20.6789 77.6203 80.2204 18.2682 152.905 18.6022C170.315 18.707 187.526 22.3177 203.507 29.2187C219.489 36.1197 233.913 46.169 245.918 58.7661C257.923 71.3631 267.262 86.2491 273.376 102.534C279.491 118.819 282.255 136.168 281.504 153.545C280.379 187.869 265.888 220.4 241.115 244.211C216.342 268.023 183.244 281.235 148.867 281.036C76.6968 280.574 20.8846 222.892 20.2673 151.078ZM207.277 229.546C207.277 228.519 207.277 227.491 207.277 226.463C206.917 218.755 202.647 215.004 195.214 216.186C186.154 217.441 176.957 217.346 167.925 215.903C166.529 215.647 165.094 215.687 163.715 216.02C162.335 216.353 161.04 216.972 159.915 217.836C158.79 218.701 157.859 219.792 157.183 221.04C156.507 222.287 156.101 223.662 155.991 225.076C155.729 228.148 155.946 231.242 156.634 234.248C157.839 239.458 157.9 244.866 156.814 250.101C156.461 251.921 156.392 253.784 156.609 255.625C156.636 257.127 157.135 258.582 158.035 259.786C158.934 260.989 160.19 261.879 161.624 262.331C163.134 262.73 164.734 262.614 166.17 261.999C167.605 261.384 168.794 260.307 169.546 258.94C170.465 257.838 171.187 256.586 171.68 255.24C171.945 254.122 172.621 253.145 173.574 252.502C174.527 251.859 175.688 251.598 176.824 251.771C180.605 251.771 184.412 251.771 188.218 251.771C193.105 251.771 193.105 251.771 193.748 256.602C193.731 257.778 194.094 258.929 194.783 259.883C195.473 260.837 196.451 261.544 197.574 261.898C198.697 262.253 199.905 262.237 201.018 261.852C202.131 261.467 203.09 260.734 203.753 259.762C204.771 258.735 205.522 257.474 205.939 256.09C206.356 254.706 206.427 253.24 206.145 251.823C205.472 247.871 205.533 243.83 206.325 239.901C206.959 236.487 207.252 233.018 207.2 229.546H207.277ZM134.129 224.844C135.414 224.998 136.716 224.865 137.944 224.457C139.171 224.048 140.293 223.373 141.228 222.481C141.913 221.963 142.431 221.255 142.719 220.446C143.006 219.637 143.05 218.762 142.844 217.928C142.639 217.095 142.194 216.339 141.564 215.756C140.934 215.172 140.147 214.786 139.299 214.644C136.903 213.957 134.354 214.019 131.995 214.824C124.843 216.87 117.27 216.941 110.081 215.029C108.081 214.45 105.936 214.633 104.063 215.543C103.161 215.944 102.409 216.62 101.915 217.474C101.421 218.328 101.209 219.316 101.311 220.297C101.348 221.284 101.715 222.231 102.354 222.985C102.992 223.74 103.866 224.259 104.834 224.459C106.138 224.776 107.487 224.863 108.821 224.716C109.166 224.623 109.528 224.609 109.879 224.675C110.23 224.741 110.562 224.886 110.849 225.099C111.136 225.311 111.371 225.586 111.536 225.903C111.702 226.219 111.794 226.569 111.804 226.926C111.952 227.31 112.02 227.719 112.007 228.131C111.993 228.542 111.897 228.946 111.724 229.32C111.552 229.693 111.306 230.028 111.002 230.306C110.698 230.583 110.341 230.796 109.953 230.934C109.264 231.137 108.558 231.275 107.844 231.345C103.626 232.039 101.619 234.531 101.336 239.336C101.156 242.419 102.571 243.96 106.738 245.065C107.406 245.271 107.818 245.476 107.946 246.196C108.041 246.87 107.992 247.556 107.801 248.209C107.61 248.863 107.283 249.468 106.84 249.986C106.398 250.503 105.85 250.921 105.234 251.211C104.618 251.501 103.947 251.657 103.265 251.668H101.105C99.7089 251.647 98.3525 252.133 97.288 253.035C96.2236 253.938 95.5235 255.196 95.318 256.576C95.2826 257.988 95.8004 259.358 96.7611 260.395C97.7219 261.432 99.0498 262.053 100.462 262.126C102.907 262.511 105.398 262.511 107.844 262.126C114.517 260.893 121.36 260.893 128.034 262.126C132.091 263.335 136.35 263.719 140.559 263.256C141.901 263.111 143.166 262.558 144.183 261.671C145.2 260.784 145.919 259.606 146.243 258.297C146.57 257.093 146.495 255.815 146.031 254.657C145.567 253.498 144.739 252.521 143.671 251.874C142.861 251.287 142.203 250.514 141.756 249.619C141.308 248.725 141.083 247.735 141.099 246.735C141.099 244.474 140.739 242.239 140.636 239.978C140.7 238.768 140.477 237.561 139.985 236.453C139.494 235.346 138.749 234.37 137.809 233.604C136.87 232.838 135.763 232.305 134.578 232.046C133.394 231.787 132.165 231.811 130.991 232.116C128.648 232.441 126.285 232.613 123.919 232.63C122.35 232.63 121.655 232.013 121.964 230.368C122.079 229.432 122.383 228.529 122.858 227.713C123.332 226.897 123.967 226.185 124.724 225.621C125.481 225.057 126.345 224.652 127.263 224.43C128.181 224.208 129.134 224.174 130.066 224.331C131.403 224.639 132.74 224.716 134.052 224.844H134.129ZM110.158 87.6665C107.497 88.8697 105.021 90.4441 102.802 92.3427C92.6561 101.214 84.7513 112.355 79.732 124.856C74.7127 137.358 72.7209 150.868 73.919 164.285C74.1295 168.39 74.9441 172.441 76.3367 176.309C76.8511 177.645 77.6485 178.724 79.3717 178.056C81.0949 177.388 80.812 176.284 80.4262 174.973C77.5208 164.564 77.1767 153.607 79.4231 143.036C82.6588 124.454 92.2933 107.586 106.66 95.3489C108.47 93.817 110.583 92.6841 112.861 92.0244C115.139 91.3647 117.531 91.193 119.881 91.5206C125.156 92.3757 130.484 92.8735 135.827 93.0107C142.908 92.9258 149.675 90.0762 154.68 85.0714C155.54 84.3467 156.182 83.3963 156.531 82.3272C156.88 81.258 156.923 80.1127 156.656 79.0203C156.388 77.9279 155.821 76.9318 155.017 76.1443C154.214 75.3567 153.206 74.8089 152.108 74.5628C150.51 74.1566 148.829 74.228 147.272 74.7683C141.476 76.7249 135.386 77.6722 129.268 77.5689C124.767 77.3377 120.241 77.569 115.714 77.3891C109.291 77.204 102.999 79.2265 97.89 83.1187C91.331 87.9363 85.5535 93.7338 80.7605 100.308C63.3996 123.612 58.6414 148.766 69.701 176.232C70.344 177.851 71.0898 179.47 73.1989 178.802C75.3079 178.134 74.7678 176.232 74.1762 174.716C73.8419 173.843 73.4818 172.995 73.1732 172.147C69.8845 164.04 68.2662 155.354 68.415 146.608C69.3172 127.096 77.5888 108.651 91.5629 94.9891C96.3982 89.9789 101.774 86.0992 110.081 87.6665H110.158ZM33.5902 141.032C33.3033 151.675 35.5235 162.236 40.0717 171.864C40.9532 174.066 42.4098 175.992 44.2897 177.44C46.193 178.776 48.5335 180.009 50.7968 178.39C53.0602 176.772 51.7999 174.691 51.0283 172.815C45.5508 159.088 43.9235 144.129 46.3216 129.547C48.3356 114.071 53.5738 99.1889 61.6984 85.8596C69.8229 72.5302 80.6535 61.0496 93.4919 52.158C97.0927 49.5887 101.054 47.6102 104.834 45.3235C106.043 44.5784 106.969 43.5506 106.275 42.009C106.003 41.3871 105.497 40.8976 104.866 40.6473C104.234 40.397 103.53 40.4062 102.905 40.673C101.517 41.0841 100.153 41.5722 98.8159 42.0861C53.3174 60.2001 33.8731 107.733 33.5131 141.032H33.5902ZM148.867 39.4911C151.902 37.6669 154.525 36.2537 156.994 34.5836C159.463 32.9135 161.933 31.3462 160.749 27.9546C159.566 24.5631 156.454 25.2311 153.882 25.3853C144.481 26.2899 135.697 30.4639 129.062 37.1786C125.405 40.6335 121.209 43.4712 116.64 45.5805C104.584 50.9495 93.3318 57.962 83.2039 66.4179C67.9175 79.4131 56.9187 96.7196 51.6497 116.068C46.3808 135.417 47.0876 155.904 53.6775 174.845C54.2947 176.541 54.7577 179.29 57.304 178.519C60.2618 177.594 58.3071 175.204 57.8184 173.586C53.672 161.097 52.0801 147.904 53.1374 134.788C54.6431 115.947 61.7249 97.9793 73.4818 83.1702C85.3552 68.8865 100.468 57.6383 117.566 50.3594C123.191 47.8276 128.341 44.3515 132.792 40.082C137.341 35.7283 142.899 32.5681 148.97 30.8837C150.712 30.1049 152.657 29.898 154.525 30.2928C152.14 32.0446 149.61 33.5918 146.964 34.9177C144.384 36.1931 141.967 37.7715 139.762 39.6195C139.294 40.0277 138.956 40.5646 138.792 41.1632C138.627 41.7618 138.642 42.3955 138.836 42.9854C138.934 43.4998 139.214 43.9619 139.625 44.2873C140.036 44.6127 140.55 44.7799 141.074 44.7583C144.443 44.7583 147.838 44.4756 151.233 44.2444C151.703 44.2332 152.153 44.0485 152.495 43.7259C152.837 43.4033 153.047 42.9655 153.085 42.4972C153.18 41.9812 153.077 41.4483 152.795 41.0052C152.514 40.5621 152.075 40.2416 151.567 40.1077C150.68 39.8495 149.778 39.6436 148.867 39.4911ZM151.104 189.182C158.588 189.253 165.924 187.105 172.186 183.01C178.447 178.915 183.352 173.057 186.28 166.177C189.209 159.297 190.029 151.704 188.637 144.358C187.245 137.012 183.703 130.244 178.46 124.909C173.217 119.575 166.508 115.913 159.182 114.388C151.855 112.863 144.241 113.542 137.301 116.341C130.361 119.139 124.408 123.931 120.195 130.11C115.981 136.288 113.697 143.577 113.631 151.052C113.528 156.043 114.424 161.004 116.268 165.643C118.111 170.282 120.864 174.507 124.364 178.069C127.865 181.631 132.043 184.457 136.653 186.383C141.262 188.31 146.211 189.296 151.207 189.285L151.104 189.182ZM145.652 50.231C143.697 50.231 141.742 50.231 139.813 50.231C137.759 50.3494 135.715 50.5983 133.692 50.9761C103.265 56.8856 80.7348 73.5608 66.8204 101.079C57.2268 119.861 55.5294 140.056 58.5643 160.739C59.3839 166.112 60.6222 171.412 62.2679 176.592C62.6794 177.954 63.5282 178.75 65.0199 178.39C66.5117 178.031 66.6918 176.823 66.4088 175.487C66.2802 174.896 66.0745 174.331 65.9202 173.74C63.6989 165.943 62.3786 157.917 61.985 149.819C60.9819 123.663 67.8491 100.282 86.5475 81.2174C94.7 72.5462 104.588 65.6858 115.568 61.0821C126.549 56.4784 138.376 54.2345 150.281 54.4961C151.747 54.4961 152.519 54.4961 152.982 56.3974C153.61 58.4164 154.702 60.2604 156.172 61.7818C157.641 63.3032 159.447 64.4598 161.444 65.1589C162.368 65.7479 163.468 65.9982 164.556 65.867C165.645 65.7358 166.654 65.2312 167.411 64.4395C168.432 63.5502 169.098 62.3229 169.287 60.9826C169.476 59.6424 169.175 58.2791 168.44 57.1426C167.276 55.1917 165.616 53.5837 163.628 52.4824C161.64 51.3811 159.396 50.8259 157.123 50.8733C156.506 50.8733 155.708 51.233 155.348 50.8733C152.313 48.8435 148.867 50.2053 145.755 50.231H145.652ZM247.117 92.7024C247.528 85.8936 240.275 81.7056 234.668 82.425C233.871 82.425 233.562 83.2472 233.202 83.8896C230.862 88.0262 232.199 92.7795 236.777 96.6078C237.739 97.5478 238.952 98.1909 240.27 98.4597C241.589 98.7286 242.957 98.6119 244.211 98.1237C245.197 97.6244 246.012 96.841 246.548 95.8745C247.085 94.9081 247.318 93.8031 247.22 92.7024H247.117ZM187.91 35.1232C185.959 34.9855 184.02 35.5107 182.406 36.6134C181.876 36.9771 181.426 37.4437 181.081 37.9852C180.736 38.5266 180.504 39.1319 180.398 39.7649C180.293 40.398 180.316 41.0458 180.466 41.6697C180.617 42.2937 180.891 42.8809 181.274 43.3965C182.822 45.2216 184.831 46.5989 187.093 47.3852C189.355 48.1714 191.786 48.3379 194.134 47.8672C195.357 47.624 196.437 46.9131 197.143 45.886C197.85 44.8588 198.126 43.5968 197.915 42.3688C197.735 37.9752 193.799 35.1232 187.91 35.1232ZM234.72 72.533C239.349 72.533 241.51 70.3747 240.687 66.5721C240.311 64.6334 239.242 62.8979 237.678 61.6903C236.323 60.6652 234.775 59.925 233.126 59.5143C231.477 59.1036 229.762 59.031 228.084 59.3008C227.224 59.2647 226.371 59.4745 225.626 59.9056C224.881 60.3366 224.274 60.9711 223.877 61.7344C223.48 62.4978 223.31 63.3583 223.385 64.2152C223.46 65.0721 223.779 65.8897 224.303 66.5721C225.304 68.4481 226.81 70.0074 228.65 71.0743C230.491 72.1412 232.593 72.6731 234.72 72.6101V72.533ZM217.899 107.194C217.907 108.537 218.227 109.861 218.834 111.06C219.441 112.26 220.318 113.302 221.397 114.105C221.722 114.464 222.119 114.75 222.562 114.946C223.005 115.142 223.484 115.244 223.969 115.244C224.453 115.244 224.933 115.142 225.376 114.946C225.819 114.75 226.215 114.464 226.541 114.105C228.055 112.712 229.249 111.008 230.039 109.109C230.83 107.21 231.198 105.163 231.119 103.108C231.124 101.757 230.618 100.453 229.702 99.4577C228.787 98.4623 227.529 97.8483 226.181 97.7383C221.963 97.1217 217.951 101.361 217.899 107.271V107.194ZM211.649 60.9452C210.933 60.8795 210.212 60.9707 209.535 61.2123C208.858 61.4539 208.243 61.8402 207.731 62.3442C207.219 62.8483 206.823 63.4578 206.572 64.1304C206.32 64.8029 206.218 65.5222 206.274 66.238C206.378 67.5845 206.746 68.8974 207.359 70.1015C207.971 71.3056 208.815 72.3773 209.842 73.2555C210.869 74.1336 212.059 74.8009 213.345 75.2192C214.63 75.6375 215.985 75.7986 217.333 75.6933C217.998 75.6287 218.643 75.4279 219.226 75.1034C219.81 74.7788 220.321 74.3376 220.726 73.8072C221.132 73.2768 221.423 72.6686 221.583 72.0206C221.743 71.3725 221.767 70.6985 221.654 70.0407C221.036 67.7404 219.761 65.6697 217.985 64.0817C216.208 62.4938 214.006 61.4574 211.649 61.0993V60.9452ZM207.74 45.0666C205.168 45.0666 202.827 45.6318 201.798 48.3811C200.77 51.1303 202.39 53.3142 204.37 54.9586C206.693 56.8579 209.626 57.8528 212.626 57.7592C213.814 57.8426 214.994 57.5116 215.965 56.8228C216.936 56.134 217.638 55.1301 217.95 53.9822C218.333 52.7923 218.303 51.5082 217.864 50.3378C217.425 49.1674 216.604 48.1791 215.533 47.5331C213.201 46.0539 210.502 45.2532 207.74 45.2207V45.0666ZM194.108 52.415C188.964 52.415 186.958 55.4725 188.964 59.3779C190.626 62.3591 193.244 64.6942 196.397 66.0068C197.388 66.585 198.544 66.8156 199.681 66.662C200.818 66.5084 201.871 65.9793 202.673 65.1589C203.483 64.2782 203.974 63.1514 204.067 61.9589C204.161 60.7664 203.851 59.5771 203.187 58.5814C202.295 56.9031 200.997 55.4741 199.412 54.4242C197.826 53.3742 196.003 52.7365 194.108 52.5691V52.415ZM166.588 32.8878C163.895 32.9661 161.305 33.943 159.232 35.6627C158.539 36.0855 157.971 36.6848 157.587 37.3992C157.202 38.1135 157.014 38.9172 157.043 39.7278C157.072 40.5384 157.316 41.3268 157.75 42.0122C158.185 42.6975 158.794 43.255 159.515 43.6277C162.704 45.9658 166.099 44.7326 169.288 43.8333C170.718 43.5477 171.992 42.7446 172.866 41.578C173.739 40.4114 174.151 38.9637 174.021 37.5127C173.455 34.9433 170.703 33.0677 166.588 33.042V32.8878ZM259.025 110.174C258.868 108.176 258.129 106.267 256.9 104.683C255.671 103.099 254.004 101.909 252.107 101.258C247.966 100.076 245.625 101.824 245.857 106.089C246.069 108.149 246.732 110.138 247.798 111.914C248.865 113.69 250.309 115.21 252.029 116.366C252.687 116.888 253.52 117.138 254.356 117.066C255.193 116.995 255.971 116.606 256.53 115.981C257.331 115.275 257.968 114.404 258.399 113.428C258.83 112.452 259.043 111.395 259.025 110.328V110.174ZM174.587 46.4283C173.558 46.3017 172.514 46.4572 171.567 46.8782C170.62 47.2991 169.806 47.9696 169.211 48.8178C168.76 49.5179 168.536 50.3396 168.568 51.1714C168.6 52.0033 168.888 52.8052 169.391 53.4684C170.506 55.1441 171.975 56.5555 173.695 57.6031C175.415 58.6507 177.343 59.3091 179.345 59.532C180.012 59.6605 180.701 59.6308 181.355 59.4452C182.009 59.2597 182.61 58.9235 183.11 58.4638C183.61 58.004 183.996 57.4335 184.235 56.798C184.475 56.1624 184.562 55.4796 184.489 54.8044C184.335 49.9484 180.142 46.3769 174.587 46.4283ZM182.611 82.8361C181.721 82.788 180.836 83.0068 180.07 83.4647C179.305 83.9225 178.694 84.5983 178.316 85.4055C177.469 87.5151 177.461 89.8682 178.293 91.9838C179.124 94.0994 180.734 95.8178 182.791 96.7877C183.486 97.1263 184.263 97.2625 185.031 97.1807C185.8 97.0989 186.53 96.8024 187.138 96.3252C188.13 95.1571 188.786 93.7416 189.035 92.2301C189.284 90.7186 189.117 89.1678 188.553 87.7436C188.152 86.4157 187.361 85.2384 186.284 84.3636C185.207 83.4889 183.892 82.9568 182.508 82.8361H182.611ZM248.48 126.746C248.274 132.116 251.258 135.2 255.322 133.761C257.894 132.887 258.665 130.395 257.894 126.053C257.122 121.71 255.322 119.501 252.595 119.732C249.869 119.963 248.531 122.635 248.377 126.746H248.48ZM180.142 66.7006C179.311 66.6202 178.477 66.8331 177.787 67.3024C177.096 67.7718 176.592 68.4679 176.361 69.2699C175.938 71.0221 176.004 72.8569 176.552 74.5742C177.101 76.2914 178.112 77.825 179.474 79.0077C180.015 79.4392 180.644 79.7482 181.316 79.9132C181.989 80.0782 182.689 80.0953 183.369 79.9634C184.049 79.8315 184.692 79.5536 185.254 79.1491C185.816 78.7446 186.283 78.2229 186.624 77.6203C188.784 73.6635 184.669 66.6235 180.039 66.7006H180.142ZM237.909 136.664C237.688 137.734 237.847 138.848 238.358 139.814C238.87 140.78 239.702 141.538 240.713 141.957C241.699 142.298 242.772 142.295 243.757 141.95C244.743 141.605 245.582 140.937 246.14 140.056C247.216 138.737 247.859 137.118 247.978 135.421C248.098 133.724 247.689 132.031 246.808 130.575C246.551 129.945 246.121 129.399 245.57 129C245.018 128.601 244.365 128.364 243.686 128.316C243.006 128.268 242.327 128.41 241.724 128.728C241.121 129.045 240.619 129.525 240.275 130.112C238.773 131.977 237.908 134.273 237.806 136.664H237.909ZM228.213 83.1187C228.291 82.4959 228.291 81.8659 228.213 81.2431C227.698 79.0335 226.567 77.0808 224.149 76.8238C221.731 76.5669 220.754 78.314 220.008 80.241C219.461 81.5656 219.235 83.0003 219.346 84.4288C219.458 85.8572 219.905 87.2393 220.651 88.463C220.958 89.1188 221.45 89.6703 222.067 90.0493C222.684 90.4284 223.399 90.6183 224.123 90.5955C224.856 90.5491 225.555 90.2771 226.127 89.817C226.698 89.3569 227.112 88.7312 227.313 88.0262C228.029 86.4961 228.305 84.7968 228.11 83.1187H228.213ZM246.062 119.321C246.062 115.364 244.442 112.769 241.973 112.486C239.504 112.204 237.523 114.413 236.829 117.985C236.701 118.688 236.649 119.403 236.675 120.117C236.906 122.687 237.626 124.794 240.43 125.436C242.59 125.898 244.802 124.049 245.574 121.222C245.748 120.599 245.877 119.963 245.959 119.321H246.062ZM253.11 88.4887C252.326 88.5448 251.58 88.8417 250.972 89.3385C250.364 89.8353 249.925 90.5077 249.715 91.2636C249.566 92.241 249.616 93.2381 249.862 94.1958C250.107 95.1534 250.542 96.0521 251.142 96.8383C251.742 97.6245 252.494 98.2822 253.353 98.7723C254.213 99.2624 255.162 99.5748 256.145 99.6911C256.813 99.752 257.483 99.6042 258.064 99.2683C258.644 98.9323 259.106 98.4247 259.385 97.8154C260.851 94.4239 256.89 88.4116 253.007 88.4887H253.11ZM250.538 80.4723C250.538 77.646 246.782 74.2545 243.516 73.7663C242.815 73.5841 242.073 73.636 241.404 73.9144C240.736 74.1928 240.177 74.6822 239.812 75.3079C239.366 75.9479 239.149 76.7194 239.195 77.4979C239.242 78.2765 239.55 79.0165 240.07 79.5987C241.782 81.678 244.234 83.0134 246.911 83.3243C248.814 83.5299 250.255 82.5791 250.332 80.4723H250.538ZM166.871 70.94C166.871 74.0232 168.08 76.0787 170.291 76.3099C173.044 76.644 174.047 74.6912 174.767 72.5843C175.243 71.1057 175.243 69.5152 174.767 68.0366C174.33 66.5207 173.687 65.1075 171.835 64.902C171.064 64.8092 170.283 64.9479 169.591 65.3002C168.9 65.6526 168.329 66.2026 167.951 66.8804C167.163 68.0823 166.785 69.506 166.871 70.94ZM243.002 106.32C243.009 104.831 242.436 103.397 241.404 102.323C240.372 101.249 238.962 100.618 237.472 100.565C234.9 100.565 233.691 102.312 233.588 104.753C233.547 105.436 233.642 106.121 233.869 106.767C234.096 107.413 234.45 108.007 234.91 108.514C235.37 109.022 235.927 109.432 236.548 109.722C237.169 110.011 237.842 110.174 238.526 110.2C241.253 110.174 242.95 108.684 242.95 106.32H243.002Z" fill="#FFF3E8"/>
<path d="M207.2 229.546C207.221 233.039 206.894 236.524 206.222 239.952C205.43 243.881 205.369 247.922 206.042 251.874C206.324 253.292 206.253 254.757 205.836 256.141C205.419 257.525 204.668 258.786 203.65 259.813C202.987 260.785 202.028 261.518 200.915 261.903C199.802 262.288 198.594 262.304 197.471 261.949C196.348 261.595 195.37 260.888 194.681 259.934C193.991 258.98 193.628 257.829 193.645 256.653C193.002 251.797 193.002 251.822 188.115 251.822C184.309 251.822 180.399 251.822 176.721 251.822C175.585 251.65 174.424 251.91 173.471 252.553C172.518 253.196 171.842 254.173 171.577 255.291C171.084 256.638 170.362 257.889 169.443 258.991C168.691 260.358 167.502 261.435 166.067 262.05C164.631 262.665 163.031 262.782 161.521 262.382C160.087 261.931 158.832 261.04 157.932 259.837C157.032 258.633 156.533 257.178 156.506 255.676C156.289 253.835 156.358 251.972 156.711 250.152C157.797 244.917 157.736 239.509 156.531 234.299C155.843 231.294 155.626 228.199 155.888 225.127C155.998 223.713 156.404 222.338 157.08 221.091C157.756 219.844 158.687 218.752 159.812 217.888C160.937 217.023 162.232 216.404 163.612 216.071C164.992 215.738 166.426 215.698 167.822 215.954C176.855 217.397 186.051 217.492 195.111 216.237C202.544 214.978 206.814 218.806 207.174 226.514C207.251 227.491 207.2 228.518 207.2 229.546ZM197.143 231.961C197.297 227.542 196.68 226 194.391 225.23C192.929 224.976 191.427 225.114 190.035 225.629C188.644 226.143 187.414 227.016 186.469 228.159C184.875 230.24 185.466 232.681 185.363 234.967C185.235 238.667 186.392 240.26 189.093 240.646C190.661 241.078 192.336 240.892 193.771 240.128C195.207 239.363 196.294 238.077 196.809 236.535C197.112 235.03 197.224 233.494 197.143 231.961ZM176.387 231.961C176.156 227.619 175.924 226.823 174.612 226.155C173.825 225.654 172.92 225.368 171.988 225.327C171.055 225.285 170.128 225.49 169.3 225.919C168.471 226.349 167.77 226.988 167.267 227.773C166.764 228.559 166.477 229.463 166.433 230.394C166.284 232.104 166.284 233.823 166.433 235.533C166.434 236.28 166.626 237.015 166.99 237.668C167.355 238.32 167.88 238.869 168.516 239.263C169.152 239.657 169.878 239.882 170.625 239.917C171.372 239.952 172.116 239.796 172.786 239.464C175.77 238.41 176.644 236.56 176.387 231.987V231.961Z" fill="#FF7596"/>
<path d="M134.052 224.844C132.74 224.844 131.48 224.639 130.065 224.485C129.134 224.328 128.181 224.362 127.262 224.584C126.344 224.806 125.481 225.211 124.724 225.775C123.967 226.339 123.332 227.051 122.858 227.867C122.383 228.683 122.079 229.586 121.964 230.522C121.655 232.167 122.349 232.783 123.918 232.783C126.285 232.767 128.647 232.595 130.991 232.27C132.165 231.965 133.394 231.941 134.578 232.2C135.763 232.458 136.87 232.992 137.809 233.758C138.748 234.524 139.494 235.5 139.985 236.607C140.476 237.715 140.699 238.922 140.636 240.132C140.636 242.393 140.996 244.628 141.099 246.889C141.083 247.889 141.308 248.879 141.756 249.773C142.203 250.668 142.861 251.441 143.671 252.028C144.739 252.675 145.567 253.652 146.031 254.811C146.495 255.969 146.57 257.247 146.243 258.451C145.919 259.76 145.2 260.938 144.183 261.825C143.166 262.712 141.901 263.265 140.559 263.41C136.35 263.873 132.091 263.489 128.034 262.28C121.36 261.047 114.517 261.047 107.843 262.28C105.398 262.665 102.907 262.665 100.462 262.28C99.0496 262.207 97.7218 261.586 96.761 260.549C95.8002 259.512 95.2825 258.142 95.3179 256.73C95.5234 255.35 96.2235 254.092 97.2879 253.19C98.3524 252.287 99.7087 251.801 101.105 251.822H103.265C103.946 251.811 104.617 251.655 105.234 251.365C105.85 251.075 106.398 250.657 106.84 250.14C107.283 249.622 107.61 249.017 107.801 248.363C107.992 247.71 108.041 247.024 107.946 246.35C107.818 245.63 107.406 245.425 106.738 245.219C102.571 244.114 101.156 242.65 101.336 239.49C101.619 234.685 103.625 232.193 107.843 231.499C108.558 231.429 109.264 231.291 109.952 231.088C110.341 230.95 110.697 230.737 111.002 230.46C111.306 230.182 111.552 229.847 111.724 229.474C111.897 229.1 111.993 228.696 112.006 228.285C112.02 227.874 111.952 227.464 111.804 227.08C111.793 226.723 111.702 226.373 111.536 226.056C111.371 225.74 111.136 225.465 110.848 225.253C110.561 225.04 110.23 224.895 109.879 224.829C109.527 224.763 109.166 224.777 108.821 224.87C107.487 225.017 106.138 224.93 104.834 224.613C103.866 224.413 102.992 223.894 102.353 223.139C101.715 222.385 101.348 221.438 101.311 220.451C101.209 219.47 101.42 218.482 101.915 217.628C102.409 216.774 103.161 216.098 104.063 215.697C105.936 214.787 108.081 214.604 110.081 215.183C117.27 217.095 124.843 217.024 131.994 214.978C134.354 214.173 136.903 214.111 139.299 214.798C140.146 214.94 140.934 215.326 141.564 215.91C142.194 216.493 142.639 217.249 142.844 218.082C143.049 218.916 143.006 219.791 142.719 220.6C142.431 221.409 141.913 222.116 141.228 222.635C140.27 223.511 139.13 224.163 137.889 224.545C136.648 224.927 135.337 225.03 134.052 224.844ZM119.34 249.459C118.954 251.771 120.24 252.953 122.581 253.03C124.921 253.107 126.67 253.03 128.702 253.03C130.734 253.03 131.506 251.668 131.583 249.895C131.814 246.221 130.554 245.014 125.77 244.114C120.986 243.215 119.443 244.705 119.34 249.459Z" fill="#FF7596"/>
<path d="M110.081 87.6664C101.774 86.0991 96.3983 89.9787 91.6658 94.8348C77.6917 108.497 69.4202 126.941 68.5179 146.453C68.3691 155.199 69.9873 163.886 73.276 171.993C73.5847 172.866 73.9448 173.714 74.2792 174.562C74.8707 176.129 75.5394 177.902 73.3018 178.647C71.0642 179.392 70.4469 177.722 69.8039 176.078C58.7444 148.611 63.5025 123.457 80.8634 100.153C85.6564 93.5795 91.4339 87.782 97.9929 82.9644C103.102 79.0722 109.394 77.0497 115.817 77.2348C120.343 77.3889 124.87 77.2347 129.371 77.4146C135.489 77.5179 141.579 76.5706 147.375 74.614C148.932 74.0737 150.613 74.0022 152.21 74.4085C153.309 74.6546 154.317 75.2023 155.12 75.9899C155.924 76.7774 156.491 77.7735 156.759 78.866C157.026 79.9584 156.983 81.1037 156.634 82.1728C156.284 83.242 155.643 84.1924 154.782 84.9171C149.777 89.9219 143.011 92.7715 135.93 92.8564C130.587 92.7192 125.259 92.2214 119.983 91.3662C117.634 91.0387 115.242 91.2104 112.964 91.8701C110.686 92.5298 108.573 93.6627 106.763 95.1946C92.327 107.455 82.6521 124.384 79.4231 143.036C77.1515 153.619 77.478 164.595 80.3748 175.024C80.7606 176.335 80.8377 177.594 79.3202 178.108C77.8028 178.621 76.7483 177.697 76.2853 176.36C74.8927 172.493 74.0781 168.441 73.8676 164.336C72.6695 150.919 74.6612 137.41 79.6805 124.908C84.6998 112.406 92.6047 101.265 102.751 92.394C104.958 90.4793 107.426 88.8875 110.081 87.6664ZM109.31 82.5276C117.283 85.3026 124.87 88.0004 133.023 88.3087C136.2 88.5167 139.386 88.0972 142.401 87.0744C145.415 86.0516 148.198 84.4455 150.59 82.3478C151.336 81.7054 152.468 81.0117 151.825 79.7784C151.182 78.5451 149.973 78.6735 148.815 79.0846L147.041 79.5472C140.4 81.6577 133.409 82.4434 126.465 81.8596C120.739 81.4441 114.985 81.6682 109.31 82.5276Z" fill="#FF7596"/>
<path d="M33.5131 141.032C33.8732 107.63 53.3174 60.1999 98.7388 41.9832C100.076 41.4693 101.439 40.9811 102.828 40.57C103.453 40.3032 104.157 40.294 104.789 40.5443C105.42 40.7946 105.926 41.2842 106.198 41.9061C106.892 43.4478 105.966 44.4754 104.757 45.2206C100.976 47.5073 97.0412 49.5114 93.4147 52.055C80.5764 60.9466 69.7458 72.4272 61.6212 85.7566C53.4967 99.086 48.2585 113.968 46.2445 129.444C43.8464 144.026 45.4736 158.985 50.9512 172.712C51.7228 174.588 52.8544 176.72 50.7197 178.287C48.5849 179.855 46.1158 178.673 44.2126 177.337C42.3327 175.889 40.8761 173.963 39.9945 171.761C35.4621 162.164 33.2423 151.64 33.5131 141.032ZM63.1681 74.2286L62.2679 75.1792L61.2391 76.6438C59.6461 78.1489 58.4756 80.0446 57.8441 82.1422C59.9531 81.0117 60.6733 78.8791 61.8565 77.0035L62.7566 75.5646L63.5282 74.4855C63.7597 74.2286 64.1455 73.9974 63.6568 73.6633C63.6311 73.6633 63.3482 74.0744 63.1681 74.2286ZM44.5469 168.061C40.7161 154.487 39.8391 140.251 41.9749 126.309C43.7496 111.818 49.3823 98.6889 56.4295 86.0476C56.9696 85.1227 58.1528 84.2491 57.4326 82.7589C56.018 83.4526 55.6065 84.8144 54.8606 85.8935C47.1689 98.5489 41.9335 112.539 39.4287 127.132C36.5301 140.891 38.014 155.212 43.6725 168.087C44.0253 169.733 44.8059 171.257 45.9358 172.506C45.8194 170.938 45.3442 169.417 44.5469 168.061ZM46.3474 173.2H46.1673C46.1488 173.24 46.1392 173.284 46.1392 173.329C46.1392 173.373 46.1488 173.417 46.1673 173.457C46.1673 173.688 46.3474 173.688 46.4245 173.457C46.5017 173.226 46.3731 173.226 46.3474 173.123V173.2Z" fill="#FF7596"/>
<path d="M148.867 39.4912C149.813 39.6481 150.75 39.8626 151.67 40.1335C152.178 40.2673 152.617 40.5878 152.898 41.0309C153.179 41.474 153.283 42.0069 153.188 42.523C153.15 42.9913 152.939 43.429 152.598 43.7516C152.256 44.0742 151.806 44.259 151.336 44.2701C147.941 44.5014 144.546 44.6812 141.177 44.784C140.653 44.8056 140.139 44.6384 139.728 44.313C139.317 43.9876 139.037 43.5256 138.939 43.0112C138.745 42.4213 138.73 41.7875 138.894 41.1889C139.059 40.5903 139.397 40.0535 139.865 39.6453C142.069 37.7973 144.487 36.2188 147.066 34.9433C149.713 33.6175 152.243 32.0704 154.628 30.3185C152.76 29.9237 150.815 30.1306 149.072 30.9094C143.002 32.5938 137.444 35.754 132.895 40.1078C128.444 44.3773 123.294 47.8534 117.669 50.3852C100.571 57.664 85.458 68.9122 73.5846 83.1958C61.8277 98.005 54.7459 115.973 53.2402 134.814C52.183 147.929 53.7748 161.123 57.9212 173.611C58.4099 175.23 60.3646 177.62 57.4068 178.545C54.8348 179.315 54.3976 176.566 53.7803 174.87C47.1904 155.93 46.4836 135.443 51.7525 116.094C57.0215 96.7454 68.0203 79.4389 83.3068 66.4437C93.4346 57.9878 104.687 50.9752 116.743 45.6062C121.312 43.4969 125.508 40.6593 129.165 37.2044C135.8 30.4896 144.584 26.3157 153.985 25.4111C156.557 25.2312 159.695 24.6403 160.852 27.9804C162.01 31.3206 159.361 33.1191 157.097 34.6093C154.834 36.0995 152.005 37.6926 148.867 39.4912Z" fill="#FF7596"/>
<path d="M151.207 189.284C143.708 189.284 136.378 187.057 130.148 182.887C123.918 178.717 119.07 172.791 116.218 165.862C113.366 158.934 112.64 151.315 114.131 143.973C115.622 136.631 119.264 129.897 124.594 124.627C129.924 119.357 136.701 115.788 144.066 114.374C151.43 112.959 159.049 113.763 165.955 116.683C172.861 119.602 178.743 124.507 182.853 130.773C186.964 137.039 189.118 144.383 189.041 151.874C188.973 161.842 184.953 171.376 177.861 178.388C170.77 185.4 161.185 189.319 151.207 189.284ZM184.309 151.284C184.203 144.756 182.155 138.407 178.425 133.046C174.695 127.685 169.452 123.554 163.364 121.18C157.276 118.806 150.618 118.295 144.239 119.714C137.859 121.132 132.047 124.415 127.542 129.145C123.037 133.875 120.043 139.837 118.941 146.272C117.84 152.708 118.68 159.325 121.356 165.282C124.032 171.238 128.422 176.264 133.967 179.72C139.512 183.175 145.961 184.904 152.493 184.685C161.11 184.312 169.245 180.61 175.182 174.358C181.118 168.107 184.39 159.797 184.309 151.181V151.284Z" fill="#FF7596"/>
<path d="M145.755 50.231C148.944 50.231 152.313 48.8435 155.348 51.0018C155.708 51.2587 156.505 51.0018 157.123 51.0018C159.395 50.9544 161.64 51.5096 163.628 52.6108C165.616 53.7121 167.276 55.3201 168.439 57.271C169.175 58.4076 169.476 59.7709 169.287 61.1112C169.098 62.4514 168.432 63.6786 167.411 64.568C166.653 65.3597 165.645 65.8642 164.556 65.9954C163.468 66.1266 162.368 65.8764 161.444 65.2874C159.447 64.5883 157.641 63.4317 156.172 61.9103C154.702 60.3888 153.61 58.5448 152.982 56.5259C152.519 54.7273 151.747 54.6503 150.281 54.6246C138.374 54.3662 126.546 56.6142 115.565 61.2224C104.584 65.8305 94.6976 72.6957 86.5473 81.3716C67.849 100.436 60.9818 123.817 61.9849 149.973C62.3785 158.071 63.6988 166.097 65.92 173.894C66.0743 174.485 66.2801 175.05 66.4087 175.641C66.6916 176.977 66.6144 178.211 65.0198 178.545C63.4252 178.879 62.6793 178.108 62.2677 176.746C60.622 171.566 59.3838 166.266 58.5642 160.893C55.5292 140.338 57.2267 120.015 66.8202 101.233C80.8376 73.7149 103.368 57.0398 133.692 51.1303C135.715 50.7525 137.759 50.5036 139.813 50.3852C141.845 50.1282 143.723 50.231 145.755 50.231Z" fill="#FF7596"/>
<path d="M247.22 92.7024C247.312 93.7796 247.086 94.8601 246.569 95.8101C246.053 96.76 245.268 97.5377 244.313 98.0467C243.06 98.5348 241.692 98.6515 240.373 98.3826C239.055 98.1138 237.842 97.4708 236.88 96.5307C232.302 92.7024 230.965 87.9491 233.305 83.8125C233.665 83.1701 233.974 82.4507 234.771 82.3479C240.378 81.7056 247.631 85.8936 247.22 92.7024Z" fill="#FF7596"/>
<path d="M187.91 35.1231C193.799 35.1231 197.683 37.898 198.017 42.3687C198.229 43.5967 197.952 44.8588 197.246 45.8859C196.54 46.913 195.46 47.6239 194.237 47.8671C191.889 48.3378 189.458 48.1713 187.196 47.3851C184.934 46.5988 182.925 45.2215 181.377 43.3964C180.994 42.8808 180.719 42.2936 180.569 41.6697C180.419 41.0457 180.396 40.3979 180.501 39.7648C180.607 39.1318 180.839 38.5265 181.184 37.9851C181.529 37.4436 181.979 36.977 182.508 36.6133C184.094 35.5328 185.994 35.0087 187.91 35.1231Z" fill="#FF7596"/>
<path d="M234.72 72.6099C232.622 72.6563 230.553 72.1245 228.738 71.073C226.923 70.0214 225.433 68.4908 224.432 66.649C223.908 65.9666 223.589 65.1491 223.514 64.2922C223.438 63.4353 223.609 62.5747 224.006 61.8114C224.403 61.048 225.009 60.4136 225.754 59.9825C226.5 59.5515 227.352 59.3417 228.213 59.3777C229.89 59.1079 231.606 59.1805 233.254 59.5912C234.903 60.0019 236.452 60.7421 237.806 61.7672C239.37 62.9748 240.44 64.7103 240.815 66.649C241.458 70.4516 239.349 72.6099 234.72 72.6099Z" fill="#FF7596"/>
<path d="M217.899 107.271C217.899 101.361 221.963 97.1216 226.258 97.8153C227.607 97.9252 228.864 98.5392 229.779 99.5346C230.695 100.53 231.201 101.834 231.196 103.185C231.275 105.24 230.907 107.287 230.116 109.186C229.326 111.085 228.132 112.789 226.618 114.182C226.293 114.541 225.896 114.827 225.453 115.023C225.01 115.219 224.531 115.321 224.046 115.321C223.562 115.321 223.083 115.219 222.64 115.023C222.197 114.827 221.8 114.541 221.474 114.182C220.381 113.387 219.489 112.348 218.869 111.149C218.248 109.949 217.916 108.621 217.899 107.271Z" fill="#FF7596"/>
<path d="M211.649 61.0993C214.025 61.4688 216.241 62.528 218.02 64.1451C219.799 65.7622 221.062 67.866 221.654 70.1949C221.767 70.8527 221.742 71.5267 221.583 72.1747C221.423 72.8228 221.131 73.431 220.726 73.9614C220.321 74.4918 219.81 74.933 219.226 75.2575C218.642 75.582 217.998 75.7829 217.333 75.8475C215.985 75.9528 214.63 75.7916 213.344 75.3733C212.059 74.955 210.869 74.2877 209.842 73.4096C208.814 72.5315 207.971 71.4598 207.358 70.2557C206.746 69.0516 206.378 67.7388 206.273 66.3923C206.218 65.6764 206.32 64.957 206.571 64.2845C206.823 63.612 207.219 63.0024 207.73 62.4984C208.242 61.9944 208.858 61.6081 209.535 61.3665C210.212 61.1248 210.933 61.0336 211.649 61.0993Z" fill="#FF7596"/>
<path d="M207.74 45.2207C210.571 45.3056 213.32 46.1971 215.661 47.7901C216.732 48.436 217.554 49.4243 217.993 50.5947C218.431 51.7652 218.462 53.0493 218.079 54.2392C217.766 55.387 217.065 56.391 216.094 57.0797C215.123 57.7685 213.943 58.0995 212.755 58.0161C209.755 58.1097 206.822 57.1149 204.499 55.2155C202.39 53.5711 200.744 51.5414 201.927 48.638C203.11 45.7346 205.271 45.4006 207.74 45.2207Z" fill="#FF7596"/>
<path d="M194.108 52.569C196.041 52.7312 197.9 53.3823 199.511 54.4612C201.122 55.5401 202.432 57.0111 203.316 58.7354C203.979 59.7312 204.289 60.9205 204.196 62.113C204.103 63.3055 203.612 64.4323 202.801 65.313C202 66.1333 200.947 66.6624 199.81 66.816C198.673 66.9697 197.517 66.739 196.526 66.1608C193.373 64.8482 190.755 62.5131 189.093 59.5319C186.958 55.6779 188.939 52.4919 194.108 52.569Z" fill="#FF7596"/>
<path d="M166.588 33.042C170.703 33.042 173.455 34.9433 174.021 37.6668C174.151 39.1178 173.739 40.5656 172.866 41.7322C171.992 42.8987 170.718 43.7019 169.288 43.9875C166.099 44.8867 162.704 46.12 159.515 43.7819C158.794 43.4092 158.185 42.8516 157.75 42.1663C157.316 41.481 157.072 40.6926 157.043 39.882C157.014 39.0714 157.202 38.2677 157.587 37.5533C157.971 36.839 158.539 36.2397 159.232 35.8169C161.305 34.0971 163.895 33.1203 166.588 33.042Z" fill="#FF7596"/>
<path d="M259.025 110.328C259.045 111.413 258.825 112.49 258.38 113.48C257.936 114.47 257.278 115.351 256.453 116.058C255.894 116.683 255.116 117.072 254.279 117.143C253.443 117.215 252.61 116.964 251.952 116.443C250.232 115.287 248.788 113.767 247.721 111.991C246.654 110.215 245.991 108.226 245.779 106.166C245.548 101.901 247.888 100.153 252.029 101.335C253.953 101.978 255.643 103.175 256.888 104.775C258.133 106.375 258.876 108.307 259.025 110.328Z" fill="#FF7596"/>
<path d="M174.587 46.4282C180.245 46.4282 184.437 49.9482 184.412 54.8043C184.484 55.4795 184.397 56.1623 184.158 56.7978C183.918 57.4334 183.533 58.0039 183.033 58.4637C182.533 58.9234 181.931 59.2596 181.277 59.4451C180.624 59.6307 179.935 59.6604 179.268 59.5319C177.266 59.309 175.337 58.6506 173.618 57.6029C171.898 56.5553 170.429 55.144 169.314 53.4683C168.81 52.8051 168.523 52.0032 168.491 51.1713C168.459 50.3395 168.683 49.5178 169.134 48.8177C169.735 47.9568 170.562 47.2783 171.524 46.8567C172.486 46.4351 173.546 46.2869 174.587 46.4282Z" fill="#FF7596"/>
<path d="M182.508 82.8359C183.88 82.9799 185.177 83.5284 186.235 84.4115C187.293 85.2946 188.064 86.4724 188.45 87.7947C189.014 89.219 189.181 90.7697 188.932 92.2812C188.683 93.7928 188.027 95.2082 187.035 96.3764C186.427 96.8536 185.697 97.15 184.928 97.2318C184.16 97.3136 183.383 97.1774 182.688 96.8388C180.631 95.869 179.021 94.1507 178.19 92.035C177.358 89.9194 177.366 87.5662 178.213 85.4566C178.584 84.6399 179.191 83.9533 179.957 83.4859C180.723 83.0186 181.612 82.7921 182.508 82.8359Z" fill="#FF7596"/>
<path d="M248.377 126.746C248.531 122.635 250.126 120.014 252.595 119.809C255.064 119.603 257.199 121.839 257.893 126.13C258.588 130.42 257.688 132.887 255.321 133.838C251.155 135.328 248.171 132.116 248.377 126.746Z" fill="#FF7596"/>
<path d="M180.039 66.7005C184.669 66.7005 188.784 73.535 186.521 77.6202C186.18 78.2228 185.713 78.7445 185.151 79.149C184.589 79.5535 183.946 79.8314 183.266 79.9633C182.587 80.0952 181.886 80.0781 181.213 79.9131C180.541 79.7481 179.912 79.4391 179.371 79.0076C178.009 77.8249 176.998 76.2913 176.45 74.5741C175.901 72.8568 175.835 71.022 176.258 69.2698C176.489 68.4678 176.993 67.7717 177.684 67.3023C178.375 66.833 179.208 66.62 180.039 66.7005Z" fill="#FF7596"/>
<path d="M237.806 136.664C237.878 134.284 238.707 131.99 240.172 130.112C240.517 129.525 241.018 129.045 241.621 128.728C242.224 128.41 242.903 128.268 243.583 128.316C244.262 128.364 244.915 128.601 245.467 129C246.018 129.399 246.447 129.945 246.705 130.575C247.586 132.031 247.995 133.724 247.876 135.421C247.756 137.119 247.114 138.737 246.037 140.056C245.479 140.937 244.64 141.605 243.654 141.95C242.669 142.295 241.596 142.298 240.61 141.957C239.599 141.538 238.767 140.78 238.255 139.814C237.744 138.848 237.585 137.734 237.806 136.664Z" fill="#FF7596"/>
<path d="M228.11 83.1186C228.293 84.8402 227.981 86.5784 227.21 88.1289C227.009 88.8339 226.595 89.4596 226.024 89.9197C225.452 90.3798 224.753 90.6518 224.02 90.6982C223.296 90.721 222.581 90.5311 221.964 90.152C221.347 89.773 220.855 89.2214 220.548 88.5656C219.802 87.3419 219.355 85.9598 219.243 84.5314C219.132 83.1029 219.358 81.6683 219.905 80.3437C220.651 78.4167 221.783 76.6952 224.046 76.9264C226.309 77.1577 227.595 79.1361 228.11 81.3457C228.179 81.9346 228.179 82.5297 228.11 83.1186Z" fill="#FF7596"/>
<path d="M245.959 119.321C245.886 119.963 245.766 120.598 245.599 121.222C244.776 124.049 242.564 125.898 240.455 125.436C237.652 124.794 236.932 122.584 236.7 120.117C236.675 119.403 236.727 118.688 236.855 117.985C237.472 114.413 239.427 112.204 241.999 112.486C244.571 112.769 246.011 115.364 245.959 119.321Z" fill="#FF7596"/>
<path d="M253.007 88.4885C256.967 88.4885 260.723 94.4237 259.282 97.8153C259.003 98.4246 258.541 98.9322 257.961 99.2682C257.38 99.6041 256.71 99.7518 256.042 99.691C255.059 99.5747 254.11 99.2622 253.25 98.7721C252.391 98.2821 251.639 97.6243 251.039 96.8381C250.439 96.052 250.004 95.1533 249.759 94.1956C249.513 93.238 249.463 92.2408 249.612 91.2635C249.822 90.5076 250.261 89.8351 250.869 89.3383C251.477 88.8415 252.223 88.5447 253.007 88.4885Z" fill="#FF7596"/>
<path d="M250.332 80.4722C250.332 82.5791 248.814 83.5298 246.705 83.3242C244.028 83.0133 241.576 81.6779 239.864 79.5986C239.344 79.0165 239.036 78.2764 238.99 77.4979C238.943 76.7193 239.16 75.9478 239.607 75.3079C239.971 74.6822 240.53 74.1927 241.199 73.9144C241.868 73.636 242.609 73.584 243.31 73.7662C246.602 74.2544 250.28 77.6459 250.332 80.4722Z" fill="#FF7596"/>
<path d="M166.871 70.9401C166.8 69.5003 167.197 68.0762 168.002 66.8804C168.38 66.2027 168.951 65.6526 169.643 65.3003C170.334 64.948 171.115 64.8093 171.886 64.9021C173.738 65.1076 174.458 66.5208 174.818 68.0367C175.294 69.5153 175.294 71.1058 174.818 72.5844C174.098 74.6913 173.095 76.644 170.343 76.31C168.028 76.0788 166.871 74.0233 166.871 70.9401Z" fill="#FF7596"/>
<path d="M242.95 106.32C242.95 108.684 241.253 110.174 238.475 110.2C237.79 110.173 237.118 110.011 236.497 109.721C235.876 109.432 235.319 109.022 234.859 108.514C234.399 108.007 234.045 107.413 233.818 106.767C233.591 106.121 233.495 105.436 233.537 104.753C233.537 102.183 234.746 100.642 237.421 100.564C238.91 100.618 240.321 101.248 241.353 102.323C242.385 103.397 242.958 104.831 242.95 106.32Z" fill="#FF7596"/>
<path d="M197.143 231.961C197.19 233.498 197.043 235.035 196.706 236.535C196.191 238.077 195.104 239.363 193.669 240.128C192.233 240.893 190.558 241.078 188.99 240.646C186.289 240.26 185.132 238.667 185.261 234.968C185.261 232.681 184.772 230.24 186.366 228.159C187.323 227.004 188.572 226.125 189.983 225.615C191.394 225.104 192.916 224.98 194.391 225.255C196.68 226.001 197.297 227.542 197.143 231.961Z" fill="#FFF3E8"/>
<path d="M176.387 231.987C176.644 236.56 175.77 238.41 172.786 239.567C172.116 239.899 171.372 240.055 170.625 240.019C169.877 239.984 169.152 239.759 168.516 239.366C167.88 238.972 167.355 238.423 166.99 237.77C166.626 237.118 166.434 236.383 166.433 235.635C166.284 233.926 166.284 232.206 166.433 230.497C166.477 229.565 166.764 228.662 167.267 227.876C167.77 227.091 168.471 226.451 169.3 226.022C170.128 225.593 171.055 225.388 171.988 225.43C172.92 225.471 173.825 225.756 174.612 226.257C175.924 226.9 176.156 227.645 176.387 231.987Z" fill="#FFF3E8"/>
<path d="M119.34 249.459C119.34 244.705 121.269 243.241 125.77 244.063C130.271 244.885 131.815 246.17 131.583 249.844C131.583 251.617 130.94 253.03 128.702 252.979C126.465 252.927 124.613 253.133 122.581 252.979C120.549 252.825 118.955 251.771 119.34 249.459Z" fill="#FFF3E8"/>
<path d="M109.31 82.5277C114.979 81.6873 120.724 81.4804 126.439 81.911C133.383 82.4948 140.374 81.7092 147.015 79.5986L148.79 79.1362C149.947 78.7251 151.156 78.6994 151.799 79.8299C152.442 80.9604 151.31 81.7055 150.564 82.3992C148.172 84.497 145.389 86.1032 142.375 87.126C139.361 88.1488 136.174 88.5681 132.998 88.3601C124.87 88.0004 117.283 85.3026 109.31 82.5277Z" fill="#FFF3E8"/>
<path d="M43.5952 168.087C37.9368 155.212 36.4529 140.892 39.3514 127.132C41.8563 112.539 47.0916 98.5491 54.7834 85.8937C55.4521 84.8145 55.8636 83.4528 57.3554 82.759C58.0755 84.2493 56.8924 85.1228 56.3523 86.0478C49.305 98.689 43.6724 111.741 41.8977 126.31C39.7619 140.251 40.6389 154.487 44.4697 168.062L43.5952 168.087Z" fill="#FFF3E8"/>
<path d="M61.8564 77.1063C60.6733 78.8791 59.953 81.0117 57.844 82.245C58.4755 80.1474 59.646 78.2517 61.239 76.7466L61.8564 77.1063Z" fill="#FF7596"/>
<path d="M43.5952 168.087H44.5468C45.3171 169.45 45.7658 170.97 45.8586 172.532C44.7247 171.276 43.9438 169.742 43.5952 168.087Z" fill="#FFF3E8"/>
<path d="M61.239 76.6438L62.2678 75.1792L62.7565 75.6674C62.4478 76.1556 62.1393 76.618 61.8563 77.1062L61.239 76.6438Z" fill="#FF7596"/>
<path d="M46.3473 173.123C46.3473 173.123 46.3473 173.303 46.3473 173.38C46.3473 173.457 46.1673 173.663 46.0901 173.38C46.0716 173.34 46.062 173.296 46.062 173.252C46.062 173.207 46.0716 173.163 46.0901 173.123H46.3473Z" fill="#FFF3E8"/>
<path d="M62.2678 75.1794L63.168 74.2288L63.5282 74.5884L62.7565 75.6676L62.2678 75.1794Z" fill="#FF7596"/>
<path d="M63.168 74.2288C63.348 74.0746 63.6309 73.7406 63.6567 73.7663C64.1453 74.1003 63.6567 74.3315 63.5281 74.5884L63.168 74.2288Z" fill="#FF7596"/>
</svg>
